<svg width="17" height="17" viewBox="0 0 17 17" fill="none" xmlns="http://www.w3.org/2000/svg">
<path d="M16.2662 2.52851C16.1191 2.31974 15.927 2.14625 15.7025 2.01944C15.478 1.89263 15.2261 1.81539 14.9635 1.79279L3.47439 0.830283C3.18525 0.816333 2.89605 0.913508 2.66773 1.10133C2.43942 1.28915 2.28982 1.55295 2.25047 1.83713C2.21112 2.12131 2.28509 2.40367 2.45679 2.6247C2.6285 2.84574 2.88452 2.98819 3.1709 3.02203L12.0468 3.76463C12.0858 3.76805 12.1223 3.78311 12.1513 3.80779C12.1803 3.83247 12.2006 3.86562 12.2093 3.90285C12.2181 3.94009 12.215 3.97964 12.2004 4.01629C12.1858 4.05293 12.1604 4.08494 12.1276 4.10807L1.01771 11.8873C0.769786 12.0609 0.597271 12.3206 0.538118 12.6093C0.478965 12.8979 0.53802 13.1919 0.702291 13.4265C0.866563 13.6611 1.12259 13.8171 1.41406 13.8602C1.70553 13.9034 2.00856 13.8301 2.25648 13.6565L13.3645 5.87858C13.3975 5.85588 13.4363 5.84317 13.4757 5.84212C13.5151 5.84108 13.5533 5.85175 13.5853 5.87274C13.6172 5.89373 13.6415 5.92405 13.6548 5.95972C13.6681 5.9954 13.6699 6.03476 13.66 6.07264L11.3221 14.6672C11.2765 14.8108 11.2605 14.9605 11.2752 15.1072C11.2898 15.254 11.3347 15.3948 11.4072 15.5211C11.4797 15.6474 11.5783 15.7567 11.6971 15.8424C11.8158 15.9281 11.9523 15.9884 12.0982 16.0197C12.2442 16.051 12.3966 16.0527 12.5464 16.0246C12.6961 15.9964 12.8401 15.9392 12.9696 15.8561C13.0992 15.7731 13.2116 15.6661 13.3002 15.5415C13.3887 15.4169 13.4516 15.2773 13.485 15.131L16.5113 4.00469C16.5802 3.75016 16.5939 3.48699 16.5517 3.23254C16.5094 2.97808 16.4121 2.73813 16.2662 2.52851Z" fill="black"/>
</svg>
