<svg width="177" height="30" viewBox="0 0 177 30" fill="none" xmlns="http://www.w3.org/2000/svg">
<path d="M13.025 29.4C10.465 29.4 8.105 28.9733 5.945 28.12C3.81167 27.24 2.145 26.04 0.945003 24.52C0.73167 24.2533 0.625003 23.9733 0.625003 23.68C0.625003 23.3067 0.825003 22.9467 1.225 22.6C1.43834 22.44 1.665 22.36 1.905 22.36C2.385 22.36 2.81167 22.5867 3.185 23.04C4.27834 24.24 5.65167 25.1733 7.305 25.84C8.985 26.48 10.8917 26.8 13.025 26.8C15.3717 26.8 17.185 26.3733 18.465 25.52C19.745 24.64 20.385 23.4 20.385 21.8C20.385 20.4133 19.7583 19.2933 18.505 18.44C17.2783 17.5867 15.185 16.8267 12.225 16.16C8.35834 15.3067 5.57167 14.24 3.865 12.96C2.185 11.6533 1.345 9.93333 1.345 7.8C1.345 5.58667 2.27834 3.84 4.145 2.56C6.03834 1.25333 8.585 0.599998 11.785 0.599998C14.2117 0.599998 16.3983 1.02667 18.345 1.88C20.3183 2.73333 21.7183 3.88 22.545 5.32C22.705 5.58667 22.785 5.84 22.785 6.08C22.785 6.50667 22.5583 6.88 22.105 7.2C21.9183 7.30667 21.705 7.36 21.465 7.36C20.8783 7.36 20.425 7.13333 20.105 6.68C19.3317 5.56 18.2383 4.70667 16.825 4.12C15.4117 3.50667 13.7317 3.2 11.785 3.2C6.85167 3.2 4.385 4.73333 4.385 7.8C4.385 8.73333 4.63834 9.52 5.145 10.16C5.65167 10.7733 6.465 11.3333 7.585 11.84C8.73167 12.32 10.3183 12.8 12.345 13.28C16.2917 14.2133 19.1317 15.3467 20.865 16.68C22.5983 17.9867 23.465 19.6933 23.465 21.8C23.465 24.1467 22.5183 26 20.625 27.36C18.7583 28.72 16.225 29.4 13.025 29.4ZM40.0516 29.4C37.3582 29.4 34.9316 28.8133 32.7716 27.64C30.6116 26.44 28.9049 24.7467 27.6516 22.56C26.4249 20.3733 25.8116 17.8533 25.8116 15C25.8116 12.12 26.4249 9.6 27.6516 7.44C28.9049 5.25333 30.6116 3.57333 32.7716 2.4C34.9316 1.2 37.3582 0.599998 40.0516 0.599998C42.7449 0.599998 45.1716 1.2 47.3316 2.4C49.4916 3.57333 51.1849 5.25333 52.4116 7.44C53.6649 9.6 54.2916 12.12 54.2916 15C54.2916 17.8533 53.6649 20.3733 52.4116 22.56C51.1849 24.7467 49.4916 26.44 47.3316 27.64C45.1716 28.8133 42.7449 29.4 40.0516 29.4ZM40.0516 26.84C42.2116 26.84 44.1316 26.3733 45.8116 25.44C47.5182 24.5067 48.8516 23.16 49.8116 21.4C50.7982 19.6133 51.2916 17.48 51.2916 15C51.2916 12.4933 50.7849 10.3467 49.7716 8.56C48.7849 6.77333 47.4249 5.42667 45.6916 4.52C43.9849 3.61333 42.0782 3.16 39.9716 3.16C37.8382 3.16 35.9182 3.62667 34.2116 4.56C32.5316 5.49333 31.2116 6.85333 30.2516 8.64C29.2916 10.4267 28.8116 12.5467 28.8116 15C28.8116 17.48 29.2916 19.6133 30.2516 21.4C31.2382 23.16 32.5716 24.5067 34.2516 25.44C35.9582 26.3733 37.8916 26.84 40.0516 26.84ZM62.9041 29C61.2774 29 60.0107 28.5733 59.1041 27.72C58.1974 26.84 57.7441 25.64 57.7441 24.12V2.2C57.7441 1.69333 57.8774 1.30667 58.1441 1.04C58.4107 0.746665 58.7707 0.599998 59.2241 0.599998C59.7041 0.599998 60.0774 0.746665 60.3441 1.04C60.6107 1.30667 60.7441 1.69333 60.7441 2.2V24.2C60.7441 24.8933 60.9307 25.4533 61.3041 25.88C61.7041 26.3067 62.2241 26.52 62.8641 26.52H76.1841C77.2241 26.52 77.7441 26.9333 77.7441 27.76C77.7441 28.16 77.6107 28.4667 77.3441 28.68C77.0774 28.8933 76.6907 29 76.1841 29H62.9041ZM83.4622 29.4C83.0089 29.4 82.6489 29.2667 82.3822 29C82.1155 28.7067 81.9822 28.3067 81.9822 27.8V2.2C81.9822 1.69333 82.1155 1.30667 82.3822 1.04C82.6489 0.746665 83.0089 0.599998 83.4622 0.599998C83.9422 0.599998 84.3155 0.746665 84.5822 1.04C84.8489 1.33333 84.9822 1.72 84.9822 2.2V27.8C84.9822 28.28 84.8489 28.6667 84.5822 28.96C84.3155 29.2533 83.9422 29.4 83.4622 29.4ZM95.7772 29C94.1505 29 92.8839 28.5733 91.9772 27.72C91.0705 26.84 90.6172 25.64 90.6172 24.12V5.8C90.6172 4.30667 91.0572 3.13333 91.9372 2.28C92.8439 1.42666 94.0972 0.999998 95.6972 0.999998H101.297C104.071 0.999998 106.484 1.58667 108.537 2.76C110.617 3.90667 112.217 5.53333 113.337 7.64C114.457 9.74667 115.017 12.2133 115.017 15.04C115.017 17.8667 114.457 20.3333 113.337 22.44C112.217 24.52 110.617 26.1333 108.537 27.28C106.484 28.4267 104.071 29 101.297 29H95.7772ZM100.897 26.52C104.417 26.52 107.137 25.52 109.057 23.52C111.004 21.52 111.977 18.6933 111.977 15.04C111.977 11.3867 111.004 8.54667 109.057 6.52C107.111 4.49333 104.391 3.48 100.897 3.48H95.7372C95.0972 3.48 94.5772 3.69333 94.1772 4.12C93.8039 4.54667 93.6172 5.10667 93.6172 5.8V24.2C93.6172 24.8933 93.8039 25.4533 94.1772 25.88C94.5772 26.3067 95.0972 26.52 95.7372 26.52H100.897Z" fill="black"/>
<path d="M119.829 29.24C119.557 29.24 119.341 29.16 119.181 29C119.037 28.824 118.965 28.584 118.965 28.28V11.744C118.965 11.44 119.037 11.208 119.181 11.048C119.341 10.872 119.557 10.784 119.829 10.784C120.101 10.784 120.317 10.872 120.477 11.048C120.637 11.208 120.717 11.44 120.717 11.744V19.376C121.309 18.592 122.021 18 122.853 17.6C123.701 17.2 124.621 17 125.613 17C127.133 17 128.301 17.424 129.117 18.272C129.949 19.12 130.365 20.336 130.365 21.92V28.28C130.365 28.584 130.285 28.824 130.125 29C129.965 29.16 129.749 29.24 129.477 29.24C129.189 29.24 128.973 29.16 128.829 29C128.685 28.824 128.613 28.584 128.613 28.28V21.92C128.613 19.648 127.541 18.512 125.397 18.512C123.989 18.512 122.853 18.928 121.989 19.76C121.141 20.592 120.717 21.696 120.717 23.072V28.28C120.717 28.568 120.637 28.8 120.477 28.976C120.333 29.152 120.117 29.24 119.829 29.24ZM138.037 29.24C136.645 29.24 135.453 28.96 134.461 28.4C133.469 27.84 132.717 27.096 132.205 26.168C131.709 25.224 131.461 24.208 131.461 23.12C131.461 22.032 131.709 21.024 132.205 20.096C132.717 19.152 133.469 18.4 134.461 17.84C135.453 17.28 136.645 17 138.037 17C139.429 17 140.613 17.28 141.589 17.84C142.581 18.4 143.325 19.152 143.821 20.096C144.333 21.024 144.589 22.032 144.589 23.12C144.589 24.208 144.333 25.224 143.821 26.168C143.325 27.096 142.581 27.84 141.589 28.4C140.613 28.96 139.429 29.24 138.037 29.24ZM138.037 27.728C139.477 27.728 140.629 27.32 141.493 26.504C142.373 25.688 142.813 24.56 142.813 23.12C142.813 21.68 142.373 20.552 141.493 19.736C140.629 18.92 139.477 18.512 138.037 18.512C136.581 18.512 135.413 18.92 134.533 19.736C133.669 20.552 133.237 21.68 133.237 23.12C133.237 24.56 133.669 25.688 134.533 26.504C135.413 27.32 136.581 27.728 138.037 27.728ZM146.631 29.24C146.359 29.24 146.143 29.16 145.983 29C145.839 28.824 145.767 28.584 145.767 28.28V17.96C145.767 17.656 145.839 17.424 145.983 17.264C146.143 17.088 146.359 17 146.631 17C146.919 17 147.135 17.088 147.279 17.264C147.439 17.44 147.519 17.672 147.519 17.96V19.328C147.951 18.608 148.503 18.04 149.175 17.624C149.863 17.208 150.583 17 151.335 17C152.087 17 152.751 17.208 153.327 17.624C153.903 18.024 154.327 18.592 154.599 19.328C155.159 18.576 155.775 18 156.447 17.6C157.135 17.2 157.847 17 158.583 17C159.847 17 160.799 17.392 161.439 18.176C162.079 18.944 162.399 20.088 162.399 21.608V28.28C162.399 28.584 162.319 28.824 162.159 29C161.999 29.16 161.783 29.24 161.511 29.24C160.935 29.24 160.647 28.92 160.647 28.28V21.56C160.647 20.536 160.471 19.776 160.119 19.28C159.783 18.768 159.199 18.512 158.367 18.512C157.663 18.512 157.031 18.728 156.471 19.16C155.911 19.576 155.463 20.184 155.127 20.984V28.28C155.127 28.584 155.047 28.824 154.887 29C154.727 29.16 154.511 29.24 154.239 29.24C153.967 29.24 153.751 29.16 153.591 29C153.447 28.824 153.375 28.584 153.375 28.28V21.92C153.375 20.816 153.175 19.976 152.775 19.4C152.391 18.808 151.839 18.512 151.119 18.512C150.431 18.512 149.815 18.704 149.271 19.088C148.727 19.456 148.295 19.968 147.975 20.624C147.671 21.28 147.519 22.024 147.519 22.856V28.28C147.519 28.568 147.439 28.8 147.279 28.976C147.135 29.152 146.919 29.24 146.631 29.24ZM170.276 29.24C168.196 29.24 166.588 28.704 165.452 27.632C164.316 26.56 163.748 25.04 163.748 23.072C163.748 21.184 164.324 19.704 165.476 18.632C166.628 17.544 168.204 17 170.204 17C171.436 17 172.532 17.2 173.492 17.6C174.452 17.984 175.196 18.536 175.724 19.256C176.268 19.96 176.54 20.768 176.54 21.68C176.54 22.352 176.348 22.872 175.964 23.24C175.596 23.608 175.084 23.792 174.428 23.792H165.548C165.548 25.024 165.964 25.992 166.796 26.696C167.628 27.384 168.788 27.728 170.276 27.728C171.188 27.728 171.972 27.632 172.628 27.44C173.284 27.232 173.9 26.904 174.476 26.456C174.78 26.2 175.028 26.072 175.22 26.072C175.364 26.072 175.5 26.136 175.628 26.264C175.852 26.456 175.964 26.656 175.964 26.864C175.964 27.024 175.868 27.2 175.676 27.392C175.02 28.016 174.252 28.48 173.372 28.784C172.492 29.088 171.46 29.24 170.276 29.24ZM173.9 22.376C174.188 22.376 174.404 22.32 174.548 22.208C174.692 22.08 174.764 21.856 174.764 21.536C174.764 20.96 174.572 20.44 174.188 19.976C173.804 19.512 173.26 19.152 172.556 18.896C171.868 18.64 171.084 18.512 170.204 18.512C168.78 18.512 167.652 18.864 166.82 19.568C166.004 20.256 165.596 21.192 165.596 22.376H173.9Z" fill="#9EFF2B"/>
</svg>
