<svg width="53" height="46" viewBox="0 0 53 46" fill="none" xmlns="http://www.w3.org/2000/svg">
<path d="M28.4801 2.10752L34.7325 13.4635C34.8747 13.7518 35.0984 14.0015 35.3813 14.1877C35.6642 14.3739 35.9964 14.4901 36.3448 14.5249L50.1472 16.3645C50.5471 16.4107 50.9238 16.5582 51.2337 16.7899C51.5435 17.0216 51.774 17.3278 51.8974 17.6728C52.0213 18.0178 52.0331 18.3873 51.932 18.7382C51.8314 19.0891 51.6214 19.4069 51.3269 19.6546L41.378 28.5342C41.1244 28.7476 40.9337 29.0147 40.824 29.3113C40.7139 29.6079 40.6883 29.9245 40.7488 30.2323L43.1476 42.7202C43.2172 43.0794 43.1732 43.4483 43.021 43.7858C42.8687 44.1233 42.6143 44.4155 42.2864 44.6296C41.9589 44.8433 41.5707 44.9699 41.1669 44.9953C40.763 45.0205 40.3591 44.9434 40.0017 44.7721L27.5756 38.8642C27.2574 38.7237 26.9077 38.6508 26.5532 38.6508C26.1987 38.6508 25.849 38.7237 25.5308 38.8642L13.1046 44.7721C12.7471 44.9434 12.3434 45.0205 11.9395 44.9953C11.5356 44.9699 11.1477 44.8433 10.8199 44.6296C10.4921 44.4155 10.2376 44.1233 10.0854 43.7858C9.9332 43.4483 9.88922 43.0794 9.9587 42.7202L12.3574 30.0908C12.4182 29.783 12.3925 29.4664 12.2826 29.1699C12.1728 28.8732 11.9821 28.6061 11.7282 28.3927L1.66143 19.6546C1.36361 19.4002 1.15415 19.0735 1.05846 18.7143C0.962761 18.355 0.984924 17.9784 1.12225 17.6303C1.25959 17.2821 1.5062 16.9772 1.83221 16.7525C2.15824 16.5278 2.54966 16.393 2.95909 16.3645L16.7617 14.5249C17.1101 14.4901 17.4422 14.3739 17.7252 14.1877C18.008 14.0015 18.2317 13.7518 18.3739 13.4635L24.6263 2.10752C24.7966 1.77678 25.0685 1.49676 25.4099 1.30052C25.7513 1.10427 26.148 1 26.5532 1C26.9583 1 27.355 1.10427 27.6965 1.30052C28.0379 1.49676 28.3098 1.77678 28.4801 2.10752Z" stroke="black" stroke-width="2" stroke-linecap="round" stroke-linejoin="round"/>
</svg>
