<svg width="63" height="44" viewBox="0 0 63 44" fill="none" xmlns="http://www.w3.org/2000/svg">
<path d="M1 3.01477L11.4137 8.2704L20.709 6.76114C23.8468 6.25168 27.0625 7.09402 29.4646 9.05463" stroke="black" stroke-width="2" stroke-linecap="round" stroke-linejoin="round"/>
<path d="M51.9392 30.5957L37.2157 40.4014C33.9793 42.557 29.6542 42.5958 26.3742 40.4988L1 24.2781" stroke="black" stroke-width="2" stroke-linecap="round" stroke-linejoin="round"/>
<path d="M62 24.174L51.582 30.8498L35.418 18.6104L29.4723 22.6684C27.0547 24.3185 23.6773 23.874 21.8376 21.6634C20.002 19.4579 20.3562 16.2859 22.639 14.4847L28.8299 9.60003C31.7971 7.25878 35.6544 6.15393 39.5101 6.54083L49.159 7.50893L62 1" stroke="black" stroke-width="2" stroke-linecap="round" stroke-linejoin="round"/>
<path d="M35.4199 18.6428C39.3094 21.8924 44.8254 20.2346 46.8763 17.5818" stroke="black" stroke-linecap="round" stroke-linejoin="round"/>
</svg>
