<svg width="42" height="38" viewBox="0 0 42 38" fill="none" xmlns="http://www.w3.org/2000/svg">
<path d="M7.92285 19L14.0767 23.1539L24.8459 12.077" stroke="black" stroke-width="2" stroke-linecap="round" stroke-linejoin="round"/>
<path d="M36.3846 1H7.15385C5.52175 1 3.95649 1.58351 2.80243 2.62219C1.64835 3.66084 1 5.06958 1 6.53846V37L8.69228 32.8461L16.3846 37L24.0769 32.8461L31.7693 37V5.15384C31.7693 4.05219 32.2554 2.99562 33.1209 2.21664C33.9865 1.43764 35.1606 1 36.3846 1ZM36.3846 1C37.6086 1 38.7827 1.43764 39.6483 2.21664C40.5138 2.99562 41 4.05219 41 5.15384V14.8461H31.7693" stroke="black" stroke-width="2" stroke-linecap="round" stroke-linejoin="round"/>
</svg>
