<svg width="526" height="480" viewBox="0 0 526 480" fill="none" xmlns="http://www.w3.org/2000/svg">
<path d="M346.947 245.915C358.693 261.867 376.94 269.713 391.646 265.555C406.46 261.366 414.212 245.978 414.806 244.755C420.531 232.994 415.833 226.909 421.301 222.463C431.064 214.528 449.755 230.888 463.343 222.468C470.581 217.983 473.329 208.354 473.387 201.978C473.498 190.227 464.514 185.529 467.162 180.283C470.802 173.07 488.35 180.792 502.584 171.378C511.402 165.548 517.788 153.912 515.31 143.924C511.176 127.247 483.285 119.001 469.946 126.206C460.562 131.273 463.003 141.487 451.901 146.922C441.031 152.241 433.961 144.763 426.43 149.854C415.377 157.322 425.275 177.023 413.209 185.965C406.164 191.187 400.666 186.043 393.855 191.148C382.668 199.533 392.364 217.272 383.209 230.967C378.773 237.6 369.19 244.372 346.942 245.915H346.947Z" fill="white"/>
<path d="M383.595 267.26C370.447 267.26 356.08 259.399 346.414 246.271C346.279 246.09 346.26 245.854 346.359 245.652C346.458 245.453 346.666 245.317 346.9 245.301C364.965 244.05 377 239.116 382.667 230.638C386.904 224.301 387.009 217.136 387.108 210.206C387.219 202.52 387.326 195.263 393.457 190.665C397.02 187.995 400.26 187.989 403.394 187.984C406.507 187.979 409.448 187.976 412.814 185.479C418.741 181.086 419.169 173.867 419.581 166.885C419.998 159.837 420.393 153.18 426.057 149.353C429.934 146.733 433.698 147.26 437.686 147.819C441.879 148.406 446.212 149.015 451.608 146.374C457.245 143.614 459.297 139.528 461.28 135.575C463.108 131.934 464.997 128.17 469.629 125.668C476.685 121.857 488.273 122.135 498.466 126.358C507.787 130.219 514.161 136.572 515.948 143.785C518.646 154.675 511.273 166.392 502.96 171.887C495.243 176.989 486.635 177.162 479.714 177.301C473.89 177.419 469.286 177.511 467.751 180.553C466.635 182.764 467.886 184.928 469.62 187.921C471.614 191.37 474.1 195.664 474.039 201.985C473.97 209.293 470.747 218.62 463.699 222.987C456.427 227.491 447.673 225.125 439.948 223.037C432.864 221.122 426.176 219.315 421.724 222.935C419.172 225.01 419.02 227.399 418.791 231.014C418.564 234.612 418.28 239.09 415.397 245.018C414.56 246.736 406.794 261.92 391.831 266.151C389.182 266.901 386.415 267.263 383.595 267.263V267.26ZM348.143 246.447C359.593 261.379 377.263 268.981 391.461 264.965C406.125 260.818 413.894 245.162 414.217 244.498C416.998 238.783 417.275 234.434 417.495 230.94C417.727 227.294 417.91 224.412 420.881 221.996C425.863 217.946 432.878 219.842 440.307 221.849C448.128 223.963 456.218 226.151 462.992 221.954C470.587 217.251 472.694 207.184 472.744 201.978C472.799 195.979 470.407 191.842 468.485 188.517C466.638 185.324 465.179 182.801 466.582 180.018C468.463 176.291 473.418 176.191 479.689 176.065C486.434 175.929 494.826 175.761 502.22 170.875C510.179 165.613 517.252 154.429 514.686 144.071C512.993 137.241 506.892 131.197 497.95 127.494C488.113 123.42 476.991 123.119 470.275 126.746C465.997 129.057 464.279 132.482 462.456 136.11C460.38 140.246 458.234 144.524 452.205 147.473C446.438 150.295 441.688 149.629 437.499 149.041C433.618 148.496 430.266 148.026 426.814 150.358C421.657 153.841 421.282 160.21 420.881 166.953C420.451 174.211 420.009 181.713 413.615 186.452C409.895 189.209 406.592 189.214 403.397 189.217C400.351 189.222 397.473 189.225 394.264 191.63C388.619 195.863 388.522 202.515 388.409 210.219C388.31 216.989 388.199 224.663 383.764 231.297C377.986 239.939 366.006 245.033 348.143 246.444V246.447Z" fill="black"/>
<path d="M365.707 250.02C365.172 250.02 364.633 250.014 364.089 249.999C356.621 249.818 349.344 248.183 342.462 245.143C342.136 244.999 341.995 244.632 342.147 244.323C342.299 244.013 342.686 243.879 343.011 244.023C349.731 246.993 356.834 248.587 364.125 248.766C374.583 249.02 383.954 246.754 391.958 242.022C400.284 237.102 404.396 231.05 411.207 221.028C415.949 214.054 417.926 209.718 419.837 205.526C421.723 201.393 423.505 197.49 427.691 191.407C431.141 186.397 437.562 177.073 448.493 168.831C459.454 160.569 473.169 154.987 488.151 152.69C488.51 152.635 488.839 152.866 488.897 153.201C488.955 153.537 488.712 153.854 488.358 153.909C473.594 156.173 460.086 161.668 449.299 169.799C438.531 177.915 432.185 187.132 428.777 192.084C424.651 198.077 422.892 201.936 421.027 206.017C419.094 210.256 417.095 214.639 412.298 221.697C405.385 231.866 401.215 238.004 392.64 243.071C384.835 247.685 375.779 250.02 365.705 250.02H365.707Z" fill="black"/>
<path d="M341.97 244.07C345.977 245.516 358.3 249.382 372.167 244.679C374.613 243.85 392.128 237.906 394.882 225.245C397.207 214.557 386.969 208.474 390.601 202.229C395.249 194.232 414.001 200.815 419.842 191.428C422.828 186.63 420.914 180.115 420.281 177.954C418.729 172.661 416.23 171.924 411.93 164.752C411.187 163.514 403.501 150.539 406.611 147.892C408.895 145.946 414.283 151.897 422.184 150.166C422.905 150.009 427.906 148.839 430.61 144.653C433.123 140.763 432.259 136.417 431.488 132.805C429.329 122.722 423.675 119.575 425.031 117.169C427.089 113.518 440.696 119.745 460.086 120.362C472.039 120.742 487.855 121.246 496.53 111.412C502.567 104.569 504.155 93.8462 500.542 85.7518C493.453 69.8698 466.7 64.9518 449.412 70.397C440.088 73.3347 438.765 77.6311 428.787 78.9924C414.628 80.9229 410.825 73.1538 400.524 75.4279C386.616 78.4993 374.768 96.8128 376.091 111.955C376.947 121.731 382.965 126.457 380.054 130.36C375.315 136.718 357.394 126.83 350.183 134.195C344.541 139.958 349.164 152.503 350.067 154.945C354.682 167.462 364.412 171.58 362.628 175.745C360.443 180.839 345.637 175.276 340.258 181.938C335.024 188.417 341.777 202.667 347.648 215.053C353.053 226.457 357.549 231.569 355.16 236.752C353.055 241.319 346.872 243.197 341.978 244.07H341.97Z" fill="white"/>
<path d="M358.272 247.562C351.246 247.562 345.364 245.957 341.741 244.648C341.47 244.551 341.299 244.291 341.323 244.016C341.348 243.74 341.564 243.515 341.851 243.462C348.719 242.237 352.992 239.895 354.555 236.503C356.204 232.928 354.232 229.204 350.97 223.032C349.791 220.8 348.451 218.269 347.046 215.302C341.056 202.66 334.265 188.33 339.733 181.558C342.79 177.77 348.498 177.689 353.533 177.618C357.626 177.561 361.161 177.511 362.02 175.507C362.724 173.865 361.089 172.042 358.617 169.285C355.784 166.122 351.901 161.791 349.448 155.145C347.336 149.416 344.56 139.022 349.703 133.77C353.693 129.694 360.711 130.591 366.905 131.384C372.343 132.079 377.48 132.734 379.521 130.001C380.88 128.178 379.968 126.088 378.59 122.922C377.367 120.113 375.845 116.616 375.442 112.005C374.069 96.3226 386.42 77.9068 400.375 74.8249C405.511 73.6891 409.129 74.9744 412.96 76.3331C417.158 77.8229 421.496 79.3626 428.696 78.3816C434.236 77.6262 436.97 75.9868 440.135 74.0878C442.582 72.619 445.115 71.1003 449.21 69.8124C467.424 64.076 494.077 69.6839 501.144 85.5134C504.859 93.8386 503.13 104.897 497.032 111.811C488.153 121.875 471.923 121.359 460.069 120.981C450.922 120.69 442.93 119.134 437.094 117.999C430.93 116.797 426.476 115.932 425.611 117.464C425.2 118.193 425.821 119.208 427.047 121.088C428.588 123.449 430.917 127.014 432.132 132.685C432.866 136.11 433.869 140.8 431.171 144.978C428.409 149.254 423.327 150.555 422.336 150.77C417.646 151.798 413.819 150.243 411.021 149.109C408.98 148.281 407.699 147.803 407.05 148.354C405.224 149.909 408.408 157.629 412.501 164.448C414.285 167.425 415.782 169.311 416.984 170.825C418.724 173.02 419.98 174.604 420.914 177.789C421.563 179.997 423.534 186.72 420.408 191.743C417.205 196.892 410.563 197.469 404.136 198.027C398.533 198.515 393.244 198.974 391.175 202.528C389.579 205.275 390.943 208.005 392.672 211.462C394.592 215.302 396.768 219.656 395.525 225.372C392.973 237.107 378.496 243.189 372.393 245.262C367.425 246.945 362.633 247.562 358.28 247.562H358.272ZM344.356 244.212C350.517 246.101 360.783 247.884 371.945 244.1C376.547 242.539 391.755 236.556 394.244 225.123C395.398 219.811 393.321 215.656 391.49 211.992C389.753 208.517 388.11 205.233 390.029 201.933C392.429 197.804 398.055 197.317 404.009 196.797C410.107 196.267 416.415 195.719 419.279 191.113C422.123 186.544 420.262 180.202 419.649 178.119C418.782 175.161 417.646 173.731 415.931 171.567C414.708 170.025 413.184 168.102 411.358 165.057C409.306 161.634 402.866 150.245 406.169 147.431C407.464 146.326 409.254 147.05 411.518 147.971C414.296 149.099 417.754 150.5 422.029 149.563C422.932 149.366 427.558 148.184 430.049 144.328C432.48 140.564 431.571 136.33 430.845 132.926C429.677 127.473 427.511 124.157 425.932 121.734C424.617 119.722 423.67 118.266 424.454 116.873C425.777 114.528 430.129 115.376 437.346 116.782C443.137 117.909 451.066 119.452 460.102 119.74C471.688 120.11 487.557 120.614 496.027 111.011C501.829 104.433 503.475 93.9095 499.94 85.9881C493.138 70.7514 467.299 65.4059 449.613 70.977C445.67 72.2203 443.206 73.697 440.826 75.1239C437.672 77.015 434.692 78.8039 428.876 79.596C421.35 80.6216 416.649 78.9534 412.501 77.4819C408.701 76.1337 405.42 74.9718 400.667 76.0209C387.265 78.9822 375.411 96.7501 376.737 111.895C377.124 116.315 378.604 119.714 379.792 122.445C381.225 125.734 382.354 128.333 380.581 130.709C378.088 134.054 372.572 133.351 366.734 132.603C360.567 131.816 354.19 131.001 350.658 134.607C347.192 138.148 347.198 145.296 350.677 154.733C353.047 161.165 356.839 165.393 359.609 168.48C362.29 171.47 364.226 173.631 363.227 175.968C362.045 178.728 358.109 178.783 353.555 178.848C348.816 178.917 343.444 178.993 340.768 182.305C335.772 188.493 342.392 202.463 348.233 214.791C349.628 217.734 350.959 220.252 352.136 222.473C355.571 228.968 357.643 232.886 355.751 236.994C354.193 240.375 350.365 242.796 344.361 244.204L344.356 244.212Z" fill="black"/>
<path d="M339.339 244.949C334.718 244.949 330.708 244.265 327.648 243.491C327.3 243.404 327.096 243.066 327.187 242.736C327.278 242.408 327.637 242.211 327.982 242.298C333.359 243.659 341.747 244.732 351.189 242.109C351.755 241.951 365.155 238.135 373.426 227.444C380.513 218.284 379.867 209.317 378.972 196.905C378.538 190.898 378.047 184.089 378.398 176.191C378.856 165.836 380.253 134.326 397.042 114.502C406.766 103.019 421.638 95.5251 441.246 92.2307C452.591 90.3264 465.511 89.891 478.607 90.9769C478.966 91.0058 479.228 91.3048 479.198 91.6458C479.167 91.9841 478.855 92.2386 478.493 92.2071C461.382 90.7907 419.288 90.2005 398.056 115.276C381.538 134.785 380.151 165.985 379.698 176.241C379.35 184.073 379.839 190.846 380.27 196.821C381.148 209.018 381.844 218.652 374.476 228.176C366.091 239.014 353.017 242.89 351.554 243.297C347.204 244.503 343.07 244.952 339.336 244.952L339.339 244.949Z" fill="black"/>
<path d="M267.818 130.684C267.818 130.684 256.185 127.069 257.781 107.421C259.008 92.315 254.915 79.2763 239.14 75.1898C223.368 71.1032 208.551 79.7301 209.029 94.256C209.507 108.782 209.449 120.504 199.47 126.941C186.565 135.263 174.457 129.209 150.558 149.487C120.471 175.014 129.209 252.685 216.198 231.35L267.818 130.686V130.684Z" fill="black"/>
<path d="M242.036 120.181C242.036 120.181 239.656 122.67 234.685 121.797L242.036 120.181Z" fill="white"/>
<path d="M236.748 122.599C236.08 122.599 235.354 122.542 234.564 122.403C234.21 122.34 233.978 122.02 234.042 121.684C234.108 121.348 234.442 121.128 234.798 121.188C239.322 121.983 241.465 119.853 241.554 119.761C241.797 119.512 242.208 119.496 242.47 119.727C242.733 119.958 242.752 120.344 242.512 120.595C242.421 120.69 240.543 122.599 236.743 122.599H236.748Z" fill="black"/>
<path d="M240.22 415.051C240.22 415.051 244.365 427.116 248.511 430.801C252.656 434.484 269.144 441.726 269.373 449.6C269.641 458.746 264.048 460.436 249.069 457.133C238.248 454.746 229.317 448.462 226.127 444.876C223.307 441.708 224.881 439.014 225.569 435.3C226.414 430.744 226.577 426.099 226.577 421.474V413.91L240.217 415.053L240.22 415.051Z" fill="white"/>
<path d="M260.336 459.308C257.406 459.308 253.672 458.783 248.922 457.736C237.858 455.297 228.764 448.8 225.63 445.277C223.166 442.51 223.793 439.976 224.456 437.293C224.622 436.622 224.793 435.927 224.928 435.195C225.806 430.455 225.925 425.6 225.925 421.474V413.91C225.925 413.736 226.002 413.571 226.135 413.453C226.27 413.335 226.45 413.277 226.632 413.293L240.272 414.437C240.532 414.458 240.753 414.626 240.833 414.859C240.874 414.977 244.975 426.817 248.95 430.35C250.051 431.329 252.117 432.606 254.509 434.083C260.98 438.08 269.842 443.557 270.019 449.582C270.132 453.424 269.248 455.94 267.24 457.498C265.686 458.704 263.468 459.308 260.333 459.308H260.336ZM227.226 414.584V421.474C227.226 425.653 227.104 430.576 226.21 435.407C226.069 436.173 225.892 436.884 225.721 437.574C225.058 440.252 224.58 442.185 226.621 444.477C229.648 447.879 238.458 454.159 249.215 456.53C258.489 458.576 263.797 458.578 266.42 456.54C268.091 455.245 268.82 453.044 268.721 449.616C268.563 444.239 260.03 438.967 253.802 435.116C251.361 433.608 249.251 432.304 248.066 431.25C244.221 427.835 240.499 417.773 239.736 415.628L227.226 414.578V414.584Z" fill="black"/>
<path d="M268.784 454.007C268.768 454.007 268.754 454.007 268.737 454.007L263.413 453.639C249.629 452.693 236.735 447.053 227.107 437.765C225.815 436.517 225.105 435.738 225.077 435.704C224.843 435.444 224.873 435.056 225.146 434.833C225.417 434.61 225.828 434.639 226.063 434.898C226.072 434.906 226.776 435.683 228.035 436.897C237.439 445.973 250.038 451.481 263.507 452.407L268.831 452.774C269.19 452.797 269.458 453.094 269.433 453.435C269.408 453.76 269.124 454.007 268.784 454.007Z" fill="black"/>
<path d="M236.641 434.6C236.329 434.6 236.053 434.384 236 434.083C235.942 433.747 236.18 433.427 236.533 433.372C236.602 433.361 243.484 432.236 246.042 429.065C246.26 428.795 246.669 428.742 246.953 428.95C247.238 429.157 247.293 429.545 247.075 429.815C244.202 433.372 237.052 434.539 236.749 434.589C236.713 434.594 236.677 434.597 236.641 434.597V434.6Z" fill="black"/>
<path d="M242.973 438.686C242.672 438.686 242.401 438.486 242.338 438.195C242.263 437.862 242.49 437.534 242.841 437.463C242.907 437.45 249.397 436.118 251.297 433.062C251.479 432.768 251.88 432.671 252.186 432.844C252.496 433.018 252.598 433.395 252.415 433.689C250.223 437.212 243.398 438.612 243.108 438.67C243.064 438.678 243.017 438.683 242.973 438.683V438.686Z" fill="black"/>
<path d="M249.787 442.544C249.522 442.544 249.276 442.389 249.176 442.143C249.052 441.823 249.223 441.469 249.56 441.348C249.613 441.33 254.91 439.426 256.448 436.365C256.603 436.058 256.992 435.927 257.315 436.073C257.638 436.22 257.776 436.59 257.622 436.897C255.857 440.412 250.251 442.421 250.013 442.505C249.939 442.531 249.861 442.544 249.787 442.544Z" fill="black"/>
<path d="M208.255 385.372C207.749 385.372 200.541 384.693 196.374 384.296C194.755 384.142 193.311 385.256 193.137 386.794L192.32 393.965C192.03 396.498 191.494 399.003 190.743 401.451C189.376 405.894 187.36 413.55 188.464 417.041C189.644 420.779 193.333 425.983 195.769 428.944C196.893 430.311 198.79 430.854 200.522 430.303C203.618 429.317 208.564 427.42 211.467 424.664C215.924 420.43 211.11 412.302 211.11 412.302L208.258 385.374L208.255 385.372Z" fill="white"/>
<path d="M199.158 431.129C197.661 431.129 196.208 430.484 195.256 429.322C192.566 426.051 189.009 420.918 187.84 417.217C186.741 413.734 188.473 406.626 190.119 401.275C190.873 398.828 191.395 396.346 191.674 393.897L192.494 386.725C192.707 384.861 194.485 383.494 196.443 383.68C203.477 384.349 207.893 384.75 208.258 384.753C208.589 384.753 208.871 384.994 208.904 385.309L211.743 412.11C212.353 413.186 216.432 420.816 211.925 425.097C209.017 427.859 204.231 429.768 200.729 430.885C200.216 431.051 199.685 431.129 199.161 431.129H199.158ZM196.079 384.9C194.916 384.9 193.911 385.739 193.784 386.859L192.963 394.03C192.676 396.551 192.138 399.106 191.362 401.624C190.055 405.873 188.02 413.503 189.08 416.866C190.124 420.176 193.447 425.128 196.275 428.567C197.225 429.721 198.846 430.185 200.31 429.718C203.069 428.84 208.128 426.956 211 424.228C215.054 420.378 210.583 412.682 210.536 412.603C210.492 412.53 210.464 412.446 210.456 412.362L207.658 385.954C206.244 385.844 202.439 385.495 196.305 384.913C196.228 384.905 196.15 384.902 196.076 384.902L196.079 384.9Z" fill="black"/>
<path d="M202.467 429.946C202.262 429.946 202.063 429.857 201.936 429.687C193.11 417.894 193.709 414.807 195.018 408.037C195.286 406.649 195.59 405.078 195.841 403.242C196.507 398.353 198.498 384.91 198.517 384.777C198.567 384.438 198.901 384.205 199.252 384.252C199.608 384.299 199.854 384.611 199.804 384.95C199.785 385.083 197.794 398.521 197.131 403.402C196.877 405.27 196.57 406.859 196.297 408.262C195.054 414.678 194.488 417.605 202.997 428.973C203.204 429.251 203.135 429.637 202.845 429.834C202.732 429.91 202.599 429.946 202.469 429.946H202.467Z" fill="black"/>
<path d="M201.271 409.406C200.953 409.406 200.677 409.186 200.627 408.879C200.575 408.54 200.82 408.228 201.177 408.178L209.302 407.043C209.652 406.993 209.987 407.226 210.039 407.565C210.092 407.903 209.846 408.215 209.49 408.265L201.365 409.401C201.331 409.406 201.301 409.409 201.268 409.409L201.271 409.406Z" fill="black"/>
<path d="M202.107 414.966C201.79 414.966 201.514 414.746 201.464 414.439C201.411 414.101 201.657 413.789 202.013 413.739L210.138 412.603C210.489 412.553 210.823 412.787 210.876 413.125C210.928 413.463 210.682 413.776 210.326 413.825L202.201 414.961C202.168 414.966 202.138 414.969 202.105 414.969L202.107 414.966Z" fill="black"/>
<path d="M210.943 417.498C215.679 420.6 225.707 424.598 242.556 419.795L234.823 257.508L203.083 251.751C203.083 251.751 198.94 292.1 203.439 332.703C207.546 369.765 207.714 401.359 207.645 411.394C207.629 413.82 208.838 416.123 210.94 417.5L210.943 417.498Z" fill="black"/>
<path d="M204.51 247.008L280.471 251.074L277.887 329.967C277.586 339.179 274.589 348.123 269.231 355.806C260.642 368.126 246.922 386.248 236.069 393.332C218.951 404.509 204.508 247.008 204.508 247.008H204.51Z" fill="black"/>
<path d="M242.258 390.623C241.912 390.623 241.625 390.366 241.609 390.036L239.098 338.909C239.082 338.568 239.358 338.28 239.717 338.264C240.065 338.248 240.38 338.51 240.396 338.851L242.907 389.978C242.923 390.319 242.647 390.607 242.288 390.623C242.277 390.623 242.269 390.623 242.258 390.623Z" fill="white"/>
<path d="M168.589 267.137C168.111 267.061 167.639 267.305 167.448 267.727C166.57 269.673 164.093 274.5 160.243 276.304C157.506 277.584 155.048 278.4 151.715 281.401C148.384 284.401 142.665 292.173 143.913 294.088C145.396 296.362 150.143 294.043 153.794 291.929C157.443 289.815 161.072 284.74 164.623 284.228C168.175 283.717 160.663 291.835 161.734 293.115C162.809 294.395 166.636 292.493 169.092 288.653C170.061 287.137 175.855 273.773 177.603 269.726C177.86 269.133 177.468 268.469 176.802 268.365L168.589 267.137Z" fill="white"/>
<path d="M145.926 295.656C144.838 295.656 143.941 295.297 143.363 294.413C141.684 291.835 148.655 283.308 151.27 280.952C154.142 278.366 156.443 277.335 158.669 276.338C159.094 276.147 159.522 275.955 159.959 275.751C163.582 274.054 165.987 269.406 166.855 267.486C167.164 266.801 167.918 266.408 168.697 266.529L176.907 267.756C177.429 267.84 177.868 268.134 178.122 268.567C178.374 268.997 178.407 269.506 178.208 269.962C175.957 275.176 170.616 287.468 169.652 288.976C167.581 292.215 164.695 294.02 162.919 294.127C162.002 294.182 161.494 293.818 161.232 293.503C160.525 292.658 161.4 291.153 163.013 288.564C163.748 287.384 164.955 285.445 164.946 284.826C164.899 284.826 164.827 284.826 164.725 284.842C162.792 285.12 160.66 287.051 158.6 288.915C157.153 290.227 155.653 291.583 154.14 292.459C151.375 294.059 148.23 295.659 145.929 295.659L145.926 295.656ZM168.415 267.74C168.258 267.74 168.111 267.83 168.048 267.971C167.125 270.017 164.546 274.98 160.533 276.858C160.091 277.065 159.655 277.259 159.224 277.453C156.992 278.453 154.888 279.397 152.165 281.847C148.55 285.102 143.584 292.407 144.468 293.763C145.363 295.134 148.387 294.34 153.457 291.402C154.852 290.594 156.299 289.285 157.699 288.018C159.906 286.02 162.19 283.955 164.526 283.617C165.405 283.491 165.827 283.798 166.026 284.079C166.678 284.994 165.777 286.539 164.129 289.186C163.416 290.332 162.231 292.231 162.278 292.763C162.389 292.863 162.577 292.908 162.834 292.892C164.259 292.805 166.783 291.077 168.539 288.333C169.288 287.163 173.403 277.833 177.004 269.492C177.067 269.346 177.018 269.225 176.985 269.165C176.949 269.104 176.866 268.999 176.697 268.973L168.49 267.746C168.49 267.746 168.487 267.746 168.484 267.746C168.462 267.743 168.44 267.74 168.418 267.74H168.415Z" fill="black"/>
<path d="M346.67 82.3736L344.463 83.3494C339.498 85.55 335.99 89.9277 335.084 95.0608L333.416 104.503L341.541 106.321C341.541 106.321 350.318 99.4307 351.229 89.5684C351.961 88.9835 352.638 87.8136 353.569 88.0104C357.772 88.8995 358.159 87.5723 357.211 85.7494C355.306 82.0851 350.569 80.6451 346.67 82.371V82.3736Z" fill="white"/>
<path d="M341.544 106.94C341.495 106.94 341.445 106.935 341.395 106.925L333.27 105.107C332.936 105.034 332.721 104.724 332.779 104.404L334.447 94.9614C335.389 89.629 339.031 85.0781 344.193 82.7935L346.397 81.8178C350.653 79.9319 355.767 81.5765 357.797 85.4821C358.405 86.6493 358.452 87.5568 357.935 88.1811C357.267 88.9889 355.836 89.128 353.431 88.6191C353.13 88.5562 352.705 89.0047 352.326 89.3981C352.174 89.5581 352.02 89.7208 351.857 89.8703C350.818 99.743 342.323 106.518 341.959 106.804C341.84 106.896 341.694 106.946 341.544 106.946V106.94ZM334.16 104.037L341.368 105.65C342.762 104.467 349.791 98.0958 350.584 89.5162C350.597 89.3535 350.68 89.204 350.813 89.0991C350.987 88.9601 351.169 88.7686 351.362 88.5667C351.948 87.9555 352.677 87.1949 353.713 87.4126C356.306 87.9608 356.833 87.5122 356.913 87.4152C357.082 87.2106 356.977 86.6912 356.632 86.0276C354.911 82.7201 350.567 81.3326 346.946 82.9378L344.743 83.9135C339.97 86.0276 336.601 90.2349 335.731 95.166L334.162 104.039L334.16 104.037Z" fill="black"/>
<path d="M340.243 97.9883C340.133 97.9883 340.022 97.9621 339.92 97.907C339.608 97.7365 339.5 97.3614 339.68 97.065L340.771 95.2604C342.941 91.667 346.83 89.3089 351.177 88.9575C351.53 88.926 351.848 89.1804 351.881 89.5188C351.912 89.8598 351.646 90.1562 351.287 90.1876C347.366 90.505 343.856 92.6322 341.898 95.8742L340.807 97.6788C340.685 97.8781 340.467 97.9883 340.243 97.9883Z" fill="black"/>
<path d="M243.595 131.955C250.367 130.502 257.312 129.933 264.244 130.293C272.173 130.702 282.201 131.866 288.766 134.982C301.069 140.826 306.954 147.937 314.176 145.144C320.238 142.799 328.159 113.904 330.548 104.677C330.957 103.103 332.594 102.117 334.268 102.434L341.857 103.877C343.445 104.178 344.544 105.561 344.412 107.093C343.335 119.355 338.245 169.521 326.748 173.086C313.641 177.152 280.743 160.892 280.743 160.892C280.743 160.892 281.011 222.623 289.569 255.137C289.569 255.137 276.062 255.069 267.279 258.523C220.457 276.944 200.692 255.137 200.692 255.137C200.987 242.513 203.906 233.857 213.484 219.774C218.72 212.076 220.223 199.638 209.863 188.412C209.863 188.412 184.629 262.445 179.926 271.166C179.603 271.764 164.066 268.485 164.035 268.139C161.519 241.592 180.694 192.066 183.481 180.055C184.326 176.414 185.45 172.837 186.966 169.395C191.694 158.662 202.263 141.065 221.99 136.588L243.6 131.953L243.595 131.955Z" fill="white"/>
<path d="M179.545 271.858C178.777 271.858 177.313 271.664 174.397 271.127C172.198 270.723 169.586 270.185 167.407 269.694C163.438 268.797 163.43 268.695 163.38 268.197C161.447 247.78 172.218 213.996 178.655 193.81C180.63 187.62 182.187 182.728 182.839 179.924C183.756 175.982 184.905 172.459 186.36 169.159C190.95 158.736 201.66 140.567 221.832 135.987L243.448 131.35C250.311 129.878 257.317 129.312 264.277 129.671C271.83 130.059 282.261 131.2 289.052 134.426C293.104 136.352 296.443 138.397 299.389 140.205C305.404 143.893 309.379 146.329 313.927 144.569C318.528 142.788 325.203 122.717 329.915 104.525C330.406 102.628 332.375 101.44 334.394 101.826L341.984 103.268C343.897 103.633 345.217 105.298 345.057 107.142C343.768 121.831 338.65 170.043 326.946 173.674C325.421 174.146 323.646 174.355 321.699 174.355C308.186 174.355 286.315 164.26 281.397 161.904C281.482 170.062 282.352 225.191 290.196 254.988C290.245 255.174 290.201 255.368 290.077 255.517C289.953 255.667 289.754 255.756 289.563 255.753C289.433 255.753 276.086 255.725 267.527 259.092C243.161 268.679 226.184 267.232 216.234 264.328C205.386 261.162 200.404 255.767 200.197 255.538C200.092 255.423 200.036 255.273 200.039 255.121C200.346 242.009 203.48 233.338 212.936 219.436C217.651 212.506 219.636 200.653 210.12 189.65C206.902 199.069 184.924 263.242 180.503 271.444C180.379 271.675 180.282 271.853 179.545 271.853V271.858ZM164.645 267.738C166.689 268.409 177.539 270.618 179.478 270.628C184.433 260.944 208.99 188.955 209.241 188.223C209.313 188.011 209.498 187.853 209.727 187.809C209.957 187.764 210.194 187.84 210.346 188.005C221.189 199.756 219.103 212.645 214.025 220.11C204.781 233.702 201.677 242.195 201.343 254.904C202.279 255.837 207.236 260.433 216.706 263.176C226.441 265.996 243.075 267.378 267.028 257.954C274.675 254.946 285.631 254.571 288.737 254.526C280.45 222.112 280.091 161.508 280.088 160.895C280.088 160.679 280.204 160.477 280.4 160.365C280.593 160.252 280.836 160.244 281.038 160.344C281.364 160.504 313.844 176.436 326.54 172.498C335.237 169.802 341.136 136.916 343.759 107.04C343.867 105.82 342.992 104.721 341.727 104.48L334.137 103.038C332.801 102.783 331.5 103.567 331.177 104.821C328.2 116.318 320.605 143.318 314.419 145.713C309.243 147.717 304.816 144.999 298.685 141.243C295.766 139.455 292.46 137.427 288.472 135.533C281.88 132.404 271.64 131.289 264.208 130.906C257.367 130.555 250.482 131.108 243.738 132.556L222.127 137.191C202.525 141.642 192.055 159.428 187.562 169.637C186.14 172.868 185.01 176.32 184.112 180.192C183.45 183.043 181.884 187.953 179.904 194.169C173.532 214.154 162.891 247.525 164.648 267.738H164.645Z" fill="black"/>
<path d="M244.868 260.498C244.771 260.498 244.674 260.477 244.583 260.435C244.26 260.286 244.128 259.916 244.285 259.609L262.83 223.706C262.987 223.399 263.377 223.274 263.7 223.423C264.023 223.573 264.156 223.942 263.998 224.249L245.453 260.152C245.34 260.37 245.108 260.498 244.868 260.498Z" fill="black"/>
<path d="M265.277 237.5C265.194 237.5 265.111 237.485 265.028 237.453C264.697 237.322 264.539 236.963 264.675 236.648L269.756 224.963C269.894 224.648 270.273 224.498 270.604 224.627C270.936 224.758 271.093 225.117 270.958 225.432L265.876 237.117C265.774 237.356 265.531 237.5 265.274 237.5H265.277Z" fill="black"/>
<path d="M228.526 115.803L226.093 133.435L216.93 138.085C216.93 138.085 220.437 145.333 232.569 146.114C244.699 146.896 250.435 136.572 251.117 132.323L243.597 131.953L241.028 116.323L228.526 115.803Z" fill="white"/>
<path d="M233.873 146.778C233.431 146.778 232.984 146.765 232.525 146.733C220.153 145.936 216.491 138.655 216.339 138.345C216.195 138.049 216.32 137.697 216.623 137.543L225.491 133.042L227.88 115.725C227.924 115.407 228.2 115.171 228.554 115.187L241.056 115.706C241.366 115.72 241.622 115.937 241.669 116.228L244.155 131.365L251.15 131.709C251.333 131.717 251.504 131.801 251.62 131.935C251.736 132.071 251.786 132.244 251.758 132.417C251.123 136.381 245.726 146.775 233.873 146.778ZM217.825 138.335C218.885 139.943 222.909 144.876 232.614 145.503C243.843 146.227 249.264 137.12 250.333 132.905L243.561 132.572C243.255 132.556 243.001 132.339 242.954 132.05L240.468 116.918L229.095 116.446L226.74 133.516C226.712 133.713 226.585 133.886 226.4 133.981L217.825 138.335Z" fill="black"/>
<path d="M247.331 102.463C246.845 102.348 246.323 102.51 245.837 102.875C245.829 102.775 245.82 102.673 245.809 102.576V91.924C233.147 100.658 230.796 95.0741 222.796 97.5738C222.796 97.5738 222.71 102.523 222.685 102.87C222.202 102.508 221.683 102.348 221.199 102.463C219.968 102.757 219.418 104.7 219.973 106.807C220.512 108.842 222.683 111.108 223.942 110.993C225.875 116.365 229.769 120.991 234.265 120.991C238.761 120.991 242.653 116.365 244.589 110.993C245.845 111.111 248.019 108.845 248.557 106.807C249.112 104.7 248.565 102.754 247.331 102.463Z" fill="white"/>
<path d="M234.265 121.611C229.101 121.611 225.265 116.291 223.47 111.575C221.824 111.242 219.86 108.908 219.346 106.959C219.051 105.839 219.032 104.716 219.291 103.795C219.587 102.749 220.208 102.062 221.045 101.865C221.379 101.786 221.724 101.792 222.067 101.878C222.092 100.766 222.125 98.9194 222.149 97.5633C222.155 97.301 222.335 97.0702 222.597 96.9863C225.604 96.0473 227.863 96.2046 230.048 96.3542C233.895 96.6217 237.53 96.8735 245.434 91.423C245.632 91.2866 245.895 91.2682 246.11 91.3732C246.328 91.4781 246.464 91.6905 246.464 91.924V101.881C246.809 101.792 247.157 101.786 247.491 101.868C249.096 102.251 249.841 104.488 249.19 106.961C248.676 108.91 246.709 111.245 245.064 111.578C243.268 116.294 239.432 121.613 234.268 121.613L234.265 121.611ZM223.942 110.376C224.218 110.376 224.467 110.542 224.558 110.793C226.276 115.562 229.94 120.375 234.265 120.375C238.59 120.375 242.255 115.562 243.973 110.793C244.069 110.523 244.348 110.348 244.652 110.379C245.431 110.45 247.422 108.567 247.925 106.657C248.411 104.818 247.927 103.242 247.171 103.061C246.834 102.98 246.478 103.179 246.24 103.357C246.052 103.499 245.798 103.531 245.577 103.439C245.356 103.347 245.207 103.15 245.188 102.922L245.16 102.636C245.16 102.615 245.157 102.594 245.157 102.571V93.1148C237.557 98.1115 233.691 97.844 229.946 97.5843C227.908 97.4427 225.98 97.3089 223.436 98.025C223.414 99.2971 223.354 102.607 223.334 102.909C223.318 103.137 223.169 103.339 222.95 103.431C222.732 103.523 222.475 103.494 222.285 103.352C222.047 103.174 221.694 102.98 221.36 103.061C221.009 103.145 220.711 103.528 220.548 104.115C220.346 104.826 220.368 105.752 220.608 106.657C221.111 108.567 223.097 110.45 223.881 110.379C223.903 110.379 223.925 110.376 223.945 110.376H223.942Z" fill="black"/>
<path d="M396.808 161.355L395.936 161.872L368.547 120.242L376.353 115.61L399.409 150.653C401.8 154.287 400.635 159.084 396.808 161.355Z" fill="black"/>
<path d="M357.437 124.698C362.273 132.048 372.464 134.282 380.202 129.69C387.941 125.097 390.294 115.418 385.458 108.069C380.622 100.719 370.431 98.4844 362.693 103.077C354.955 107.67 352.602 117.349 357.437 124.698ZM363.53 111.964C362.356 110.18 362.928 107.827 364.806 106.713C366.684 105.598 369.161 106.141 370.335 107.924C371.508 109.708 370.937 112.061 369.059 113.176C367.181 114.29 364.703 113.747 363.53 111.964Z" fill="black"/>
<path d="M398.94 160.059L396.778 161.342L369.389 119.712L377.195 115.08L401.059 151.35C403.005 154.309 402.056 158.212 398.942 160.061L398.94 160.059Z" fill="black"/>
<path d="M358.277 124.176C363.113 131.525 373.304 133.76 381.042 129.167C388.78 124.575 391.133 114.896 386.298 107.546C381.462 100.197 371.271 97.9621 363.533 102.555C355.794 107.148 353.441 116.826 358.277 124.176ZM364.37 111.441C363.196 109.658 363.768 107.305 365.646 106.19C367.523 105.076 370.001 105.619 371.174 107.402C372.348 109.186 371.777 111.538 369.899 112.653C368.021 113.768 365.543 113.225 364.37 111.441Z" fill="black"/>
<path d="M372.426 129.855C367.344 129.855 362.376 127.447 359.49 123.061C355.041 116.299 357.214 107.363 364.334 103.137C367.783 101.091 371.865 100.444 375.825 101.312C379.789 102.18 383.155 104.462 385.312 107.738C387.466 111.014 388.151 114.891 387.234 118.652C386.317 122.413 383.917 125.613 380.468 127.662C377.966 129.146 375.179 129.855 372.426 129.855ZM360.592 122.408C364.66 128.593 373.265 130.479 379.778 126.615C382.931 124.743 385.13 121.818 385.967 118.377C386.803 114.935 386.179 111.389 384.207 108.394C382.235 105.398 379.156 103.31 375.533 102.516C371.909 101.721 368.175 102.314 365.022 104.186C358.509 108.05 356.524 116.226 360.592 122.408Z" fill="white"/>
<path d="M365.944 111.032C362.953 111.032 360.368 110.154 358.236 108.412C352.478 103.701 352.078 94.4002 352.061 94.0067C352.061 93.9516 352.064 93.8966 352.078 93.8415C352.426 92.4644 353.124 91.6644 354.152 91.4703C357.54 90.8277 363.149 98.0041 363.776 98.8251C363.986 99.1005 363.923 99.4861 363.633 99.688C363.343 99.8874 362.937 99.8271 362.724 99.5516C360.54 96.7005 356.336 92.3149 354.406 92.6821C353.933 92.7713 353.583 93.2303 353.362 94.0461C353.414 94.9694 354.03 103.347 359.084 107.478C361.343 109.325 364.204 110.075 367.585 109.705C367.944 109.666 368.264 109.91 368.305 110.248C368.347 110.586 368.09 110.893 367.734 110.933C367.121 111.001 366.521 111.032 365.939 111.032H365.944Z" fill="black"/>
<path d="M84.2983 271.784L106.867 277.337C127.271 282.357 149.701 276.089 170.47 272.668L184.643 270.334L183.022 246.984L99.2752 250.064L84.2983 271.782V271.784Z" fill="white"/>
<path d="M123.576 279.834C117.859 279.834 112.214 279.294 106.704 277.935L84.1356 272.383C83.934 272.333 83.7683 272.194 83.6937 272.007C83.6191 271.821 83.6412 271.614 83.7572 271.446L98.734 249.728C98.85 249.56 99.0434 249.458 99.2532 249.45L183 246.371C183.35 246.358 183.651 246.615 183.674 246.948L185.295 270.297C185.317 270.612 185.085 270.893 184.756 270.945L170.583 273.28C166.672 273.922 162.613 274.685 158.688 275.423C147.067 277.605 135.18 279.837 123.578 279.837L123.576 279.834ZM85.3369 271.404L107.03 276.742C123.44 280.781 141.231 277.44 158.434 274.211C162.367 273.474 166.432 272.71 170.357 272.063L183.953 269.823L182.411 247.627L99.6316 250.67L85.3342 271.402L85.3369 271.404Z" fill="black"/>
<path d="M115.443 429.411L117.73 444.868L128.818 445.731L128.141 427.336L115.443 429.411Z" fill="white"/>
<path d="M128.818 446.347C128.801 446.347 128.782 446.347 128.766 446.347L117.677 445.484C117.373 445.46 117.128 445.24 117.086 444.954L114.8 429.497C114.75 429.166 114.987 428.86 115.333 428.802L128.031 426.727C128.216 426.698 128.407 426.743 128.55 426.856C128.697 426.968 128.782 427.134 128.79 427.312L129.467 445.707C129.473 445.883 129.401 446.053 129.265 446.174C129.144 446.284 128.984 446.344 128.815 446.344L128.818 446.347ZM118.299 444.293L128.141 445.059L127.515 428.065L116.172 429.919L118.299 444.293Z" fill="black"/>
<path d="M129.301 473.337C124.681 473.83 117.122 474.174 108.298 472.778C105.401 472.319 103.54 469.602 104.322 466.913C106.492 459.433 110.27 445.227 116.238 438.753L117.567 442.384L119.646 439.052C119.931 438.596 120.428 438.297 120.983 438.245L124.079 438.111C124.987 438.027 125.813 438.617 125.976 439.472L126.575 442.607L130.055 438.294L130.953 450.397C131.237 454.245 131.74 458.074 132.452 461.87L133.64 468.196C133.919 470.751 131.988 473.051 129.301 473.337Z" fill="black"/>
<path d="M120.994 474.386C117.235 474.386 112.891 474.129 108.19 473.387C106.616 473.138 105.224 472.267 104.368 470.995C103.52 469.736 103.274 468.188 103.694 466.748L104.161 465.13C106.379 457.408 110.09 444.484 115.746 438.347C115.898 438.181 116.133 438.105 116.36 438.147C116.586 438.189 116.774 438.344 116.848 438.551L117.718 440.925L119.083 438.738C119.472 438.116 120.157 437.701 120.914 437.631L124.043 437.494C125.244 437.381 126.387 438.2 126.611 439.362L126.948 441.124L129.536 437.919C129.701 437.715 129.98 437.631 130.237 437.704C130.497 437.778 130.679 437.995 130.698 438.252L131.596 450.355C131.878 454.166 132.38 458.003 133.087 461.764L134.275 468.091C134.598 471.021 132.394 473.631 129.37 473.953C127.13 474.192 124.286 474.389 120.991 474.389L120.994 474.386ZM116.003 439.994C110.941 446.213 107.505 458.176 105.415 465.452L104.948 467.076C104.622 468.196 104.807 469.35 105.465 470.328C106.122 471.307 107.193 471.976 108.406 472.167C117.075 473.539 124.515 473.227 129.229 472.72C131.546 472.474 133.236 470.47 132.993 468.256L131.811 461.974C131.099 458.171 130.591 454.289 130.303 450.436L129.525 439.96L127.089 442.979C126.931 443.173 126.669 443.26 126.42 443.204C126.169 443.147 125.979 442.955 125.934 442.714L125.335 439.58C125.233 439.047 124.711 438.672 124.139 438.724L121.01 438.861C120.695 438.892 120.383 439.081 120.204 439.367L118.124 442.698C117.994 442.905 117.749 443.021 117.5 442.997C117.249 442.974 117.033 442.814 116.951 442.585L116.003 439.997V439.994Z" fill="black"/>
<path d="M118.022 469.321C114.695 469.321 110.994 469.02 107.323 468.123C106.975 468.039 106.766 467.7 106.857 467.37C106.945 467.039 107.299 466.84 107.649 466.927C118.395 469.552 129.818 466.84 129.931 466.814C130.276 466.73 130.632 466.929 130.721 467.26C130.809 467.59 130.599 467.926 130.251 468.01C129.931 468.089 124.739 469.321 118.022 469.321Z" fill="black"/>
<path d="M114.327 457.696C113.97 457.696 113.678 457.421 113.678 457.082C113.678 456.741 113.965 456.463 114.324 456.461L124.689 456.408H124.691C125.048 456.408 125.34 456.684 125.34 457.022C125.34 457.363 125.053 457.641 124.694 457.644L114.33 457.696H114.327Z" fill="black"/>
<path d="M166.869 419.433L169.357 442.016L182.646 441.573L182.431 418.913L166.869 419.433Z" fill="white"/>
<path d="M169.357 442.633C169.026 442.633 168.747 442.394 168.711 442.079L166.222 419.496C166.203 419.325 166.261 419.155 166.38 419.026C166.499 418.898 166.667 418.822 166.847 418.814L182.409 418.297C182.586 418.297 182.754 418.352 182.881 418.468C183.008 418.583 183.08 418.74 183.083 418.908L183.298 441.568C183.301 441.904 183.022 442.179 182.671 442.19L169.382 442.63C169.382 442.63 169.365 442.63 169.36 442.63L169.357 442.633ZM167.587 420.026L169.94 441.379L181.989 440.978L181.785 419.554L167.584 420.026H167.587Z" fill="black"/>
<path d="M166.357 454.911C166.401 457.054 168.011 458.882 170.226 459.294C177.929 460.728 195.278 463.915 200.213 464.448C206.618 465.137 215.9 462.688 217.617 459.372C219.832 455.089 209.636 447.632 204.347 444.728C196.49 440.416 188.771 431.632 185.659 431.33C182.546 431.026 177.078 439.753 177.078 439.753L167.489 436.296C167.489 436.296 166.125 444.041 166.357 454.908V454.911Z" fill="black"/>
<path d="M202.445 465.18C201.644 465.18 200.868 465.143 200.139 465.064C195.151 464.527 177.471 461.277 170.1 459.902C167.603 459.438 165.755 457.345 165.706 454.924C165.477 444.123 166.833 436.275 166.846 436.196C166.88 436.012 166.995 435.855 167.164 435.763C167.332 435.671 167.537 435.656 167.719 435.721L176.802 438.995C178.205 436.823 182.627 430.418 185.723 430.717C187.49 430.89 190.086 433.069 193.676 436.086C197.018 438.892 200.807 442.077 204.668 444.196C209.018 446.583 220.835 454.544 218.195 459.645C216.505 462.913 208.642 465.18 202.439 465.18H202.445ZM168.012 437.148C167.689 439.336 166.819 446.129 167.007 454.9C167.045 456.742 168.451 458.336 170.351 458.69C177.705 460.06 195.347 463.304 200.285 463.837C206.612 464.516 215.536 461.995 217.032 459.102C218.938 455.417 209.498 448.272 204.022 445.266C200.048 443.084 196.206 439.858 192.818 437.012C189.796 434.475 186.943 432.078 185.593 431.947C183.61 431.748 179.672 436.828 177.639 440.07C177.479 440.327 177.145 440.437 176.849 440.332L168.015 437.148H168.012Z" fill="black"/>
<path d="M202.737 459.571C189.823 459.571 170.751 454.91 169.635 454.635C169.287 454.548 169.08 454.213 169.171 453.882C169.262 453.552 169.616 453.352 169.964 453.439C180.37 456.009 208.332 461.484 212.701 456.009C212.917 455.739 213.326 455.684 213.613 455.891C213.9 456.099 213.955 456.484 213.737 456.757C212.086 458.829 207.902 459.574 202.737 459.574V459.571Z" fill="black"/>
<path d="M188.034 447.81C187.865 447.81 187.694 447.748 187.567 447.622C187.318 447.378 187.324 446.987 187.583 446.748L194.129 440.734C194.386 440.498 194.797 440.503 195.048 440.749C195.297 440.993 195.291 441.384 195.032 441.623L188.487 447.637C188.36 447.753 188.197 447.81 188.034 447.81Z" fill="black"/>
<path d="M107.485 251.803C107.485 251.803 104.42 344.6 103.163 369.101C102.155 388.807 107.546 417.914 109.698 428.553C110.167 430.874 112.407 432.482 114.884 432.275L126.574 431.302C129.088 431.092 131.013 429.09 131.002 426.693C130.957 417.418 130.897 394.974 131.264 380.246C131.416 374.153 132.543 368.12 134.65 362.365C137.144 355.559 140.499 345.114 141.687 335.446C143.664 319.328 151.48 293.715 151.48 293.715C151.48 293.715 161.684 403.157 163.932 426.176C164.134 428.241 166.001 429.785 168.183 429.702C172.496 429.534 178.409 430.223 182.817 428.574C184.162 428.07 185.129 426.942 185.363 425.589C186.924 416.589 194.273 376.833 192.171 354.835C189.779 329.809 187.968 246.662 187.968 246.662L107.483 251.805L107.485 251.803Z" fill="black"/>
<path d="M94.0029 256.099C94.0029 256.099 125.163 264.755 153.234 265.891C169.809 266.56 180.92 261.891 180.92 261.891L165.106 140.105C165.106 140.105 164.239 130.557 146.647 126.119C137.199 123.735 130.03 134.098 130.03 134.098L94.0029 256.102V256.099Z" fill="white"/>
<path d="M156.445 266.573C155.39 266.573 154.311 266.552 153.206 266.507C125.379 265.382 94.1327 256.779 93.8206 256.692C93.4782 256.598 93.2821 256.259 93.376 255.934L129.403 133.93C129.422 133.87 129.45 133.812 129.486 133.757C129.789 133.319 137.022 123.053 146.813 125.521C164.642 130.019 165.717 139.643 165.752 140.05L181.563 261.815C181.599 262.085 181.442 262.345 181.182 262.455C181.077 262.499 171.201 266.57 156.445 266.57V266.573ZM94.8038 255.674C99.3275 256.884 127.754 264.241 153.261 265.272C167.653 265.854 177.998 262.329 180.213 261.497L164.46 140.178C164.449 140.068 163.355 130.972 146.478 126.715C138.011 124.577 131.294 133.442 130.626 134.36L94.8038 255.674Z" fill="black"/>
<path d="M109.441 173.185C103.197 169.479 87.8556 174.439 75.6764 171.517C63.4972 168.595 38.6914 161.56 38.9289 139.108C39.1499 118.305 62.3981 125.762 68.0872 137.875C70.0784 142.114 94.3263 136.857 100.604 134.114C111.245 129.463 121.372 131.847 121.372 131.847L109.441 173.188V173.185Z" fill="white"/>
<path d="M109.441 173.802C109.319 173.802 109.2 173.77 109.095 173.707C106.077 171.916 100.653 172.28 94.3755 172.703C88.366 173.107 81.5583 173.563 75.5157 172.115C66.2418 169.891 38.0225 163.121 38.2766 139.103C38.3843 128.907 43.8746 126.305 47.1362 125.663C54.7641 124.157 65.0322 129.859 68.6776 137.623C68.8157 137.917 69.1692 138.169 69.7299 138.368C75.2644 140.346 94.9306 135.911 100.33 133.55C111.054 128.863 121.103 131.145 121.526 131.244C121.694 131.284 121.841 131.389 121.929 131.53C122.018 131.675 122.042 131.845 121.995 132.005L110.065 173.343C110.01 173.532 109.866 173.684 109.675 173.755C109.598 173.783 109.518 173.796 109.438 173.796L109.441 173.802ZM101.727 171.124C104.616 171.124 107.113 171.396 109.032 172.27L120.562 132.32C118.179 131.908 109.656 130.838 100.877 134.675C95.1847 137.164 75.1925 141.642 69.2742 139.528C68.3766 139.208 67.7773 138.736 67.4929 138.13C64.1318 130.972 54.3692 125.503 47.4041 126.875C42.3612 127.869 39.6547 132.102 39.5801 139.118C39.3371 162.166 66.8107 168.755 75.836 170.922C81.6743 172.322 88.3742 171.871 94.2871 171.475C96.9466 171.297 99.457 171.126 101.727 171.126V171.124Z" fill="black"/>
<path d="M142.683 120.052C157.409 121.453 165.283 130.534 173.164 141.267C173.164 141.267 217.526 152.126 213.334 194.234C212.055 207.092 208.158 224.147 197.385 220.154C186.611 216.162 183.399 212.564 183.399 212.564C183.399 212.564 187.354 224.372 188.141 234.106C188.47 238.164 188.569 241.655 188.575 244.351C188.583 248.787 189.191 253.198 190.364 257.49L191.861 262.956C192.916 266.804 191.743 270.935 188.683 273.647C184.09 277.723 177.611 281.067 167.346 280.611C167.346 280.611 168.18 260.91 165.857 249.794C164.752 244.509 161.596 221.878 160.809 200.165C160.276 185.518 169.698 153.07 161.466 142.19C159.524 139.625 132.772 130.09 131.308 132.983C127.251 140.996 128.071 146.914 127.486 150.919C123.605 177.453 122.686 180.516 112.84 203.21C101.931 228.362 104.226 234.73 99.1282 282.89C99.1282 282.89 88.8132 275.318 83.5576 271.824C83.5576 271.824 90.3791 206.153 94.3228 194.672C98.2638 183.192 100.365 167.719 96.1621 161.977L111.871 141.859C111.871 141.859 115.602 117.476 142.675 120.05L142.683 120.052Z" fill="white"/>
<path d="M99.1374 283.509C98.9966 283.509 98.8557 283.465 98.7397 283.381C98.6376 283.305 88.3778 275.779 83.194 272.333C83.0007 272.204 82.8957 271.989 82.9206 271.766C83.1995 269.083 89.7945 205.896 93.7134 194.484C97.6544 183.006 99.6677 167.837 95.6383 162.334C95.4781 162.117 95.4837 161.828 95.6494 161.613L111.264 141.613C111.665 139.475 116.534 116.947 142.748 119.436C157.727 120.86 165.891 130.3 173.563 140.729C175.239 141.18 185.521 144.147 195.226 151.475C204.994 158.848 216.174 172.265 213.981 194.292C213 204.147 210.518 216.661 204.265 220.317C202.15 221.555 199.755 221.694 197.148 220.729C190.459 218.25 186.645 215.921 184.676 214.471C185.842 218.324 188.2 226.801 188.788 234.059C189.07 237.55 189.219 241.012 189.225 244.349C189.233 248.711 189.83 253.078 190.995 257.332L192.492 262.798C193.621 266.924 192.335 271.252 189.128 274.098C183.279 279.289 176.145 281.621 167.319 281.227C166.963 281.212 166.686 280.926 166.7 280.585C166.708 280.388 167.504 260.829 165.223 249.915C164.101 244.551 160.95 221.88 160.16 200.186C159.978 195.181 160.948 188.115 161.975 180.637C163.974 166.067 166.239 149.553 160.942 142.552C159.503 140.653 139.655 133.199 133.203 133.065C132.104 133.041 131.897 133.256 131.894 133.259C128.876 139.223 128.616 143.934 128.406 147.722C128.34 148.902 128.279 150.014 128.133 151.008C124.266 177.463 123.441 180.404 113.446 203.452C105.257 222.332 104.564 230.337 102.507 254.106C101.852 261.684 101.035 271.113 99.7809 282.958C99.7561 283.181 99.6069 283.375 99.3915 283.465C99.3087 283.499 99.223 283.514 99.1347 283.514L99.1374 283.509ZM84.2518 271.528C88.5904 274.434 96.0112 279.829 98.6072 281.723C99.7947 270.405 100.579 261.335 101.214 253.998C103.286 230.088 103.981 222.033 112.247 202.974C122.184 180.063 123.001 177.141 126.849 150.833C126.987 149.894 127.045 148.855 127.111 147.651C127.315 143.96 127.594 138.906 130.729 132.713C131.11 131.958 132.14 131.874 132.48 131.845C138.011 131.386 160.078 139.289 162 141.828C167.598 149.225 165.297 165.996 163.267 180.795C162.248 188.223 161.287 195.239 161.464 200.141C162.248 221.765 165.386 244.336 166.501 249.673C168.581 259.625 168.139 276.577 168.023 280.015C176.187 280.254 182.807 278.019 188.244 273.193C191.1 270.657 192.246 266.793 191.238 263.108L189.741 257.642C188.548 253.288 187.938 248.816 187.93 244.349C187.924 241.041 187.778 237.61 187.496 234.151C186.723 224.6 182.823 212.865 182.782 212.747C182.688 212.467 182.815 212.162 183.085 212.021C183.356 211.879 183.696 211.937 183.897 212.162C183.928 212.197 187.187 215.709 197.623 219.577C199.86 220.406 201.81 220.304 203.586 219.265C209.686 215.696 211.907 202.012 212.688 194.174C214.403 176.931 208.259 162.89 194.417 152.44C184.077 144.635 173.113 141.888 173.002 141.862C172.853 141.825 172.721 141.739 172.632 141.618C164.811 130.972 157.156 122.046 142.618 120.666C131.659 119.625 123.272 122.869 117.685 130.313C113.493 135.9 112.529 141.891 112.521 141.951C112.504 142.051 112.463 142.148 112.399 142.229L96.9612 162.001C100.938 168.147 99.0021 183.056 94.9479 194.864C91.2223 205.713 84.8013 266.274 84.2518 271.528Z" fill="black"/>
<path d="M75.9087 90.8854C75.9087 90.8854 71.2607 105.076 68.7531 121.409C66.6266 135.258 65.4722 138.854 61.2384 141.865C57.0075 144.876 50.2302 145.92 45.1486 137.739C40.045 129.524 67.4081 84.6821 68.974 80.5169C71.2083 74.5733 76.1131 70.4841 82.0922 69.3247C87.1075 68.3516 93.6638 69.0913 97.069 71.4362C98.5383 72.4487 106.625 78.8487 104.907 82.2847C103.369 85.3615 99.19 86.3031 88.7949 82.4211C88.7949 82.4211 96.9668 88.2913 95.6191 90.2034C94.2079 92.2021 92.1614 90.45 88.7369 88.3779C84.9892 86.109 78.3418 84.808 75.9115 90.8828L75.9087 90.8854Z" fill="white"/>
<path d="M54.7619 144.703C54.1626 144.703 53.5412 144.65 52.9033 144.527C49.672 143.913 46.8744 141.736 44.5877 138.054C40.9091 132.134 51.9173 110.418 64.3644 87.8346C66.4164 84.1101 68.0375 81.1697 68.3606 80.312C70.6363 74.2661 75.7206 69.933 81.9621 68.7212C87.422 67.6615 94.0805 68.6163 97.4498 70.9376C97.552 71.0084 107.652 78.232 105.492 82.552C103.805 85.9304 99.5267 86.4838 92.1473 84.2255C94.6716 86.3474 97.2206 89.0386 96.1546 90.5494C94.5804 92.7789 92.3324 91.3678 89.7281 89.7363C89.3055 89.4714 88.8554 89.1907 88.3831 88.9022C86.3505 87.672 83.0005 86.5468 80.2443 87.415C78.5376 87.9527 77.2865 89.1881 76.5215 91.0871C76.3309 91.6694 71.8266 105.663 69.3935 121.5C67.2808 135.255 66.1457 139.145 61.6275 142.363C60.3019 143.305 57.8191 144.705 54.7619 144.705V144.703ZM86.7067 69.5186C85.1878 69.5186 83.6633 69.6524 82.2217 69.9304C76.4276 71.053 71.7051 75.0897 69.5841 80.7264C69.2306 81.6655 67.753 84.3487 65.516 88.4064C58.446 101.235 41.8895 131.281 45.709 137.427C47.7996 140.795 50.3072 142.775 53.1601 143.318C56.5653 143.963 59.4403 142.376 60.8515 141.372C64.798 138.562 65.9524 135.376 68.1121 121.319C70.6004 105.125 75.2428 90.8432 75.2898 90.7015C75.2953 90.6884 75.2981 90.6779 75.3036 90.6648C76.2122 88.3907 77.7394 86.9009 79.8383 86.2399C83.0226 85.2379 86.704 86.4182 89.0846 87.8582C89.5651 88.1494 90.0208 88.4327 90.4489 88.7028C93.4647 90.594 94.3263 90.9271 95.0775 89.8596C95.605 89.112 92.4207 85.8019 88.4024 82.914C88.1428 82.7278 88.0683 82.3894 88.2285 82.1192C88.3886 81.8491 88.7311 81.7337 89.0321 81.8464C100.645 86.1848 103.319 84.0235 104.321 82.0196C105.671 79.3153 99.1041 73.5999 96.6904 71.9343C94.4561 70.3946 90.6091 69.516 86.7095 69.516L86.7067 69.5186Z" fill="black"/>
<path d="M145.871 111.659L140.46 124.687C133.153 128.803 131.59 132.713 131.59 132.713C137.726 142.814 148.414 146.214 160.994 142.45L161.472 142.193C161.472 142.193 156.103 137.264 156.791 130.927L164.217 106.327L145.871 111.662V111.659Z" fill="white"/>
<path d="M151.48 144.548C142.819 144.548 135.625 140.58 131.03 133.018C130.933 132.858 130.916 132.664 130.985 132.491C131.052 132.325 132.684 128.401 139.939 124.262L145.266 111.431C145.338 111.255 145.49 111.121 145.681 111.066L164.027 105.731C164.256 105.666 164.505 105.723 164.673 105.881C164.844 106.041 164.908 106.274 164.841 106.492L157.429 131.04C156.816 136.984 161.87 141.7 161.92 141.744C162.066 141.881 162.138 142.072 162.113 142.266C162.088 142.46 161.966 142.628 161.79 142.725L161.312 142.982C161.273 143.003 161.229 143.022 161.185 143.035C157.796 144.047 154.543 144.548 151.475 144.548H151.48ZM132.328 132.677C138.18 142.051 148.368 145.43 160.381 141.98C158.926 140.401 155.576 136.131 156.148 130.859C156.15 130.822 156.159 130.788 156.17 130.752L163.267 107.245L146.366 112.16L141.071 124.91C141.019 125.039 140.922 125.144 140.798 125.214C134.863 128.556 132.817 131.767 132.328 132.677Z" fill="black"/>
<path d="M141.859 76.2595C147.244 76.8155 141.723 81.9119 161.776 79.3362C169.998 78.2791 164.516 86.4496 166.653 86.2162C174.549 85.3558 176.885 88.1729 178.413 89.6863C180.18 91.4358 181.58 95.1709 180.564 98.266C179.225 102.353 173.152 102.694 168.36 111.016C164.996 116.863 164.889 120.721 162.096 121.209C159.274 121.702 157.901 118.014 154.775 118.332C150.729 118.743 150.378 125.188 146.153 127.213C143.491 128.49 137.832 128.38 129.699 122.909C128.381 122.022 127.915 120.364 128.597 118.974C129.469 117.191 130.585 114.945 131.839 112.881C137.821 103.053 142.187 101.311 141.234 98.3683C139.773 93.8594 131.022 94.9217 130.243 91.2863C129.434 87.5093 134.482 75.4962 141.859 76.2568V76.2595Z" fill="black"/>
<path d="M156.16 99.5331C155.216 100.69 154.36 101.907 153.592 103.174C152.156 105.55 149.657 109.61 148.074 111.785C146.113 114.479 137.56 110.292 134.923 108.908C134.498 108.685 134.362 108.168 134.622 107.777L136.044 105.403L133.926 104.519C133.68 104.375 133.465 104.184 133.327 103.942C132.984 103.342 133.106 102.636 133.57 102.174C135.975 99.7849 140.192 95.8925 142.857 90.6754C143.128 90.143 143.702 89.8072 144.324 89.8282C146.464 89.8938 151.457 90.4944 155.738 94.3764C157.246 95.743 157.439 97.9646 156.163 99.5305L156.16 99.5331Z" fill="white"/>
<path d="M145.75 113.28C142.516 113.28 137.719 111.079 134.606 109.448C134.247 109.259 133.982 108.936 133.882 108.558C133.78 108.181 133.852 107.774 134.073 107.446L135.12 105.697L133.662 105.088C133.634 105.078 133.609 105.065 133.584 105.049C133.222 104.836 132.935 104.558 132.753 104.241C132.283 103.423 132.422 102.423 133.095 101.752L133.775 101.08C136.208 98.6883 139.884 95.0765 142.267 90.4076C142.651 89.6548 143.46 89.1879 144.341 89.2115C146.407 89.2745 151.696 89.862 156.183 93.9302C157.943 95.525 158.153 98.0955 156.672 99.9079C155.75 101.036 154.905 102.237 154.154 103.478C152.773 105.76 150.218 109.917 148.608 112.131C148.014 112.947 146.998 113.274 145.75 113.274V113.28ZM134.228 103.976L136.302 104.842C136.47 104.913 136.6 105.046 136.658 105.212C136.716 105.377 136.697 105.558 136.606 105.71L135.186 108.084C135.128 108.17 135.136 108.225 135.145 108.254C135.153 108.288 135.178 108.335 135.236 108.367C140.472 111.111 146.31 113.125 147.539 111.433C149.124 109.256 151.657 105.133 153.027 102.867C153.808 101.576 154.689 100.328 155.645 99.1552C156.716 97.8437 156.562 95.984 155.286 94.8273C151.121 91.0529 146.216 90.5099 144.3 90.4496C143.949 90.4391 143.598 90.6358 143.438 90.9506C140.964 95.7952 137.202 99.4935 134.711 101.941L134.037 102.607C133.755 102.888 133.697 103.307 133.896 103.654C133.963 103.772 134.079 103.884 134.23 103.976H134.228Z" fill="black"/>
<path d="M155.639 109.343C160.732 112.322 163.736 107.829 163.19 104.669C162.96 103.339 161.209 102.843 160.215 103.803L155.504 108.357C155.203 108.648 155.272 109.128 155.639 109.343Z" fill="white"/>
<path d="M104.878 200.737L101.664 208.485C100.899 210.704 102.108 213.046 104.301 213.6L106.836 214.24C108.891 214.759 111.045 213.506 111.703 211.41L115.514 201.511L104.878 200.734V200.737Z" fill="white"/>
<path d="M107.795 214.977C107.422 214.977 107.046 214.932 106.671 214.835L104.136 214.195C102.959 213.899 101.981 213.157 101.382 212.108C100.728 210.961 100.606 209.571 101.048 208.291L104.276 200.509C104.381 200.257 104.649 200.1 104.931 200.121L115.566 200.897C115.768 200.913 115.953 201.015 116.063 201.178C116.174 201.34 116.196 201.542 116.127 201.723L112.316 211.622C111.683 213.645 109.814 214.977 107.798 214.977H107.795ZM105.306 201.388L102.266 208.711C101.948 209.634 102.037 210.67 102.523 211.52C102.951 212.268 103.641 212.795 104.467 213.005L107.002 213.645C108.728 214.08 110.518 213.023 111.078 211.237L114.608 202.067L105.306 201.388Z" fill="black"/>
<path d="M101.134 208.921C101.134 208.921 97.6152 211.045 96.32 213.975C95.0275 216.902 92.6055 223.108 94.6933 224.184C96.2399 224.981 113.746 227.378 122.416 228.535C125.147 228.9 127.146 226.083 125.705 223.85C124.611 222.156 122.261 220.189 119.411 218.389C115.133 215.685 113.247 213.618 112.418 212.294C111.849 211.384 110.684 210.988 109.648 211.373L103.959 213.498L101.134 208.923V208.921Z" fill="white"/>
<path d="M122.891 229.185C122.705 229.185 122.518 229.172 122.327 229.149C104.995 226.838 95.5909 225.351 94.384 224.729C92.4812 223.748 92.9313 220.05 95.7207 213.739C97.0767 210.667 100.634 208.493 100.783 208.404C100.932 208.315 101.114 208.286 101.286 208.325C101.457 208.364 101.603 208.469 101.694 208.614L104.238 212.732L109.408 210.799C110.736 210.303 112.239 210.799 112.976 211.979C113.733 213.191 115.528 215.195 119.77 217.878C122.86 219.829 125.163 221.839 126.257 223.53C127.05 224.755 127.022 226.269 126.185 227.48C125.44 228.561 124.211 229.188 122.885 229.188L122.891 229.185ZM100.932 209.812C99.9268 210.52 97.8224 212.178 96.922 214.216C94.3315 220.076 94.094 223.174 95.0054 223.646C95.3838 223.84 98.4852 224.726 122.507 227.926C123.534 228.063 124.528 227.633 125.1 226.804C125.666 225.983 125.685 225.002 125.15 224.176C124.153 222.633 121.987 220.76 119.049 218.903C114.6 216.092 112.683 213.928 111.857 212.608C111.446 211.953 110.617 211.675 109.883 211.947L104.194 214.072C103.895 214.182 103.556 214.072 103.396 213.81L100.927 209.812H100.932Z" fill="black"/>
<path d="M109.48 220.446C109.234 220.446 108.996 220.312 108.889 220.084C108.739 219.774 108.883 219.407 109.209 219.266L113.965 217.199C114.29 217.057 114.677 217.193 114.826 217.503C114.975 217.812 114.832 218.18 114.506 218.321L109.75 220.388C109.662 220.425 109.571 220.443 109.48 220.443V220.446Z" fill="black"/>
<path d="M79.1611 209.733L75.1981 221.017C74.6761 223.299 76.0294 225.503 78.1559 225.828L80.6111 226.206C82.6023 226.512 84.5244 225.049 84.9552 222.901L89.2055 211.068L79.1611 209.733Z" fill="white"/>
<path d="M81.1473 226.864C80.9347 226.864 80.722 226.848 80.5066 226.814L78.0514 226.436C76.944 226.266 75.9663 225.66 75.298 224.729C74.5192 223.646 74.2513 222.242 74.5634 220.884C74.5689 220.863 74.5744 220.842 74.5827 220.821L78.5458 209.537C78.6452 209.253 78.9407 209.08 79.2528 209.12L89.2972 210.455C89.4905 210.481 89.6589 210.586 89.7611 210.743C89.8633 210.901 89.8854 211.092 89.8219 211.265L85.5854 223.055C85.1159 225.295 83.2379 226.859 81.1473 226.859V226.864ZM75.8255 221.18C75.6018 222.198 75.8006 223.239 76.3723 224.036C76.8363 224.684 77.5074 225.104 78.2585 225.219L80.7137 225.597C82.3708 225.851 83.9477 224.616 84.3178 222.785C84.3233 222.756 84.3316 222.73 84.3399 222.701L88.3361 211.577L79.6063 210.415L75.8255 221.18Z" fill="black"/>
<path d="M67.0706 228.941C66.3084 230.098 66.4934 231.603 67.5208 232.556C71.0944 235.871 79.1559 243.312 81.589 245.23C84.7456 247.719 89.6532 249.164 92.716 248.291C95.7787 247.42 92.7795 239.399 91.0313 236.102C88.4325 231.205 87.5488 223.973 86.005 222.782C84.4612 221.589 78.3467 224.424 78.3467 224.424L74.5107 219.409C74.5107 219.409 70.9398 223.081 67.0734 228.941H67.0706Z" fill="white"/>
<path d="M90.725 249.159C87.6844 249.159 83.876 247.839 81.1722 245.707C78.706 243.763 70.4871 236.173 67.0654 232.999C65.8281 231.853 65.5989 230.009 66.5185 228.613C70.3739 222.772 73.9918 219.029 74.0277 218.992C74.1602 218.856 74.348 218.782 74.5441 218.796C74.7374 218.806 74.9169 218.9 75.0329 219.05L78.5514 223.651C80.4708 222.801 84.8343 221.093 86.4112 222.308C87.3033 222.998 87.8556 224.794 88.7532 227.916C89.4988 230.507 90.3439 233.442 91.6088 235.832C92.7383 237.961 95.6713 244.702 94.3512 247.614C94.0584 248.262 93.5558 248.702 92.9013 248.889C92.2495 249.075 91.5121 249.161 90.725 249.161V249.159ZM67.6205 229.269C67.0239 230.174 67.1731 231.37 67.974 232.115C71.3819 235.278 79.5732 242.84 82.0008 244.755C85.0525 247.163 89.775 248.482 92.5257 247.7C92.7052 247.651 92.9676 247.533 93.1553 247.121C94.0529 245.138 92.1611 239.611 90.4461 236.382C89.1205 233.885 88.2588 230.885 87.4966 228.238C86.8614 226.024 86.2013 223.737 85.591 223.265C84.8591 222.701 81.3987 223.698 78.6287 224.983C78.3442 225.114 78.0045 225.033 77.8167 224.792L74.4585 220.398C73.3317 221.639 70.5507 224.836 67.6205 229.272V229.269Z" fill="black"/>
<path d="M81.4399 232.632C81.1444 232.632 80.8737 232.438 80.8074 232.152C80.7273 231.819 80.9483 231.488 81.2963 231.412L85.8172 230.439C86.1707 230.363 86.5159 230.573 86.596 230.906C86.6761 231.239 86.4552 231.569 86.1072 231.645L81.5862 232.619C81.5365 232.629 81.4896 232.634 81.4426 232.634L81.4399 232.632Z" fill="black"/>
<path d="M106.044 119.525C106.044 119.525 134.504 137.526 135.556 152.097C136.509 165.285 115.834 207.362 115.834 207.362C115.834 207.362 103.119 207.349 100.739 202.67C100.739 202.67 112.302 165.188 104.685 154.683C99.9794 148.194 76.8555 123.446 76.8555 123.446L106.041 119.522L106.044 119.525Z" fill="black"/>
<path d="M63.5906 120.76C63.5906 120.76 59.6303 136.653 73.8118 143.011C80.8928 146.185 82.6189 145.841 83.522 149.227C86.9465 162.082 78.3962 197.529 75.9494 207.147C75.513 208.868 76.151 210.693 77.6285 211.769C79.8738 213.4 83.7208 215.097 89.0372 213.542C90.465 213.125 91.5917 212.073 92.0944 210.738C95.7178 201.104 111.553 158.665 112.341 150.468C113.362 139.834 99.6449 131.695 92.6937 127.176C85.7424 122.657 63.5851 120.76 63.5851 120.76H63.5906Z" fill="black"/>
<path d="M104.251 180.684C104.182 180.684 104.113 180.674 104.047 180.653C103.707 180.545 103.522 180.196 103.635 179.871C108.281 166.638 111.915 154.276 112.279 150.478C113.174 141.156 101.133 133.369 95.3446 129.628C95.0491 129.437 94.9718 129.051 95.1734 128.771C95.375 128.49 95.781 128.417 96.0765 128.608C102.531 132.779 114.541 140.545 113.575 150.591C113.196 154.533 109.617 166.735 104.867 180.262C104.776 180.522 104.522 180.684 104.251 180.684Z" fill="white"/>
<path d="M64.2979 69.3692C62.1244 69.0833 56.264 67.9108 50.1054 61.1357C41.6159 66.9062 30.7954 65.377 24.9599 58.6833C17.8291 50.5023 18.804 35.36 29.1881 27.5856C20.9609 27.52 18.7488 24.5141 18.0943 23.3312C14.2444 16.3515 24.4186 0.0262495 33.9134 2.00098e-05C37.418 -0.0104718 42.0688 4.10494 51.2239 12.3305C60.68 20.8262 61.0832 22.4735 63.9444 22.7698C72.3593 23.6354 74.9001 10.1849 86.0354 8.51149C95.0497 7.15543 103.965 13.9489 103.965 24.2518C103.965 28.3961 98.5764 27.5357 95.4501 35.7508C91.4346 46.303 77.6094 71.1239 64.2979 69.3718V69.3692Z" fill="black"/>
<path d="M114.892 57.2589C122.647 57.7048 130.419 56.7369 137.79 54.4078C137.79 54.4078 143.628 52.4091 142.935 50.0904L138.585 21.5527C138.116 18.3658 139.082 15.1317 141.275 12.6819C143.681 9.99336 147.119 6.97435 150.715 6.52845C157.384 5.69697 148.348 17.2379 148.229 20.4747C148.11 23.7114 162.391 47.5409 158.61 57.196C153.018 71.4727 112.857 78.1114 112.857 78.1114L114.892 57.2615V57.2589Z" fill="white"/>
<path d="M112.858 78.7279C112.695 78.7279 112.537 78.6702 112.416 78.5653C112.267 78.4342 112.192 78.2453 112.209 78.0538L114.244 57.204C114.277 56.8709 114.587 56.6243 114.932 56.6453C122.634 57.0886 130.259 56.1391 137.584 53.8257C139.288 53.2407 142.707 51.5935 142.309 50.2611C142.301 50.2348 142.295 50.2086 142.289 50.1798L137.94 21.6421C137.443 18.2637 138.476 14.8539 140.779 12.2808C143.14 9.64207 146.766 6.39486 150.63 5.91486C151.942 5.75224 152.872 6.01453 153.392 6.69912C154.659 8.37257 152.872 11.848 150.981 15.528C149.964 17.5057 148.915 19.5516 148.879 20.4958C148.849 21.3483 150.296 24.5667 151.826 27.9765C155.852 36.9365 161.936 50.4762 159.219 57.4086C153.56 71.8532 114.623 78.442 112.968 78.7174C112.932 78.7227 112.894 78.7253 112.858 78.7253V78.7279ZM115.481 57.9096L113.584 77.3535C119.356 76.2991 153.044 69.6394 158.001 56.9811C160.536 50.5076 154.336 36.7083 150.63 28.4617C148.597 23.9398 147.54 21.5293 147.578 20.4539C147.622 19.2473 148.636 17.2749 149.81 14.9876C151.218 12.2467 153.146 8.49322 152.334 7.42043C152.063 7.06371 151.348 7.07158 150.796 7.13978C147.343 7.56994 143.98 10.6073 141.768 13.0808C139.707 15.3837 138.779 18.4421 139.227 21.4663L143.571 49.9647C144.336 52.7345 138.661 54.7647 138.009 54.9902C130.71 57.2958 123.14 58.2768 115.481 57.9096Z" fill="black"/>
<path d="M66.3639 69.2067L56.8001 59.1425C44.527 69.5687 38.2164 71.0795 38.2164 71.0795C36.6837 71.6959 34.9079 71.1346 34.0711 69.7654C30.6493 64.1523 22.1515 50.4002 19.2103 47.3418C15.4902 43.4756 4.1064 39.5071 1.5739 42.9352C-2.21242 48.0631 6.55605 49.191 11.2952 53.4454C13.5984 55.5149 23.5821 91.89 41.0444 91.9241C51.7406 91.9451 66.3639 69.2093 66.3639 69.2093V69.2067Z" fill="white"/>
<path d="M41.0608 92.5404H41.0442C27.0478 92.5141 17.8237 70.164 13.3911 59.423C12.2947 56.7686 11.2618 54.261 10.8503 53.8938C9.34243 52.5404 7.42028 51.5201 5.55887 50.5338C2.87172 49.1069 0.551872 47.8768 0.0823788 45.9279C-0.166176 44.8892 0.145898 43.7928 1.04346 42.581C1.72837 41.6525 2.92143 41.1305 4.58951 41.0309C9.0055 40.7607 16.6223 43.7378 19.6906 46.9273C22.665 50.0197 31.1324 63.7141 34.6343 69.4584C35.3026 70.5548 36.7332 71.0086 37.9622 70.5128C37.9925 70.4997 38.0257 70.4892 38.0561 70.484C38.1168 70.4682 44.408 68.8446 56.3663 58.686C56.6314 58.4604 57.0429 58.4814 57.2832 58.7332L66.847 68.7974C67.0403 68.9994 67.068 69.2984 66.9188 69.5318C66.314 70.4709 51.9945 92.543 41.0581 92.543L41.0608 92.5404ZM5.18328 42.2453C5.00929 42.2453 4.83806 42.2505 4.67512 42.261C3.41854 42.3371 2.55688 42.6833 2.10948 43.2892C1.43562 44.1994 1.18983 44.9732 1.35277 45.6525C1.69246 47.0663 3.87975 48.2283 6.19683 49.4558C8.03614 50.4315 10.1212 51.5384 11.7479 52.9968C12.3444 53.5319 13.0542 55.2158 14.6063 58.9719C18.9339 69.4584 27.9426 91.2813 41.0525 91.3049H41.0663C50.5252 91.3049 63.5744 72.2571 65.5601 69.2748L56.7584 60.0105C45.2504 69.6945 39.0945 71.4912 38.4344 71.6643C36.6117 72.3725 34.5073 71.6932 33.5186 70.0722C30.036 64.362 21.6293 50.7594 18.7406 47.7561C16.0507 44.9574 9.29272 42.2453 5.19157 42.2453H5.18328Z" fill="black"/>
<path d="M123.53 56.1152L117.993 73.765C116.333 78.6463 115.251 83.6903 114.765 88.7971L111.735 120.629C111.735 120.629 93.6873 131.819 59.8451 121.82L58.5085 91.5591C58.2295 85.2562 57.0447 79.0214 54.9873 73.0227L50.8198 60.8732C50.8198 60.8732 59.6076 54.9926 68.6164 52.7788C81.2043 49.6863 113.249 49.4477 123.525 56.1126L123.53 56.1152Z" fill="white"/>
<path d="M86.4828 126.56C79.0538 126.56 70.0837 125.492 59.6527 122.41C59.3903 122.332 59.208 122.106 59.197 121.846L57.8603 91.5854C57.5841 85.3402 56.4104 79.1579 54.3722 73.2143L50.2048 61.0648C50.1164 60.8077 50.2159 60.5245 50.4478 60.3697C50.8096 60.1258 59.4372 54.3973 68.457 52.1809C80.592 49.1986 113.078 48.5874 123.896 55.6038C124.128 55.756 124.233 56.0314 124.153 56.291L118.615 73.9409C116.969 78.7854 115.892 83.7979 115.412 88.8523L112.382 120.684C112.363 120.873 112.255 121.044 112.089 121.146C111.962 121.225 103.086 126.557 86.48 126.557L86.4828 126.56ZM60.4756 121.361C91.1556 130.295 108.789 121.54 111.117 120.265L114.117 88.7448C114.605 83.5986 115.702 78.4943 117.375 73.5763L122.769 56.3802C112.197 50.0432 80.7329 50.4445 68.7829 53.3796C61.0556 55.2786 53.3918 59.9763 51.5912 61.1251L55.6095 72.8366C57.6863 78.8877 58.8794 85.1802 59.1611 91.5382L60.4784 121.364L60.4756 121.361Z" fill="black"/>
<path d="M97.0852 37.0674L95.0222 53.3507L100.623 54.99C102.545 55.554 102.656 58.1113 100.778 58.8012C95.5166 60.729 86.5023 62.5441 76.0602 58.371C74.2596 57.6497 74.1464 55.2681 75.8807 54.413L80.131 52.3225L85.3037 33.4268L97.0852 37.07V37.0674Z" fill="white"/>
<path d="M88.9821 61.5291C84.9997 61.5291 80.5478 60.8314 75.8087 58.935C74.7371 58.5074 74.0412 57.5553 73.9942 56.4537C73.9473 55.3599 74.5576 54.3658 75.5822 53.8622L79.5757 51.8976L84.6766 33.2694C84.7208 33.1042 84.8368 32.9652 84.9942 32.8838C85.1516 32.8025 85.3366 32.7868 85.5078 32.8393L97.2894 36.4825C97.5849 36.5743 97.7699 36.8497 97.734 37.1435L95.7373 52.9127L100.819 54.3999C101.968 54.7356 102.738 55.693 102.78 56.8366C102.821 57.9724 102.128 58.9691 101.015 59.3756C97.8831 60.5245 93.7709 61.5291 88.9876 61.5291H88.9821ZM85.7592 34.2137L80.7604 52.4747C80.7135 52.6451 80.5947 52.7868 80.429 52.8681L76.1787 54.9586C75.5988 55.2445 75.2674 55.7848 75.2922 56.4065C75.3199 57.0333 75.6982 57.5553 76.3113 57.7992C86.3474 61.8124 95.0275 60.2438 100.543 58.2242C101.258 57.9619 101.493 57.3586 101.476 56.8786C101.46 56.3933 101.175 55.7979 100.432 55.5802L94.8314 53.9409C94.5304 53.8517 94.3398 53.5737 94.3785 53.2773L96.378 37.4976L85.7619 34.2137H85.7592Z" fill="black"/>
<path d="M81.4985 35.6327C81.4985 35.6327 76.2346 35.1632 75.8369 31.1028C75.2294 24.9179 80.4904 26.2924 80.4904 26.2924C80.4904 26.2924 80.0955 20.9206 87.461 21.6707C92.0759 22.1402 95.9727 22.6727 98.4665 23.0425C100.248 23.3074 101.642 24.6478 101.891 26.3422C102.38 29.6786 102.968 35.3337 102.203 39.8583C101.502 44.0051 99.6678 47.2025 95.586 46.8012C84.4121 45.7048 81.4985 35.6327 81.4985 35.6327Z" fill="white"/>
<path d="M96.2487 47.4516C96.003 47.4516 95.7572 47.4385 95.5196 47.4149C85.3317 46.4156 81.7138 38.1244 81.0068 36.1939C78.9217 35.8818 75.5193 34.5283 75.1878 31.1579C74.9697 28.9257 75.4502 27.3205 76.6212 26.3893C77.6844 25.5421 79.0349 25.4923 79.8717 25.5683C79.9684 24.7736 80.3026 23.5067 81.41 22.4943C82.755 21.2641 84.8152 20.7788 87.53 21.0543C92.1724 21.5264 96.0941 22.0641 98.5658 22.4313C100.648 22.7408 102.242 24.2779 102.534 26.2556C102.99 29.3585 103.636 35.2654 102.844 39.9552C101.819 46.0247 98.831 47.4516 96.246 47.4516H96.2487ZM79.3194 26.7775C78.7394 26.7775 78.0131 26.8903 77.4525 27.3388C76.6322 27.9946 76.3063 29.2431 76.4831 31.0424C76.8283 34.552 81.5122 35.011 81.5591 35.0162C81.827 35.0398 82.0535 35.2208 82.1253 35.4674C82.2413 35.8634 85.0693 45.1487 95.6522 46.1874C98.8448 46.4995 100.775 44.3985 101.56 39.7611C102.325 35.2313 101.692 29.4634 101.245 26.4287C101.035 24.9939 99.8749 23.8765 98.3642 23.6536C95.9063 23.289 92.0067 22.7539 87.3891 22.2844C85.0831 22.051 83.3764 22.4156 82.3186 23.3756C81.0399 24.5375 81.1338 26.2372 81.1338 26.2529C81.1476 26.4523 81.0565 26.6464 80.8936 26.7723C80.7306 26.8982 80.5152 26.9428 80.3108 26.8903C80.3026 26.8903 79.8745 26.7828 79.3111 26.7828L79.3194 26.7775Z" fill="black"/>
<path d="M153.587 183.279C153.587 183.279 150.723 170.657 144.459 166.216C138.958 162.319 140.09 168.897 142.499 172.527C142.952 173.209 143.275 173.839 143.501 174.41C144.089 175.898 142.234 177.17 140.933 176.17C135.694 172.144 124.572 163.877 123.131 165.059C121.673 166.258 122.993 169.789 126.848 173.553C127.751 174.434 128.201 175.661 128.055 176.884C127.765 179.323 127.828 183.538 131.043 186.14C135.246 189.539 146.031 193.107 146.031 193.107C146.031 193.107 157.558 208.669 184.126 223.192C198.52 231.061 202.229 220.393 204.632 209.804C208.076 194.633 185.686 199.174 185.686 199.174C185.686 199.174 172.916 200.616 153.581 183.279H153.587Z" fill="white"/>
<path d="M192.809 226.536C190.219 226.536 187.242 225.605 183.806 223.727C158.87 210.096 146.959 195.336 145.631 193.626C144.109 193.112 134.611 189.836 130.626 186.612C127.149 183.801 127.122 179.268 127.414 176.816C127.539 175.774 127.163 174.743 126.387 173.983C123.493 171.158 121.819 168.291 121.91 166.313C121.943 165.589 122.22 164.994 122.711 164.59C123.316 164.092 124.733 162.93 141.347 175.688C141.781 176.021 142.253 175.921 142.549 175.719C142.847 175.515 143.093 175.121 142.897 174.623C142.67 174.051 142.353 173.456 141.955 172.852C140.372 170.465 138.967 166.235 140.566 164.829C141.463 164.039 142.908 164.338 144.852 165.718C150.889 169.996 153.783 181.288 154.181 182.956C172.994 199.764 185.493 198.57 185.618 198.557C186.071 198.463 198.126 196.086 203.334 201.044C205.494 203.1 206.148 206.09 205.276 209.93C203.798 216.44 201.774 223.575 196.444 225.823C195.325 226.295 194.116 226.531 192.812 226.531L192.809 226.536ZM123.52 165.561C123.33 165.739 123.225 166.012 123.208 166.368C123.153 167.58 124.197 170.075 127.318 173.122C128.367 174.148 128.873 175.546 128.704 176.955C128.442 179.161 128.45 183.229 131.469 185.671C135.531 188.957 146.142 192.488 146.249 192.524C146.379 192.566 146.49 192.648 146.567 192.753C146.68 192.907 158.337 208.38 184.455 222.657C189.233 225.269 192.98 225.936 195.913 224.7C200.459 222.783 202.486 216.346 204.002 209.676C204.776 206.271 204.24 203.661 202.414 201.922C197.706 197.44 185.946 199.756 185.83 199.78C185.239 199.848 172.475 201.067 153.145 183.73C153.049 183.643 152.982 183.533 152.955 183.41C152.927 183.286 150.069 170.961 144.076 166.715C142.549 165.634 141.706 165.516 141.449 165.742C140.726 166.376 141.386 169.686 143.054 172.202C143.499 172.873 143.858 173.545 144.115 174.195C144.485 175.126 144.159 176.144 143.311 176.726C142.46 177.309 141.345 177.28 140.53 176.653C129.56 168.225 124.534 165.416 123.523 165.561H123.52Z" fill="black"/>
<path d="M221.037 359.538H73.5522V473.797H221.037V359.538Z" fill="white"/>
<path d="M221.037 474.416H73.5523C73.1933 474.416 72.9033 474.141 72.9033 473.8V359.541C72.9033 359.2 73.1933 358.925 73.5523 358.925H221.037C221.396 358.925 221.686 359.2 221.686 359.541V473.8C221.686 474.141 221.396 474.416 221.037 474.416ZM74.2041 473.181H220.388V360.158H74.2041V473.181Z" fill="black"/>
<path d="M200.387 383.963H94.2046V473.797H200.387V383.963Z" fill="white"/>
<path d="M200.387 474.415H94.2042C93.8451 474.415 93.5552 474.14 93.5552 473.799V383.966C93.5552 383.625 93.8451 383.349 94.2042 383.349H200.387C200.746 383.349 201.036 383.625 201.036 383.966V473.799C201.036 474.14 200.746 474.415 200.387 474.415ZM94.8532 473.18H199.735V384.579H94.8532V473.18Z" fill="black"/>
<path d="M190.431 395.995H104.157C103.798 395.995 103.508 395.72 103.508 395.379C103.508 395.038 103.798 394.762 104.157 394.762H190.431C190.79 394.762 191.08 395.038 191.08 395.379C191.08 395.72 190.79 395.995 190.431 395.995Z" fill="black"/>
<path d="M190.431 408.776H104.157C103.798 408.776 103.508 408.501 103.508 408.16C103.508 407.819 103.798 407.544 104.157 407.544H190.431C190.79 407.544 191.08 407.819 191.08 408.16C191.08 408.501 190.79 408.776 190.431 408.776Z" fill="black"/>
<path d="M190.431 421.556H104.157C103.798 421.556 103.508 421.28 103.508 420.939C103.508 420.598 103.798 420.323 104.157 420.323H190.431C190.79 420.323 191.08 420.598 191.08 420.939C191.08 421.28 190.79 421.556 190.431 421.556Z" fill="black"/>
<path d="M190.431 434.337H104.157C103.798 434.337 103.508 434.062 103.508 433.721C103.508 433.38 103.798 433.104 104.157 433.104H190.431C190.79 433.104 191.08 433.38 191.08 433.721C191.08 434.062 190.79 434.337 190.431 434.337Z" fill="black"/>
<path d="M190.431 447.119H104.157C103.798 447.119 103.508 446.844 103.508 446.503C103.508 446.162 103.798 445.886 104.157 445.886H190.431C190.79 445.886 191.08 446.162 191.08 446.503C191.08 446.844 190.79 447.119 190.431 447.119Z" fill="black"/>
<path d="M190.431 459.898H104.157C103.798 459.898 103.508 459.623 103.508 459.282C103.508 458.941 103.798 458.665 104.157 458.665H190.431C190.79 458.665 191.08 458.941 191.08 459.282C191.08 459.623 190.79 459.898 190.431 459.898Z" fill="black"/>
<path d="M509.363 265.036H316.023V473.797H509.363V265.036Z" fill="white"/>
<path d="M509.363 474.416H316.023C315.664 474.416 315.374 474.14 315.374 473.799V265.039C315.374 264.698 315.664 264.422 316.023 264.422H509.363C509.722 264.422 510.012 264.698 510.012 265.039V473.799C510.012 474.14 509.722 474.416 509.363 474.416ZM316.672 473.18H508.711V265.655H316.672V473.18Z" fill="black"/>
<path d="M496.314 222.447H230.194L201.158 270.623H525.351L496.314 222.447Z" fill="black"/>
<path d="M525.351 271.239H201.157C200.925 271.239 200.713 271.121 200.594 270.932C200.478 270.741 200.478 270.507 200.594 270.316L229.631 222.14C229.747 221.949 229.962 221.831 230.194 221.831H496.314C496.546 221.831 496.761 221.949 496.877 222.14L525.914 270.316C526.03 270.507 526.027 270.741 525.914 270.932C525.798 271.124 525.583 271.239 525.351 271.239ZM202.279 270.004H524.229L495.935 223.063H230.57L202.276 270.004H202.279Z" fill="white"/>
<path d="M350.986 320.776H84.8668L55.8301 368.952H380.023L350.986 320.776Z" fill="black"/>
<path d="M380.023 369.568H55.8301C55.5981 369.568 55.3854 369.45 55.2667 369.262C55.1507 369.07 55.1507 368.837 55.2667 368.645L84.3034 320.469C84.4194 320.278 84.6348 320.16 84.8668 320.16H350.986C351.218 320.16 351.434 320.278 351.55 320.469L380.587 368.645C380.703 368.837 380.7 369.07 380.587 369.262C380.471 369.453 380.255 369.568 380.023 369.568ZM56.9513 368.333H378.902L350.608 321.393H85.2452L56.9513 368.333Z" fill="white"/>
<path d="M374.58 268.774H217.996V473.796H374.58V268.774Z" fill="white"/>
<path d="M374.58 474.416H217.996C217.637 474.416 217.347 474.14 217.347 473.799V268.776C217.347 268.435 217.637 268.16 217.996 268.16H374.58C374.939 268.16 375.229 268.435 375.229 268.776V473.799C375.229 474.14 374.939 474.416 374.58 474.416ZM218.648 473.18H373.931V269.393H218.648V473.18Z" fill="black"/>
<path d="M374.052 277.899H218.526L296.288 209.915L374.052 277.899Z" fill="white"/>
<path d="M296.287 209.915L371.851 275.974H384.138L296.287 199.171L208.44 275.974H220.727L296.287 209.915Z" fill="black"/>
<path d="M384.138 276.59H371.851C371.688 276.59 371.531 276.532 371.412 276.427L296.291 210.751L221.169 276.427C221.05 276.532 220.893 276.59 220.73 276.59H208.443C208.175 276.59 207.935 276.435 207.838 276.197C207.741 275.961 207.808 275.69 208.004 275.517L295.851 198.715C296.1 198.497 296.484 198.497 296.732 198.715L384.58 275.517C384.776 275.69 384.842 275.958 384.746 276.197C384.649 276.433 384.409 276.59 384.141 276.59H384.138ZM372.105 275.355H382.473L296.291 200.01L210.108 275.355H220.476L295.851 209.458C296.1 209.241 296.484 209.241 296.732 209.458L372.108 275.355H372.105Z" fill="white"/>
<path d="M338.437 293.269H254.141C253.782 293.269 253.492 292.994 253.492 292.653V285.437C253.492 265.463 270.604 249.212 291.635 249.212H300.947C321.978 249.212 339.089 265.463 339.089 285.437V292.653C339.089 292.994 338.799 293.269 338.44 293.269H338.437ZM254.793 292.034H337.788V285.437C337.788 266.143 321.262 250.447 300.947 250.447H291.635C271.319 250.447 254.793 266.143 254.793 285.437V292.034Z" fill="black"/>
<path d="M296.288 288.149C295.929 288.149 295.639 287.874 295.639 287.533V257.277C295.639 256.936 295.929 256.661 296.288 256.661C296.647 256.661 296.937 256.936 296.937 257.277V287.533C296.937 287.874 296.647 288.149 296.288 288.149Z" fill="black"/>
<path d="M263.429 284.761C263.263 284.761 263.097 284.7 262.97 284.58C262.716 284.338 262.716 283.948 262.97 283.706L287.889 260.039C288.143 259.798 288.555 259.798 288.809 260.039C289.063 260.281 289.063 260.672 288.809 260.913L263.89 284.58C263.763 284.7 263.597 284.761 263.432 284.761H263.429Z" fill="black"/>
<path d="M305.035 280.645C304.869 280.645 304.703 280.585 304.576 280.464C304.322 280.223 304.322 279.832 304.576 279.591L321.044 263.95C321.299 263.709 321.71 263.709 321.964 263.95C322.218 264.191 322.218 264.582 321.964 264.823L305.496 280.464C305.369 280.585 305.203 280.645 305.038 280.645H305.035Z" fill="black"/>
<path d="M384.139 456.11H208.441V479.384H384.139V456.11Z" fill="white"/>
<path d="M384.139 480H208.441C208.082 480 207.792 479.725 207.792 479.384V456.11C207.792 455.769 208.082 455.494 208.441 455.494H384.139C384.498 455.494 384.788 455.769 384.788 456.11V479.384C384.788 479.725 384.498 480 384.139 480ZM209.093 478.765H383.49V456.727H209.093V478.765Z" fill="black"/>
<path d="M240.695 375.145H226.972V456.108H240.695V375.145Z" fill="white"/>
<path d="M240.695 456.727H226.972C226.612 456.727 226.323 456.451 226.323 456.11V375.148C226.323 374.807 226.612 374.531 226.972 374.531H240.695C241.054 374.531 241.344 374.807 241.344 375.148V456.11C241.344 456.451 241.054 456.727 240.695 456.727ZM227.623 455.491H240.046V375.761H227.623V455.491Z" fill="black"/>
<path d="M365.608 375.145H351.885V456.108H365.608V375.145Z" fill="white"/>
<path d="M365.608 456.727H351.885C351.526 456.727 351.236 456.451 351.236 456.11V375.148C351.236 374.807 351.526 374.531 351.885 374.531H365.608C365.967 374.531 366.257 374.807 366.257 375.148V456.11C366.257 456.451 365.967 456.727 365.608 456.727ZM352.537 455.491H364.959V375.761H352.537V455.491Z" fill="black"/>
<path d="M292.267 383.963H256.492V456.11H292.267V383.963Z" fill="white"/>
<path d="M292.27 456.727H256.494C256.135 456.727 255.845 456.451 255.845 456.11V383.963C255.845 383.622 256.135 383.347 256.494 383.347H292.27C292.629 383.347 292.919 383.622 292.919 383.963V456.11C292.919 456.451 292.629 456.727 292.27 456.727ZM257.143 455.491H291.621V384.58H257.143V455.491Z" fill="black"/>
<path d="M336.085 383.963H300.31V456.11H336.085V383.963Z" fill="white"/>
<path d="M336.085 456.727H300.309C299.95 456.727 299.66 456.451 299.66 456.11V383.963C299.66 383.622 299.95 383.347 300.309 383.347H336.085C336.444 383.347 336.734 383.622 336.734 383.963V456.11C336.734 456.451 336.444 456.727 336.085 456.727ZM300.958 455.491H335.436V384.58H300.958V455.491Z" fill="black"/>
<path d="M365.608 464.336H226.975C226.616 464.336 226.326 464.06 226.326 463.719C226.326 463.378 226.616 463.103 226.975 463.103H365.608C365.967 463.103 366.257 463.378 366.257 463.719C366.257 464.06 365.967 464.336 365.608 464.336Z" fill="black"/>
<path d="M365.608 472.317H226.975C226.616 472.317 226.326 472.042 226.326 471.701C226.326 471.36 226.616 471.084 226.975 471.084H365.608C365.967 471.084 366.257 471.36 366.257 471.701C366.257 472.042 365.967 472.317 365.608 472.317Z" fill="black"/>
<path d="M382.498 343.932H210.081L191.265 375.145H401.311L382.498 343.932Z" fill="black"/>
<path d="M401.311 375.764H191.265C191.033 375.764 190.82 375.646 190.702 375.457C190.586 375.265 190.586 375.032 190.702 374.84L209.515 343.627C209.631 343.436 209.846 343.318 210.078 343.318H382.495C382.727 343.318 382.942 343.436 383.058 343.627L401.871 374.84C401.987 375.032 401.985 375.265 401.871 375.457C401.755 375.648 401.54 375.764 401.308 375.764H401.311ZM192.386 374.528H400.189L382.119 344.551H210.456L192.386 374.528Z" fill="white"/>
<path d="M338.372 332.779H254.114C253.755 332.779 253.465 332.504 253.465 332.163V299.234C253.465 298.893 253.755 298.618 254.114 298.618H338.372C338.731 298.618 339.021 298.893 339.021 299.234V332.163C339.021 332.504 338.731 332.779 338.372 332.779ZM254.766 331.544H337.723V299.851H254.766V331.544Z" fill="black"/>
<path d="M270.798 324.06C270.632 324.06 270.466 324 270.339 323.879C270.085 323.638 270.085 323.247 270.339 323.006L289.693 304.627C289.947 304.386 290.359 304.386 290.613 304.627C290.867 304.868 290.867 305.259 290.613 305.5L271.259 323.879C271.132 324 270.966 324.06 270.8 324.06H270.798Z" fill="black"/>
<path d="M305.318 326.877C305.153 326.877 304.987 326.817 304.86 326.697C304.606 326.455 304.606 326.064 304.86 325.823L312.808 318.274C313.062 318.033 313.474 318.033 313.728 318.274C313.982 318.516 313.982 318.906 313.728 319.148L305.78 326.697C305.653 326.817 305.487 326.877 305.321 326.877H305.318Z" fill="black"/>
<path d="M483.085 353.393H401.239C400.88 353.393 400.59 353.117 400.59 352.776V287.145C400.59 286.804 400.88 286.529 401.239 286.529H483.085C483.445 286.529 483.734 286.804 483.734 287.145V352.776C483.734 353.117 483.445 353.393 483.085 353.393ZM401.891 352.157H482.436V287.761H401.891V352.157Z" fill="black"/>
<path d="M442.165 345.482C441.806 345.482 441.516 345.206 441.516 344.865V293.665C441.516 293.324 441.806 293.049 442.165 293.049C442.524 293.049 442.814 293.324 442.814 293.665V344.865C442.814 345.206 442.524 345.482 442.165 345.482Z" fill="black"/>
<path d="M405.58 346.022C405.415 346.022 405.249 345.962 405.122 345.841C404.868 345.6 404.868 345.209 405.122 344.968L437.627 314.096C437.881 313.854 438.293 313.854 438.547 314.096C438.801 314.337 438.801 314.728 438.547 314.969L406.042 345.841C405.915 345.962 405.749 346.022 405.583 346.022H405.58Z" fill="black"/>
<path d="M410.728 316.307C410.562 316.307 410.397 316.246 410.27 316.126C410.016 315.884 410.016 315.494 410.27 315.252L432.479 294.156C432.733 293.915 433.145 293.915 433.399 294.156C433.653 294.397 433.653 294.788 433.399 295.029L411.189 316.126C411.062 316.246 410.897 316.307 410.731 316.307H410.728Z" fill="black"/>
<path d="M449.788 335.25C449.622 335.25 449.456 335.19 449.329 335.069C449.075 334.828 449.075 334.437 449.329 334.196L470.788 313.815C471.042 313.574 471.453 313.574 471.707 313.815C471.962 314.057 471.962 314.447 471.707 314.689L450.249 335.069C450.122 335.19 449.956 335.25 449.79 335.25H449.788Z" fill="black"/>
<path d="M483.085 450.211H401.239C400.88 450.211 400.59 449.936 400.59 449.595V383.963C400.59 383.622 400.88 383.347 401.239 383.347H483.085C483.445 383.347 483.734 383.622 483.734 383.963V449.595C483.734 449.936 483.445 450.211 483.085 450.211ZM401.891 448.976H482.436V384.58H401.891V448.976Z" fill="black"/>
<path d="M442.165 442.298C441.806 442.298 441.516 442.022 441.516 441.681V390.481C441.516 390.14 441.806 389.865 442.165 389.865C442.524 389.865 442.814 390.14 442.814 390.481V441.681C442.814 442.022 442.524 442.298 442.165 442.298Z" fill="black"/>
<path d="M405.58 442.838C405.415 442.838 405.249 442.778 405.122 442.657C404.868 442.416 404.868 442.025 405.122 441.784L437.627 410.912C437.881 410.67 438.293 410.67 438.547 410.912C438.801 411.153 438.801 411.544 438.547 411.785L406.042 442.657C405.915 442.778 405.749 442.838 405.583 442.838H405.58Z" fill="black"/>
<path d="M410.728 413.123C410.562 413.123 410.397 413.062 410.27 412.942C410.016 412.7 410.016 412.309 410.27 412.068L432.479 390.972C432.733 390.73 433.145 390.73 433.399 390.972C433.653 391.213 433.653 391.604 433.399 391.845L411.189 412.942C411.062 413.062 410.897 413.123 410.731 413.123H410.728Z" fill="black"/>
<path d="M449.788 432.066C449.622 432.066 449.456 432.005 449.329 431.885C449.075 431.643 449.075 431.253 449.329 431.011L470.788 410.631C471.042 410.39 471.453 410.39 471.707 410.631C471.962 410.872 471.962 411.263 471.707 411.504L450.249 431.885C450.122 432.005 449.956 432.066 449.79 432.066H449.788Z" fill="black"/>
<path d="M421.833 61.5189C421.667 61.5189 421.502 61.4586 421.375 61.3379C369.946 12.7058 307.396 4.64023 263.984 6.43695C216.894 8.3858 181.519 22.0304 181.168 22.1694C180.837 22.2979 180.456 22.1484 180.32 21.8337C180.185 21.5189 180.343 21.1569 180.674 21.0284C181.027 20.8894 216.579 7.17137 263.885 5.20678C291.679 4.05269 318.039 7.11629 342.237 14.3163C372.495 23.3183 399.427 38.8461 422.292 60.4645C422.546 60.7058 422.546 61.0966 422.292 61.3379C422.165 61.4586 421.999 61.5189 421.83 61.5189H421.833Z" fill="black"/>
<path d="M388.811 55.9689C388.646 55.9689 388.48 55.9086 388.353 55.7905C350.316 19.9506 284.41 15.8745 283.75 15.8352C283.391 15.8142 283.118 15.523 283.14 15.182C283.162 14.8411 283.466 14.584 283.827 14.6024C283.993 14.6129 300.729 15.5938 321.972 21.0286C341.594 26.0463 369.198 36.0004 389.27 54.9119C389.524 55.1532 389.527 55.544 389.273 55.7853C389.146 55.906 388.977 55.9689 388.811 55.9689Z" fill="black"/>
<path d="M266.677 20.3596C264.288 20.3596 262.346 18.5157 262.346 16.2468C262.346 13.978 264.291 12.134 266.677 12.134C269.063 12.134 271.007 13.9806 271.007 16.2468C271.007 18.513 269.063 20.3596 266.677 20.3596ZM266.677 13.3668C265.006 13.3668 263.644 14.6573 263.644 16.2442C263.644 17.8311 265.003 19.1216 266.677 19.1216C268.35 19.1216 269.706 17.8311 269.706 16.2442C269.706 14.6573 268.348 13.3668 266.677 13.3668Z" fill="black"/>
<path d="M36.1202 190.815C35.7612 190.815 35.4712 190.539 35.4712 190.198V185.409C35.4712 185.068 35.7612 184.792 36.1202 184.792C36.4792 184.792 36.7692 185.068 36.7692 185.409V190.198C36.7692 190.539 36.4792 190.815 36.1202 190.815Z" fill="black"/>
<path d="M36.1202 201.972C35.7612 201.972 35.4712 201.697 35.4712 201.356V196.567C35.4712 196.226 35.7612 195.95 36.1202 195.95C36.4792 195.95 36.7692 196.226 36.7692 196.567V201.356C36.7692 201.697 36.4792 201.972 36.1202 201.972Z" fill="black"/>
<path d="M32.7671 193.998H27.7242C27.3652 193.998 27.0752 193.723 27.0752 193.382C27.0752 193.041 27.3652 192.766 27.7242 192.766H32.7671C33.1261 192.766 33.4161 193.041 33.4161 193.382C33.4161 193.723 33.1261 193.998 32.7671 193.998Z" fill="black"/>
<path d="M44.5152 193.998H39.4722C39.1132 193.998 38.8232 193.723 38.8232 193.382C38.8232 193.041 39.1132 192.766 39.4722 192.766H44.5152C44.8742 192.766 45.1642 193.041 45.1642 193.382C45.1642 193.723 44.8742 193.998 44.5152 193.998Z" fill="black"/>
<path d="M46.9569 357.065C46.7332 357.065 46.5123 356.955 46.3935 356.755C26.6279 324.215 21.179 289.82 20.0881 266.696C18.9061 241.642 22.4466 224.034 22.4825 223.858C22.5516 223.523 22.8885 223.305 23.2448 223.371C23.5983 223.436 23.8275 223.759 23.7584 224.094C23.7225 224.268 20.2096 241.76 21.3889 266.675C22.477 289.652 27.8927 323.824 47.5203 356.136C47.6998 356.433 47.5921 356.81 47.2828 356.981C47.1806 357.036 47.0701 357.065 46.9597 357.065H46.9569Z" fill="black"/>
<path d="M55.9878 350.29C55.7559 350.29 55.5294 350.169 55.4134 349.962C35.8217 314.746 33.3942 288.063 33.3721 287.798C33.3445 287.457 33.6096 287.161 33.9686 287.134C34.3359 287.106 34.6397 287.36 34.6673 287.701C34.6894 287.963 37.1059 314.413 56.5623 349.385C56.7307 349.687 56.6092 350.059 56.2916 350.219C56.195 350.269 56.09 350.29 55.9878 350.29Z" fill="black"/>
</svg>
