<svg width="526" height="456" viewBox="0 0 526 456" fill="none" xmlns="http://www.w3.org/2000/svg">
<g clip-path="url(#clip0_36_1187)">
<path d="M358.339 448.388C358.339 448.388 346.065 394.059 374.89 351.372C375.853 349.944 382.197 353.375 383.254 351.977C384.605 350.188 380.705 343.58 382.217 341.848C387.839 335.409 394.6 329.392 402.717 324.059C402.717 324.059 409.165 340.789 407.69 364.038C407.578 365.792 399.001 368.615 398.794 370.439C398.598 372.161 406.779 372.879 406.486 374.655C402.7 397.635 390.4 424.877 358.341 448.39L358.339 448.388Z" fill="white"/>
<path d="M358.339 448.938C358.267 448.938 358.198 448.928 358.129 448.908C357.916 448.844 357.761 448.687 357.718 448.497C357.686 448.36 354.642 434.64 355.171 415.877C355.66 398.552 359.385 373.25 374.344 351.098C375.082 350.004 377.097 350.559 379.23 351.142C380.279 351.429 382.458 352.027 382.723 351.678C383.234 351.003 382.602 348.865 382.093 347.146C381.406 344.813 380.754 342.611 381.708 341.519C387.615 334.756 394.551 328.736 402.329 323.623C402.49 323.516 402.703 323.483 402.899 323.536C403.094 323.588 403.246 323.718 403.313 323.887C403.379 324.054 409.783 340.983 408.317 364.07C408.248 365.176 406.486 366.161 403.62 367.673C401.976 368.54 399.492 369.853 399.418 370.494C399.369 370.917 401.697 371.64 402.815 371.989C405.135 372.709 407.328 373.392 407.107 374.732C402.306 403.869 386.037 428.792 358.744 448.809C358.629 448.893 358.482 448.938 358.336 448.938H358.339ZM375.804 351.551C375.614 351.551 375.485 351.581 375.436 351.648C349.115 390.63 357.341 439.975 358.77 447.348C385.313 427.616 401.151 403.139 405.856 374.575C405.931 374.119 403.54 373.377 402.39 373.02C400.041 372.29 398.015 371.662 398.161 370.384C398.288 369.278 400.062 368.266 402.965 366.734C404.58 365.881 407.018 364.593 407.055 364.008C408.334 343.841 403.571 328.455 402.378 324.974C394.982 329.92 388.374 335.706 382.72 342.179C382.133 342.85 382.792 345.08 383.321 346.872C383.979 349.097 384.597 351.197 383.781 352.279C382.99 353.328 380.975 352.772 378.845 352.189C378.089 351.982 376.525 351.551 375.801 351.551H375.804Z" fill="black"/>
<path d="M373.501 412.832C373.438 412.832 373.372 412.824 373.309 412.805C372.975 412.712 372.791 412.403 372.898 412.114C379.13 395.27 393.91 354.638 396.589 341.232C396.649 340.933 396.98 340.734 397.322 340.786C397.667 340.839 397.897 341.123 397.84 341.422C395.244 354.412 381.858 391.5 374.108 412.453C374.022 412.685 373.772 412.834 373.504 412.834L373.501 412.832Z" fill="black"/>
<path d="M352.518 386.409C351.811 384.739 343.541 388.071 342.791 386.466C342.052 384.886 348.287 376.332 347.513 374.817C332.359 345.085 311.413 327.974 311.413 327.974C305.112 339.894 301.407 351.89 299.682 363.689C299.406 365.572 307.826 370.925 307.647 372.799C307.452 374.854 298.967 375.37 298.883 377.409C297.67 407.529 308.059 433.91 319.873 455.449C334.909 454.677 349.031 452.521 362.236 449.158C364.625 424.369 360.17 404.46 352.515 386.406L352.518 386.409Z" fill="white"/>
<path d="M319.875 456C319.631 456 319.41 455.878 319.303 455.686C304.132 428.027 297.245 402.416 298.254 377.391C298.311 375.991 300.605 375.31 303.037 374.588C304.693 374.097 306.958 373.422 307.021 372.756C307.084 372.081 304.779 370.045 303.253 368.7C300.533 366.298 298.892 364.76 299.059 363.624C300.881 351.165 304.845 339.095 310.841 327.747C310.927 327.587 311.094 327.47 311.295 327.438C311.496 327.405 311.703 327.455 311.85 327.577C312.06 327.749 333.061 345.105 348.094 374.598C348.574 375.537 347.511 377.585 345.74 380.852C344.696 382.776 343.121 385.681 343.38 386.264C343.702 386.603 346.254 386.122 347.482 385.891C350.21 385.377 352.567 384.934 353.113 386.222C361.912 406.974 365.01 426.988 362.872 449.207C362.849 449.434 362.67 449.623 362.417 449.688C348.939 453.119 334.639 455.242 319.913 456C319.901 456 319.887 456 319.875 456ZM311.617 328.918C305.883 339.954 302.08 351.676 300.312 363.761C300.211 364.451 302.583 366.544 304.152 367.93C306.779 370.25 308.383 371.727 308.28 372.846C308.148 374.229 305.863 374.909 303.445 375.627C301.798 376.115 299.544 376.786 299.519 377.431C298.524 402.175 305.308 427.511 320.264 454.881C334.593 454.119 348.508 452.053 361.644 448.739C363.697 426.833 360.607 407.078 351.923 386.598C351.756 386.207 348.844 386.753 347.749 386.96C345.082 387.463 342.776 387.896 342.204 386.673C341.753 385.709 342.819 383.653 344.593 380.381C345.622 378.482 347.177 375.614 346.933 375.036C333.475 348.633 315.233 332.053 311.614 328.915L311.617 328.918Z" fill="black"/>
<path d="M341.304 443.431C341.037 443.431 340.79 443.284 340.701 443.05C337.151 433.544 333.839 423.826 330.864 414.17C330.775 413.878 330.976 413.577 331.313 413.497C331.649 413.415 331.997 413.592 332.089 413.886C335.058 423.522 338.361 433.22 341.905 442.711C342.014 443 341.83 443.309 341.497 443.401C341.431 443.419 341.368 443.429 341.302 443.429L341.304 443.431Z" fill="black"/>
<path d="M327.424 400.752C327.139 400.752 326.878 400.582 326.809 400.33C322.253 383.942 318.481 367.18 315.598 350.507L314.279 342.882C314.227 342.583 314.466 342.301 314.811 342.257C315.156 342.214 315.481 342.418 315.532 342.718L316.852 350.342C319.729 366.983 323.495 383.715 328.042 400.071C328.125 400.365 327.915 400.662 327.573 400.734C327.525 400.744 327.473 400.749 327.424 400.749V400.752Z" fill="black"/>
<path d="M355.881 450.643C355.881 450.643 361.572 397.258 424.572 393.902C424.572 393.902 414.738 439.293 355.881 450.643Z" fill="white"/>
<path d="M355.881 451.191C355.728 451.191 355.579 451.143 355.461 451.054C355.309 450.939 355.231 450.767 355.248 450.593C355.263 450.458 356.792 436.968 366.054 423.253C374.614 410.577 391.708 395.1 424.529 393.354C424.724 393.349 424.914 393.411 425.043 393.538C425.173 393.665 425.227 393.837 425.19 394.004C425.164 394.119 422.594 405.608 412.821 418.321C403.801 430.053 386.623 445.278 356.016 451.181C355.97 451.188 355.924 451.193 355.878 451.193L355.881 451.191ZM423.773 394.495C392.053 396.428 375.482 411.469 367.149 423.806C359.276 435.463 357.079 446.927 356.617 449.932C386.244 443.994 402.936 429.186 411.74 417.748C420.016 406.999 423.06 397.149 423.773 394.495Z" fill="black"/>
<path d="M370.756 439.806C370.63 439.806 370.503 439.773 370.391 439.706C370.107 439.532 370.038 439.188 370.242 438.941C382.153 424.357 410.849 404.302 411.137 404.103C411.41 403.914 411.806 403.951 412.028 404.188C412.246 404.425 412.203 404.768 411.93 404.96C411.642 405.16 383.085 425.121 371.274 439.579C371.15 439.731 370.954 439.811 370.756 439.811V439.806Z" fill="black"/>
<path d="M514.781 83.7493H256.031V212.162H514.781V83.7493Z" fill="white"/>
<path d="M514.781 212.71H256.031C255.681 212.71 255.399 212.463 255.399 212.162V83.7494C255.399 83.4454 255.684 83.2012 256.031 83.2012H514.781C515.132 83.2012 515.414 83.4479 515.414 83.7494V212.162C515.414 212.466 515.129 212.71 514.781 212.71ZM256.664 211.611H514.149V84.2976H256.664V211.611Z" fill="black"/>
<path d="M295.977 192.721H268.345C266.882 192.721 265.692 191.689 265.692 190.424V144.971C265.692 143.702 266.882 142.673 268.345 142.673H295.977C297.44 142.673 298.63 143.705 298.63 144.971V190.424C298.63 191.692 297.44 192.721 295.977 192.721ZM268.345 143.769C267.58 143.769 266.96 144.308 266.96 144.971V190.424C266.96 191.086 267.58 191.625 268.345 191.625H295.977C296.742 191.625 297.363 191.086 297.363 190.424V144.971C297.363 144.308 296.742 143.769 295.977 143.769H268.345Z" fill="black"/>
<path d="M274.028 168.329C273.876 168.329 273.72 168.281 273.6 168.184C273.341 167.98 273.327 167.631 273.562 167.409L291.171 150.816C291.407 150.592 291.809 150.577 292.065 150.784C292.324 150.988 292.338 151.337 292.103 151.559L274.494 168.152C274.37 168.269 274.197 168.329 274.028 168.329Z" fill="black"/>
<path d="M273.05 182.926C272.901 182.926 272.749 182.878 272.628 182.786C272.366 182.584 272.343 182.238 272.576 182.011L288.621 166.427C288.854 166.201 289.254 166.181 289.515 166.383C289.777 166.584 289.8 166.931 289.567 167.158L273.522 182.741C273.395 182.863 273.223 182.926 273.048 182.926H273.05Z" fill="black"/>
<path d="M503.053 192.721H475.421C473.958 192.721 472.771 191.689 472.771 190.424V144.971C472.771 143.702 473.961 142.673 475.421 142.673H503.053C504.516 142.673 505.706 143.705 505.706 144.971V190.424C505.706 191.692 504.516 192.721 503.053 192.721ZM475.421 143.769C474.656 143.769 474.035 144.308 474.035 144.971V190.424C474.035 191.086 474.656 191.625 475.421 191.625H503.053C503.818 191.625 504.438 191.086 504.438 190.424V144.971C504.438 144.308 503.818 143.769 503.053 143.769H475.421Z" fill="black"/>
<path d="M481.101 165.583C480.948 165.583 480.793 165.535 480.672 165.438C480.414 165.234 480.399 164.885 480.635 164.663L497.629 148.646C497.865 148.422 498.267 148.407 498.523 148.613C498.781 148.818 498.796 149.167 498.56 149.388L481.566 165.406C481.443 165.523 481.27 165.583 481.101 165.583Z" fill="black"/>
<path d="M480.126 182.926C479.977 182.926 479.824 182.878 479.704 182.786C479.442 182.584 479.419 182.238 479.652 182.011L495.697 166.427C495.93 166.201 496.329 166.181 496.591 166.383C496.853 166.584 496.876 166.931 496.643 167.158L480.597 182.741C480.471 182.863 480.299 182.926 480.126 182.926Z" fill="white"/>
<path d="M319.404 42.9686H303.807V12.6509H319.404V42.9686Z" fill="black"/>
<path d="M519.237 93.3827H251.576C249.267 93.3827 247.658 91.3917 248.448 89.5129L269.236 40.0133C269.716 38.867 270.978 38.1095 272.384 38.117L497.885 39.2956C499.256 39.3031 500.481 40.0382 500.972 41.147L522.341 89.4706C523.177 91.3594 521.568 93.3877 519.234 93.3877L519.237 93.3827Z" fill="black"/>
<path d="M463.682 212.162L463.15 86.5828L386.29 2.06079L307.13 85.4041L307.872 212.162H463.682Z" fill="white"/>
<path d="M463.682 212.71H307.875C307.527 212.71 307.243 212.466 307.243 212.165L306.501 85.4065C306.501 85.2795 306.553 85.1549 306.645 85.0552L385.802 1.71186C385.922 1.58477 386.08 1.51002 386.296 1.51251C386.489 1.51251 386.667 1.59225 386.787 1.72182L463.648 86.2438C463.737 86.341 463.783 86.4581 463.783 86.5827L464.314 212.162C464.314 212.309 464.248 212.449 464.131 212.551C464.013 212.655 463.849 212.713 463.682 212.713V212.71ZM308.504 211.611H463.047L462.518 86.7721L386.279 2.93533L307.766 85.6009L308.502 211.614L308.504 211.611Z" fill="black"/>
<path d="M348.951 192.843L322.302 192.721C320.585 192.721 319.188 191.51 319.188 190.02V145.369C319.188 143.879 320.585 142.668 322.304 142.668L348.956 142.79C350.67 142.79 352.069 144.001 352.069 145.491V190.142C352.069 191.632 350.672 192.843 348.953 192.843H348.951ZM322.299 143.767C321.284 143.767 320.453 144.487 320.453 145.369V190.02C320.453 190.905 321.281 191.622 322.302 191.622H322.304L348.951 191.744C349.965 191.744 350.796 191.024 350.796 190.142V145.491C350.796 144.607 349.965 143.889 348.948 143.889L322.296 143.767H322.299Z" fill="black"/>
<path d="M327.513 178.398C327.363 178.398 327.211 178.351 327.09 178.259C326.829 178.057 326.806 177.71 327.039 177.484L343.084 161.9C343.317 161.673 343.716 161.653 343.978 161.855C344.239 162.057 344.262 162.403 344.029 162.63L327.984 178.214C327.858 178.336 327.685 178.398 327.513 178.398Z" fill="black"/>
<path d="M447.654 192.843L421.005 192.721C419.289 192.721 417.892 191.51 417.892 190.02V145.369C417.892 143.879 419.289 142.668 421.008 142.668L447.659 142.79C449.373 142.79 450.772 144.001 450.772 145.491V190.142C450.772 191.632 449.376 192.843 447.657 192.843H447.654ZM421.002 143.767C419.987 143.767 419.156 144.487 419.156 145.369V190.02C419.156 190.905 419.987 191.622 421.005 191.622H421.008L447.654 191.744C448.668 191.744 449.499 191.024 449.499 190.142V145.491C449.499 144.607 448.668 143.889 447.651 143.889L420.999 143.767H421.002Z" fill="black"/>
<path d="M426.216 171.262C426.066 171.262 425.914 171.214 425.793 171.122C425.532 170.92 425.509 170.574 425.742 170.347L441.787 154.763C442.02 154.537 442.419 154.517 442.681 154.719C442.942 154.92 442.965 155.267 442.733 155.494L426.687 171.077C426.561 171.199 426.388 171.262 426.216 171.262Z" fill="black"/>
<path d="M406.167 212.989H364.826C364.475 212.989 364.194 212.743 364.194 212.441V203.837C364.194 203.533 364.478 203.289 364.826 203.289C365.174 203.289 365.459 203.535 365.459 203.837V211.891H405.534V146.511C405.534 144.998 404.114 143.765 402.367 143.765H368.623C366.879 143.765 365.456 144.996 365.456 146.511V181.822C365.456 182.126 365.171 182.37 364.823 182.37C364.475 182.37 364.191 182.123 364.191 181.822V146.511C364.191 144.393 366.18 142.668 368.623 142.668H402.367C404.81 142.668 406.799 144.393 406.799 146.511V212.439C406.799 212.743 406.514 212.987 406.167 212.987V212.989Z" fill="black"/>
<path d="M376.203 174.052C376.057 174.052 375.907 174.008 375.786 173.918C375.522 173.719 375.496 173.372 375.726 173.143L398.454 150.555C398.684 150.328 399.084 150.303 399.348 150.502C399.613 150.702 399.639 151.048 399.409 151.277L376.68 173.866C376.554 173.99 376.378 174.055 376.203 174.055V174.052Z" fill="black"/>
<path d="M381.121 182.926C380.972 182.926 380.819 182.878 380.699 182.786C380.437 182.584 380.414 182.238 380.647 182.011L397.051 166.079C397.284 165.852 397.684 165.832 397.945 166.034C398.207 166.236 398.23 166.582 397.997 166.809L381.593 182.741C381.466 182.863 381.294 182.926 381.121 182.926Z" fill="black"/>
<path d="M298.579 91.9151L385.111 1.87629C385.913 1.04154 387.408 1.05151 388.196 1.89374L472.294 91.935C472.843 92.5206 472.354 93.3903 471.477 93.3903H462.779L386.666 10.1715L305.995 93.6893H299.559C298.487 93.6893 297.9 92.6228 298.582 91.9126L298.579 91.9151Z" fill="black"/>
<path d="M424.747 104.005H346.067C345.717 104.005 345.435 103.759 345.435 103.457V95.8796C345.435 76.7724 363.366 61.2261 385.407 61.2261C407.449 61.2261 425.379 76.7699 425.379 95.8796V103.457C425.379 103.761 425.095 104.005 424.747 104.005ZM346.7 102.906H424.115V95.8796C424.115 77.3779 406.75 62.325 385.407 62.325C364.064 62.325 346.7 77.3779 346.7 95.8796V102.906Z" fill="black"/>
<path d="M372.794 95.9045C372.642 95.9045 372.486 95.8571 372.366 95.7599C372.107 95.5556 372.093 95.2067 372.328 94.985L400.38 68.5494C400.616 68.3252 401.018 68.3102 401.274 68.517C401.53 68.7239 401.547 69.0702 401.312 69.292L373.26 95.7275C373.136 95.8447 372.964 95.9045 372.794 95.9045Z" fill="black"/>
<path d="M388.575 95.9044C388.425 95.9044 388.273 95.8571 388.152 95.7649C387.891 95.5631 387.868 95.2167 388.101 94.9899L403.536 79.9992C403.769 79.7725 404.169 79.7526 404.43 79.9544C404.692 80.1562 404.715 80.5026 404.482 80.7294L389.046 95.72C388.92 95.8421 388.747 95.9044 388.572 95.9044H388.575Z" fill="black"/>
<path d="M282.829 64.2285H0.632324V397.951H282.829V64.2285Z" fill="white"/>
<path d="M282.829 398.499H0.632381C0.281697 398.499 0 398.252 0 397.951V64.2286C0 63.9246 0.284571 63.6804 0.632381 63.6804H282.829C283.18 63.6804 283.462 63.9271 283.462 64.2286V397.951C283.462 398.255 283.177 398.499 282.829 398.499ZM1.26476 397.4H282.194V64.7768H1.26764V397.4H1.26476Z" fill="black"/>
<path d="M265.583 383.551H18.0372C17.6865 383.551 17.4048 383.304 17.4048 383.002V225.735C17.4048 225.431 17.6894 225.187 18.0372 225.187H265.586C265.936 225.187 266.218 225.433 266.218 225.735V383.002C266.218 383.306 265.933 383.551 265.586 383.551H265.583ZM18.6695 382.452H264.95V226.283H18.6695V382.452Z" fill="black"/>
<path d="M254.726 374.139H28.897C28.5463 374.139 28.2646 373.892 28.2646 373.591V235.151C28.2646 234.847 28.5492 234.603 28.897 234.603H254.726C255.077 234.603 255.358 234.85 255.358 235.151V373.591C255.358 373.895 255.074 374.139 254.726 374.139ZM29.5323 373.04H254.094V235.699H29.5294V373.04H29.5323Z" fill="black"/>
<path d="M28.8968 273.602H18.0371V382.973H28.8968V273.602Z" fill="black"/>
<path d="M265.585 345.471H254.726V382.973H265.585V345.471Z" fill="black"/>
<path d="M148.92 316.863H138.06V382.973H148.92V316.863Z" fill="black"/>
<path d="M148.92 225.735H138.06V272.959H148.92V225.735Z" fill="black"/>
<path d="M28.8968 225.735H18.0371V255.061H28.8968V225.735Z" fill="black"/>
<path d="M265.585 225.735H254.726V262.23H265.585V225.735Z" fill="black"/>
<path d="M265.585 288.76H254.726V319.9H265.585V288.76Z" fill="black"/>
<path d="M18.0371 225.735V235.149H96.5932V225.735H18.0371Z" fill="black"/>
<path d="M18.0371 300.312V304.299H93.5865V300.312H18.0371Z" fill="black"/>
<path d="M117.128 268.973V272.959H148.92V268.973H117.128Z" fill="black"/>
<path d="M92.5059 268.973V272.959H99.5368V268.973H92.5059Z" fill="black"/>
<path d="M116.24 316.857V320.844H148.92V316.857H116.24Z" fill="black"/>
<path d="M90.2061 316.857V320.844H100.129V316.857H90.2061Z" fill="black"/>
<path d="M94.8052 225.735H90.2061V280.656H94.8052V225.735Z" fill="black"/>
<path d="M94.7969 294.421H90.1978V319.661H94.7969V294.421Z" fill="black"/>
<path d="M124.174 225.735V235.149H195.432V225.735H124.174Z" fill="black"/>
<path d="M225.449 225.737V235.151H265.582V225.737H225.449Z" fill="black"/>
<path d="M88.6021 373.588V383.002H265.585V373.588H88.6021Z" fill="black"/>
<path d="M18.0371 373.588V383.002H57.3137V373.588H18.0371Z" fill="black"/>
<path d="M230.175 269.615H189.079C188.728 269.615 188.447 269.369 188.447 269.067V251.139C188.447 250.835 188.731 250.59 189.079 250.59H230.175C230.526 250.59 230.808 250.837 230.808 251.139V269.067C230.808 269.371 230.523 269.615 230.175 269.615ZM189.712 268.516H229.543V251.687H189.712V268.516Z" fill="black"/>
<path d="M195.162 269.446C194.811 269.446 194.529 269.199 194.529 268.898V256.279C194.529 255.975 194.814 255.731 195.162 255.731C195.509 255.731 195.794 255.978 195.794 256.279V268.898C195.794 269.202 195.509 269.446 195.162 269.446Z" fill="black"/>
<path d="M229.822 256.827H189.43C189.079 256.827 188.797 256.581 188.797 256.279C188.797 255.978 189.082 255.731 189.43 255.731H229.822C230.172 255.731 230.454 255.978 230.454 256.279C230.454 256.581 230.169 256.827 229.822 256.827Z" fill="black"/>
<path d="M224.09 269.446C223.739 269.446 223.458 269.199 223.458 268.898V256.279C223.458 255.975 223.742 255.731 224.09 255.731C224.438 255.731 224.722 255.978 224.722 256.279V268.898C224.722 269.202 224.438 269.446 224.09 269.446Z" fill="black"/>
<path d="M206.127 374.097H148.302C147.951 374.097 147.669 373.85 147.669 373.548V353.691C147.669 353.387 147.954 353.143 148.302 353.143H206.127C206.478 353.143 206.76 353.39 206.76 353.691V373.548C206.76 373.852 206.475 374.097 206.127 374.097ZM148.934 372.998H205.495V354.239H148.934V372.998Z" fill="black"/>
<path d="M178.073 374.097C177.722 374.097 177.44 373.85 177.44 373.548V353.691C177.44 353.387 177.725 353.143 178.073 353.143C178.421 353.143 178.705 353.39 178.705 353.691V373.548C178.705 373.852 178.421 374.097 178.073 374.097Z" fill="black"/>
<path d="M185.086 374.097C184.736 374.097 184.454 373.85 184.454 373.548V353.691C184.454 353.387 184.739 353.143 185.086 353.143C185.434 353.143 185.719 353.39 185.719 353.691V373.548C185.719 373.852 185.434 374.097 185.086 374.097Z" fill="black"/>
<path d="M192.1 374.097C191.749 374.097 191.468 373.85 191.468 373.548V353.691C191.468 353.387 191.752 353.143 192.1 353.143C192.448 353.143 192.733 353.39 192.733 353.691V373.548C192.733 373.852 192.448 374.097 192.1 374.097Z" fill="black"/>
<path d="M199.114 374.097C198.763 374.097 198.481 373.85 198.481 373.548V353.691C198.481 353.387 198.766 353.143 199.114 353.143C199.462 353.143 199.746 353.39 199.746 353.691V373.548C199.746 373.852 199.462 374.097 199.114 374.097Z" fill="black"/>
<path d="M171.059 373.538H148.152C147.802 373.538 147.52 373.292 147.52 372.99V323.79C147.52 323.486 147.805 323.241 148.152 323.241H171.059C171.41 323.241 171.691 323.488 171.691 323.79V372.99C171.691 373.294 171.407 373.538 171.059 373.538ZM148.788 372.44H170.427V324.338H148.788V372.44Z" fill="black"/>
<path d="M171.059 348.14H148.152C147.802 348.14 147.52 347.893 147.52 347.591C147.52 347.29 147.805 347.043 148.152 347.043H171.059C171.41 347.043 171.691 347.29 171.691 347.591C171.691 347.893 171.407 348.14 171.059 348.14Z" fill="black"/>
<path d="M171.059 342.132H148.152C147.802 342.132 147.52 341.885 147.52 341.584C147.52 341.282 147.805 341.035 148.152 341.035H171.059C171.41 341.035 171.691 341.282 171.691 341.584C171.691 341.885 171.407 342.132 171.059 342.132Z" fill="black"/>
<path d="M171.059 336.122H148.152C147.802 336.122 147.52 335.875 147.52 335.573C147.52 335.272 147.805 335.025 148.152 335.025H171.059C171.41 335.025 171.691 335.272 171.691 335.573C171.691 335.875 171.407 336.122 171.059 336.122Z" fill="black"/>
<path d="M171.059 330.114H148.152C147.802 330.114 147.52 329.867 147.52 329.566C147.52 329.264 147.805 329.018 148.152 329.018H171.059C171.41 329.018 171.691 329.264 171.691 329.566C171.691 329.867 171.407 330.114 171.059 330.114Z" fill="black"/>
<path d="M76.935 368.179H35.836C35.4853 368.179 35.2036 367.932 35.2036 367.631V349.702C35.2036 349.398 35.4882 349.154 35.836 349.154H76.9321C77.2828 349.154 77.5645 349.401 77.5645 349.702V367.631C77.5645 367.935 77.2799 368.179 76.9321 368.179H76.935ZM36.4712 367.08H76.3026V350.25H36.4684V367.08H36.4712Z" fill="black"/>
<path d="M70.8497 364.035C70.499 364.035 70.2173 363.788 70.2173 363.487V349.874C70.2173 349.57 70.5019 349.326 70.8497 349.326C71.1975 349.326 71.482 349.572 71.482 349.874V363.487C71.482 363.791 71.1975 364.035 70.8497 364.035Z" fill="black"/>
<path d="M76.5814 364.035H36.1895C35.8388 364.035 35.5571 363.788 35.5571 363.487C35.5571 363.185 35.8417 362.938 36.1895 362.938H76.5814C76.9321 362.938 77.2138 363.185 77.2138 363.487C77.2138 363.788 76.9292 364.035 76.5814 364.035Z" fill="black"/>
<path d="M41.9214 364.035C41.5708 364.035 41.2891 363.788 41.2891 363.487V349.874C41.2891 349.57 41.5736 349.326 41.9214 349.326C42.2693 349.326 42.5538 349.572 42.5538 349.874V363.487C42.5538 363.791 42.2693 364.035 41.9214 364.035Z" fill="black"/>
<path d="M209.626 303.27C202.034 303.27 195.86 297.917 195.86 291.336C195.86 284.755 202.034 279.403 209.626 279.403C217.217 279.403 223.391 284.755 223.391 291.336C223.391 297.917 217.217 303.27 209.626 303.27ZM209.626 280.502C202.733 280.502 197.127 285.363 197.127 291.336C197.127 297.309 202.736 302.171 209.626 302.171C216.516 302.171 222.124 297.312 222.124 291.336C222.124 285.361 216.516 280.502 209.626 280.502Z" fill="black"/>
<path d="M41.7198 275.778H41.3433C36.5084 275.778 32.5762 272.369 32.5762 268.178V238.974C32.5762 238.67 32.8607 238.426 33.2086 238.426H50.484C50.8347 238.426 51.1164 238.672 51.1164 238.974V268.178C51.1164 268.203 51.1164 268.23 51.1107 268.255C50.4122 272.543 46.3736 275.778 41.717 275.778H41.7198ZM33.8438 239.524V268.178C33.8438 271.763 37.2069 274.679 41.3433 274.679H41.7198C45.7354 274.679 49.225 271.871 49.8517 268.138V239.522H33.8438V239.524Z" fill="black"/>
<path d="M80.0304 249.502C77.9148 249.502 75.8855 248.722 74.4655 247.361C73.0455 246.001 72.3499 244.174 72.5597 242.35L72.9535 238.921C72.9851 238.64 73.2582 238.426 73.583 238.426H86.4721C86.7969 238.426 87.07 238.64 87.1016 238.921L87.4954 242.35C87.7052 244.174 87.0125 246.001 85.5925 247.361C84.1725 248.722 82.1432 249.502 80.0276 249.502H80.0304ZM74.1579 239.524L73.8216 242.46C73.6463 243.977 74.224 245.495 75.4054 246.626C76.5868 247.757 78.2713 248.405 80.0304 248.405C81.7896 248.405 83.474 247.757 84.6554 246.626C85.8368 245.495 86.4117 243.977 86.2393 242.46L85.9029 239.524H74.1608H74.1579Z" fill="black"/>
<path d="M61.8098 257.443H61.5856C58.5617 257.443 56.104 255.31 56.104 252.691V244.558C56.104 244.254 56.3886 244.01 56.7364 244.01H66.6561C67.0068 244.01 67.2885 244.256 67.2885 244.558V252.691C67.2885 255.312 64.8309 257.443 61.8069 257.443H61.8098ZM57.3716 245.108V252.691C57.3716 254.707 59.263 256.344 61.5856 256.344H61.8098C64.1352 256.344 66.0238 254.704 66.0238 252.691V245.108H57.3688H57.3716Z" fill="black"/>
<path d="M67.9437 245.138H55.4542C55.1035 245.138 54.8218 244.892 54.8218 244.59V238.847C54.8218 238.543 55.1063 238.298 55.4542 238.298H67.9437C68.2944 238.298 68.5761 238.545 68.5761 238.847V244.59C68.5761 244.894 68.2915 245.138 67.9437 245.138ZM56.0865 244.039H67.3113V239.395H56.0865V244.039Z" fill="black"/>
<path d="M93.6067 295.717H71.7608C71.4101 295.717 71.1284 295.47 71.1284 295.169C71.1284 294.867 71.413 294.621 71.7608 294.621H93.6067C93.9574 294.621 94.2391 294.867 94.2391 295.169C94.2391 295.47 93.9545 295.717 93.6067 295.717Z" fill="black"/>
<path d="M99.5367 273.012C99.186 273.012 98.9043 272.765 98.9043 272.463V254.59C98.9043 254.286 99.1889 254.042 99.5367 254.042C99.8845 254.042 100.169 254.288 100.169 254.59V272.463C100.169 272.767 99.8845 273.012 99.5367 273.012Z" fill="black"/>
<path d="M99.5367 319.561C99.186 319.561 98.9043 319.314 98.9043 319.013V301.443C98.9043 301.139 99.1889 300.895 99.5367 300.895C99.8845 300.895 100.169 301.142 100.169 301.443V319.013C100.169 319.317 99.8845 319.561 99.5367 319.561Z" fill="black"/>
<path d="M117.128 273.059C116.778 273.059 116.496 272.812 116.496 272.511C116.496 271.21 116.398 269.947 116.209 268.756C116.16 268.457 116.404 268.178 116.749 268.138C117.091 268.093 117.416 268.305 117.465 268.606C117.663 269.847 117.764 271.163 117.764 272.513C117.764 272.817 117.479 273.062 117.131 273.062L117.128 273.059ZM115.864 265.487C115.596 265.487 115.346 265.34 115.26 265.105C114.803 263.879 114.219 262.738 113.521 261.714C113.343 261.452 113.443 261.116 113.745 260.961C114.047 260.807 114.435 260.894 114.613 261.156C115.361 262.25 115.984 263.466 116.467 264.769C116.574 265.058 116.393 265.367 116.059 265.462C115.996 265.479 115.93 265.489 115.864 265.489V265.487ZM111.345 258.968C111.187 258.968 111.029 258.916 110.905 258.814C109.885 257.956 108.732 257.236 107.473 256.668C107.163 256.529 107.042 256.197 107.203 255.928C107.364 255.659 107.746 255.554 108.057 255.694C109.422 256.309 110.678 257.094 111.785 258.024C112.035 258.235 112.044 258.582 111.799 258.801C111.676 258.913 111.509 258.968 111.345 258.968ZM103.604 255.45C103.561 255.45 103.515 255.447 103.472 255.437C102.23 255.208 100.905 255.093 99.5396 255.091C99.1889 255.091 98.9072 254.844 98.9072 254.543C98.9072 254.239 99.1918 253.994 99.5396 253.994C100.994 253.994 102.405 254.119 103.733 254.363C104.076 254.425 104.294 254.717 104.222 255.014C104.159 255.273 103.897 255.45 103.604 255.45Z" fill="black"/>
<path d="M117.128 319.76C116.778 319.76 116.496 319.514 116.496 319.212C116.496 317.911 116.398 316.648 116.209 315.457C116.16 315.158 116.404 314.879 116.749 314.839C117.091 314.797 117.416 315.006 117.465 315.307C117.663 316.548 117.764 317.864 117.764 319.215C117.764 319.519 117.479 319.763 117.131 319.763L117.128 319.76ZM115.864 312.188C115.596 312.188 115.346 312.041 115.26 311.806C114.803 310.581 114.219 309.439 113.521 308.415C113.343 308.154 113.443 307.817 113.745 307.663C114.047 307.508 114.435 307.595 114.613 307.857C115.361 308.951 115.984 310.167 116.467 311.47C116.574 311.759 116.393 312.068 116.059 312.163C115.996 312.18 115.93 312.19 115.864 312.19V312.188ZM111.345 305.669C111.187 305.669 111.029 305.617 110.905 305.515C109.885 304.658 108.732 303.937 107.473 303.369C107.163 303.23 107.042 302.898 107.203 302.629C107.364 302.36 107.746 302.253 108.057 302.395C109.422 303.01 110.678 303.795 111.785 304.725C112.035 304.937 112.044 305.283 111.799 305.502C111.676 305.614 111.509 305.669 111.345 305.669ZM103.604 302.151C103.561 302.151 103.515 302.146 103.472 302.138C102.23 301.909 100.905 301.794 99.5396 301.792C99.1889 301.792 98.9072 301.545 98.9072 301.244C98.9072 300.94 99.1918 300.696 99.5396 300.696C100.994 300.696 102.405 300.82 103.733 301.064C104.076 301.127 104.294 301.418 104.222 301.715C104.159 301.974 103.897 302.151 103.604 302.151Z" fill="black"/>
<path d="M71.7608 295.717C71.4101 295.717 71.1284 295.47 71.1284 295.169C71.1284 293.911 71.2721 292.687 71.5538 291.533C71.6257 291.237 71.9649 291.047 72.3041 291.11C72.6461 291.172 72.8646 291.464 72.7927 291.76C72.5283 292.839 72.3961 293.985 72.3961 295.169C72.3961 295.473 72.1115 295.717 71.7637 295.717H71.7608ZM73.6493 288.586C73.5516 288.586 73.451 288.566 73.359 288.523C73.0486 288.384 72.9278 288.052 73.0888 287.783C73.7988 286.6 74.7042 285.513 75.7764 284.551C76.0207 284.335 76.4203 284.327 76.6732 284.539C76.9233 284.751 76.932 285.097 76.6876 285.316C75.6988 286.201 74.8652 287.2 74.2127 288.292C74.1006 288.478 73.8793 288.588 73.6493 288.588V288.586ZM79.7116 283.124C79.496 283.124 79.2833 283.026 79.1654 282.854C78.9872 282.593 79.0878 282.256 79.3896 282.102C80.6515 281.457 82.0542 280.913 83.5576 280.495C83.891 280.403 84.2474 280.559 84.3538 280.849C84.4602 281.138 84.2791 281.447 83.9456 281.539C82.5314 281.935 81.2149 282.443 80.0335 283.049C79.9329 283.101 79.8208 283.126 79.7116 283.126V283.124ZM88.0676 280.721C87.7572 280.721 87.4841 280.522 87.441 280.248C87.3921 279.947 87.6336 279.67 87.9814 279.628C89.4128 279.456 90.9277 279.368 92.4885 279.368C92.8392 279.368 93.1209 279.615 93.1209 279.917C93.1209 280.218 92.8363 280.465 92.4885 280.465C90.9881 280.465 89.5307 280.55 88.1567 280.714C88.128 280.716 88.0992 280.719 88.0676 280.719V280.721Z" fill="black"/>
<path d="M230.175 333.303H189.079C188.728 333.303 188.447 333.057 188.447 332.755V314.827C188.447 314.523 188.731 314.279 189.079 314.279H230.175C230.526 314.279 230.808 314.525 230.808 314.827V332.755C230.808 333.059 230.523 333.303 230.175 333.303ZM189.712 332.205H229.543V315.375H189.712V332.205Z" fill="black"/>
<path d="M224.09 328.165C223.739 328.165 223.458 327.919 223.458 327.617V314.996C223.458 314.692 223.742 314.448 224.09 314.448C224.438 314.448 224.722 314.695 224.722 314.996V327.617C224.722 327.921 224.438 328.165 224.09 328.165Z" fill="black"/>
<path d="M229.822 328.165H189.43C189.079 328.165 188.797 327.919 188.797 327.617C188.797 327.316 189.082 327.069 189.43 327.069H229.822C230.172 327.069 230.454 327.316 230.454 327.617C230.454 327.919 230.169 328.165 229.822 328.165Z" fill="black"/>
<path d="M195.162 328.165C194.811 328.165 194.529 327.919 194.529 327.617V314.996C194.529 314.692 194.814 314.448 195.162 314.448C195.509 314.448 195.794 314.695 195.794 314.996V327.617C195.794 327.921 195.509 328.165 195.162 328.165Z" fill="black"/>
<path d="M216.269 132.897H65.8999V207.522H216.269V132.897Z" fill="white"/>
<path d="M216.269 208.07H65.9C65.5493 208.07 65.2676 207.824 65.2676 207.522V132.898C65.2676 132.594 65.5521 132.349 65.9 132.349H216.269C216.619 132.349 216.901 132.596 216.901 132.898V207.522C216.901 207.826 216.616 208.07 216.269 208.07ZM66.5323 206.971H215.633V133.446H66.5323V206.971Z" fill="black"/>
<path d="M88.2692 196.454H73.9026C72.4395 196.454 71.2495 195.422 71.2495 194.154V169.206C71.2495 167.937 72.4395 166.908 73.9026 166.908H88.2692C89.7323 166.908 90.9223 167.94 90.9223 169.206V194.154C90.9223 195.422 89.7323 196.454 88.2692 196.454ZM73.9026 168.005C73.138 168.005 72.5171 168.543 72.5171 169.206V194.154C72.5171 194.816 73.138 195.355 73.9026 195.355H88.2692C89.0338 195.355 89.6547 194.816 89.6547 194.154V169.206C89.6547 168.543 89.0338 168.005 88.2692 168.005H73.9026Z" fill="black"/>
<path d="M208.608 196.454H194.242C192.778 196.454 191.591 195.422 191.591 194.154V169.206C191.591 167.937 192.781 166.908 194.242 166.908H208.608C210.071 166.908 211.261 167.94 211.261 169.206V194.154C211.261 195.422 210.071 196.454 208.608 196.454ZM194.242 168.005C193.477 168.005 192.856 168.543 192.856 169.206V194.154C192.856 194.816 193.477 195.355 194.242 195.355H208.608C209.373 195.355 209.994 194.816 209.994 194.154V169.206C209.994 168.543 209.373 168.005 208.608 168.005H194.242Z" fill="black"/>
<path d="M102.727 109.746H93.6641C93.3134 109.746 93.0317 109.5 93.0317 109.198V91.5812C93.0317 91.2772 93.3163 91.033 93.6641 91.033H102.727C103.078 91.033 103.36 91.2797 103.36 91.5812V109.198C103.36 109.502 103.075 109.746 102.727 109.746ZM94.2994 108.648H102.095V92.1269H94.2994V108.648Z" fill="black"/>
<path d="M218.859 138.497H63.3103C61.9679 138.497 61.0337 137.341 61.4937 136.247L73.575 107.481C73.8538 106.816 74.5868 106.375 75.4032 106.377L206.45 107.063C207.246 107.068 207.959 107.494 208.243 108.139L220.661 136.222C221.147 137.318 220.213 138.497 218.856 138.497H218.859Z" fill="white"/>
<path d="M218.859 139.045H63.3101C62.4736 139.045 61.686 138.691 61.206 138.096C60.7259 137.503 60.611 136.74 60.8984 136.06L72.9798 107.294C73.3477 106.417 74.3164 105.832 75.3914 105.832H75.4058L206.452 106.517C207.519 106.522 208.453 107.083 208.835 107.945L221.253 136.027C221.555 136.713 221.451 137.48 220.971 138.086C220.491 138.689 219.701 139.05 218.856 139.05L218.859 139.045ZM75.3943 106.928C74.851 106.928 74.3595 107.225 74.1727 107.668L62.0913 136.434C61.9447 136.785 62.0022 137.161 62.2465 137.465C62.4937 137.769 62.8818 137.946 63.313 137.946H218.859C219.293 137.946 219.683 137.769 219.931 137.458C220.178 137.146 220.23 136.768 220.074 136.416L207.657 108.334C207.464 107.897 206.99 107.613 206.449 107.611L75.4029 106.926H75.3943V106.928Z" fill="black"/>
<path d="M186.572 207.522L186.262 134.545L141.599 85.4263L95.5957 133.859L96.0269 207.522H186.572Z" fill="white"/>
<path d="M186.572 208.07H96.0269C95.6791 208.07 95.3945 207.826 95.3945 207.525L94.9634 133.862C94.9634 133.735 95.0151 133.61 95.1071 133.511L141.11 85.0775C141.231 84.9504 141.415 84.8607 141.604 84.8781C141.797 84.8781 141.975 84.9579 142.096 85.0875L186.762 134.206C186.851 134.303 186.897 134.42 186.897 134.545L187.205 207.522C187.205 207.669 187.139 207.809 187.021 207.911C186.903 208.016 186.739 208.073 186.572 208.073V208.07ZM96.6564 206.972H185.937L185.632 134.734L141.587 86.2985L96.231 134.054L96.6564 206.972Z" fill="black"/>
<path d="M119.899 196.526L104.412 196.454C103.268 196.454 102.339 195.646 102.339 194.654V168.707C102.339 167.716 103.271 166.908 104.415 166.908L119.905 166.98C121.046 166.98 121.978 167.788 121.978 168.78V194.727C121.978 195.718 121.046 196.526 119.902 196.526H119.899ZM104.409 168.007C103.966 168.007 103.604 168.321 103.604 168.707V194.654C103.604 195.041 103.966 195.355 104.412 195.355H104.415L119.899 195.427C120.342 195.427 120.704 195.113 120.704 194.727V168.78C120.704 168.393 120.342 168.079 119.897 168.079L104.406 168.007H104.409Z" fill="black"/>
<path d="M177.259 196.526L161.772 196.454C160.628 196.454 159.699 195.646 159.699 194.654V168.707C159.699 167.716 160.631 166.908 161.775 166.908L177.265 166.98C178.406 166.98 179.338 167.788 179.338 168.78V194.727C179.338 195.718 178.406 196.526 177.262 196.526H177.259ZM161.769 168.007C161.326 168.007 160.964 168.321 160.964 168.707V194.654C160.964 195.041 161.326 195.355 161.772 195.355H161.775L177.259 195.427C177.702 195.427 178.064 195.113 178.064 194.727V168.78C178.064 168.393 177.702 168.079 177.256 168.079L161.766 168.007H161.769Z" fill="black"/>
<path d="M153.148 208.636H129.124C128.773 208.636 128.491 208.389 128.491 208.088V168.438C128.491 166.32 130.48 164.596 132.924 164.596H149.348C151.792 164.596 153.781 166.32 153.781 168.438V208.088C153.781 208.392 153.496 208.636 153.148 208.636ZM129.756 207.537H152.513V168.436C152.513 166.923 151.093 165.69 149.345 165.69H132.921C131.176 165.69 129.753 166.921 129.753 168.436V207.537H129.756Z" fill="black"/>
<path d="M90.6262 137.642L140.912 85.3167C141.378 84.8308 142.246 84.8383 142.706 85.3267L191.577 137.652C191.896 137.993 191.612 138.497 191.103 138.497H186.05L141.817 90.1359L94.935 138.671H91.1953C90.5716 138.671 90.2324 138.051 90.6262 137.64V137.642Z" fill="white"/>
<path d="M94.9351 139.224H91.1954C90.6579 139.224 90.1807 138.963 89.9537 138.542C89.7294 138.125 89.8013 137.645 90.1405 137.291L140.426 84.9678C140.768 84.6115 141.268 84.4097 141.803 84.4097C141.809 84.4097 141.812 84.4097 141.815 84.4097C142.355 84.4122 142.858 84.6215 143.194 84.9853L192.066 137.311C192.368 137.632 192.425 138.066 192.221 138.439C192.014 138.816 191.583 139.052 191.1 139.052H186.047C185.854 139.052 185.67 138.975 185.55 138.846L141.8 91.0129L95.418 139.032C95.2973 139.157 95.1191 139.229 94.9322 139.229L94.9351 139.224ZM141.803 85.5086C141.645 85.5086 141.498 85.5684 141.398 85.6705L91.1121 137.996C91.1121 137.996 91.0747 138.033 91.0977 138.078C91.1236 138.128 91.1753 138.128 91.1925 138.128H94.6361L141.329 89.7895C141.452 89.6624 141.625 89.6076 141.823 89.5926C142.013 89.5926 142.194 89.6724 142.312 89.7994L186.354 137.954H191.103L142.214 85.6755C142.116 85.5708 141.967 85.5086 141.809 85.5086H141.806H141.803Z" fill="black"/>
<path d="M163.945 144.898H118.221C117.87 144.898 117.588 144.652 117.588 144.35V139.947C117.588 128.717 128.129 119.579 141.084 119.579C154.039 119.579 164.58 128.717 164.58 139.947V144.35C164.58 144.654 164.295 144.898 163.948 144.898H163.945ZM118.856 143.799H163.312V139.945C163.312 129.32 153.341 120.675 141.084 120.675C128.828 120.675 118.856 129.32 118.856 139.945V143.799Z" fill="black"/>
<path d="M426.944 412.934L421.635 430.386C420.574 433.875 420.292 437.508 420.81 441.089L421.873 448.462L395.055 444.667L398.521 442.454C404.538 438.612 408.789 433.043 410.516 426.741L415.13 409.901L426.944 412.931V412.934Z" fill="white"/>
<path d="M421.873 449.01C421.839 449.01 421.804 449.01 421.773 449.003L394.954 445.21C394.704 445.175 394.5 445.011 394.439 444.797C394.379 444.582 394.474 444.358 394.678 444.226L398.142 442.013C404.031 438.253 408.205 432.784 409.895 426.614L414.509 409.774C414.549 409.627 414.658 409.503 414.808 409.426C414.957 409.351 415.138 409.331 415.305 409.373L427.119 412.403C427.447 412.488 427.639 412.782 427.553 413.069L422.244 430.521C421.198 433.957 420.927 437.488 421.433 441.014L422.497 448.387C422.523 448.559 422.451 448.731 422.307 448.851C422.189 448.951 422.031 449.005 421.867 449.005L421.873 449.01ZM396.641 444.336L421.14 447.802L420.183 441.156C419.654 437.491 419.939 433.818 421.025 430.247L426.179 413.308L415.595 410.594L411.134 426.868C409.375 433.29 405.029 438.983 398.898 442.895L396.644 444.336H396.641Z" fill="black"/>
<path d="M424.483 452.068C424.684 448.988 424.733 442.851 422.416 439.003C422.003 438.318 421.051 438.024 420.223 438.311L414.086 440.439C413.135 440.77 412.097 440.16 412.097 439.272V438.909C412.097 438.393 411.631 437.969 411.036 437.942L405.75 437.703C403.778 437.613 401.812 437.937 400.01 438.637C394.543 440.763 382.933 445.779 380.159 451.024C379.53 452.217 380.553 453.578 382.065 453.638C386.857 453.825 398.981 454.154 422.166 453.982C423.399 453.972 424.411 453.137 424.483 452.068Z" fill="white"/>
<path d="M409.717 454.577C394.761 454.577 386.187 454.345 382.039 454.183C381.096 454.146 380.239 453.705 379.745 453.005C379.262 452.319 379.205 451.512 379.584 450.792C382.378 445.509 393.419 440.593 399.751 438.134C401.64 437.399 403.729 437.062 405.785 437.152L411.071 437.391C412.002 437.433 412.729 438.099 412.729 438.906V439.27C412.729 439.509 412.862 439.723 413.089 439.855C413.316 439.99 413.595 440.015 413.85 439.925L419.987 437.797C421.129 437.401 422.413 437.81 422.977 438.744C425.34 442.669 425.331 448.794 425.115 452.093C425.026 453.443 423.733 454.512 422.172 454.522C417.602 454.557 413.457 454.57 409.717 454.57V454.577ZM405.121 438.236C403.459 438.236 401.798 438.545 400.274 439.135C395.307 441.067 383.459 446.11 380.74 451.251C380.535 451.634 380.57 452.065 380.829 452.434C381.102 452.823 381.576 453.067 382.096 453.087C387.27 453.289 399.355 453.6 422.163 453.431C423.06 453.423 423.802 452.81 423.854 452.035C424.063 448.846 424.081 442.948 421.859 439.255C421.597 438.821 420.996 438.632 420.462 438.819L414.325 440.947C413.681 441.169 412.956 441.101 412.382 440.765C411.81 440.429 411.467 439.87 411.467 439.27V438.906C411.467 438.682 411.266 438.497 411.008 438.487L405.721 438.248C405.52 438.238 405.322 438.233 405.121 438.233V438.236Z" fill="black"/>
<path d="M400.467 450.817C390.938 450.817 386.957 450.408 386.9 450.401C386.552 450.363 386.305 450.089 386.348 449.788C386.391 449.486 386.71 449.27 387.055 449.309C387.141 449.319 396.003 450.224 419.157 449.307C419.505 449.289 419.803 449.526 419.818 449.83C419.835 450.134 419.562 450.391 419.214 450.403C411.43 450.712 405.25 450.814 400.467 450.814V450.817Z" fill="black"/>
<path d="M396.897 446.097C396.69 446.097 396.489 446.01 396.365 445.851C396.173 445.597 396.256 445.258 396.546 445.091L405.673 439.903C405.966 439.736 406.357 439.808 406.549 440.06C406.742 440.314 406.659 440.653 406.368 440.82L397.242 446.008C397.136 446.07 397.015 446.097 396.894 446.097H396.897Z" fill="black"/>
<path d="M481.294 415.882L484.539 435.619H492.746L491.95 416.208L481.294 415.882Z" fill="white"/>
<path d="M492.746 436.168H484.536C484.22 436.168 483.953 435.966 483.91 435.697L480.667 415.962C480.641 415.8 480.699 415.638 480.822 415.518C480.949 415.398 481.133 415.331 481.317 415.336L491.97 415.663C492.303 415.673 492.567 415.904 492.579 416.191L493.378 435.602C493.384 435.752 493.321 435.896 493.2 436.003C493.079 436.11 492.915 436.17 492.743 436.17L492.746 436.168ZM485.088 435.069H492.09L491.337 416.739L482.03 416.455L485.088 435.071V435.069Z" fill="black"/>
<path d="M428.289 286.024C428.289 286.024 417.527 346.288 417.099 360.678C416.671 375.069 409.763 418.615 409.763 418.615C409.763 418.615 418.637 421.471 428.766 419.475C428.766 419.475 460.535 342.359 462.909 318.719C465.283 295.077 457.344 284.255 457.344 284.255L428.286 286.027L428.289 286.024Z" fill="black"/>
<path d="M438.815 282.274C438.815 282.274 475.298 378.844 475.893 418.097C475.893 418.097 483.932 419.734 495.491 418.097C495.491 418.097 502.901 310.322 481.541 280.128L438.815 282.271V282.274Z" fill="black"/>
<path d="M484.853 453.987C488.21 454.298 492.921 455.043 500.113 454.046C502.217 453.755 503.542 451.921 502.965 450.142C501.444 445.455 498.262 436.803 494.232 432.27C493.939 431.942 493.344 432.031 493.189 432.425L493.045 433.24C492.959 433.728 492.194 433.825 491.953 433.379L491.064 431.75C490.855 431.448 490.495 431.251 490.09 431.219L486.974 431.114C486.313 431.062 485.715 431.456 485.6 432.021L485.494 433.307C485.453 433.805 484.686 433.95 484.41 433.509L483.068 432.313C482.795 431.991 482.208 432.166 482.223 432.564L482.384 437.693C482.498 441.398 482.188 445.103 481.458 448.756L481.09 450.593C480.897 452.287 482.904 453.805 484.856 453.987H484.853Z" fill="white"/>
<path d="M493.036 455.095C490.251 455.095 487.992 454.861 486.123 454.667C485.655 454.617 485.206 454.572 484.784 454.532C482.55 454.325 480.225 452.574 480.455 450.538L480.828 448.661C481.55 445.053 481.86 441.368 481.745 437.707L481.584 432.579C481.57 432.161 481.869 431.787 482.329 431.65C482.772 431.518 483.252 431.64 483.542 431.951L484.861 433.125C484.861 433.125 484.867 433.13 484.87 433.133L484.965 431.979C484.965 431.959 484.971 431.941 484.973 431.924C485.143 431.082 486.046 430.489 487.029 430.563L490.11 430.666C490.745 430.715 491.291 431.014 491.602 431.463L492.441 432.998L492.556 432.338C492.562 432.305 492.571 432.273 492.582 432.243C492.729 431.869 493.102 431.595 493.551 431.53C494.002 431.468 494.45 431.62 494.726 431.931C498.811 436.529 502.019 445.218 503.568 449.99C503.896 450.996 503.709 452.078 503.059 452.96C502.418 453.829 501.378 454.422 500.205 454.584C497.483 454.961 495.109 455.093 493.03 455.093L493.036 455.095ZM482.864 432.921L483.013 437.678C483.131 441.41 482.815 445.17 482.079 448.848L481.711 450.685C481.559 452.035 483.309 453.289 484.919 453.438C485.347 453.478 485.798 453.525 486.276 453.575C489.46 453.907 493.821 454.358 500.013 453.503C500.84 453.388 501.545 452.987 501.999 452.372C502.453 451.754 502.585 450.996 502.355 450.291C500.84 445.619 497.716 437.137 493.786 432.669L493.671 433.324C493.591 433.783 493.18 434.137 492.648 434.204C492.116 434.271 491.608 434.035 491.378 433.613L490.489 431.986C490.415 431.884 490.231 431.784 490.03 431.767L486.948 431.665C486.597 431.642 486.296 431.827 486.23 432.096L486.126 433.347C486.086 433.815 485.704 434.199 485.175 434.296C484.677 434.386 484.18 434.209 483.907 433.848L482.866 432.921H482.864Z" fill="black"/>
<path d="M491.846 451.425C487.828 451.425 485.338 450.625 485.183 450.573C484.858 450.466 484.694 450.149 484.818 449.865C484.942 449.583 485.307 449.439 485.634 449.546C485.689 449.564 491.079 451.283 498.771 449.529C499.11 449.449 499.455 449.626 499.544 449.92C499.633 450.214 499.432 450.513 499.093 450.59C496.35 451.216 493.896 451.425 491.843 451.425H491.846Z" fill="black"/>
<path d="M495.661 444.209H488.135C487.785 444.209 487.503 443.962 487.503 443.66C487.503 443.359 487.788 443.112 488.135 443.112H495.661C496.011 443.112 496.293 443.359 496.293 443.66C496.293 443.962 496.008 444.209 495.661 444.209Z" fill="black"/>
<path d="M449.192 199.586C451.488 211.026 464.889 223.305 478.365 221.683C480.564 221.419 486.499 220.335 492.737 214.073C501.334 219.406 512.292 217.993 518.199 211.806C525.42 204.243 524.434 190.247 513.919 183.063C522.252 183.003 524.491 180.225 525.152 179.131C529.053 172.679 518.751 157.592 509.136 157.569C505.586 157.559 500.877 161.362 491.607 168.967C482.03 176.821 481.624 178.343 478.724 178.615C470.204 179.415 467.657 166.829 456.352 165.436C448.614 164.481 439.971 169.171 439.318 173.596C438.758 177.394 444.414 178.734 447.599 186.322C449.971 191.971 448.137 194.331 449.192 199.588V199.586Z" fill="black"/>
<path d="M460.402 161.175C459.744 162.924 460.402 167.883 463.435 168.742C466.47 169.602 470.736 166.036 471.394 164.284C472.052 162.535 470.127 160.42 467.091 159.56C464.056 158.7 461.061 159.423 460.402 161.175Z" fill="black"/>
<path d="M423.767 286.769C423.767 286.769 420.387 306.332 424.52 310.082C424.52 310.082 438.03 297.252 438.671 287.988L423.767 286.769Z" fill="white"/>
<path d="M424.523 310.631C424.35 310.631 424.184 310.568 424.066 310.461C419.769 306.562 423.005 287.497 423.143 286.687C423.192 286.398 423.494 286.194 423.83 286.221L438.734 287.439C439.073 287.467 439.326 287.724 439.306 288.018C438.66 297.369 425.549 309.921 424.991 310.451C424.874 310.563 424.707 310.628 424.532 310.631H424.526H424.523ZM424.31 287.365C423.416 292.817 422.011 305.56 424.56 309.218C426.949 306.838 437.035 296.385 437.993 288.484L424.31 287.365Z" fill="black"/>
<path d="M442.512 286.969C442.512 286.969 446.72 302.752 451.713 306.689C456.706 310.626 470.342 293.024 477.931 292.647C485.519 292.271 493.873 308.146 493.873 308.146C493.873 308.146 491.757 288.322 485.508 284.12L442.512 286.969Z" fill="white"/>
<path d="M493.872 308.695C493.628 308.695 493.401 308.573 493.298 308.373C493.214 308.219 485.051 292.849 477.968 293.196C474.714 293.358 470.04 297.09 465.522 300.698C459.813 305.258 454.42 309.564 451.287 307.095C446.208 303.088 442.069 287.744 441.896 287.093C441.853 286.936 441.896 286.774 442.003 286.645C442.112 286.515 442.282 286.435 442.466 286.423L485.462 283.575C485.62 283.565 485.775 283.605 485.899 283.689C492.291 287.985 494.419 307.279 494.505 308.099C494.534 308.366 494.335 308.61 494.036 308.68C493.982 308.692 493.927 308.697 493.872 308.697V308.695ZM443.302 287.467C444.139 290.415 447.901 302.941 452.138 306.283C454.412 308.077 459.623 303.915 464.662 299.891C469.345 296.151 474.188 292.284 477.893 292.099C483.849 291.813 489.969 300.454 492.817 305.094C491.952 299.475 489.681 287.903 485.304 284.684L443.299 287.467H443.302Z" fill="black"/>
<path d="M374.964 192.676L368.02 186.399C366.841 185.333 364.852 186.534 365.597 187.862L367.735 191.687C367.735 191.687 366.275 192.275 365.553 192.315C363.97 192.402 362.438 191.814 361.339 190.82C360.072 189.671 358.019 187.842 357.324 187.391C356.292 186.723 354.964 185.689 353.489 185.585H353.446C351.906 185.485 350.902 186.955 351.739 188.079L354.642 191.971C356.749 194.794 359.842 196.962 363.469 198.156L372.857 201.243L373.553 224.449L385.746 216.371L380.271 201.024C379.176 197.959 377.373 195.118 374.967 192.679L374.964 192.676Z" fill="white"/>
<path d="M373.55 224.997C373.458 224.997 373.363 224.98 373.277 224.943C373.062 224.853 372.924 224.668 372.918 224.462L372.231 201.622L363.24 198.664C359.46 197.421 356.301 195.208 354.105 192.265L351.201 188.373C350.681 187.678 350.664 186.803 351.15 186.088C351.635 185.373 352.529 184.964 353.487 185.031C354.993 185.136 356.249 185.978 357.258 186.656C357.41 186.758 357.557 186.855 357.698 186.948C358.402 187.404 360.313 189.095 361.791 190.436C362.806 191.356 364.159 191.841 365.508 191.764C365.812 191.747 366.379 191.58 366.873 191.408L365.025 188.099C364.559 187.264 364.846 186.31 365.726 185.779C366.606 185.251 367.735 185.348 368.477 186.016L375.422 192.292C375.422 192.292 375.439 192.307 375.445 192.315C377.92 194.827 379.745 197.7 380.872 200.854L386.347 216.201C386.425 216.421 386.339 216.66 386.126 216.799L373.933 224.878C373.821 224.953 373.685 224.99 373.547 224.99L373.55 224.997ZM353.323 186.128C352.854 186.128 352.469 186.32 352.242 186.651C351.998 187.01 352.006 187.431 352.268 187.78L355.171 191.672C357.218 194.418 360.164 196.481 363.691 197.64L373.079 200.727C373.32 200.807 373.481 201.004 373.487 201.226L374.151 223.358L385.008 216.164L379.661 201.183C378.589 198.176 376.85 195.437 374.493 193.043L367.56 186.778C367.183 186.439 366.738 186.507 366.445 186.681C366.151 186.858 365.924 187.197 366.16 187.62L368.299 191.445C368.373 191.577 368.382 191.729 368.325 191.869C368.267 192.008 368.149 192.121 367.994 192.183C367.833 192.248 366.402 192.816 365.585 192.861C363.866 192.958 362.147 192.35 360.874 191.196C358.859 189.372 357.425 188.144 356.939 187.827C356.792 187.732 356.64 187.63 356.482 187.523C355.605 186.935 354.513 186.203 353.432 186.128C353.395 186.125 353.357 186.123 353.32 186.123L353.323 186.128Z" fill="black"/>
<path d="M388.225 211.469L357.81 232.363L371.366 244.548L397.164 225.917L388.225 211.469Z" fill="white"/>
<path d="M371.366 245.096C371.199 245.096 371.032 245.039 370.909 244.929L357.353 232.744C357.229 232.632 357.166 232.48 357.178 232.326C357.189 232.171 357.275 232.029 357.416 231.932L387.831 211.038C387.977 210.939 388.167 210.899 388.354 210.931C388.538 210.964 388.696 211.066 388.785 211.21L397.728 225.658C397.868 225.887 397.805 226.174 397.575 226.338L371.774 244.969C371.656 245.054 371.513 245.096 371.369 245.096H371.366ZM358.75 232.416L371.412 243.798L396.362 225.78L388.023 212.304L358.75 232.416Z" fill="black"/>
<path d="M490 245.261L522.642 258.923C522.642 258.923 527.5 245.996 522.453 232.57C516.888 217.766 492.061 210.323 474.998 206.889C459.643 202.235 437.84 202.668 428.587 209.817C428.587 209.817 428.567 209.832 428.533 209.865C428.127 210.181 427.757 210.513 427.403 210.854C423.543 214.183 411.243 224.387 405.997 223.931C399.734 223.385 395.91 218.347 395.91 218.347L360.983 241.707C388.376 260.403 408.426 255.988 419.426 250.264C419.257 253.648 419.104 256.412 418.837 258.153C416.773 271.609 416.785 279.276 417.348 283.607C417.751 286.702 420.864 288.992 424.454 288.872L478.244 287.088C483.952 286.767 491.814 288.369 491.814 288.369C489.543 273.593 484.996 267.699 481.029 249.681C479.957 244.81 480.902 239.064 482.055 233.599L487.057 235.921C490.495 237.519 491.978 241.114 490.486 244.237L489.997 245.258L490 245.261Z" fill="white"/>
<path d="M424.192 289.425C420.398 289.425 417.147 286.941 416.722 283.669C415.98 277.966 416.483 269.359 418.213 258.084C418.449 256.556 418.593 254.186 418.745 251.246C406.595 257.189 386.911 260.102 360.592 242.141C360.44 242.036 360.351 241.877 360.351 241.707C360.351 241.538 360.443 241.379 360.598 241.276L395.525 217.916C395.666 217.823 395.844 217.784 396.017 217.809C396.189 217.833 396.345 217.921 396.442 218.048C396.48 218.095 400.185 222.877 406.063 223.388C410.036 223.756 419.455 216.939 426.958 210.468C427.337 210.101 427.722 209.765 428.11 209.461L428.136 209.439C428.159 209.416 428.185 209.399 428.211 209.381C437.846 201.988 460.247 201.851 475.177 206.366C493.984 210.154 517.546 217.746 523.056 232.406C528.11 245.846 523.295 258.968 523.246 259.098C523.189 259.247 523.059 259.372 522.893 259.432C522.723 259.494 522.533 259.489 522.369 259.422L489.727 245.759C489.425 245.632 489.29 245.323 489.417 245.054L489.905 244.032C491.279 241.157 489.928 237.88 486.764 236.41L482.529 234.444C481.454 239.667 480.661 245.064 481.656 249.582C483.518 258.049 485.548 263.934 487.338 269.127C489.431 275.202 491.242 280.447 492.446 288.302C492.475 288.481 492.397 288.66 492.245 288.78C492.09 288.9 491.877 288.947 491.676 288.907C491.598 288.892 483.84 287.325 478.292 287.639L424.485 289.423C424.391 289.425 424.293 289.428 424.198 289.428L424.192 289.425ZM419.429 249.716C419.541 249.716 419.654 249.741 419.754 249.793C419.955 249.898 420.073 250.087 420.062 250.289C419.889 253.72 419.737 256.484 419.47 258.226C417.331 272.16 417.48 279.685 417.981 283.545C418.343 286.331 421.18 288.424 424.434 288.324L478.223 286.54C482.869 286.281 488.827 287.255 491.067 287.664C489.874 280.32 488.132 275.265 486.123 269.439C484.323 264.221 482.285 258.305 480.408 249.786C479.327 244.875 480.261 239.059 481.434 233.504C481.472 233.332 481.601 233.185 481.782 233.108C481.963 233.031 482.176 233.036 482.357 233.118L487.358 235.441C491.101 237.177 492.699 241.052 491.075 244.451L490.816 244.994L522.246 258.151C523.102 255.457 526.164 244.214 521.852 232.744C516.238 217.816 490 210.475 474.857 207.428C474.834 207.423 474.814 207.418 474.791 207.413C460.178 202.98 438.294 203.06 429.01 210.233C429.01 210.233 429.007 210.236 429.004 210.238L428.987 210.253C428.602 210.555 428.248 210.864 427.874 211.225C423.169 215.284 411.875 224.497 406.33 224.499C406.195 224.499 406.063 224.494 405.937 224.482C400.547 224.013 396.942 220.447 395.784 219.132L362.021 241.715C388.187 259.307 407.489 255.843 419.107 249.798C419.208 249.746 419.32 249.721 419.432 249.721L419.429 249.716Z" fill="black"/>
<path d="M490.328 258.966L480.641 272.038L476.301 269.486C473.648 267.926 470.394 267.328 467.238 267.819C467.238 267.819 462.569 268.357 460.58 269.75C455.777 273.112 460.034 275.202 460.954 275.626C462.434 276.306 464.49 276.936 466.683 276.665C467.962 276.505 471.334 276.884 474.381 278.319C476.683 279.403 479.376 281.619 483.033 280.759C486.157 280.024 487.531 278.427 487.531 278.427L500.047 264.896L490.328 258.966Z" fill="white"/>
<path d="M481.383 281.501C479.037 281.501 477.106 280.435 475.49 279.545C474.993 279.271 474.521 279.012 474.076 278.8C471.107 277.402 467.853 277.069 466.772 277.208C464.352 277.507 462.109 276.777 460.658 276.109C458.89 275.299 457.844 274.208 457.714 273.037C457.579 271.813 458.407 270.562 460.181 269.322C462.288 267.849 466.956 267.298 467.154 267.273C470.463 266.755 473.849 267.38 476.657 269.03L480.46 271.265L489.796 258.667C489.888 258.539 490.038 258.452 490.207 258.425C490.377 258.395 490.552 258.43 490.693 258.515L500.412 264.445C500.555 264.532 500.65 264.667 500.673 264.816C500.696 264.966 500.65 265.118 500.541 265.237L488.026 278.768C487.977 278.823 486.496 280.512 483.196 281.287C482.567 281.437 481.963 281.501 481.383 281.501ZM467.341 276.082C469.048 276.082 471.983 276.568 474.679 277.836C475.165 278.065 475.654 278.334 476.171 278.618C478.068 279.665 480.219 280.851 482.866 280.228C485.717 279.558 487.014 278.11 487.025 278.095L499.13 265.008L490.503 259.743L481.173 272.334C481.081 272.459 480.934 272.546 480.768 272.576C480.601 272.606 480.426 272.576 480.285 272.494L475.944 269.942C473.412 268.452 470.359 267.891 467.347 268.36C467.272 268.37 462.802 268.898 460.974 270.176C459.554 271.17 458.879 272.097 458.973 272.932C459.091 273.999 460.451 274.774 461.247 275.14C462.535 275.73 464.507 276.381 466.591 276.122C466.801 276.097 467.054 276.082 467.341 276.082Z" fill="black"/>
<path d="M493.128 246.569L486.485 258.248L510.613 274.955C510.613 274.955 518.259 262.526 519.093 257.438L493.128 246.569Z" fill="white"/>
<path d="M510.616 275.506C510.475 275.506 510.334 275.464 510.22 275.387L486.091 258.679C485.858 258.517 485.787 258.238 485.919 258.006L492.562 246.327C492.714 246.058 493.093 245.946 493.404 246.076L519.369 256.945C519.616 257.049 519.76 257.279 519.72 257.515C518.88 262.641 511.487 274.704 511.171 275.215C511.082 275.359 510.924 275.461 510.74 275.494C510.697 275.501 510.654 275.506 510.61 275.506H510.616ZM487.281 258.096L510.412 274.111C511.878 271.671 517.423 262.247 518.394 257.752L493.421 247.299L487.281 258.094V258.096Z" fill="black"/>
<path d="M419.602 255.011C419.588 255.011 419.573 255.011 419.559 255.011C419.211 254.991 418.947 254.73 418.97 254.426L419.412 248.799C419.878 245.834 419.907 242.652 419.933 239.574C419.95 237.725 419.967 235.812 420.079 234L420.367 229.41C420.387 229.109 420.683 228.875 421.033 228.892C421.381 228.909 421.651 229.169 421.631 229.47L421.344 234.06C421.232 235.847 421.215 237.745 421.2 239.584C421.171 242.697 421.143 245.914 420.671 248.911L420.234 254.503C420.211 254.792 419.933 255.014 419.602 255.014V255.011Z" fill="black"/>
<path d="M442.788 191.829L444.877 206.879L434.069 209.767C434.069 209.767 449.511 219.024 468.333 209.69L458.172 205.927L452.932 188.462L442.785 191.829H442.788Z" fill="white"/>
<path d="M451.066 214.377C440.821 214.377 433.813 210.281 433.707 210.218C433.509 210.099 433.405 209.892 433.443 209.683C433.48 209.476 433.65 209.304 433.882 209.242L444.184 206.488L442.158 191.894C442.123 191.644 442.29 191.405 442.56 191.316L452.707 187.949C452.874 187.892 453.064 187.902 453.225 187.974C453.386 188.046 453.503 188.173 453.547 188.323L458.706 205.526L468.58 209.182C468.801 209.264 468.951 209.446 468.965 209.655C468.98 209.865 468.856 210.059 468.646 210.164C462.273 213.323 456.254 214.375 451.063 214.375L451.066 214.377ZM435.619 209.927C439.447 211.743 452.069 216.558 466.89 209.752L457.924 206.433C457.743 206.366 457.611 206.231 457.559 206.067L452.497 189.198L443.474 192.193L445.504 206.817C445.541 207.081 445.354 207.328 445.061 207.408L435.616 209.932L435.619 209.927Z" fill="black"/>
<path d="M453.167 192.676C453.167 192.676 457.045 193.944 458.068 191.024C459.092 188.104 455.749 188.288 455.749 188.288C455.749 188.288 459.307 181.887 453.774 181.264C448.241 180.641 444.199 178.866 444.199 178.866C444.199 178.866 440.178 184.974 438.884 190.092C438.105 193.179 438.318 195.908 441.008 196.72C448.367 198.943 453.17 192.679 453.17 192.679L453.167 192.676Z" fill="white"/>
<path d="M444.13 197.742C443.087 197.742 441.974 197.592 440.799 197.236C438.105 196.424 437.254 193.979 438.266 189.972C439.565 184.832 443.483 178.844 443.65 178.592C443.817 178.338 444.185 178.244 444.486 178.376C444.527 178.393 448.505 180.115 453.857 180.72C455.352 180.887 456.407 181.453 456.996 182.397C458.063 184.107 457.209 186.591 456.671 187.81C457.232 187.907 457.916 188.129 458.385 188.639C458.954 189.26 459.051 190.117 458.678 191.186C458.35 192.118 457.738 192.781 456.855 193.16C455.602 193.695 454.148 193.483 453.417 193.316C452.449 194.4 449.057 197.742 444.136 197.742H444.13ZM444.466 179.582C443.535 181.069 440.563 186.016 439.502 190.209C438.651 193.583 439.226 195.601 441.215 196.202C448.031 198.265 452.595 192.434 452.641 192.375C452.805 192.163 453.116 192.076 453.392 192.165C453.412 192.173 455.076 192.696 456.298 192.173C456.858 191.931 457.24 191.505 457.465 190.867C457.712 190.162 457.686 189.641 457.393 189.32C456.987 188.876 456.082 188.824 455.792 188.839C455.565 188.851 455.352 188.759 455.225 188.597C455.099 188.435 455.082 188.228 455.179 188.051C455.691 187.129 456.812 184.408 455.881 182.918C455.49 182.293 454.774 181.931 453.693 181.809C449.241 181.308 445.771 180.09 444.466 179.584V179.582Z" fill="black"/>
<path d="M78.0386 4.48275C77.6879 4.48275 77.4062 4.23607 77.4062 3.93456V0.548197C77.4062 0.244197 77.6879 0 78.0386 0C78.3893 0 78.671 0.246689 78.671 0.548197V3.93456C78.671 4.23856 78.3893 4.48275 78.0386 4.48275Z" fill="black"/>
<path d="M78.0445 16.3363C77.6938 16.3363 77.4121 16.0896 77.4121 15.7881V12.4017C77.4121 12.0977 77.6938 11.8535 78.0445 11.8535C78.3952 11.8535 78.6769 12.1002 78.6769 12.4017V15.7881C78.6769 16.0921 78.3952 16.3363 78.0445 16.3363Z" fill="black"/>
<path d="M73.1579 8.71388H69.2515C68.9008 8.71388 68.6191 8.46719 68.6191 8.16319C68.6191 7.85919 68.9037 7.61499 69.2515 7.61499H73.1579C73.5086 7.61499 73.7903 7.86168 73.7903 8.16568C73.7903 8.46968 73.5057 8.71388 73.1579 8.71388Z" fill="black"/>
<path d="M86.8288 8.71876H82.9224C82.5717 8.71876 82.29 8.47207 82.29 8.16807C82.29 7.86407 82.5746 7.61987 82.9224 7.61987H86.8288C87.1795 7.61987 87.4612 7.86656 87.4612 8.17056C87.4612 8.47456 87.1766 8.71876 86.8288 8.71876Z" fill="black"/>
<path d="M109.606 32.5381C105.599 32.5381 102.336 29.7124 102.336 26.2363C102.336 22.7602 105.596 19.937 109.606 19.937C113.616 19.937 116.873 22.7627 116.873 26.2363C116.873 29.7099 113.613 32.5381 109.606 32.5381ZM109.606 21.0359C106.297 21.0359 103.604 23.3707 103.604 26.2388C103.604 29.1068 106.297 31.4417 109.606 31.4417C112.914 31.4417 115.608 29.1068 115.608 26.2388C115.608 23.3707 112.914 21.0359 109.606 21.0359Z" fill="black"/>
</g>
<defs>
<clipPath id="clip0_36_1187">
<rect width="526" height="456" fill="white"/>
</clipPath>
</defs>
</svg>
