<svg width="526" height="480" viewBox="0 0 526 480" fill="none" xmlns="http://www.w3.org/2000/svg">
<path d="M299.931 462.673C299.819 462.673 299.703 462.644 299.6 462.586L296.199 460.637C295.901 460.467 295.806 460.102 295.991 459.822C296.174 459.543 296.564 459.457 296.865 459.625L300.265 461.574C300.563 461.744 300.658 462.109 300.473 462.389C300.352 462.57 300.144 462.673 299.931 462.673Z" fill="black"/>
<path d="M311.834 469.49C311.722 469.49 311.607 469.461 311.503 469.403L308.102 467.454C307.805 467.284 307.709 466.919 307.895 466.639C308.077 466.361 308.467 466.274 308.768 466.442L312.168 468.391C312.466 468.561 312.562 468.926 312.376 469.206C312.255 469.387 312.048 469.49 311.834 469.49Z" fill="black"/>
<path d="M299.538 472.281C299.426 472.281 299.313 472.252 299.209 472.194C298.909 472.024 298.813 471.662 298.996 471.381L301.06 468.191C301.242 467.911 301.633 467.822 301.93 467.992C302.231 468.163 302.326 468.525 302.144 468.805L300.08 471.995C299.962 472.178 299.751 472.281 299.538 472.281Z" fill="black"/>
<path d="M306.763 461.123C306.651 461.123 306.538 461.094 306.434 461.036C306.134 460.866 306.039 460.504 306.221 460.223L308.285 457.033C308.467 456.753 308.858 456.664 309.155 456.834C309.456 457.005 309.551 457.367 309.369 457.647L307.305 460.837C307.187 461.02 306.976 461.123 306.763 461.123Z" fill="black"/>
<path d="M149.901 438.809C149.308 438.809 148.713 438.707 148.143 438.5C146.902 438.049 145.925 437.165 145.388 436.008C144.299 433.647 145.43 430.883 147.91 429.841C149.106 429.34 150.434 429.309 151.656 429.752C152.897 430.203 153.874 431.087 154.408 432.244C155.497 434.605 154.366 437.369 151.886 438.41C151.249 438.678 150.575 438.812 149.898 438.812L149.901 438.809ZM148.429 430.922C146.579 431.698 145.737 433.77 146.554 435.538C146.952 436.401 147.68 437.06 148.601 437.395C149.502 437.723 150.485 437.7 151.367 437.327C153.217 436.551 154.06 434.481 153.242 432.711C152.844 431.848 152.116 431.189 151.195 430.854C150.294 430.526 149.311 430.549 148.429 430.919V430.922Z" fill="black"/>
<path d="M265.816 470.633C250.313 470.633 202.762 468.517 163.89 444.472C163.598 444.291 163.52 443.924 163.711 443.651C163.905 443.378 164.298 443.302 164.59 443.483C211.147 472.283 270.298 469.385 270.888 469.353C271.227 469.324 271.536 469.584 271.559 469.909C271.578 470.235 271.312 470.515 270.963 470.536C270.862 470.542 269.023 470.633 265.816 470.633Z" fill="black"/>
<path d="M273.931 464.713C261.804 464.713 230.592 463.433 199.26 451.714C198.935 451.591 198.777 451.247 198.906 450.943C199.036 450.639 199.406 450.489 199.732 450.612C239.348 465.429 278.747 463.452 279.14 463.431C279.486 463.415 279.792 463.662 279.811 463.987C279.831 464.312 279.564 464.593 279.216 464.614C279.132 464.619 277.242 464.713 273.934 464.713H273.931Z" fill="black"/>
<path d="M460.991 352.59C415.42 333.859 105.175 322.019 44.4708 352.59V10.3441C43.3588 -3.70442 409.043 -1.57458 460.991 10.3441V352.59Z" fill="white"/>
<path d="M460.991 353.183C460.904 353.183 460.817 353.167 460.735 353.133C438.866 344.144 351.879 336.22 258.395 334.696C151.002 332.941 71.1441 339.832 44.7711 353.112C44.5745 353.212 44.3358 353.206 44.1449 353.099C43.9539 352.991 43.836 352.8 43.836 352.59V10.3441C43.7939 9.84314 44.0691 9.33167 44.6531 8.87003C53.6528 1.76182 155.598 -0.3313 240.168 0.04116C327.84 0.424111 434.385 3.63199 461.143 9.7697C461.426 9.83527 461.626 10.0713 461.626 10.3441V352.59C461.626 352.789 461.519 352.978 461.339 353.086C461.235 353.149 461.114 353.183 460.994 353.183H460.991ZM226.313 333.243C236.711 333.243 247.415 333.332 258.417 333.511C350.829 335.016 436.979 342.798 460.356 351.695V10.811C432.922 4.7651 327.242 1.60444 240.159 1.22411C130.792 0.749358 52.5521 4.18543 45.4703 9.77495C45.2933 9.91396 45.0884 10.1186 45.1024 10.3022V351.612C69.726 339.89 136.175 333.243 226.313 333.243Z" fill="black"/>
<path d="M83.6623 341.521H44.4707V10.3441C43.544 18.8372 60.6926 21.1245 83.6623 21.413V341.524V341.521Z" fill="white"/>
<path d="M83.6623 342.114H44.4706C44.1196 342.114 43.836 341.849 43.836 341.521V11.6452C43.7883 11.2045 43.7883 10.7508 43.8388 10.2839C43.8725 9.96913 44.173 9.74355 44.5015 9.75142C44.8385 9.76716 45.1024 10.0268 45.1024 10.3442V11.5927C45.2288 12.6131 45.6893 13.5311 46.4896 14.3704C51.6676 19.7973 70.1865 20.6498 83.6651 20.8177C84.0133 20.8229 84.2912 21.0852 84.2912 21.4105V341.521C84.2912 341.679 84.2239 341.828 84.1059 341.941C83.988 342.051 83.8251 342.114 83.6566 342.114H83.6623ZM45.1052 340.928H83.0276V21.9954C61.3272 21.6859 49.7581 19.5744 45.5461 15.16C45.3888 14.9947 45.2428 14.8268 45.1052 14.6537V340.928Z" fill="black"/>
<path d="M174.524 28.0805H103.821C103.47 28.0805 103.187 27.8156 103.187 27.4877V19.5664C103.187 19.2386 103.47 18.9736 103.821 18.9736H174.524C174.875 18.9736 175.159 19.2386 175.159 19.5664V27.4877C175.159 27.8156 174.875 28.0805 174.524 28.0805ZM104.456 26.895H173.89V20.1566H104.456V26.895Z" fill="black"/>
<path d="M187.068 47.8864H90.1349C89.7838 47.8864 89.5002 47.6215 89.5002 47.2937V39.3723C89.5002 39.0445 89.7838 38.7795 90.1349 38.7795H187.068C187.419 38.7795 187.703 39.0445 187.703 39.3723V47.2937C187.703 47.6215 187.419 47.8864 187.068 47.8864ZM90.7695 46.7009H186.433V39.9651H90.7695V46.7009Z" fill="black"/>
<path d="M186.88 66.7009H89.9466C89.5956 66.7009 89.312 66.436 89.312 66.1081V58.1868C89.312 57.8589 89.5956 57.594 89.9466 57.594H186.88C187.231 57.594 187.514 57.8589 187.514 58.1868V66.1081C187.514 66.436 187.231 66.7009 186.88 66.7009ZM90.5812 65.5153H186.245V58.7769H90.5812V65.5153Z" fill="black"/>
<path d="M372.302 289.448L223.37 288.97C223.202 288.97 223.042 288.907 222.924 288.797L200.917 268.241C200.799 268.131 200.732 267.984 200.732 267.829L197.994 34.8375C197.994 34.3155 198.443 33.8959 198.994 33.8959H376.211C376.562 33.8959 376.846 34.1608 376.846 34.4887C376.846 34.8165 376.562 35.0815 376.211 35.0815H199.266L201.998 267.575L223.637 287.787L372.308 288.265C372.659 288.265 372.942 288.532 372.94 288.86C372.94 289.185 372.656 289.45 372.305 289.45L372.302 289.448Z" fill="black"/>
<path d="M405.569 53.9219L221.834 53.2846C221.685 53.2846 221.542 53.2347 221.43 53.1455L199.423 35.9363C199.154 35.7265 199.12 35.3514 199.345 35.1022C199.569 34.8504 199.968 34.8163 200.238 35.0288L222.07 52.1016L403.519 52.7311L375.855 34.9763C375.565 34.7901 375.492 34.4229 375.692 34.1527C375.891 33.8826 376.284 33.8144 376.573 34.0006L405.934 52.8439C406.164 52.9908 406.263 53.261 406.181 53.5075C406.1 53.7541 405.853 53.9246 405.575 53.9246L405.569 53.9219Z" fill="black"/>
<path d="M223.37 288.97C223.022 288.97 222.738 288.708 222.735 288.38L221.199 52.6945C221.199 52.3667 221.48 52.0991 221.831 52.0991H221.834C222.182 52.0991 222.466 52.3614 222.469 52.6893L224.005 288.375C224.005 288.703 223.724 288.97 223.373 288.97H223.37Z" fill="black"/>
<path d="M366.161 289.448C365.819 289.448 365.535 289.191 365.527 288.868C365.518 288.54 365.796 288.27 366.144 288.262L409.528 287.32L404.934 53.3397C404.929 53.0119 405.207 52.7417 405.558 52.7365C405.92 52.7574 406.198 52.9909 406.204 53.3187L410.809 287.89C410.814 288.215 410.539 288.485 410.188 288.493L366.172 289.448H366.158H366.161Z" fill="black"/>
<path d="M311.747 60.3403H229.157C229.069 60.3403 228.997 60.4073 228.997 60.4898V282.969C228.997 283.051 229.069 283.118 229.157 283.118H311.747C311.835 283.118 311.907 283.051 311.907 282.969V60.4898C311.907 60.4073 311.835 60.3403 311.747 60.3403Z" fill="black"/>
<path d="M399.108 283.234H316.833C316.307 283.234 315.881 282.835 315.881 282.345V60.1594C315.881 59.669 316.307 59.2703 316.833 59.2703H399.108C399.633 59.2703 400.06 59.669 400.06 60.1594V282.345C400.06 282.835 399.633 283.234 399.108 283.234ZM317.15 282.048H398.793V60.4558H317.15V282.048Z" fill="black"/>
<path d="M228.489 62.2526L148.648 91.0028L149.671 301.285L229 280.658L228.489 62.2526Z" fill="white"/>
<path d="M149.671 301.878C149.533 301.878 149.398 301.836 149.289 301.757C149.131 301.644 149.039 301.471 149.036 301.288L148.011 91.0054C148.011 90.7588 148.171 90.5385 148.418 90.4493L228.259 61.6991C228.453 61.6283 228.672 61.6519 228.846 61.762C229.017 61.8722 229.121 62.0558 229.121 62.2499L229.632 280.653C229.632 280.918 229.444 281.154 229.169 281.225L149.839 301.852C149.783 301.867 149.727 301.873 149.668 301.873L149.671 301.878ZM149.283 91.4093L150.302 300.506L228.366 280.207L227.857 63.1155L149.286 91.4093H149.283Z" fill="black"/>
<path d="M143.19 90.1398L224.906 61.1378L228.489 62.2526L149.673 90.6172L143.19 90.1398Z" fill="white"/>
<path d="M149.673 91.2099C149.657 91.2099 149.64 91.2099 149.623 91.2099L143.139 90.7326C142.844 90.7116 142.603 90.4991 142.561 90.2263C142.519 89.9509 142.687 89.686 142.962 89.5889L224.679 60.5869C224.816 60.5371 224.965 60.5345 225.105 60.5791L228.688 61.6938C228.941 61.7725 229.115 61.9928 229.121 62.242C229.127 62.4912 228.964 62.7194 228.714 62.8086L149.898 91.1732C149.825 91.1994 149.749 91.2126 149.671 91.2126L149.673 91.2099ZM146.054 89.7568L149.578 90.0165L226.611 62.2919L224.917 61.7646L146.051 89.7542L146.054 89.7568Z" fill="black"/>
<path d="M149.674 90.6173H142.679V301.285H149.674V90.6173Z" fill="white"/>
<path d="M149.673 301.878H142.679C142.328 301.878 142.044 301.613 142.044 301.285V90.6172C142.044 90.2893 142.328 90.0244 142.679 90.0244H149.673C150.024 90.0244 150.308 90.2893 150.308 90.6172V301.285C150.308 301.613 150.024 301.878 149.673 301.878ZM143.313 300.692H149.039V91.21H143.313V300.692Z" fill="black"/>
<path d="M312.081 109.581H228.489V113.883H312.081V109.581Z" fill="white"/>
<path d="M312.081 144.64H228.829V148.941H312.081V144.64Z" fill="white"/>
<path d="M311.739 178.423H228.829V182.725H311.739V178.423Z" fill="white"/>
<path d="M311.742 213.482H229.169V217.783H311.742V213.482Z" fill="white"/>
<path d="M389.642 271.669H323.78C323.429 271.669 323.145 271.404 323.145 271.076V70.1266C323.145 69.7987 323.429 69.5338 323.78 69.5338H389.642C389.993 69.5338 390.277 69.7987 390.277 70.1266V271.076C390.277 271.404 389.993 271.669 389.642 271.669ZM324.414 270.484H389.007V70.7194H324.414V270.484Z" fill="black"/>
<path d="M331.951 99.4959C331.763 99.4959 331.575 99.4172 331.448 99.2651C331.235 99.0054 331.285 98.6356 331.563 98.4336L357.044 80.0362C357.322 79.8369 357.72 79.8841 357.934 80.1437C358.147 80.4034 358.097 80.7732 357.821 80.9752L332.341 99.3726C332.226 99.4566 332.089 99.4959 331.954 99.4959H331.951Z" fill="black"/>
<path d="M332.911 122.137C332.74 122.137 332.569 122.074 332.445 121.946C332.209 121.704 332.226 121.329 332.482 121.109L378.634 81.4841C378.893 81.2611 379.294 81.2769 379.53 81.5182C379.766 81.7595 379.749 82.1346 379.494 82.3549L333.341 121.98C333.22 122.085 333.066 122.137 332.911 122.137Z" fill="black"/>
<path d="M332.911 132.042C332.737 132.042 332.566 131.976 332.442 131.847C332.206 131.606 332.226 131.231 332.487 131.011L367.582 101.293C367.843 101.072 368.242 101.091 368.478 101.335C368.714 101.576 368.694 101.951 368.433 102.171L333.338 131.889C333.217 131.992 333.063 132.042 332.911 132.042Z" fill="black"/>
<path d="M334.835 209.403C334.663 209.403 334.492 209.337 334.366 209.212C334.13 208.97 334.147 208.595 334.405 208.375L379.595 169.694C379.853 169.474 380.255 169.49 380.49 169.731C380.726 169.972 380.709 170.347 380.451 170.568L335.261 209.248C335.141 209.353 334.986 209.403 334.832 209.403H334.835Z" fill="black"/>
<path d="M354.547 181.101C354.379 181.101 354.213 181.041 354.089 180.918C353.848 180.682 353.856 180.307 354.109 180.081L380.549 156.495C380.802 156.27 381.204 156.278 381.445 156.516C381.687 156.752 381.678 157.127 381.426 157.353L354.985 180.939C354.862 181.049 354.704 181.101 354.547 181.101Z" fill="black"/>
<path d="M275.883 384.341L84.6002 383.871L60.9398 362.575L59.6453 119.603H243.641L275.883 139.294V384.341Z" fill="white"/>
<path d="M204.958 385.348H204.952L84.5975 384.558C84.4318 384.558 84.2718 384.495 84.1538 384.385L61.2544 362.995C61.1364 362.885 61.069 362.738 61.069 362.583L58.2217 120.136C58.2217 119.606 58.6766 119.181 59.2354 119.181H243.644C243.995 119.181 244.279 119.446 244.279 119.774C244.279 120.102 243.995 120.366 243.644 120.366H59.4909L62.3326 362.329L84.8671 383.378L204.964 384.168C205.315 384.168 205.595 384.438 205.593 384.763C205.593 385.088 205.306 385.351 204.958 385.351V385.348Z" fill="black"/>
<path d="M274.195 139.973L83.0052 139.31C82.8564 139.31 82.7132 139.26 82.6009 139.171L59.7014 121.261C59.4318 121.051 59.3981 120.676 59.6228 120.427C59.8474 120.175 60.2462 120.141 60.5157 120.353L83.2411 138.124L272.146 138.78L243.287 120.259C242.998 120.073 242.925 119.706 243.125 119.435C243.324 119.165 243.717 119.097 244.006 119.283L274.558 138.89C274.788 139.037 274.886 139.307 274.805 139.554C274.723 139.8 274.476 139.971 274.198 139.971L274.195 139.973Z" fill="black"/>
<path d="M84.6003 384.558C84.2521 384.558 83.9685 384.296 83.9657 383.968L82.3679 138.719C82.3679 138.391 82.6487 138.124 82.9997 138.124H83.0025C83.3507 138.124 83.6343 138.386 83.6372 138.714L85.2349 383.963C85.2349 384.291 84.9541 384.558 84.6031 384.558H84.6003Z" fill="black"/>
<path d="M176.574 146.675H90.6178C90.5294 146.675 90.4578 146.742 90.4578 146.824V378.345C90.4578 378.427 90.5294 378.494 90.6178 378.494H176.574C176.663 378.494 176.734 378.427 176.734 378.345V146.824C176.734 146.742 176.663 146.675 176.574 146.675Z" fill="black"/>
<path d="M182.539 379.229C182.373 379.229 182.213 379.168 182.095 379.061C181.974 378.951 181.904 378.798 181.904 378.638L180.89 146.478C180.89 145.985 181.317 145.586 181.842 145.586H267.484C268.009 145.586 268.436 145.985 268.436 146.475L268.36 261.374C268.36 261.702 268.077 261.967 267.726 261.967C267.375 261.967 267.091 261.702 267.091 261.374L267.167 146.774H182.162L183.17 378.035L202.186 377.723C202.521 377.723 202.827 377.977 202.832 378.305C202.838 378.633 202.56 378.903 202.209 378.909L182.55 379.231H182.539V379.229Z" fill="black"/>
<path d="M176.911 197.914H89.927V202.391H176.911V197.914Z" fill="white"/>
<path d="M176.911 234.394H90.281V238.871H176.911V234.394Z" fill="white"/>
<path d="M176.558 269.55H90.281V274.027H176.558V269.55Z" fill="white"/>
<path d="M176.558 306.03H90.6348V310.507H176.558V306.03Z" fill="white"/>
<path d="M257.62 366.557H189.084C188.733 366.557 188.449 366.292 188.449 365.964V156.86C188.449 156.532 188.733 156.267 189.084 156.267H257.62C257.971 156.267 258.254 156.532 258.254 156.86V365.964C258.254 366.292 257.971 366.557 257.62 366.557ZM189.719 365.371H256.985V157.452H189.719V365.371Z" fill="black"/>
<path d="M197.59 187.394C197.399 187.394 197.213 187.315 197.087 187.163C196.874 186.903 196.924 186.533 197.202 186.331L223.716 167.189C223.991 166.99 224.392 167.037 224.606 167.296C224.819 167.556 224.769 167.926 224.493 168.128L197.98 187.27C197.865 187.354 197.727 187.394 197.592 187.394H197.59Z" fill="black"/>
<path d="M198.589 210.956C198.418 210.956 198.247 210.893 198.123 210.764C197.887 210.523 197.904 210.148 198.16 209.927L246.185 168.694C246.444 168.472 246.845 168.49 247.081 168.729C247.317 168.97 247.3 169.345 247.045 169.565L199.019 210.798C198.898 210.903 198.744 210.956 198.589 210.956Z" fill="black"/>
<path d="M198.589 221.264C198.415 221.264 198.244 221.198 198.12 221.07C197.884 220.828 197.904 220.453 198.165 220.233L234.684 189.308C234.945 189.088 235.343 189.106 235.579 189.35C235.815 189.592 235.796 189.967 235.534 190.187L199.016 221.112C198.895 221.214 198.741 221.264 198.589 221.264Z" fill="black"/>
<path d="M200.589 301.765C200.417 301.765 200.246 301.699 200.12 301.573C199.884 301.332 199.901 300.957 200.159 300.737L247.182 260.485C247.441 260.265 247.842 260.28 248.078 260.522C248.314 260.763 248.297 261.138 248.039 261.358L201.015 301.61C200.895 301.715 200.74 301.765 200.586 301.765H200.589Z" fill="black"/>
<path d="M221.101 272.312C220.933 272.312 220.767 272.251 220.643 272.128C220.402 271.892 220.41 271.517 220.663 271.291L248.176 246.748C248.429 246.523 248.83 246.531 249.072 246.769C249.313 247.006 249.305 247.381 249.052 247.606L221.539 272.149C221.416 272.259 221.258 272.312 221.101 272.312Z" fill="black"/>
<path d="M89.9271 148.666L6.84595 178.583L7.913 397.398L90.4606 375.934L89.9271 148.666Z" fill="white"/>
<path d="M7.91297 397.991C7.77538 397.991 7.64059 397.949 7.53108 397.87C7.37383 397.757 7.28116 397.584 7.27835 397.401L6.21411 178.586C6.21411 178.339 6.37417 178.119 6.62128 178.03L89.7024 148.112C89.8961 148.041 90.1152 148.065 90.2893 148.175C90.4606 148.285 90.5645 148.469 90.5645 148.663L91.098 375.932C91.098 376.197 90.9098 376.433 90.6347 376.503L8.08707 397.967C8.03091 397.983 7.97475 397.988 7.91578 397.988L7.91297 397.991ZM7.48334 178.99L8.54197 396.619L89.8231 375.483L89.2924 149.529L7.48334 178.99Z" fill="black"/>
<path d="M1.16528 177.683L86.198 147.504L89.927 148.666L7.91297 178.182L1.16528 177.683Z" fill="white"/>
<path d="M7.91314 178.774C7.8963 178.774 7.87945 178.774 7.8626 178.774L1.11491 178.276C0.820066 178.255 0.578576 178.043 0.536455 177.77C0.494335 177.494 0.662817 177.23 0.938003 177.133L85.9707 146.953C86.1083 146.903 86.2571 146.9 86.3975 146.945L90.1266 148.107C90.3793 148.186 90.5534 148.406 90.559 148.655C90.5646 148.904 90.4018 149.132 90.1518 149.222L8.14059 178.735C8.06758 178.761 7.99177 178.774 7.91314 178.774ZM4.03245 177.303L7.82048 177.581L88.0514 148.708L86.215 148.136L4.03245 177.3V177.303Z" fill="black"/>
<path d="M7.91293 178.182H0.634521V397.398H7.91293V178.182Z" fill="white"/>
<path d="M7.91302 397.991H0.634614C0.283611 397.991 0 397.726 0 397.398V178.182C0 177.854 0.283611 177.589 0.634614 177.589H7.91302C8.26402 177.589 8.54764 177.854 8.54764 178.182V397.398C8.54764 397.726 8.26402 397.991 7.91302 397.991ZM1.26923 396.805H7.27841V178.774H1.26923V396.805Z" fill="black"/>
<path d="M176.574 379.087C176.223 379.087 175.94 378.822 175.94 378.494L176.1 146.824C176.1 146.496 176.383 146.231 176.734 146.231C177.085 146.231 177.369 146.496 177.369 146.824L177.209 378.494C177.209 378.822 176.925 379.087 176.574 379.087Z" fill="black"/>
<path d="M276.082 276.448C275.734 276.448 275.451 276.183 275.448 275.858L274.982 140.477C274.982 140.149 275.262 139.884 275.613 139.881C275.962 139.881 276.245 140.146 276.248 140.471L276.714 275.853C276.714 276.18 276.433 276.445 276.082 276.448Z" fill="black"/>
<path d="M222.005 402.316L225.942 433.262C226.071 434.271 226.987 435.032 228.076 435.032H229.233C230.345 435.032 231.275 434.24 231.373 433.204L234.838 397.13L222.008 402.313L222.005 402.316Z" fill="black"/>
<path d="M322.631 402.316L326.638 433.828C326.725 434.515 327.349 435.032 328.09 435.032H330.485C331.241 435.032 331.872 434.492 331.94 433.789L335.461 397.13L322.631 402.313V402.316Z" fill="black"/>
<path d="M260.989 402.35L264.996 433.862C265.083 434.549 265.707 435.066 266.448 435.066H268.843C269.599 435.066 270.23 434.526 270.298 433.823L273.819 397.164L260.989 402.347V402.35Z" fill="black"/>
<path d="M373.74 402.35L377.747 433.862C377.834 434.549 378.457 435.066 379.199 435.066H381.594C382.349 435.066 382.981 434.526 383.049 433.823L386.57 397.164L373.74 402.347V402.35Z" fill="black"/>
<path d="M398.945 302.848C399.074 286.282 398.984 278.725 394.269 275.181L396.985 265.608L297.78 263.488C292.361 263.373 286.736 267.082 285.849 272.076L284.784 277.547C279.991 291.145 282.384 314.817 276.442 321.159C272.115 325.781 244.764 326.924 224.774 327.415C213.587 327.688 204.728 336.338 204.919 346.791C204.919 346.791 208.299 379.727 211.941 395.761C215.583 411.795 232.749 409.881 232.749 409.881H351.61C364.142 409.382 372.861 408.267 378.592 407.037C386.303 405.385 392.374 399.84 394.413 392.698C401.172 369.031 398.816 319.69 398.945 302.846V302.848Z" fill="white"/>
<path d="M231.193 410.536C226.715 410.536 214.365 409.29 211.321 395.887C207.713 380.002 204.321 347.179 204.287 346.851C204.088 336.068 213.273 327.105 224.757 326.825C237.503 326.513 271.362 325.686 275.965 320.774C279.09 317.437 279.837 308.729 280.629 299.509C281.3 291.685 281.993 283.593 284.167 277.406L285.225 271.973C286.118 266.932 291.85 262.762 297.794 262.898L396.999 265.017C397.193 265.023 397.375 265.109 397.49 265.253C397.608 265.398 397.645 265.587 397.597 265.76L394.983 274.969C399.574 278.728 399.709 285.949 399.577 302.851C399.551 305.996 399.616 310.318 399.689 315.326C400.006 337.096 400.54 373.537 395.022 392.855C392.908 400.26 386.665 405.917 378.73 407.617C372.061 409.046 362.691 410.035 351.633 410.473H232.777C232.62 410.489 232.05 410.534 231.188 410.534L231.193 410.536ZM297.527 264.078C292.29 264.078 287.261 267.74 286.478 272.173L285.411 277.655C285.405 277.681 285.4 277.707 285.388 277.733C283.254 283.792 282.563 291.829 281.895 299.601C281.086 309.02 280.323 317.917 276.922 321.55C272.519 326.253 246.75 327.47 224.794 328.008C214 328.27 205.371 336.692 205.556 346.783C205.587 347.066 208.973 379.824 212.565 395.641C216.041 410.945 231.999 409.369 232.676 409.293C232.701 409.29 232.727 409.288 232.752 409.288H351.613C362.567 408.852 371.859 407.874 378.452 406.46C385.927 404.858 391.81 399.525 393.803 392.545C399.276 373.385 398.743 337.049 398.425 315.339C398.352 310.326 398.288 305.998 398.313 302.84C398.44 286.387 398.31 278.971 393.874 275.638C393.68 275.491 393.593 275.25 393.657 275.024L396.168 266.179L297.769 264.076C297.69 264.076 297.609 264.073 297.53 264.073L297.527 264.078Z" fill="black"/>
<path d="M278.649 320.254C278.624 320.254 278.596 320.254 278.57 320.249C278.222 320.21 277.975 319.913 278.017 319.588C278.357 317.012 278.716 314.177 279.093 311.2C282.092 287.549 284.619 269.264 287.559 266.825C294.186 261.322 301.085 261.618 385.565 265.267C385.916 265.282 386.185 265.558 386.168 265.886C386.151 266.213 385.865 266.478 385.506 266.45C301.506 262.822 294.646 262.526 288.401 267.709C285.588 270.043 282.437 294.896 280.353 311.339C279.974 314.318 279.615 317.157 279.278 319.732C279.239 320.034 278.963 320.252 278.649 320.252V320.254Z" fill="black"/>
<path d="M217.313 405.345C217.052 405.345 216.808 405.193 216.715 404.949C216.597 404.635 215.544 402.969 214.612 401.497C212.657 398.408 211.461 396.485 211.321 395.861C207.713 379.976 204.32 347.179 204.287 346.851C204.261 345.526 204.371 344.244 204.61 342.995C206.053 331.981 217.619 326.379 238.983 326.376C254.357 326.213 271.351 325.518 278.309 319.247C278.562 319.021 278.963 319.027 279.205 319.263C279.449 319.499 279.441 319.874 279.188 320.099C271.893 326.672 255.328 327.391 238.988 327.562C218.363 327.562 207.221 332.813 205.862 343.171C205.632 344.377 205.531 345.581 205.553 346.783C205.584 347.066 208.971 379.795 212.562 395.614C212.683 396.113 214.502 398.99 215.704 400.894C217.013 402.964 217.76 404.152 217.911 404.556C218.026 404.865 217.852 405.204 217.524 405.311C217.454 405.335 217.383 405.345 217.313 405.345Z" fill="black"/>
<path d="M333.074 410.476L227.947 410.222C224.1 410.201 220.506 408.771 217.824 406.195C215.143 403.62 213.713 400.226 213.798 396.635L214.421 370.08C214.556 364.291 218.611 359.229 224.513 357.479C234.094 354.639 251.021 352.766 274.825 351.913C275.176 351.9 275.47 352.157 275.482 352.482C275.496 352.81 275.223 353.086 274.872 353.096C251.184 353.946 234.369 355.798 224.898 358.607C219.515 360.202 215.817 364.824 215.69 370.104L215.067 396.658C214.991 399.929 216.294 403.024 218.734 405.369C221.177 407.714 224.449 409.018 227.953 409.036L333.08 409.29C333.431 409.29 333.715 409.558 333.712 409.886C333.712 410.211 333.428 410.476 333.077 410.476H333.074Z" fill="black"/>
<path d="M292.832 307.564C289.188 308.265 261.338 357.658 265.291 357.978C283.049 360.994 302.815 362.054 325.807 359.968C325.86 352.663 352.573 311.546 348.305 310.219C329.707 307.58 311.217 306.68 292.832 307.564Z" fill="white"/>
<path d="M302.439 361.647C289.642 361.647 277.318 360.621 265.176 358.56C265.024 358.549 264.337 358.421 264.278 357.453C264.087 354.355 270.955 340.949 276.897 330.41C279.051 326.591 289.929 307.517 292.703 306.985C292.734 306.979 292.768 306.974 292.799 306.974C311.065 306.095 329.772 306.99 348.398 309.634C348.434 309.639 348.468 309.647 348.502 309.657C348.74 309.731 349.066 309.909 349.251 310.332C350.231 312.556 345.696 321.209 338.112 335.197C332.383 345.76 326.461 356.679 326.436 359.971C326.436 360.275 326.186 360.527 325.863 360.556C317.849 361.282 310.06 361.647 302.436 361.647H302.439ZM265.541 357.419C284.633 360.64 304.143 361.296 325.212 359.425C325.728 355.418 331.204 345.322 336.983 334.662C342.096 325.233 349.088 312.341 348.092 310.788C329.615 308.173 311.065 307.289 292.945 308.154C290.572 309.08 276.813 331.932 269.458 347.181C265.67 355.035 265.479 356.973 265.544 357.424L265.541 357.419ZM265.345 357.385C265.361 357.385 265.376 357.39 265.39 357.393C265.376 357.39 265.359 357.387 265.345 357.385Z" fill="black"/>
<path d="M319.228 353.76C319.228 353.76 319.214 353.76 319.205 353.76L274.041 352.354C273.159 352.328 272.365 351.887 271.918 351.179C271.469 350.468 271.441 349.602 271.842 348.868C275.835 341.553 289.353 320.768 293.402 314.573C294.332 313.149 296.022 312.322 297.803 312.388L330.971 313.775C331.322 313.791 331.592 314.067 331.578 314.394C331.561 314.722 331.271 314.985 330.915 314.961L297.746 313.573C296.424 313.518 295.174 314.137 294.486 315.192C290.446 321.379 276.947 342.132 272.974 349.408C272.766 349.789 272.78 350.214 273.011 350.581C273.241 350.945 273.631 351.16 274.083 351.176L319.248 352.582C319.599 352.593 319.871 352.868 319.86 353.193C319.848 353.513 319.568 353.765 319.225 353.765L319.228 353.76Z" fill="black"/>
<path d="M395.151 389.859C400.72 365.235 398.821 319.048 398.948 302.848C399.099 283.066 398.948 276.123 390.973 273.531C390.97 273.531 390.967 273.531 390.962 273.529C390.17 273.274 386.309 273.639 385.537 273.941C385.5 273.956 385.031 274.038 385.003 274.064C373.951 284.76 381.17 316.844 376.483 324.752C372.204 331.973 353.222 331.572 345.109 331.006C320.739 329.303 324.552 350.29 324.552 350.29L325.276 395.761C325.276 395.761 321.449 411.336 340.914 409.873C341.004 409.865 351.607 409.88 351.607 409.88C362.115 409.608 369.941 408.656 375.574 407.633C385.309 405.862 392.677 400.779 395.148 389.854L395.151 389.859Z" fill="white"/>
<path d="M338.421 410.568C333.33 410.568 329.536 409.264 327.141 406.675C323.266 402.486 324.468 396.475 324.642 395.706L323.917 350.347C323.782 349.558 322.474 340.997 328.059 335.265C331.715 331.515 337.469 329.883 345.154 330.421C351.293 330.851 371.651 331.685 375.925 324.469C377.694 321.484 377.691 314.73 377.685 306.911C377.68 294.439 377.671 280.304 384.542 273.655C384.691 273.508 384.84 273.479 385.23 273.398L385.334 273.377C386.269 273.049 390.209 272.661 391.164 272.97C399.787 275.771 399.725 283.701 399.577 302.854C399.554 305.896 399.602 310.035 399.658 314.825C399.9 335.433 400.304 369.925 395.769 389.983C393.455 400.22 386.887 406.187 375.694 408.22C368.745 409.485 360.646 410.243 351.624 410.479C348.723 410.473 341.187 410.466 340.931 410.468C340.06 410.534 339.221 410.568 338.415 410.568H338.421ZM342.388 331.504C336.452 331.504 331.959 333.031 329.005 336.058C323.684 341.508 325.161 350.109 325.178 350.195C325.184 350.224 325.186 350.256 325.186 350.284L325.911 395.756C325.911 395.803 325.905 395.85 325.894 395.898C325.88 395.958 324.465 401.98 328.104 405.907C330.6 408.598 334.891 409.736 340.861 409.288C340.894 409.288 340.976 409.277 351.607 409.296C360.539 409.062 368.57 408.309 375.45 407.058C386.087 405.125 392.326 399.46 394.525 389.739C399.032 369.812 398.628 335.399 398.389 314.84C398.333 310.043 398.285 305.901 398.307 302.848C398.462 282.919 398.156 276.501 390.757 274.095C390.181 273.912 386.508 274.203 385.775 274.492C385.747 274.502 385.638 274.533 385.497 274.56C385.447 274.57 385.39 274.581 385.34 274.591C378.938 280.957 378.946 295.341 378.952 306.911C378.954 314.896 378.96 321.791 377.031 325.044C372.516 332.661 353.166 332.168 345.056 331.601C344.135 331.538 343.242 331.504 342.383 331.504H342.388Z" fill="black"/>
<path d="M338.426 410.568C333.689 410.568 330.067 409.437 327.655 407.192C324.369 404.134 324.198 399.777 324.389 397.453C324.546 395.549 324.611 393.87 324.585 392.317L323.917 350.347C323.782 349.558 322.474 340.996 328.059 335.265C331.715 331.514 337.469 329.883 345.154 330.421C351.293 330.848 371.651 331.685 375.925 324.469C377.553 321.72 377.769 315.26 378.019 307.785C378.46 294.552 379.008 278.088 388.095 273.156C388.162 273.12 388.238 273.088 388.316 273.062C389.257 272.705 390.254 272.679 391.164 272.973C399.784 275.774 399.725 283.703 399.577 302.856C399.554 305.899 399.602 310.038 399.658 314.827C399.9 335.436 400.304 369.928 395.769 389.985C393.455 400.223 386.887 406.19 375.694 408.223C368.745 409.487 360.646 410.245 351.624 410.481C348.723 410.476 341.187 410.468 340.931 410.471C340.063 410.536 339.226 410.57 338.423 410.57L338.426 410.568ZM342.388 331.504C336.452 331.504 331.959 333.031 329.005 336.057C323.684 341.508 325.161 350.109 325.178 350.195C325.184 350.224 325.186 350.255 325.186 350.284L325.857 392.299C325.883 393.888 325.818 395.604 325.658 397.545C325.484 399.667 325.627 403.63 328.553 406.353C331.097 408.724 335.239 409.71 340.866 409.288C340.9 409.288 340.982 409.277 351.613 409.296C360.545 409.062 368.576 408.309 375.456 407.058C386.092 405.125 392.332 399.46 394.531 389.739C399.037 369.812 398.633 335.399 398.394 314.84C398.338 310.043 398.291 305.901 398.313 302.848C398.467 282.919 398.161 276.501 390.762 274.095C390.133 273.893 389.454 273.912 388.842 274.145C388.836 274.145 388.771 274.171 388.766 274.171C380.257 278.783 379.721 294.885 379.289 307.824C379.033 315.454 378.814 322.046 377.037 325.046C372.521 332.663 353.171 332.17 345.062 331.604C344.141 331.541 343.248 331.507 342.388 331.507V331.504Z" fill="black"/>
<path d="M405.153 279.787C405.153 285.303 399.484 294.232 395.477 297.198C393.197 298.887 393.104 295.244 390.774 296.453C381.409 301.303 378.525 288.443 378.525 279.787C378.525 271.131 384.486 264.115 391.841 264.115C399.195 264.115 405.156 271.131 405.156 279.787H405.153Z" fill="white"/>
<path d="M398.849 296.217C398.51 296.217 398.229 295.966 398.215 295.646C398.147 293.888 399.47 291.507 401.003 288.747C402.651 285.781 404.516 282.421 404.516 279.787C404.516 271.472 398.827 264.708 391.835 264.708C384.843 264.708 379.154 271.472 379.154 279.787C379.154 281.322 379.474 284.097 379.845 287.312C379.993 288.616 380.154 290.001 380.305 291.42C380.339 291.745 380.086 292.036 379.738 292.068C379.384 292.099 379.078 291.863 379.044 291.538C378.893 290.119 378.733 288.739 378.584 287.438C378.21 284.191 377.887 281.385 377.887 279.787C377.887 270.819 384.144 263.525 391.838 263.525C399.532 263.525 405.788 270.819 405.788 279.787C405.788 282.709 403.845 286.206 402.132 289.293C400.742 291.795 399.431 294.158 399.487 295.604C399.498 295.932 399.226 296.204 398.875 296.217C398.866 296.217 398.858 296.217 398.852 296.217H398.849Z" fill="black"/>
<path d="M420.303 433.419L411.584 463.019L396.539 463.21L405.022 430.56L420.303 433.419Z" fill="white"/>
<path d="M396.539 463.803C396.345 463.803 396.162 463.722 396.042 463.58C395.918 463.439 395.876 463.25 395.921 463.071L404.404 430.421C404.483 430.111 404.814 429.912 405.145 429.98L420.426 432.839C420.601 432.871 420.749 432.97 420.842 433.109C420.935 433.248 420.96 433.419 420.912 433.576L412.193 463.174C412.118 463.428 411.873 463.606 411.59 463.609L396.547 463.801H396.539V463.803ZM405.493 431.252L397.347 462.607L411.095 462.431L419.508 433.875L405.493 431.252Z" fill="black"/>
<path d="M417.408 474.83C417.652 470.327 417.554 461.694 413.802 457.039L402.138 460.577V458.455C402.138 457.771 401.565 457.207 400.835 457.172L394.329 456.855C391.916 456.737 389.513 457.152 387.309 458.075C381.131 460.658 368.478 466.518 363.842 472.873C362.213 475.106 363.817 478.159 366.692 478.437C373.389 479.085 387.991 479.795 414.15 477.957C415.922 477.833 417.318 476.493 417.408 474.835V474.83Z" fill="white"/>
<path d="M384.192 479.714C375.686 479.714 370.003 479.347 366.627 479.022C365.024 478.867 363.662 477.954 362.98 476.582C362.317 475.247 362.443 473.736 363.319 472.535C367.958 466.177 380.179 460.404 387.05 457.529C389.327 456.577 391.857 456.139 394.362 456.26L400.868 456.577C401.935 456.629 402.772 457.453 402.772 458.452V459.759L413.608 456.472C413.867 456.393 414.148 456.477 414.31 456.679C418.155 461.45 418.298 470.117 418.042 474.859C417.936 476.813 416.285 478.395 414.201 478.542C401.691 479.42 391.81 479.714 384.194 479.714H384.192ZM393.537 457.424C391.484 457.424 389.434 457.831 387.57 458.61C382.136 460.884 368.997 466.856 364.367 473.201C363.746 474.054 363.656 475.129 364.128 476.081C364.62 477.07 365.602 477.728 366.756 477.841C373.114 478.458 387.718 479.216 414.103 477.359C415.552 477.256 416.7 476.157 416.773 474.799C417.015 470.332 416.905 462.279 413.558 457.734L402.334 461.138C402.143 461.199 401.93 461.165 401.764 461.054C401.601 460.944 401.503 460.766 401.503 460.574V458.452C401.503 458.085 401.194 457.781 400.801 457.763L394.295 457.445C394.042 457.432 393.789 457.427 393.537 457.427V457.424Z" fill="black"/>
<path d="M389.903 475.134C380.339 475.134 372.909 474.534 368.941 473.975C368.596 473.925 368.357 473.624 368.408 473.301C368.461 472.978 368.787 472.758 369.129 472.803C375.391 473.684 392.599 474.82 412.901 472.816C413.252 472.779 413.561 473.018 413.597 473.343C413.634 473.668 413.381 473.959 413.033 473.993C404.564 474.83 396.693 475.134 389.9 475.134H389.903Z" fill="black"/>
<path d="M383.431 467.851C383.223 467.851 383.021 467.756 382.9 467.583C382.709 467.31 382.79 466.943 383.082 466.762L394.312 459.882C394.604 459.701 394.997 459.78 395.191 460.052C395.382 460.325 395.3 460.692 395.008 460.873L383.779 467.754C383.672 467.819 383.551 467.851 383.431 467.851Z" fill="black"/>
<path d="M483.983 430.945L487.735 455.557H498.703L499.155 431.352L483.983 430.945Z" fill="white"/>
<path d="M498.703 456.149H487.738C487.423 456.149 487.154 455.932 487.109 455.64L483.354 431.029C483.329 430.856 483.385 430.68 483.509 430.552C483.632 430.421 483.801 430.342 484 430.355L499.172 430.762C499.52 430.772 499.795 431.04 499.787 431.365L499.335 455.57C499.329 455.892 499.046 456.152 498.7 456.152L498.703 456.149ZM488.288 454.964H498.08L498.509 431.926L484.716 431.557L488.285 454.964H488.288Z" fill="black"/>
<path d="M423.091 269.017C423.091 269.017 411.41 344.299 409.003 362.109C406.296 382.122 398.232 443.255 398.232 443.255C398.232 443.255 411.303 443.866 419.151 443.827C419.151 443.827 460.41 339.263 463.156 309.783C465.905 280.304 456.717 266.809 456.717 266.809L423.091 269.017Z" fill="white"/>
<path d="M418.433 444.422C410.598 444.422 398.327 443.853 398.201 443.848C398.024 443.84 397.861 443.764 397.746 443.638C397.634 443.512 397.58 443.347 397.603 443.184C397.684 442.573 405.698 381.82 408.374 362.035C410.756 344.422 422.347 269.686 422.465 268.931C422.507 268.655 422.751 268.443 423.049 268.424L456.675 266.216C456.917 266.195 457.13 266.305 457.254 266.489C457.633 267.047 466.526 280.49 463.791 309.833C461.067 339.055 420.162 442.985 419.75 444.031C419.657 444.262 419.421 444.417 419.157 444.419C418.921 444.419 418.68 444.419 418.435 444.419L418.433 444.422ZM398.945 442.694C401.674 442.814 411.952 443.223 418.708 443.237C421.454 436.238 459.899 337.899 462.524 309.731C464.998 283.181 457.647 269.563 456.366 267.422L423.644 269.573C422.647 276.002 411.912 345.316 409.632 362.182C407.105 380.873 399.81 436.136 398.945 442.694Z" fill="black"/>
<path d="M435.275 264.338C435.275 264.338 474.47 389.681 481.33 439.651C481.33 439.651 488.358 441.692 501.733 439.651C501.733 439.651 509.438 299.315 484.719 261.665L435.275 264.338Z" fill="white"/>
<path d="M490.459 441.157C484.477 441.157 481.335 440.273 481.139 440.218C480.903 440.149 480.729 439.958 480.698 439.727C473.922 390.374 435.056 265.757 434.663 264.506C434.61 264.333 434.643 264.146 434.753 264C434.865 263.853 435.042 263.761 435.236 263.75L484.68 261.078C484.913 261.072 485.135 261.172 485.258 261.358C495.569 277.062 501.581 311.853 503.128 364.763C504.28 404.12 502.384 439.334 502.365 439.682C502.351 439.96 502.129 440.191 501.834 440.239C497.313 440.928 493.516 441.159 490.459 441.159V441.157ZM481.902 439.179C483.511 439.543 490.108 440.755 501.123 439.139C501.581 430.109 507.759 298.672 484.374 262.274L436.104 264.883C439.288 275.126 475.236 391.433 481.9 439.176L481.902 439.179Z" fill="black"/>
<path d="M488.549 479.085C492.435 479.473 498.796 479.725 506.209 478.534C508.638 478.143 510.177 475.882 509.511 473.666C507.652 467.491 504.53 455.053 499.489 449.729L497.501 453.474L495.755 450.41C495.513 450.035 495.095 449.789 494.629 449.747H490.953C490.189 449.681 489.498 450.174 489.363 450.88L488.875 453.474L485.778 450.132L486.238 464.087C486.32 466.552 485.536 469.015 485.028 471.436L484.312 474.856C484.09 476.968 486.292 478.862 488.552 479.087L488.549 479.085Z" fill="white"/>
<path d="M495.185 480C492.562 480 490.29 479.853 488.482 479.672C485.994 479.423 483.411 477.359 483.68 474.794L484.405 471.318C484.525 470.744 484.66 470.169 484.798 469.59C485.224 467.782 485.665 465.912 485.604 464.1L485.143 450.146C485.135 449.894 485.298 449.666 485.547 449.574C485.797 449.482 486.084 449.548 486.258 449.739L488.482 452.139L488.74 450.772C488.928 449.768 489.925 449.068 491.015 449.154L494.631 449.149C495.356 449.209 495.96 449.563 496.302 450.098L497.484 452.171L498.922 449.458C499.015 449.283 499.197 449.159 499.408 449.133C499.616 449.11 499.826 449.18 499.967 449.327C504.49 454.104 507.436 464.257 509.385 470.977C509.652 471.893 509.896 472.742 510.123 473.495C510.488 474.71 510.286 476.016 509.564 477.083C508.84 478.154 507.658 478.893 506.318 479.108C502.216 479.767 498.433 479.992 495.185 479.992V480ZM488.617 478.494C492.579 478.891 498.827 479.119 506.102 477.949C507.088 477.792 507.958 477.246 508.489 476.459C509.025 475.664 509.171 474.728 508.899 473.823C508.672 473.065 508.424 472.215 508.158 471.294C506.33 464.997 503.614 455.633 499.621 450.809L498.068 453.734C497.962 453.933 497.748 454.059 497.51 454.064C497.282 454.054 497.052 453.946 496.94 453.75L495.193 450.686C495.072 450.5 494.831 450.358 494.567 450.334L490.95 450.34C490.461 450.311 490.06 450.581 489.987 450.982L489.498 453.576C489.456 453.802 489.279 453.983 489.043 454.043C488.808 454.104 488.555 454.033 488.395 453.86L486.466 451.78L486.87 464.066C486.935 466.025 486.477 467.966 486.033 469.847C485.898 470.416 485.766 470.982 485.649 471.549L484.932 474.969C484.753 476.706 486.76 478.311 488.617 478.497V478.494Z" fill="black"/>
<path d="M497.355 475.801C491.967 475.801 487.943 474.825 487.693 474.762C487.353 474.678 487.154 474.353 487.243 474.038C487.333 473.723 487.681 473.537 488.018 473.618C488.108 473.642 497.133 475.827 506.125 473.618C506.467 473.534 506.81 473.723 506.9 474.041C506.99 474.358 506.787 474.681 506.448 474.765C503.274 475.544 500.135 475.803 497.355 475.803V475.801Z" fill="black"/>
<path d="M501.056 466.177H492.346C491.995 466.177 491.711 465.912 491.711 465.584C491.711 465.256 491.995 464.991 492.346 464.991H501.056C501.407 464.991 501.691 465.256 501.691 465.584C501.691 465.912 501.407 466.177 501.056 466.177Z" fill="black"/>
<path d="M354.719 164.445C352.736 160.563 346.118 155.496 342.223 152.736C341.215 152.023 339.814 152.251 339.215 153.292C338.196 155.066 340.771 157.19 342.872 159.611C341.538 159.653 340.117 159.939 338.881 160.275C336.646 160.881 336.205 159.236 334.439 157.822C331.555 155.514 331.676 150.37 330.6 150.384L328.326 149.056C326.731 149.088 327.332 155.831 327.332 155.831C327.189 158.62 328.188 163.546 329.18 164.466C331.479 166.596 333.678 167.212 336.826 168.02L344.73 170.053C347.131 170.67 348.892 172.582 349.19 174.89L351.722 194.496C352.009 196.713 354.865 197.694 356.62 196.178L365.445 188.55L354.721 164.451L354.719 164.445Z" fill="white"/>
<path d="M354.634 197.494C354.221 197.494 353.803 197.426 353.399 197.287C352.135 196.854 351.251 195.81 351.09 194.562L348.558 174.955C348.288 172.878 346.721 171.176 344.559 170.62L336.654 168.587C333.742 167.839 331.226 167.191 328.73 164.881C327.467 163.711 326.571 158.441 326.692 155.837C326.602 154.798 326.262 150.069 327.438 148.849C327.742 148.534 328.079 148.463 328.309 148.458C328.432 148.458 328.553 148.487 328.657 148.547L330.808 149.804C331.575 149.943 331.839 150.89 332.22 152.262C332.675 153.893 333.299 156.125 334.849 157.366C335.382 157.793 335.798 158.234 336.163 158.622C337.104 159.622 337.53 160.015 338.701 159.698C339.738 159.417 340.709 159.22 341.599 159.113C341.465 158.966 341.33 158.819 341.195 158.675C339.356 156.686 337.618 154.808 338.654 153.006C339.022 152.366 339.631 151.934 340.375 151.782C341.142 151.627 341.953 151.8 342.602 152.259C346.46 154.992 353.239 160.175 355.286 164.183C355.291 164.193 355.294 164.201 355.3 164.212L366.024 188.311C366.125 188.54 366.063 188.805 365.869 188.975L357.043 196.603C356.372 197.182 355.51 197.489 354.629 197.489L354.634 197.494ZM328.3 149.741C327.879 150.376 327.719 153.051 327.961 155.782C327.961 155.808 327.961 155.834 327.961 155.86C327.817 158.662 328.868 163.346 329.623 164.044C331.774 166.035 333.824 166.635 336.991 167.448L344.896 169.481C347.555 170.166 349.487 172.259 349.816 174.816L352.348 194.423C352.455 195.239 353.008 195.894 353.834 196.178C354.659 196.461 355.538 196.298 356.184 195.74L364.684 188.393L354.134 164.689C352.194 160.907 345.598 155.876 341.835 153.211C341.481 152.959 341.049 152.862 340.645 152.946C340.268 153.022 339.959 153.245 339.771 153.573C339.148 154.656 340.608 156.235 342.155 157.906C342.557 158.339 342.967 158.785 343.363 159.239C343.514 159.414 343.548 159.653 343.447 159.858C343.346 160.062 343.132 160.196 342.891 160.204C341.787 160.238 340.496 160.453 339.055 160.844C337.064 161.382 336.124 160.38 335.211 159.412C334.857 159.034 334.489 158.643 334.023 158.271C332.17 156.789 331.49 154.347 330.993 152.566C330.822 151.949 330.612 151.191 330.446 150.958C330.381 150.942 330.317 150.919 330.26 150.884L328.298 149.738L328.3 149.741Z" fill="black"/>
<path d="M522.569 201.117C508.652 181.484 481.279 173.198 463.718 169.77L462.847 169.468C459.986 168.618 449.922 166.9 446.92 166.811L431.372 167.698C425.599 168.382 413.741 177.793 413.741 177.793C413.741 177.793 394.469 195.685 386.621 195.501C379.339 195.33 362.171 178.147 362.171 178.147L348.519 188.243C363.926 249.602 410.405 220.923 414.968 217.932L421.134 279.451C447.389 287.7 470.999 287.735 488.634 269.18L486.879 206.84C511.398 215.661 491.86 231.653 498.203 238.667C498.99 239.538 500.09 240.11 501.281 240.359L509.028 241.982C510.362 242.263 511.744 241.765 512.524 240.718C517.09 234.596 531.391 213.565 522.571 201.122L522.569 201.117Z" fill="white"/>
<path d="M451.332 285.348C442.309 285.348 432.231 283.561 420.932 280.01C420.693 279.936 420.525 279.737 420.502 279.504L414.437 218.987C409.251 222.21 391.58 231.889 374.858 225.932C362.084 221.382 353.014 208.747 347.898 188.377C347.842 188.154 347.929 187.918 348.123 187.776L361.772 177.681C362.031 177.489 362.404 177.515 362.629 177.741C362.8 177.911 379.699 194.743 386.632 194.906C386.668 194.906 386.708 194.906 386.744 194.906C394.312 194.906 413.1 177.547 413.288 177.371C413.816 176.951 425.394 167.808 431.288 167.107L446.875 166.218C450.093 166.313 460.194 168.057 463.033 168.902L463.886 169.198C483.394 173.012 509.48 181.589 523.091 200.789C532.119 213.526 517.677 234.827 513.035 241.051C512.103 242.3 510.474 242.892 508.879 242.557L501.132 240.933C499.767 240.647 498.551 239.976 497.709 239.045C495.229 236.304 496.333 232.416 497.501 228.298C499.512 221.209 501.783 213.193 487.53 207.719L489.26 269.161C489.265 269.311 489.206 269.458 489.1 269.571C479.064 280.128 466.739 285.348 451.323 285.348H451.332ZM421.729 279.011C451.478 288.272 472.549 285.075 487.993 268.959L486.247 206.853C486.241 206.656 486.342 206.467 486.516 206.352C486.687 206.239 486.912 206.213 487.109 206.284C503.404 212.146 500.817 221.271 498.737 228.605C497.611 232.582 496.636 236.012 498.686 238.281C499.352 239.016 500.32 239.548 501.418 239.779L509.166 241.403C510.252 241.628 511.367 241.227 512.002 240.377C516.528 234.308 530.628 213.56 522.041 201.445C508.657 182.562 482.866 174.113 463.589 170.349C463.558 170.344 463.527 170.336 463.499 170.326L462.628 170.024C459.947 169.227 449.914 167.493 446.903 167.404L431.414 168.288C425.933 168.938 414.271 178.15 414.153 178.242C413.398 178.945 394.837 196.091 386.736 196.091C386.691 196.091 386.649 196.091 386.604 196.091C379.688 195.928 364.808 181.605 362.107 178.947L349.229 188.471C354.258 208.22 363.03 220.45 375.313 224.826C392.961 231.113 412.443 218.864 414.605 217.447C414.791 217.327 415.029 217.306 415.234 217.395C415.439 217.484 415.58 217.668 415.599 217.877L421.727 279.013L421.729 279.011Z" fill="black"/>
<path d="M422.041 170.987L423.173 192.225C423.173 192.726 423.484 194.656 423.599 195.147C424.355 198.399 429.196 199.498 432.843 199.53L441.234 199.664C445.544 199.7 452.994 197.431 454.316 193.686C454.516 193.122 454.811 192.149 454.889 191.561L458.155 167.254L464.411 168.715C465.388 168.983 465.506 170.688 465.549 171.637C467.093 205.901 469.028 240.695 487.875 246.153L495.653 347.861C496.111 353.838 492.197 359.336 486.14 361.306C448.223 373.642 425.818 369.225 407.675 355.071L416.568 284.38C417.84 274.518 417.798 264.545 416.442 254.691L413.934 218.874C414.847 206.14 413.314 193.046 413.622 177.988C413.637 177.243 413.996 176.534 414.6 176.047L421.176 170.62C421.513 170.342 422.044 170.565 422.044 170.984L422.041 170.987Z" fill="black"/>
<path d="M427.236 149.631L430.37 162.659C431.745 169.193 425.469 170.619 425.469 170.619C427.519 171.517 431.63 177.366 454.884 169.245C456.481 168.686 449.388 171.569 446.37 161.313L441.669 144.786L427.233 149.628L427.236 149.631Z" fill="white"/>
<path d="M435.138 174.077C429.76 174.077 427.351 172.511 425.967 171.611C425.661 171.414 425.399 171.241 425.2 171.155C424.956 171.047 424.813 170.808 424.838 170.559C424.866 170.31 425.057 170.103 425.318 170.043C425.548 169.987 430.985 168.655 429.746 162.772L426.615 149.759C426.545 149.468 426.719 149.174 427.02 149.072L441.456 144.23C441.621 144.175 441.807 144.185 441.964 144.264C442.121 144.34 442.236 144.477 442.281 144.637L446.982 161.164C449.22 168.773 453.654 168.765 454.962 168.587C455.285 168.545 455.648 168.726 455.729 169.022C455.808 169.319 455.563 169.649 455.254 169.751L455.103 169.804C445.805 173.051 439.493 174.079 435.135 174.079L435.138 174.077ZM426.862 170.748C429.196 172.254 434.517 175.288 452.239 169.507C450.06 168.849 447.353 166.879 445.76 161.468L441.237 145.56L427.98 150.008L430.99 162.525C432.069 167.64 428.763 169.893 426.862 170.746V170.748Z" fill="black"/>
<path d="M436.449 127.27C425.242 126.384 423.992 132.881 423.992 132.881C423.316 134.523 421.929 137.463 421.083 138.381C420.387 139.139 418.039 140.11 417.722 140.561C417.408 141.012 417.739 142.365 419.216 143.441C419.216 143.441 415.978 151.438 417.514 153.652C419.05 155.863 428.612 157.08 428.612 157.08L430.28 157.167C435.651 157.447 440.178 155.131 443.677 151.344C443.677 151.344 462.128 129.298 436.446 127.268L436.449 127.27Z" fill="white"/>
<path d="M431.147 157.783C430.85 157.783 430.549 157.775 430.246 157.759L428.578 157.673C427.52 157.539 418.629 156.348 416.984 153.977C415.476 151.803 417.776 145.421 418.469 143.63C417.088 142.452 416.678 140.975 417.192 140.241C417.408 139.929 417.888 139.658 418.784 139.163C419.458 138.79 420.297 138.329 420.603 137.995C421.353 137.182 422.676 134.428 423.386 132.708C423.571 131.978 425.481 125.812 436.502 126.68C443.671 127.247 448.187 129.424 449.93 133.153C453.396 140.571 444.559 151.26 444.182 151.711C440.495 155.703 436.011 157.783 431.15 157.783H431.147ZM434.408 127.779C425.781 127.779 424.664 132.763 424.619 132.991C424.61 133.025 424.602 133.062 424.588 133.096C424.091 134.3 422.583 137.668 421.567 138.769C421.123 139.249 420.264 139.724 419.43 140.183C418.98 140.43 418.368 140.768 418.245 140.902C418.188 141.046 418.343 142.053 419.609 142.976C419.828 143.136 419.913 143.409 419.814 143.653C418.607 146.638 417.06 151.905 418.051 153.332C419.053 154.777 425.116 156.039 428.702 156.495L430.319 156.579C435.115 156.823 439.572 154.887 443.2 150.961C443.267 150.877 451.93 140.395 448.765 133.626C447.223 130.329 443.062 128.388 436.396 127.86C435.691 127.805 435.031 127.779 434.408 127.779Z" fill="black"/>
<path d="M441.692 124.461C438.892 123.936 435.685 124.369 434.337 123.892C430.493 122.528 430.471 118.552 427.368 118.308C424.641 118.093 422.409 119.373 421.033 121.311C420.803 121.633 420.603 121.995 420.443 122.405C418.298 127.892 422.678 132.015 423.993 132.881C423.993 132.881 432.655 135.787 434.09 136.862C435.432 137.867 436.674 141.091 435.812 144.529C435.699 144.973 435.929 145.432 436.356 145.657C436.859 145.919 437.494 145.791 437.819 145.353C438.85 143.971 441.11 141.298 442.79 141.922C444.747 142.651 445.412 147.228 441.818 148.346C440.712 148.689 440.347 150.037 441.144 150.835C441.807 151.498 442.818 151.963 444.342 151.609C444.342 151.609 453.286 145.704 454.339 137.888C455.392 130.072 445.412 125.159 441.686 124.461H441.692Z" fill="black"/>
<path d="M417.722 140.448C417.472 140.448 417.233 140.309 417.135 140.078C416.697 139.068 416.837 137.486 417.506 135.949C417.966 134.89 418.623 133.966 419.354 133.353C420.204 132.637 421.086 132.401 421.83 132.681C423.015 133.132 423.428 134.722 422.88 136.734C422.793 137.051 422.451 137.245 422.108 137.161C421.768 137.08 421.563 136.757 421.65 136.443C422.038 135.016 421.799 133.948 421.353 133.778C421.094 133.681 420.654 133.854 420.204 134.231C419.623 134.722 419.07 135.509 418.685 136.393C418.146 137.636 418 138.906 418.315 139.629C418.446 139.934 418.289 140.28 417.966 140.403C417.888 140.432 417.806 140.448 417.728 140.448H417.722Z" fill="black"/>
<path d="M424.745 143.962C424.431 143.962 424.122 143.907 423.83 143.797C422.08 143.134 421.544 140.7 422.605 138.255C423.091 137.135 423.847 136.188 424.731 135.585C425.705 134.921 426.73 134.743 427.618 135.079C429.367 135.742 429.903 138.179 428.842 140.623C428.356 141.743 427.601 142.69 426.716 143.294C426.062 143.737 425.385 143.965 424.745 143.965V143.962ZM426.705 136.099C426.217 136.099 425.75 136.359 425.478 136.542C424.782 137.017 424.178 137.783 423.779 138.698C423.01 140.466 423.251 142.297 424.307 142.698C424.933 142.937 425.618 142.572 425.969 142.334C426.666 141.859 427.27 141.093 427.668 140.178C428.438 138.41 428.196 136.576 427.14 136.178C426.997 136.122 426.851 136.099 426.705 136.099Z" fill="black"/>
<path d="M438.285 142.446C438.212 142.446 438.139 142.436 438.069 142.412L428.564 139.191C428.236 139.079 428.064 138.74 428.185 138.433C428.306 138.126 428.671 137.969 428.996 138.079L438.502 141.3C438.83 141.413 439.001 141.751 438.881 142.058C438.788 142.3 438.544 142.449 438.285 142.449V142.446Z" fill="black"/>
<path d="M499.964 239.646L496.426 248.419C496.041 249.505 494.822 250.127 493.637 249.844C493.637 249.844 490.256 248.742 486.373 248.48C483.259 248.27 476.098 254.654 475.087 255.357C473.082 256.75 472.369 259.409 473.787 261.463C475.992 264.661 486.946 258.489 492.682 260.624C500.699 263.606 503.929 255.354 503.929 255.354L509.064 242.038L499.964 239.646Z" fill="white"/>
<path d="M476.25 262.992C474.911 262.992 473.863 262.67 473.251 261.78C471.712 259.546 472.352 256.514 474.708 254.877C474.863 254.769 475.228 254.473 475.691 254.098C479.591 250.932 483.905 247.706 486.418 247.887C490.341 248.152 493.702 249.238 493.845 249.282C494.651 249.471 495.544 249.017 495.825 248.23L499.371 239.436C499.486 239.147 499.821 238.992 500.138 239.074L509.239 241.466C509.407 241.51 509.55 241.618 509.632 241.765C509.713 241.912 509.724 242.082 509.665 242.237L504.53 255.551C504.462 255.721 502.876 259.685 499.135 261.248C497.111 262.095 494.862 262.069 492.452 261.172C489.821 260.194 485.8 261.138 482.251 261.972C479.993 262.502 477.904 262.992 476.256 262.992H476.25ZM486.202 249.064C483.823 249.064 478.536 253.358 476.522 254.992C476.003 255.415 475.657 255.693 475.464 255.829C473.641 257.093 473.139 259.428 474.318 261.14C475.191 262.407 478.468 261.639 481.936 260.823C485.671 259.944 489.903 258.95 492.916 260.07C494.996 260.844 496.911 260.876 498.613 260.167C501.868 258.806 503.316 255.184 503.331 255.147L508.236 242.434L500.351 240.361L497.018 248.626C496.538 249.977 494.982 250.777 493.477 250.415C493.393 250.389 490.074 249.321 486.325 249.067C486.286 249.067 486.244 249.062 486.202 249.062V249.064Z" fill="black"/>
<path d="M342.226 152.739C341.218 152.026 339.816 152.254 339.218 153.295C338.199 155.068 340.774 157.193 342.874 159.614C342.683 159.619 350.032 162.03 353.952 163.207C351.386 159.54 345.716 155.213 342.223 152.739H342.226Z" fill="white"/>
<path d="M353.722 163.477C353.519 163.477 353.323 163.388 353.199 163.223C350.535 159.624 344.938 155.406 341.841 153.211C341.487 152.962 341.055 152.867 340.65 152.946C340.274 153.022 339.965 153.245 339.777 153.573C339.21 154.562 340.81 156.227 342.36 157.838C342.807 158.302 343.256 158.769 343.672 159.236C343.896 159.488 343.86 159.86 343.59 160.07C343.321 160.277 342.922 160.246 342.697 159.994C342.293 159.54 341.852 159.084 341.417 158.63C339.488 156.626 337.668 154.735 338.657 153.012C339.024 152.374 339.634 151.939 340.378 151.787C341.144 151.632 341.956 151.805 342.605 152.264C345.764 154.502 351.475 158.814 354.241 162.546C354.441 162.816 354.367 163.184 354.081 163.37C353.972 163.441 353.845 163.475 353.722 163.475V163.477Z" fill="black"/>
</svg>
