<svg width="448" height="424" viewBox="0 0 448 424" fill="none" xmlns="http://www.w3.org/2000/svg">
<path d="M0.999809 205.695C0.987314 205.695 0.974818 205.695 0.959824 205.695C0.657432 205.675 0.427514 205.431 0.450006 205.151C0.632441 202.723 0.877353 200.253 1.17475 197.804C1.20973 197.524 1.47964 197.322 1.78453 197.354C2.08692 197.387 2.30434 197.639 2.26936 197.92C1.97196 200.353 1.72955 202.811 1.54711 205.223C1.52712 205.492 1.28471 205.698 0.99731 205.698L0.999809 205.695Z" fill="black"/>
<path d="M25.0413 299.2C24.8588 299.2 24.6814 299.117 24.5764 298.964C6.43791 272.458 -2.12903 239.141 0.450048 205.149C0.470041 204.869 0.722451 204.655 1.03734 204.676C1.33973 204.695 1.56965 204.94 1.54716 205.221C-1.01443 238.997 7.49253 272.095 25.5061 298.415C25.6685 298.654 25.5936 298.969 25.3361 299.119C25.2437 299.173 25.1437 299.198 25.0413 299.198V299.2Z" fill="black"/>
<path d="M29.8743 281.205C29.6794 281.205 29.4895 281.108 29.3895 280.939C17.5113 260.691 11.2535 236.965 11.2885 212.327C11.2885 212.044 11.5359 211.817 11.8383 211.817C12.1432 211.817 12.3906 212.047 12.3881 212.329C12.3506 236.796 18.5634 260.353 30.3542 280.452C30.4991 280.7 30.4016 281.01 30.1342 281.145C30.0518 281.187 29.9593 281.207 29.8718 281.207L29.8743 281.205Z" fill="black"/>
<path d="M95.2913 59.77C94.9864 59.77 94.7415 59.5406 94.7415 59.2603V55.2983C94.7415 55.0156 94.9889 54.7886 95.2913 54.7886C95.5936 54.7886 95.8411 55.018 95.8411 55.2983V59.2603C95.8411 59.5429 95.5936 59.77 95.2913 59.77Z" fill="black"/>
<path d="M95.2913 68.9985C94.9864 68.9985 94.7415 68.7691 94.7415 68.4888V64.5268C94.7415 64.2442 94.9889 64.0171 95.2913 64.0171C95.5936 64.0171 95.8411 64.2465 95.8411 64.5268V68.4888C95.8411 68.7715 95.5936 68.9985 95.2913 68.9985Z" fill="black"/>
<path d="M92.4497 62.4023H88.1763C87.8714 62.4023 87.6265 62.1729 87.6265 61.8925C87.6265 61.6122 87.8739 61.3828 88.1763 61.3828H92.4497C92.7546 61.3828 92.9995 61.6122 92.9995 61.8925C92.9995 62.1729 92.7521 62.4023 92.4497 62.4023Z" fill="black"/>
<path d="M102.406 62.4023H98.1328C97.8279 62.4023 97.583 62.1729 97.583 61.8925C97.583 61.6122 97.8304 61.3828 98.1328 61.3828H102.406C102.711 61.3828 102.956 61.6122 102.956 61.8925C102.956 62.1729 102.709 62.4023 102.406 62.4023Z" fill="black"/>
<path d="M344.435 382.971C344.13 382.971 343.885 382.742 343.885 382.461V378.499C343.885 378.217 344.132 377.99 344.435 377.99C344.737 377.99 344.984 378.219 344.984 378.499V382.461C344.984 382.744 344.737 382.971 344.435 382.971Z" fill="black"/>
<path d="M344.435 392.203C344.13 392.203 343.885 391.973 343.885 391.693V387.731C343.885 387.448 344.132 387.221 344.435 387.221C344.737 387.221 344.984 387.451 344.984 387.731V391.693C344.984 391.976 344.737 392.203 344.435 392.203Z" fill="black"/>
<path d="M341.595 385.606H337.322C337.017 385.606 336.772 385.376 336.772 385.096C336.772 384.816 337.019 384.586 337.322 384.586H341.595C341.9 384.586 342.145 384.816 342.145 385.096C342.145 385.376 341.898 385.606 341.595 385.606Z" fill="black"/>
<path d="M351.549 385.606H347.276C346.971 385.606 346.726 385.376 346.726 385.096C346.726 384.816 346.973 384.586 347.276 384.586H351.549C351.854 384.586 352.099 384.816 352.099 385.096C352.099 385.376 351.852 385.606 351.549 385.606Z" fill="black"/>
<path d="M117.313 50.6068C116.559 50.6068 115.802 50.4771 115.074 50.2152C113.492 49.6453 112.248 48.5262 111.566 47.0619C110.176 44.0754 111.618 40.5721 114.779 39.2561C116.301 38.6236 117.996 38.5819 119.548 39.1426C121.13 39.7126 122.374 40.8316 123.056 42.2959C124.446 45.2825 123.004 48.7857 119.843 50.1017C119.033 50.44 118.173 50.6091 117.313 50.6091V50.6068ZM115.232 40.1875C112.615 41.2765 111.426 44.1796 112.578 46.6564C113.14 47.8659 114.17 48.7926 115.474 49.2607C116.751 49.7217 118.143 49.687 119.393 49.1657C122.009 48.0767 123.199 45.1736 122.047 42.6968C121.484 41.4873 120.455 40.5606 119.15 40.0925C117.873 39.6338 116.481 39.6662 115.232 40.1875Z" fill="black"/>
<path d="M389.973 52.46H335.675V141.057H389.973V52.46Z" fill="white"/>
<path d="M389.973 141.569H335.675C335.37 141.569 335.125 141.34 335.125 141.06V52.4599C335.125 52.1773 335.372 51.9502 335.675 51.9502H389.973C390.278 51.9502 390.523 52.1796 390.523 52.4599V141.057C390.523 141.34 390.275 141.567 389.973 141.567V141.569ZM336.225 140.548H389.421V52.972H336.225V140.548Z" fill="black"/>
<path d="M394.838 65.3237H341.957V79.8787H394.838V65.3237Z" fill="white"/>
<path d="M394.839 80.3889H341.958C341.653 80.3889 341.408 80.1596 341.408 79.8792V65.3242C341.408 65.0415 341.655 64.8145 341.958 64.8145H394.839C395.144 64.8145 395.388 65.0438 395.388 65.3242V79.8792C395.388 80.1619 395.141 80.3889 394.839 80.3889ZM342.507 79.3672H394.286V65.8339H342.507V79.3672Z" fill="black"/>
<path d="M327.665 56.7469L360.416 7.40303C361.191 6.23298 363.01 6.19591 363.842 7.33353L399.699 56.3692C400.614 57.6204 399.652 59.3141 398.02 59.321L329.414 59.6292C327.815 59.6361 326.828 58.0096 327.668 56.7469H327.665Z" fill="white"/>
<path d="M329.402 60.1387C328.452 60.1387 327.61 59.6823 327.145 58.9131C326.678 58.1415 326.696 57.231 327.198 56.478L359.949 7.13409C360.411 6.43669 361.216 6.01037 362.098 5.99184C363.008 5.9733 363.805 6.36718 364.3 7.04604L400.157 56.0818C400.702 56.8278 400.757 57.75 400.304 58.5493C399.849 59.3486 398.997 59.8259 398.025 59.8306L329.42 60.1387H329.407H329.402ZM328.135 57.0155C327.848 57.4488 327.838 57.9724 328.105 58.4149C328.373 58.8551 328.857 59.1193 329.402 59.1193H329.41L398.015 58.8111C398.575 58.8088 399.065 58.5331 399.325 58.0743C399.585 57.6156 399.555 57.085 399.24 56.6564L363.383 7.62065C363.093 7.22445 362.62 7.00897 362.118 7.01592C361.603 7.02751 361.153 7.26615 360.883 7.67162L328.133 57.0155H328.135Z" fill="black"/>
<path d="M178.611 42.2192H148.864V271.019H178.611V42.2192Z" fill="black"/>
<path d="M145.351 42.1405L162.195 15.206C162.647 14.4831 163.764 14.4623 164.249 15.1666L182.77 42.1914C183.295 43.1252 182.552 44.2373 181.418 44.2187L146.165 43.614C145.358 43.6001 144.891 42.7568 145.353 42.1405H145.351Z" fill="white"/>
<path d="M181.445 44.7309C181.433 44.7309 181.418 44.7309 181.405 44.7309L146.153 44.1262C145.575 44.117 145.053 43.8134 144.791 43.3385C144.531 42.8681 144.568 42.3074 144.883 41.8718L161.717 14.9536C162.027 14.4578 162.579 14.1566 163.199 14.145C163.806 14.1311 164.381 14.4138 164.714 14.898L183.234 41.9228C183.597 42.56 183.567 43.262 183.184 43.8366C182.807 44.4019 182.16 44.7356 181.448 44.7356L181.445 44.7309ZM163.234 15.1622H163.219C162.987 15.1668 162.787 15.2757 162.669 15.4634L145.825 42.3978C145.818 42.4094 145.81 42.421 145.803 42.4325C145.66 42.6225 145.733 42.8033 145.77 42.8704C145.808 42.9399 145.923 43.0975 146.173 43.1021L181.425 43.7069C181.74 43.7161 182.067 43.5586 182.245 43.2921C182.422 43.0257 182.435 42.7036 182.28 42.4256L163.781 15.4402C163.659 15.2618 163.459 15.1598 163.234 15.1598V15.1622Z" fill="black"/>
<path d="M180.998 49.8838H146.11V53.628H180.998V49.8838Z" fill="white"/>
<path d="M180.998 54.1401H146.11C145.805 54.1401 145.561 53.9107 145.561 53.6304V49.8862C145.561 49.6035 145.808 49.3765 146.11 49.3765H180.998C181.303 49.3765 181.548 49.6058 181.548 49.8862V53.6304C181.548 53.913 181.3 54.1401 180.998 54.1401ZM146.66 53.1183H180.446V50.3936H146.66V53.1183Z" fill="black"/>
<path d="M440.537 60.6045H410.791V289.405H440.537V60.6045Z" fill="black"/>
<path d="M407.275 60.5254L426.515 32.2819C426.758 31.9251 427.322 31.939 427.545 32.3074L444.694 60.5763C445.218 61.5101 444.476 62.6222 443.342 62.6037L408.089 61.9989C407.282 61.985 406.815 61.1417 407.277 60.5254H407.275Z" fill="white"/>
<path d="M443.369 63.1133C443.356 63.1133 443.341 63.1133 443.329 63.1133L408.076 62.5086C407.499 62.4993 406.977 62.1958 406.714 61.7185C406.454 61.2459 406.492 60.6806 406.814 60.2427L426.047 32.0084C426.265 31.6887 426.652 31.508 427.05 31.5103C427.459 31.5195 427.824 31.7234 428.024 32.0548L445.173 60.3237C445.518 60.9377 445.491 61.6374 445.108 62.2144C444.731 62.7797 444.084 63.1133 443.369 63.1133ZM426.98 32.5552L407.739 60.7987C407.739 60.7987 407.732 60.8103 407.727 60.8172C407.584 61.0072 407.657 61.1856 407.697 61.2552C407.737 61.3247 407.849 61.4845 408.099 61.4892L443.351 62.0939C443.661 62.1055 443.994 61.9456 444.171 61.6791C444.348 61.4127 444.361 61.0906 444.206 60.8126L427.065 32.5575C427.065 32.5575 426.982 32.5575 426.98 32.5575V32.5552Z" fill="black"/>
<path d="M442.922 68.2686H408.034V72.0127H442.922V68.2686Z" fill="white"/>
<path d="M442.922 72.5249H408.034C407.729 72.5249 407.484 72.2955 407.484 72.0151V68.271C407.484 67.9883 407.732 67.7612 408.034 67.7612H442.922C443.227 67.7612 443.472 67.9906 443.472 68.271V72.0151C443.472 72.2978 443.224 72.5249 442.922 72.5249ZM408.586 71.5031H442.372V68.7784H408.586V71.5031Z" fill="black"/>
<path d="M199.111 349.35H116.898V180.73L199.111 124.475V349.35Z" fill="black"/>
<path d="M149.859 196.798C141.844 196.798 135.347 202.822 135.347 210.252V275.344H164.374V210.252C164.374 202.822 157.876 196.798 149.861 196.798H149.859Z" fill="white"/>
<path d="M365.234 349.35H447.447V180.73L365.234 124.475V349.35Z" fill="white"/>
<path d="M447.448 349.863H365.232C364.927 349.863 364.682 349.633 364.682 349.353V124.478C364.682 124.285 364.8 124.109 364.985 124.021C365.169 123.935 365.392 123.952 365.559 124.065L447.775 180.318C447.915 180.416 448 180.566 448 180.728V349.351C448 349.633 447.752 349.86 447.45 349.86L447.448 349.863ZM365.784 348.841H446.898V180.988L365.784 125.488V348.841Z" fill="black"/>
<path d="M418.755 189.138C424.413 189.138 428.999 193.39 428.999 198.635V244.576H408.514V198.635C408.514 193.39 413.1 189.138 418.758 189.138H418.755Z" fill="black"/>
<path d="M394.964 349.35H168.747V97.8071L281.857 1.10498L394.964 97.8071V349.35Z" fill="white"/>
<path d="M394.964 349.863H168.747C168.442 349.863 168.197 349.633 168.197 349.353V97.8072C168.197 97.6636 168.262 97.5292 168.375 97.4319L281.484 0.729779C281.694 0.549058 282.019 0.549058 282.231 0.729779L395.339 97.4319C395.451 97.5292 395.516 97.6659 395.516 97.8072V349.35C395.516 349.633 395.269 349.86 394.966 349.86L394.964 349.863ZM169.299 348.841H394.414V98.032L281.857 1.80021L169.299 98.032V348.841Z" fill="black"/>
<path d="M247.519 202.985H207.478C207.173 202.985 206.928 202.755 206.928 202.475V128.611C206.928 121.202 213.431 115.173 221.423 115.173H233.576C241.568 115.173 248.071 121.202 248.071 128.611V202.475C248.071 202.758 247.824 202.985 247.521 202.985H247.519ZM208.028 201.963H246.969V128.609C246.969 121.762 240.961 116.192 233.576 116.192H221.423C214.038 116.192 208.03 121.762 208.03 128.609V201.963H208.028Z" fill="black"/>
<path d="M356.235 202.985H316.194C315.889 202.985 315.645 202.755 315.645 202.475V128.611C315.645 121.202 322.147 115.173 330.139 115.173H342.293C350.285 115.173 356.787 121.202 356.787 128.611V202.475C356.787 202.758 356.54 202.985 356.237 202.985H356.235ZM316.744 201.963H355.685V128.609C355.685 121.762 349.677 116.192 342.293 116.192H330.139C322.754 116.192 316.747 121.762 316.747 128.609V201.963H316.744Z" fill="black"/>
<path d="M307.807 202.985H255.903C255.598 202.985 255.354 202.755 255.354 202.475V106.732C255.354 97.2094 263.708 89.4639 273.979 89.4639H289.731C300.003 89.4639 308.357 97.2094 308.357 106.732V202.475C308.357 202.758 308.11 202.985 307.807 202.985ZM256.456 201.963H307.257V106.732C307.257 97.7747 299.395 90.4856 289.734 90.4856H273.982C264.318 90.4856 256.458 97.7747 256.458 106.732V201.963H256.456Z" fill="black"/>
<path d="M281.857 73.3632C268.349 73.3632 257.36 63.1756 257.36 50.6525C257.36 38.1295 268.349 27.9419 281.857 27.9419C295.364 27.9419 306.353 38.1295 306.353 50.6525C306.353 63.1756 295.364 73.3632 281.857 73.3632ZM281.857 28.9637C268.956 28.9637 258.462 38.6925 258.462 50.6525C258.462 62.6126 268.959 72.3414 281.857 72.3414C294.754 72.3414 305.251 62.6103 305.251 50.6525C305.251 38.6948 294.754 28.9637 281.857 28.9637Z" fill="black"/>
<path d="M321.032 350.479H243.31C243.005 350.479 242.76 350.249 242.76 349.969V229.979C242.76 229.697 243.008 229.47 243.31 229.47H321.032C321.337 229.47 321.582 229.699 321.582 229.979V349.969C321.582 350.252 321.335 350.479 321.032 350.479ZM243.862 349.459H320.482V230.491H243.862V349.459Z" fill="black"/>
<path d="M316.892 349.714H247.991C247.686 349.714 247.441 349.485 247.441 349.205V234.618C247.441 234.335 247.689 234.108 247.991 234.108H316.892C317.196 234.108 317.441 234.338 317.441 234.618V349.205C317.441 349.487 317.194 349.714 316.892 349.714ZM248.544 348.693H316.342V235.128H248.544V348.693Z" fill="black"/>
<path d="M229.623 349.863C229.321 349.863 229.073 349.636 229.073 349.353C229.073 349.054 228.991 319.198 228.948 289.713C228.923 272.393 228.918 258.589 228.933 248.682C228.941 242.799 228.956 238.244 228.978 235.139C229.003 231.483 229.15 229.605 229.418 229.505C229.625 229.428 229.868 229.474 230.023 229.625C230.163 229.759 230.205 229.945 230.158 230.112C229.918 232.69 230.065 309.089 230.178 349.348C230.178 349.631 229.933 349.86 229.628 349.86L229.623 349.863Z" fill="black"/>
<path d="M334.87 349.863C334.568 349.863 334.32 349.636 334.32 349.353C334.32 349.054 334.238 319.198 334.195 289.713C334.17 272.393 334.165 258.589 334.18 248.682C334.188 242.799 334.203 238.244 334.225 235.139C334.25 231.483 334.397 229.605 334.665 229.505C334.873 229.428 335.115 229.474 335.27 229.625C335.41 229.759 335.452 229.945 335.405 230.112C335.165 232.69 335.312 309.089 335.425 349.348C335.425 349.631 335.18 349.86 334.875 349.86L334.87 349.863Z" fill="black"/>
<path d="M165.573 113.039L282.114 11.6704L398.04 112.017V101.461L283.091 0L163.736 102.823L165.573 113.039Z" fill="black"/>
<path d="M431.193 259.129H407.232V308.155H431.193V259.129Z" fill="black"/>
<path d="M394.012 150.863H369.224C368.919 150.863 368.674 150.634 368.674 150.353V141.162C368.674 140.879 368.921 140.652 369.224 140.652H394.012C394.317 140.652 394.562 140.882 394.562 141.162V150.353C394.562 150.636 394.315 150.863 394.012 150.863ZM369.776 149.844H393.462V141.672H369.776V149.844Z" fill="black"/>
<path d="M387.952 167.207H363.163C362.858 167.207 362.613 166.977 362.613 166.697V157.506C362.613 157.223 362.861 156.996 363.163 156.996H387.952C388.257 156.996 388.502 157.225 388.502 157.506V166.697C388.502 166.98 388.254 167.207 387.952 167.207ZM363.715 166.185H387.402V158.013H363.715V166.185Z" fill="black"/>
<path d="M394.012 183.55H369.224C368.919 183.55 368.674 183.321 368.674 183.04V173.849C368.674 173.566 368.921 173.339 369.224 173.339H394.012C394.317 173.339 394.562 173.569 394.562 173.849V183.04C394.562 183.323 394.315 183.55 394.012 183.55ZM369.776 182.528H393.462V174.356H369.776V182.528Z" fill="black"/>
<path d="M375.833 222.364H351.044C350.74 222.364 350.495 222.134 350.495 221.854V212.663C350.495 212.38 350.742 212.153 351.044 212.153H375.833C376.138 212.153 376.383 212.382 376.383 212.663V221.854C376.383 222.137 376.135 222.364 375.833 222.364ZM351.597 221.342H375.283V213.17H351.597V221.342Z" fill="black"/>
<path d="M381.893 249.433H357.105C356.8 249.433 356.555 249.204 356.555 248.923V239.732C356.555 239.449 356.802 239.222 357.105 239.222H381.893C382.198 239.222 382.443 239.452 382.443 239.732V248.923C382.443 249.206 382.196 249.433 381.893 249.433ZM357.654 248.411H381.341V240.239H357.654V248.411Z" fill="black"/>
<path d="M390.155 235.642H365.367C365.062 235.642 364.817 235.413 364.817 235.133V225.941C364.817 225.659 365.064 225.432 365.367 225.432H390.155C390.46 225.432 390.705 225.661 390.705 225.941V235.133C390.705 235.415 390.458 235.642 390.155 235.642ZM365.916 234.621H389.603V226.449H365.916V234.621Z" fill="black"/>
<path d="M390.695 262.338H365.907C365.602 262.338 365.357 262.108 365.357 261.828V252.637C365.357 252.354 365.604 252.127 365.907 252.127H390.695C391 252.127 391.245 252.356 391.245 252.637V261.828C391.245 262.111 390.998 262.338 390.695 262.338ZM366.459 261.316H390.146V253.144H366.459V261.316Z" fill="black"/>
<path d="M382.981 275.104H358.192C357.887 275.104 357.642 274.875 357.642 274.595V265.403C357.642 265.121 357.89 264.894 358.192 264.894H382.981C383.285 264.894 383.53 265.123 383.53 265.403V274.595C383.53 274.877 383.283 275.104 382.981 275.104ZM358.744 274.083H382.431V265.911H358.744V274.083Z" fill="black"/>
<path d="M391.794 287.873H367.006C366.701 287.873 366.456 287.643 366.456 287.363V278.172C366.456 277.889 366.703 277.662 367.006 277.662H391.794C392.099 277.662 392.344 277.891 392.344 278.172V287.363C392.344 287.646 392.097 287.873 391.794 287.873ZM367.558 286.851H391.245V278.679H367.558V286.851Z" fill="black"/>
<path d="M382.981 301.661H358.192C357.887 301.661 357.642 301.432 357.642 301.151V291.96C357.642 291.677 357.89 291.45 358.192 291.45H382.981C383.285 291.45 383.53 291.68 383.53 291.96V301.151C383.53 301.434 383.283 301.661 382.981 301.661ZM358.744 300.641H382.431V292.47H358.744V300.641Z" fill="black"/>
<path d="M390.695 314.942H365.907C365.602 314.942 365.357 314.713 365.357 314.432V305.241C365.357 304.959 365.604 304.731 365.907 304.731H390.695C391 304.731 391.245 304.961 391.245 305.241V314.432C391.245 314.715 390.998 314.942 390.695 314.942ZM366.459 313.92H390.146V305.749H366.459V313.92Z" fill="black"/>
<path d="M376.923 327.708H352.134C351.829 327.708 351.584 327.478 351.584 327.198V318.007C351.584 317.724 351.832 317.497 352.134 317.497H376.923C377.228 317.497 377.473 317.726 377.473 318.007V327.198C377.473 327.481 377.225 327.708 376.923 327.708ZM352.684 326.686H376.371V318.514H352.684V326.686Z" fill="black"/>
<path d="M389.593 339.455H364.804C364.499 339.455 364.254 339.226 364.254 338.945V329.754C364.254 329.471 364.502 329.244 364.804 329.244H389.593C389.898 329.244 390.143 329.474 390.143 329.754V338.945C390.143 339.228 389.895 339.455 389.593 339.455ZM365.354 338.433H389.041V330.261H365.354V338.433Z" fill="black"/>
<path d="M398.968 200.911H174.226V207.039H398.968V200.911Z" fill="black"/>
<path d="M447.447 181.24C447.335 181.24 447.22 181.208 447.122 181.141L399.734 148.859C399.489 148.692 399.437 148.372 399.617 148.145C399.797 147.918 400.141 147.869 400.386 148.036L447.774 180.318C448.019 180.485 448.072 180.805 447.892 181.032C447.784 181.168 447.617 181.24 447.447 181.24Z" fill="black"/>
<path d="M74.691 403.68L79.9092 408.038C84.5425 411.63 84.6275 411.203 87.8963 410.9L221.359 391.658C226.077 391.018 228.349 386.556 228.384 382.158L229.998 107.951C229.998 105.156 227.284 103.259 222.761 100.523C219.547 98.5786 215.728 97.77 212.059 98.2589L78.2797 116.637C74.691 117.114 72.1169 119.853 72.1169 123.201V398.444C72.1169 400.404 73.0591 402.318 74.6935 403.683L74.691 403.68Z" fill="black"/>
<path d="M85.5721 411.602C83.9627 411.602 82.8806 411.006 79.5568 408.43L74.3262 404.06C72.5743 402.596 71.5671 400.548 71.5671 398.441V123.198C71.5671 119.612 74.3586 116.639 78.2023 116.129L211.979 97.7513C215.791 97.2462 219.727 98.0757 223.06 100.094C227.584 102.828 230.548 104.853 230.548 107.948L228.933 382.158C228.898 386.637 226.567 391.467 221.436 392.16L87.9763 411.402C87.6464 411.435 87.3765 411.463 87.1241 411.49C86.5218 411.555 86.0245 411.602 85.5671 411.602H85.5721ZM214.174 98.6271C213.494 98.6271 212.812 98.6711 212.137 98.7615L78.3597 117.139C75.0609 117.577 72.6667 120.126 72.6667 123.198V398.441C72.6667 400.26 73.5389 402.03 75.0609 403.3L80.2765 407.658C84.2851 410.765 84.6475 410.726 87.0016 410.476C87.2565 410.448 87.5364 410.42 87.8388 410.39L221.274 391.15C225.762 390.543 227.801 386.192 227.831 382.151L229.446 107.944C229.446 105.365 226.679 103.5 222.458 100.946C219.942 99.4241 217.06 98.6248 214.174 98.6248V98.6271Z" fill="white"/>
<path d="M85.8995 410.539L220.394 392.059C225.979 391.317 229.983 387.054 229.983 381.846V108.804C229.983 106.054 227.211 103.839 224.262 104.23L88.8135 122.837C85.1798 123.319 82.5757 126.093 82.5757 129.48V407.881C82.5757 409.48 84.1851 410.766 85.8995 410.539Z" fill="white"/>
<path d="M96.7757 400.006C96.0884 400.006 95.4087 399.772 94.8588 399.334C94.1391 398.764 93.7292 397.935 93.7292 397.059V143.166C93.7292 139.841 96.1659 137.073 99.5247 136.584L215.306 119.167C216.618 118.977 217.97 119.348 219.027 120.187C220.177 121.097 220.834 122.423 220.834 123.824V372.826C220.834 377.803 217.19 381.945 212.172 382.675L97.2055 399.971C97.2055 399.971 97.2055 399.971 97.203 399.971C97.0606 399.992 96.9181 400.001 96.7757 400.001V400.006ZM215.983 120.138C215.813 120.138 215.646 120.15 215.478 120.175L99.6971 137.592C96.8756 138.002 94.8289 140.347 94.8289 143.166V397.059C94.8289 397.636 95.1013 398.183 95.5736 398.558C95.9984 398.896 96.5133 399.04 97.0306 398.966L211.999 381.667C216.483 381.016 219.734 377.298 219.734 372.826V123.824C219.734 122.722 219.214 121.679 218.312 120.963C217.637 120.428 216.813 120.141 215.986 120.141L215.983 120.138Z" fill="black"/>
<path d="M85.5073 411.074C84.6851 411.074 83.8754 410.794 83.2306 410.275C82.4659 409.661 82.0286 408.787 82.0286 407.881V372.115C82.0286 371.832 82.276 371.605 82.5784 371.605C82.8808 371.605 83.1282 371.834 83.1282 372.115V407.881C83.1282 408.493 83.4281 409.084 83.9504 409.503C84.4777 409.927 85.1624 410.122 85.8222 410.031L220.314 391.551C225.6 390.849 229.433 386.767 229.433 381.843V289.77C229.433 289.488 229.681 289.261 229.983 289.261C230.286 289.261 230.533 289.49 230.533 289.77V381.843C230.533 387.281 226.302 391.788 220.472 392.562L85.9797 411.041C85.8222 411.062 85.6623 411.072 85.5048 411.072L85.5073 411.074Z" fill="black"/>
<path d="M82.5784 324.269C82.2735 324.269 82.0286 324.04 82.0286 323.759V129.482C82.0286 125.856 84.85 122.851 88.7387 122.334L224.185 103.727C225.76 103.518 227.367 103.97 228.604 104.964C229.833 105.951 230.538 107.353 230.538 108.808V183.427C230.538 183.71 230.291 183.937 229.988 183.937C229.686 183.937 229.438 183.707 229.438 183.427V108.808C229.438 107.649 228.871 106.53 227.884 105.735C226.889 104.936 225.597 104.572 224.345 104.737L88.8986 123.344C85.5573 123.787 83.1332 126.368 83.1332 129.482V323.759C83.1332 324.042 82.8858 324.269 82.5834 324.269H82.5784Z" fill="black"/>
<path d="M229.985 242.862C229.68 242.862 229.436 242.632 229.436 242.352V220.709C229.436 220.427 229.683 220.2 229.985 220.2C230.288 220.2 230.535 220.429 230.535 220.709V242.352C230.535 242.635 230.288 242.862 229.985 242.862Z" fill="black"/>
<path d="M131.473 117.348L175.605 111.356V114.864C175.605 118.759 172.618 121.95 168.442 122.515L142.369 126.039C136.756 126.797 131.473 122.584 131.473 117.348Z" fill="black"/>
<path d="M156.577 195.434C162.966 195.434 168.145 190.632 168.145 184.709C168.145 178.785 162.966 173.983 156.577 173.983C150.188 173.983 145.008 178.785 145.008 184.709C145.008 190.632 150.188 195.434 156.577 195.434Z" fill="black"/>
<path d="M149.139 158.407C148.837 158.407 148.592 158.182 148.589 157.902L148.314 132.74C148.312 132.457 148.554 132.228 148.859 132.223H148.864C149.167 132.223 149.412 132.448 149.414 132.728L149.689 157.89C149.691 158.173 149.449 158.402 149.144 158.407H149.139Z" fill="black"/>
<path d="M178.611 139C178.306 139 178.061 138.771 178.061 138.49V128.905C178.061 128.623 178.308 128.396 178.611 128.396C178.913 128.396 179.161 128.625 179.161 128.905V138.49C179.161 138.773 178.913 139 178.611 139Z" fill="black"/>
<path d="M148.864 133.245C148.559 133.245 148.314 133.016 148.314 132.735V131.424C148.314 131.141 148.562 130.914 148.864 130.914C149.167 130.914 149.414 131.143 149.414 131.424V132.735C149.414 133.018 149.167 133.245 148.864 133.245Z" fill="white"/>
<path d="M168.747 145.638C168.442 145.638 168.197 145.409 168.197 145.128V125.84C168.197 125.557 168.445 125.33 168.747 125.33C169.049 125.33 169.297 125.559 169.297 125.84V145.128C169.297 145.411 169.049 145.638 168.747 145.638Z" fill="black"/>
<path d="M199.111 349.863H116.896C116.591 349.863 116.346 349.633 116.346 349.353V180.731C116.346 180.569 116.428 180.416 116.571 180.321L198.786 124.068C198.954 123.954 199.179 123.936 199.361 124.024C199.546 124.109 199.664 124.288 199.664 124.48V349.355C199.664 349.638 199.416 349.865 199.114 349.865L199.111 349.863ZM117.448 348.841H198.562V125.488L117.448 180.988V348.841Z" fill="black"/>
<path d="M164.371 275.857H135.344C135.039 275.857 134.794 275.628 134.794 275.348V210.256C134.794 202.554 141.552 196.289 149.859 196.289C158.166 196.289 164.924 202.554 164.924 210.256V275.348C164.924 275.63 164.676 275.857 164.374 275.857H164.371ZM135.897 274.836H163.822V210.253C163.822 203.115 157.559 197.309 149.859 197.309C142.159 197.309 135.897 203.115 135.897 210.253V274.836Z" fill="black"/>
<path d="M219.669 207.551H174.225C173.92 207.551 173.675 207.322 173.675 207.042V200.913C173.675 200.777 173.733 200.647 173.838 200.55C173.943 200.455 174.055 200.404 174.23 200.401L219.104 200.798C219.409 200.8 219.651 201.032 219.649 201.312C219.646 201.592 219.399 201.817 219.099 201.817H219.094L174.777 201.428V206.53H219.671C219.976 206.53 220.221 206.759 220.221 207.039C220.221 207.32 219.974 207.549 219.671 207.549L219.669 207.551Z" fill="black"/>
<path d="M116.898 349.863C116.593 349.863 116.348 349.636 116.348 349.353C116.348 349.071 116.593 348.841 116.898 348.841L220.479 348.649C220.784 348.649 221.028 348.876 221.028 349.159C221.028 349.441 220.784 349.671 220.479 349.671L116.898 349.863Z" fill="black"/>
<path d="M144.079 178.664L136.366 168.11L137.486 92.4576C137.526 89.7514 135.067 87.5897 132.155 87.7681L12.9105 95.1244C10.8262 95.2518 9.20679 96.8575 9.20679 98.7921V176.083C9.20679 178.819 11.7109 180.981 14.6548 180.786L123.878 173.555L144.076 178.662L144.079 178.664Z" fill="black"/>
<path d="M14.2975 181.31C12.878 181.31 11.496 180.809 10.4514 179.908C9.30931 178.923 8.65454 177.529 8.65454 176.083V98.792C8.65454 96.5956 10.5064 94.7606 12.8705 94.6146L132.115 87.2583C133.66 87.161 135.184 87.673 136.304 88.6601C137.426 89.6448 138.056 91.0326 138.033 92.4645L136.916 167.957L144.531 178.379C144.661 178.555 144.656 178.789 144.523 178.963C144.388 179.137 144.151 179.215 143.931 179.157L123.823 174.074L14.6924 181.298C14.5599 181.308 14.4275 181.312 14.295 181.312L14.2975 181.31ZM132.498 88.2685C132.395 88.2685 132.295 88.2708 132.193 88.2778L12.948 95.6341C11.1586 95.7453 9.75915 97.1331 9.75915 98.792V176.083C9.75915 177.262 10.2715 178.356 11.2036 179.16C12.1358 179.964 13.3454 180.362 14.6174 180.277L123.841 173.045C123.903 173.041 123.966 173.045 124.026 173.062L142.789 177.807L135.912 168.395C135.849 168.31 135.814 168.205 135.817 168.101L136.936 92.4483C136.954 91.2828 136.461 90.2008 135.549 89.3992C134.712 88.6624 133.637 88.2662 132.498 88.2662V88.2685Z" fill="white"/>
<path d="M15.3496 174.89L130.576 167.784V95.7778L15.3496 102.882V174.89Z" fill="white"/>
<path d="M41.4656 116.644C41.1607 116.644 40.8683 116.535 40.6359 116.336C40.351 116.088 40.186 115.72 40.186 115.328V108.178C40.186 107.432 40.7508 106.813 41.4706 106.769L103.791 102.928C104.123 102.907 104.448 103.016 104.7 103.234C104.985 103.482 105.15 103.85 105.15 104.242V111.392C105.15 112.138 104.586 112.756 103.866 112.8L41.5455 116.642C41.5181 116.642 41.4906 116.644 41.4656 116.644ZM103.873 103.947C103.873 103.947 103.868 103.947 103.866 103.947L41.5455 107.789C41.4406 107.796 41.2881 107.951 41.2881 108.178V115.328C41.2881 115.437 41.3256 115.534 41.3881 115.59C41.4281 115.625 41.4606 115.625 41.4706 115.622L103.791 111.781C103.896 111.774 104.048 111.619 104.048 111.392V104.242C104.048 104.133 104.011 104.035 103.948 103.98C103.916 103.95 103.888 103.947 103.873 103.947Z" fill="black"/>
<path d="M82.5833 127.728C82.2759 127.728 81.986 127.619 81.7536 127.42C81.4687 127.172 81.3037 126.806 81.3037 126.412V120.965C81.3037 120.219 81.8685 119.601 82.5908 119.557L126.01 116.88C126.343 116.86 126.667 116.968 126.92 117.186C127.205 117.434 127.37 117.803 127.37 118.194V123.641C127.37 124.387 126.805 125.006 126.085 125.05L82.6657 127.726C82.6382 127.726 82.6107 127.728 82.5858 127.728H82.5833ZM126.09 117.898C126.09 117.898 126.085 117.898 126.083 117.898L82.6632 120.574C82.5583 120.581 82.4058 120.736 82.4058 120.963V126.41C82.4058 126.519 82.4433 126.616 82.5058 126.672C82.5458 126.707 82.5758 126.704 82.5908 126.704L126.01 124.028C126.115 124.021 126.268 123.866 126.268 123.639V118.192C126.268 118.083 126.23 117.986 126.168 117.93C126.135 117.9 126.108 117.898 126.093 117.898H126.09Z" fill="black"/>
<path d="M21.2573 131.85C20.9524 131.85 20.66 131.741 20.4276 131.542C20.1427 131.294 19.9778 130.928 19.9778 130.534V125.087C19.9778 124.341 20.5426 123.723 21.2623 123.679L76.9174 120.247C77.2548 120.226 77.5747 120.335 77.8271 120.553C78.112 120.801 78.2769 121.169 78.2769 121.561V127.008C78.2769 127.754 77.7121 128.373 76.9924 128.417L21.3373 131.848C21.3098 131.848 21.2823 131.85 21.2573 131.85ZM76.9999 121.267C76.9999 121.267 76.9949 121.267 76.9924 121.267L21.3373 124.698C21.2323 124.705 21.0799 124.86 21.0799 125.087V130.534C21.0799 130.643 21.1174 130.741 21.1799 130.796C21.2198 130.831 21.2498 130.829 21.2623 130.829L76.9174 127.397C77.0224 127.39 77.1748 127.235 77.1748 127.008V121.561C77.1748 121.452 77.1373 121.352 77.0749 121.299C77.0424 121.271 77.0149 121.267 76.9999 121.267Z" fill="black"/>
<path d="M95.1235 149.767C94.8186 149.767 94.5262 149.658 94.2938 149.459C94.0089 149.211 93.844 148.845 93.844 148.451V143.004C93.844 142.258 94.4088 141.639 95.131 141.595L126.315 139.672C126.647 139.651 126.972 139.76 127.225 139.978C127.509 140.226 127.674 140.592 127.674 140.986V146.433C127.674 147.179 127.11 147.797 126.387 147.841L95.2035 149.765C95.176 149.765 95.1485 149.767 95.1235 149.767ZM126.395 140.691C126.395 140.691 126.39 140.691 126.387 140.691L95.2035 142.614C95.0985 142.621 94.9461 142.777 94.9461 143.004V148.451C94.9461 148.56 94.9836 148.657 95.0461 148.713C95.0885 148.747 95.1185 148.747 95.131 148.745L126.315 146.822C126.42 146.815 126.572 146.66 126.572 146.433V140.986C126.572 140.877 126.535 140.779 126.472 140.724C126.437 140.694 126.41 140.691 126.395 140.691Z" fill="black"/>
<path d="M21.5625 154.644C21.2576 154.644 20.9652 154.536 20.7328 154.336C20.4479 154.088 20.283 153.72 20.283 153.328V147.881C20.283 147.135 20.8478 146.517 21.5675 146.473L88.691 142.335C89.0209 142.311 89.3483 142.423 89.6007 142.64C89.8856 142.888 90.0505 143.254 90.0505 143.648V149.095C90.0505 149.841 89.4857 150.46 88.766 150.504L21.6425 154.642C21.615 154.642 21.5875 154.644 21.5625 154.644ZM88.776 143.352C88.776 143.352 88.771 143.352 88.7685 143.352L21.645 147.49C21.54 147.497 21.3876 147.652 21.3876 147.879V153.326C21.3876 153.435 21.4251 153.532 21.4875 153.588C21.5275 153.623 21.5575 153.623 21.57 153.62L88.6935 149.482C88.7985 149.475 88.9509 149.32 88.9509 149.093V143.646C88.9509 143.537 88.9134 143.44 88.8509 143.384C88.8185 143.356 88.791 143.352 88.776 143.352Z" fill="black"/>
<path d="M76.7703 139.322C76.4654 139.322 76.173 139.213 75.9406 139.014C75.6557 138.766 75.4907 138.397 75.4907 138.006V132.559C75.4907 131.813 76.0555 131.194 76.7753 131.15L126.313 128.096C126.647 128.073 126.97 128.184 127.222 128.402C127.507 128.65 127.672 129.018 127.672 129.41V134.857C127.672 135.603 127.107 136.222 126.385 136.266L76.8477 139.32C76.8202 139.32 76.7928 139.322 76.7678 139.322H76.7703ZM126.395 129.116C126.395 129.116 126.39 129.116 126.388 129.116L76.8502 132.169C76.7453 132.176 76.5928 132.332 76.5928 132.559V138.006C76.5928 138.115 76.6303 138.212 76.6928 138.268C76.7328 138.302 76.7628 138.302 76.7753 138.3L126.313 135.246C126.418 135.239 126.57 135.084 126.57 134.857V129.41C126.57 129.301 126.532 129.204 126.47 129.148C126.437 129.118 126.41 129.116 126.395 129.116Z" fill="black"/>
<path d="M57.5022 163.152C57.1948 163.152 56.9049 163.043 56.6725 162.844C56.3876 162.596 56.2227 162.23 56.2227 161.836V156.389C56.2227 155.643 56.7875 155.024 57.5097 154.98L126.315 150.738C126.647 150.715 126.972 150.826 127.225 151.044C127.51 151.292 127.675 151.658 127.675 152.052V157.499C127.675 158.245 127.11 158.863 126.388 158.907L57.5822 163.15C57.5547 163.15 57.5272 163.152 57.5022 163.152ZM126.395 151.757C126.395 151.757 126.39 151.757 126.388 151.757L57.5822 156C57.4772 156.007 57.3248 156.162 57.3248 156.389V161.836C57.3248 161.945 57.3622 162.042 57.4247 162.098C57.4647 162.133 57.4947 162.13 57.5097 162.13L126.315 157.888C126.42 157.881 126.572 157.726 126.572 157.499V152.052C126.572 151.943 126.535 151.845 126.473 151.79C126.438 151.76 126.41 151.757 126.395 151.757Z" fill="black"/>
<path d="M173.071 382.706L54.598 399.686C52.6062 399.971 50.8069 398.544 50.8069 396.674V302.702C50.8069 301.198 51.989 299.919 53.5934 299.69L172.066 282.709C174.058 282.424 175.857 283.851 175.857 285.721V379.693C175.857 381.197 174.675 382.476 173.071 382.706Z" fill="black"/>
<path d="M168.45 377.636L59.8737 392.89C59.1615 392.99 58.5217 392.48 58.5217 391.813V306.951C58.5217 306.411 58.9466 305.952 59.5214 305.873L168.098 290.618C168.81 290.519 169.45 291.029 169.45 291.696V376.558C169.45 377.098 169.025 377.557 168.45 377.636Z" fill="white"/>
<path d="M88.9858 337.898L102.106 336.005V314.585L88.9858 316.478V337.898Z" fill="white"/>
<path d="M88.9858 338.408C88.8559 338.408 88.7284 338.364 88.6285 338.285C88.506 338.188 88.436 338.046 88.436 337.898V316.478C88.436 316.225 88.6335 316.012 88.9034 315.973L102.024 314.08C102.184 314.057 102.344 314.101 102.466 314.196C102.588 314.293 102.658 314.434 102.658 314.583V336.003C102.658 336.255 102.461 336.468 102.191 336.508L89.0708 338.401C89.0433 338.405 89.0133 338.408 88.9858 338.408ZM89.5356 316.916V337.303L101.554 335.567V315.18L89.5356 316.916Z" fill="black"/>
<path d="M104.635 315.885L94.9039 304.115L86.1121 318.538L104.635 315.885Z" fill="white"/>
<path d="M86.1119 319.05C85.9319 319.05 85.762 318.969 85.6595 318.83C85.5396 318.667 85.5296 318.459 85.632 318.287L94.4239 303.864C94.5138 303.716 94.6813 303.619 94.8662 303.607C95.0437 303.598 95.2286 303.67 95.341 303.806L105.073 315.577C105.19 315.72 105.22 315.91 105.145 316.077C105.073 316.244 104.91 316.364 104.718 316.392L86.1943 319.045C86.1668 319.05 86.1393 319.052 86.1094 319.052L86.1119 319.05ZM94.9737 305.039L87.149 317.873L103.631 315.512L94.9712 305.039H94.9737Z" fill="black"/>
<path d="M87.8113 323.275L100.589 321.431V317.914L87.8113 319.756V323.275Z" fill="white"/>
<path d="M87.8113 323.786C87.6813 323.786 87.5539 323.742 87.4539 323.663C87.3314 323.566 87.2615 323.425 87.2615 323.276V319.757C87.2615 319.504 87.4589 319.291 87.7288 319.252L100.507 317.407C100.667 317.384 100.827 317.428 100.949 317.523C101.072 317.621 101.142 317.762 101.142 317.91V321.43C101.142 321.682 100.944 321.895 100.674 321.935L87.8962 323.779C87.8688 323.784 87.8388 323.786 87.8113 323.786ZM88.3611 320.195V322.681L100.037 320.996V318.51L88.3611 320.195Z" fill="black"/>
<path d="M140.058 361.95L147.245 360.912V305.595L140.058 306.63V361.95Z" fill="white"/>
<path d="M140.058 362.46C139.928 362.46 139.8 362.416 139.7 362.337C139.578 362.24 139.508 362.098 139.508 361.95V306.633C139.508 306.381 139.705 306.167 139.975 306.128L147.163 305.09C147.323 305.067 147.482 305.111 147.605 305.206C147.727 305.303 147.797 305.445 147.797 305.593V360.91C147.797 361.162 147.6 361.375 147.333 361.415L140.145 362.453C140.118 362.457 140.088 362.46 140.06 362.46H140.058ZM140.607 307.069V361.352L146.693 360.474V306.191L140.607 307.069Z" fill="black"/>
<path d="M148.095 305.454L142.942 299.302L139.053 306.772C138.926 307.015 139.105 307.259 139.38 307.215L147.9 305.838C148.095 305.806 148.207 305.586 148.097 305.454H148.095Z" fill="black"/>
<path d="M139.48 309.474L147.91 308.257V307.352L139.48 308.568V309.474Z" fill="black"/>
<path d="M76.7678 375.528L83.9553 374.49V319.173L76.7678 320.211V375.528Z" fill="white"/>
<path d="M76.7678 376.037C76.6379 376.037 76.5104 375.993 76.4104 375.914C76.288 375.817 76.218 375.676 76.218 375.527V320.21C76.218 319.958 76.4154 319.745 76.6853 319.705L83.8728 318.667C84.0327 318.644 84.1927 318.688 84.3151 318.783C84.4376 318.88 84.5075 319.022 84.5075 319.17V374.487C84.5075 374.739 84.3101 374.953 84.0402 374.992L76.8528 376.03C76.8253 376.035 76.7953 376.037 76.7678 376.037ZM77.3176 320.646V374.929L83.4029 374.051V319.768L77.3176 320.646Z" fill="black"/>
<path d="M84.805 319.031L79.6518 312.879L75.7632 320.349C75.6357 320.592 75.8157 320.836 76.0906 320.792L84.61 319.415C84.805 319.383 84.9174 319.163 84.8075 319.031H84.805Z" fill="black"/>
<path d="M76.1904 323.051L84.6224 321.835V320.929L76.1904 322.145V323.051Z" fill="black"/>
<path d="M135.104 381.602L154.97 378.736V337.967L135.104 327.233V381.602Z" fill="black"/>
<path d="M147.005 343.002C148.942 342.722 150.512 343.952 150.512 345.75V361.487L143.499 362.499V346.763C143.499 344.967 145.068 343.283 147.005 343.005V343.002Z" fill="white"/>
<path d="M94.9638 387.395L75.0984 390.261V349.494L94.9638 333.025V387.395Z" fill="black"/>
<path d="M82.0308 350.525C80.6637 350.722 79.5566 351.91 79.5566 353.178V364.285L84.5074 363.572V352.464C84.5074 351.197 83.4003 350.328 82.0333 350.525H82.0308Z" fill="white"/>
<path d="M87.7788 388.433L142.442 380.543V319.728L115.109 300.292L87.7788 327.615V388.433Z" fill="black"/>
<path d="M123.406 347.78L133.083 346.383V329.886C133.083 327.407 130.916 325.711 128.245 326.095C125.573 326.48 123.406 328.802 123.406 331.281V347.777V347.78Z" fill="white"/>
<path d="M97.1379 351.57L106.814 350.173V333.676C106.814 331.197 104.648 329.501 101.976 329.886C99.3047 330.271 97.1379 332.592 97.1379 335.071V351.568V351.57Z" fill="white"/>
<path d="M108.839 349.881L121.379 348.072V326.688C121.379 323.475 118.573 321.276 115.109 321.777C111.645 322.277 108.839 325.287 108.839 328.498V349.881Z" fill="white"/>
<path d="M119.039 315.652C121.38 313.297 121.515 309.881 119.34 308.022C117.166 306.164 113.504 306.566 111.163 308.921C108.821 311.276 108.686 314.692 110.861 316.55C113.036 318.409 116.697 318.007 119.039 315.652Z" fill="white"/>
<path d="M106.645 385.673L123.294 383.271V355.567L106.645 357.97V385.673Z" fill="white"/>
<path d="M127.732 383.178C127.428 383.178 127.183 382.948 127.183 382.666C127.205 374.892 127.248 354.566 127.188 353.866L127.732 353.806L127.92 353.326C128.18 353.414 128.312 355.081 128.317 358.326C128.322 361.032 128.317 364.64 128.315 368.247C128.305 375.46 128.285 382.668 128.285 382.668C128.285 382.951 128.037 383.178 127.735 383.178H127.732Z" fill="white"/>
<path d="M102.301 386.848C101.996 386.848 101.751 386.619 101.751 386.336C101.774 378.563 101.816 358.236 101.756 357.536L102.301 357.476L102.489 356.997C102.749 357.085 102.881 358.751 102.886 361.997C102.891 364.703 102.886 368.31 102.881 371.918C102.871 379.13 102.851 386.338 102.851 386.338C102.851 386.621 102.604 386.848 102.301 386.848Z" fill="white"/>
<path d="M143.209 323.299L115.049 302.854L87.0364 331.158V328.607L114.811 300.067L143.651 320.766L143.209 323.299Z" fill="white"/>
<path d="M87.0367 331.668C86.9692 331.668 86.9017 331.656 86.8367 331.633C86.6243 331.557 86.4844 331.367 86.4844 331.158V328.607C86.4844 328.48 86.5344 328.359 86.6268 328.264L114.402 299.726C114.594 299.527 114.922 299.502 115.149 299.664L143.989 320.363C144.149 320.477 144.229 320.665 144.196 320.85L143.751 323.385C143.721 323.563 143.589 323.714 143.409 323.779C143.227 323.843 143.022 323.816 142.869 323.704L115.109 303.552L87.4415 331.508C87.3341 331.615 87.1866 331.672 87.0342 331.672L87.0367 331.668ZM87.5865 328.802V329.844L114.642 302.507C114.839 302.31 115.164 302.287 115.387 302.451L142.812 322.363L143.054 320.982L114.877 300.76L87.5865 328.802Z" fill="black"/>
<path d="M79.0269 379.735L84.8148 378.899V367.048L79.0269 367.882V379.735Z" fill="white"/>
<path d="M88.0112 387.284C87.7088 387.284 87.4614 387.056 87.4614 386.774L87.2615 332.166C87.2615 331.883 87.5064 331.654 87.8113 331.654C88.1137 331.654 88.3611 331.881 88.3611 332.164L88.561 386.771C88.561 387.054 88.3161 387.284 88.0112 387.284Z" fill="white"/>
<path d="M86.8115 354.165L141.117 346.33V344.847L86.8115 352.683V354.165Z" fill="white"/>
<path d="M238.652 398.097L240.054 411.894C240.101 412.283 239.821 412.638 239.449 412.659L232.059 413.083C231.742 413.101 231.467 412.862 231.422 412.529L230.05 399.99L238.652 398.094V398.097Z" fill="white"/>
<path d="M232.024 413.595C231.442 413.595 230.955 413.176 230.875 412.594L229.5 400.043C229.473 399.789 229.653 399.555 229.92 399.494L238.522 397.599C238.677 397.564 238.839 397.594 238.972 397.68C239.102 397.766 239.184 397.9 239.199 398.049L240.601 411.846C240.641 412.177 240.531 412.52 240.299 412.777C240.087 413.011 239.797 413.15 239.482 413.169L232.092 413.593C232.069 413.593 232.044 413.593 232.022 413.593L232.024 413.595ZM230.645 400.384L231.969 412.478C231.977 412.539 232.014 412.571 232.027 412.573L239.417 412.149C239.487 412.089 239.517 412.027 239.507 411.95L238.162 398.73L230.645 400.384Z" fill="black"/>
<path d="M241.218 408.321C241.708 409.95 242.742 414.544 243.175 417.306C243.447 419.039 242.265 420.68 240.456 421.134C235.342 422.415 223.119 422.362 212.945 422.776C212.248 422.804 210.964 422.489 210.394 420.925C208.457 415.617 219.153 413.972 229.724 408.574C229.932 408.467 230.184 408.476 230.379 408.606C230.502 408.687 230.657 408.784 230.839 408.893C232.678 409.978 235.735 409.98 237.602 408.937L239.711 407.76C240.288 407.438 241.038 407.714 241.22 408.321H241.218Z" fill="white"/>
<path d="M212.861 423.289C211.829 423.289 210.469 422.719 209.874 421.088C208.362 416.943 213.59 414.844 220.211 412.186C223.055 411.044 226.276 409.751 229.46 408.125C229.857 407.923 230.332 407.946 230.699 408.187C230.814 408.264 230.962 408.356 231.134 408.458C232.781 409.429 235.613 409.448 237.317 408.498L239.426 407.321C239.851 407.084 240.356 407.045 240.813 407.214C241.273 407.383 241.615 407.735 241.748 408.18C242.258 409.876 243.29 414.475 243.72 417.23C244.03 419.211 242.69 421.099 240.601 421.623C236.735 422.592 229.107 422.802 221.03 423.027C218.346 423.101 215.572 423.178 212.971 423.284C212.933 423.284 212.896 423.284 212.858 423.284L212.861 423.289ZM230.027 409.012C230.01 409.012 229.997 409.019 229.99 409.021C226.761 410.671 223.512 411.973 220.645 413.125C213.673 415.923 209.784 417.659 210.914 420.761C211.459 422.251 212.686 422.274 212.921 422.267C215.532 422.161 218.309 422.084 220.998 422.01C228.655 421.799 236.572 421.579 240.313 420.641C241.865 420.251 242.86 418.85 242.63 417.381C242.215 414.735 241.183 410.11 240.686 408.461C240.646 408.326 240.543 408.22 240.403 408.169C240.268 408.118 240.116 408.129 239.991 408.201L237.882 409.378C235.825 410.525 232.531 410.502 230.539 409.327C230.347 409.214 230.185 409.109 230.057 409.026C230.047 409.019 230.035 409.017 230.025 409.017L230.027 409.012Z" fill="black"/>
<path d="M243.485 418.558C243.495 418.606 243.502 418.639 243.505 418.655C243.777 420.388 242 421.454 240.303 422.193C235.265 424.385 214.922 423.129 214.138 423.08C214.123 423.08 214.11 423.08 214.095 423.08C213.843 423.085 211.259 423.085 210.516 421.595C210.424 421.41 210.366 421.15 210.331 420.907C210.274 420.508 210.304 420.105 210.399 419.711C210.476 419.392 210.816 419.192 211.154 419.273C214.93 420.168 223.747 420.467 232.556 419.565C238.414 418.968 240.958 417.784 242.315 417.031C242.685 416.825 243.16 417.024 243.242 417.42C243.312 417.749 243.397 418.152 243.485 418.56V418.558Z" fill="white"/>
<path d="M226.941 424C220.975 424 215.23 423.659 214.1 423.587C213.771 423.592 210.902 423.583 210.014 421.806C209.909 421.597 209.834 421.324 209.784 420.969C209.722 420.527 209.747 420.066 209.859 419.595C209.929 419.306 210.124 419.053 210.394 418.898C210.664 418.745 210.982 418.701 211.289 418.773C214.783 419.602 223.405 419.98 232.496 419.053C238.089 418.483 240.618 417.373 242.033 416.588C242.358 416.407 242.76 416.384 243.108 416.528C243.457 416.671 243.71 416.966 243.785 417.315L244.05 418.567C244.387 420.712 242.208 421.924 240.538 422.651C238.109 423.708 232.434 423.997 226.943 423.997L226.941 424ZM214.088 422.566C214.108 422.566 214.16 422.566 214.173 422.568C221.415 423.022 236.15 423.434 240.069 421.729C242.245 420.781 243.138 419.857 242.96 418.726L242.945 418.657L242.703 417.517C242.698 417.491 242.683 417.473 242.66 417.464C242.63 417.452 242.608 417.464 242.6 417.468C241.096 418.302 238.424 419.479 232.619 420.073C223.397 421.013 214.608 420.617 211.019 419.767C210.962 419.781 210.944 419.794 210.937 419.822C210.852 420.174 210.832 420.515 210.879 420.837C210.927 421.159 210.987 421.314 211.017 421.379C211.624 422.591 213.985 422.572 214.088 422.568H214.09L214.088 422.566Z" fill="black"/>
<path d="M229 413.375C228.885 413.375 228.768 413.34 228.668 413.271L225.582 411.093C225.339 410.921 225.292 410.601 225.477 410.377C225.662 410.152 226.006 410.108 226.249 410.279L229.335 412.457C229.578 412.629 229.625 412.949 229.44 413.173C229.333 413.305 229.168 413.375 229 413.375Z" fill="black"/>
<path d="M224.899 414.932C224.784 414.932 224.669 414.899 224.569 414.83L221.87 412.951C221.628 412.781 221.578 412.462 221.76 412.235C221.943 412.01 222.288 411.964 222.533 412.133L225.232 414.012C225.474 414.181 225.524 414.501 225.342 414.728C225.234 414.862 225.067 414.932 224.899 414.932Z" fill="black"/>
<path d="M293.497 382.677C277.04 347.437 270.288 303.503 268.451 292.831C266.479 281.369 260.614 270.491 260.614 270.491L234.868 272.475C234.868 272.475 234.506 271.613 235.335 276.638L219.071 277.748C205.601 316.897 224.707 393.294 227.008 401.746C227.168 402.332 227.683 402.77 228.325 402.881C231.814 403.486 236.917 402.985 239.746 402.617C240.876 402.471 241.658 401.512 241.513 400.465C239.689 387.358 241.761 348.871 245.754 325.894C259.209 371.496 282.246 389.348 282.246 389.348C282.246 389.348 283.603 390.439 284.423 390.808C286.012 391.524 286.782 392.131 288.616 391.76C293.205 390.833 295.359 386.677 293.492 382.68L293.497 382.677Z" fill="white"/>
<path d="M232.259 403.671C230.835 403.671 229.438 403.59 228.228 403.382C227.373 403.233 226.689 402.64 226.479 401.869C226.254 401.046 204.237 319.189 218.549 277.59C218.617 277.391 218.809 277.252 219.034 277.236L234.706 276.168C234.041 272.085 234.154 272.057 234.681 271.925C234.793 271.898 234.923 271.902 235.046 271.948L260.572 269.981C260.807 269.961 261.009 270.076 261.109 270.262C261.169 270.371 267.034 281.344 268.996 292.75C269.104 293.369 269.226 294.096 269.366 294.93C271.633 308.385 278.528 349.332 294.002 382.473C294.979 384.563 294.949 386.829 293.92 388.688C292.908 390.516 291.066 391.783 288.737 392.253C287 392.603 286.065 392.156 284.88 391.588C284.663 391.484 284.436 391.375 284.186 391.262C283.311 390.868 281.946 389.774 281.889 389.728C281.669 389.556 259.35 371.873 245.912 328.296C242.291 350.819 240.281 387.599 242.061 400.393C242.243 401.711 241.241 402.932 239.824 403.117C237.975 403.358 235.056 403.667 232.257 403.667L232.259 403.671ZM219.486 278.23C205.494 319.657 227.323 400.803 227.546 401.618C227.653 402.01 227.991 402.3 228.431 402.376C231.862 402.971 236.948 402.464 239.672 402.11C240.494 402.003 241.076 401.292 240.969 400.527C239.079 386.95 241.261 348.544 245.212 325.808C245.255 325.572 245.467 325.393 245.727 325.379C245.989 325.366 246.219 325.523 246.289 325.755C259.537 370.65 282.374 388.773 282.604 388.952C282.974 389.248 284.051 390.066 284.668 390.344C284.925 390.46 285.163 390.573 285.388 390.682C286.527 391.229 287.157 391.53 288.504 391.257C290.506 390.854 292.083 389.774 292.942 388.222C293.82 386.635 293.837 384.688 292.992 382.879C277.461 349.617 270.548 308.572 268.279 295.085C268.139 294.254 268.016 293.526 267.911 292.91C266.157 282.72 261.246 272.878 260.289 271.026L235.366 272.947C235.408 273.424 235.536 274.435 235.885 276.557C235.908 276.698 235.868 276.842 235.773 276.953C235.678 277.064 235.536 277.134 235.383 277.143L219.491 278.227L219.486 278.23Z" fill="black"/>
<path d="M252.686 304.146C252.274 306.989 251.532 310.136 250.217 312.99C246.374 321.327 244.992 330.261 244.992 330.261L252.686 304.146Z" fill="black"/>
<path d="M244.989 330.773C244.964 330.773 244.937 330.773 244.912 330.769C244.609 330.729 244.402 330.47 244.444 330.192C244.459 330.101 245.881 321.095 249.71 312.794C250.842 310.34 251.659 307.409 252.142 304.082C252.182 303.802 252.457 303.609 252.761 303.644C253.064 303.681 253.274 303.938 253.234 304.219C252.739 307.636 251.894 310.658 250.725 313.197C246.954 321.376 245.552 330.25 245.537 330.34C245.497 330.595 245.262 330.778 244.992 330.778L244.989 330.773Z" fill="black"/>
<path d="M236.94 307.713C236.095 307.713 235.248 307.55 234.456 307.221L228.338 304.682C226.281 303.827 224.997 301.927 225.069 299.837L225.454 288.674C225.472 288.162 225.719 287.676 226.136 287.34C226.554 287.001 227.111 286.839 227.663 286.895C234.923 287.608 241.738 286.946 245.155 286.485C245.749 286.406 246.347 286.575 246.789 286.95C247.231 287.326 247.469 287.861 247.436 288.417L246.759 300.108C246.669 301.663 245.837 303.076 244.477 303.989L240.516 306.647C239.464 307.353 238.207 307.715 236.943 307.715L236.94 307.713ZM227.448 287.903C227.231 287.903 227.026 287.975 226.861 288.107C226.671 288.26 226.564 288.47 226.556 288.702L226.171 299.865C226.114 301.538 227.141 303.06 228.79 303.746L234.908 306.285C236.53 306.957 238.43 306.777 239.869 305.813L243.83 303.155C244.92 302.425 245.584 301.292 245.657 300.048L246.334 288.357C246.349 288.107 246.244 287.868 246.044 287.701C245.844 287.532 245.579 287.456 245.31 287.493C241.843 287.958 234.926 288.633 227.546 287.907C227.513 287.905 227.481 287.903 227.448 287.903Z" fill="black"/>
<path d="M266.487 305.074C266.172 305.074 265.854 305.006 265.562 304.867L258.825 301.693C258.21 301.404 257.797 300.85 257.725 300.215L256.205 287.21C256.088 286.204 256.84 285.299 257.917 285.143L264.283 284.212C264.585 284.168 264.865 284.358 264.912 284.636C264.96 284.914 264.755 285.176 264.455 285.22L258.087 286.151C257.592 286.223 257.248 286.638 257.3 287.099L258.82 300.104C258.855 300.396 259.042 300.648 259.324 300.783L266.062 303.957C266.372 304.103 266.739 304.077 267.024 303.892L268.626 302.886C268.878 302.729 269.221 302.789 269.391 303.023C269.561 303.257 269.496 303.575 269.243 303.732L267.649 304.731C267.304 304.958 266.897 305.074 266.487 305.074Z" fill="black"/>
<path d="M232.257 403.669C230.832 403.669 229.435 403.588 228.228 403.38C227.376 403.232 226.689 402.638 226.479 401.869C226.254 401.047 204.237 319.189 218.549 277.591C218.617 277.392 218.809 277.253 219.034 277.236L252.399 274.961C252.704 274.943 252.967 275.151 252.989 275.434C253.012 275.714 252.784 275.96 252.479 275.981L219.486 278.23C205.494 319.657 227.323 400.803 227.546 401.619C227.653 402.011 227.991 402.3 228.431 402.377C231.859 402.97 236.945 402.465 239.674 402.11C240.496 402.004 241.076 401.292 240.971 400.528C239.217 387.912 241.099 351.768 244.702 328.909C244.747 328.631 245.025 328.438 245.327 328.478C245.629 328.519 245.837 328.779 245.792 329.057C242.198 351.846 240.319 387.849 242.063 400.398C242.246 401.716 241.243 402.937 239.826 403.123C237.975 403.364 235.058 403.672 232.257 403.672V403.669Z" fill="black"/>
<path d="M288.654 398.446C287.757 394.283 287.367 393.426 285.21 390.217C283.608 387.83 287.502 384.234 289.483 383.959C292.79 383.328 292.262 384.299 296.044 388.794L299.005 392.172C299.005 392.172 289.436 402.089 288.651 398.449L288.654 398.446Z" fill="white"/>
<path d="M289.539 399.754C289.404 399.754 289.279 399.74 289.159 399.71C288.776 399.612 288.284 399.332 288.114 398.546C287.214 394.371 286.815 393.572 284.743 390.486C284.131 389.575 284.125 388.458 284.728 387.251C285.625 385.449 287.809 383.674 289.404 383.452C292.213 382.916 292.707 383.577 294.347 385.764C294.882 386.477 295.546 387.367 296.481 388.477L299.435 391.846C299.605 392.04 299.597 392.321 299.418 392.508C298.208 393.762 292.283 399.751 289.539 399.751V399.754ZM289.194 398.347C289.266 398.678 289.399 398.711 289.449 398.725C290.776 399.065 295.302 395.187 298.283 392.154L295.619 389.116C294.659 387.977 293.984 387.075 293.442 386.35C291.853 384.228 291.723 384.054 289.596 384.459C288.479 384.615 286.525 386.084 285.727 387.682C285.283 388.574 285.268 389.337 285.677 389.948C287.907 393.268 288.301 394.209 289.194 398.347Z" fill="black"/>
<path d="M289.538 399.753C289.403 399.753 289.279 399.739 289.159 399.709C288.776 399.612 288.284 399.332 288.114 398.546C287.319 394.858 287.069 393.894 285.475 391.424C285.32 391.183 285.405 390.868 285.665 390.724C285.925 390.581 286.265 390.657 286.42 390.9C288.104 393.509 288.384 394.596 289.194 398.347C289.266 398.678 289.398 398.711 289.448 398.725C290.775 399.065 295.301 395.187 298.28 392.154L295.769 389.313C294.682 388.023 294.009 387.015 293.412 386.09C293.255 385.847 293.34 385.534 293.602 385.391C293.862 385.247 294.202 385.323 294.357 385.567C294.936 386.461 295.589 387.439 296.628 388.676L299.432 391.846C299.605 392.04 299.597 392.323 299.417 392.511C298.208 393.764 292.282 399.753 289.538 399.753Z" fill="black"/>
<path d="M288.131 396.883L291.96 391.526C293.747 389.026 297.545 388.655 299.857 390.752L304.241 394.163C304.241 394.163 305.078 396.507 304.813 398.02C304.465 399.99 303.783 402.798 302.461 405.581C300.427 409.862 294.796 418.463 292.792 421.486C292.372 422.119 291.32 422.747 290.59 422.443C289.721 422.082 288.821 421.433 287.951 420.678C286.604 419.508 287.057 414.033 287.539 410.221C287.849 407.779 287.619 401.542 287.504 398.973C287.472 398.231 287.691 397.501 288.134 396.883H288.131Z" fill="white"/>
<path d="M291.006 423.034C290.788 423.034 290.571 422.997 290.363 422.909C289.524 422.561 288.609 421.952 287.572 421.048C287.135 420.668 285.805 419.512 286.99 410.161C287.295 407.754 287.065 401.549 286.952 398.993C286.915 398.141 287.165 397.314 287.674 396.6L291.503 391.243C292.445 389.925 293.96 389.072 295.657 388.908C297.356 388.741 299.025 389.281 300.245 390.388L304.596 393.771C304.673 393.831 304.733 393.912 304.766 394.003C304.801 394.102 305.643 396.484 305.358 398.104C305.018 400.027 304.328 402.918 302.966 405.789C300.95 410.036 295.507 418.37 293.26 421.757C292.855 422.367 291.918 423.036 291.003 423.036L291.006 423.034ZM296.259 389.902C296.096 389.902 295.936 389.909 295.772 389.925C294.402 390.059 293.182 390.745 292.42 391.811L288.592 397.168C288.212 397.7 288.024 398.317 288.052 398.954C288.167 401.535 288.397 407.805 288.082 410.284C287.072 418.261 287.914 419.952 288.324 420.307C289.271 421.132 290.086 421.678 290.811 421.98C291.218 422.149 292.005 421.697 292.32 421.222C294.554 417.853 299.965 409.566 301.957 405.379C303.274 402.608 303.941 399.807 304.269 397.941C304.476 396.767 303.929 394.964 303.764 394.461L299.505 391.148C298.611 390.337 297.458 389.904 296.259 389.904V389.902Z" fill="black"/>
<path d="M287.674 403.502C287.431 403.502 287.209 403.354 287.144 403.127C287.064 402.856 287.237 402.573 287.529 402.499L291.652 401.449C291.94 401.373 292.25 401.535 292.33 401.806C292.41 402.077 292.237 402.36 291.945 402.434L287.821 403.483C287.774 403.495 287.724 403.502 287.674 403.502Z" fill="black"/>
<path d="M287.979 406.913C287.737 406.913 287.517 406.764 287.449 406.537C287.369 406.266 287.542 405.983 287.834 405.909L291.955 404.86C292.245 404.783 292.55 404.945 292.632 405.217C292.712 405.488 292.54 405.77 292.248 405.844L288.127 406.894C288.079 406.906 288.029 406.913 287.979 406.913Z" fill="black"/>
<path d="M292.185 422.723C291.765 422.723 291.365 422.661 291.003 422.545C289.773 422.151 286.694 421.303 287.037 417.209C287.392 412.967 290.873 410.807 293.412 408.025C295.351 405.9 295.156 397.019 295.766 395.279C296.858 392.163 301.771 391.693 304.24 394.163C305.8 395.722 305.985 399.109 305.832 401.6C305.548 406.264 302.591 415.548 298.852 420.031C297.028 422.218 294.217 422.721 292.185 422.721V422.723Z" fill="white"/>
<path d="M292.183 423.236C291.708 423.236 291.25 423.166 290.823 423.03L290.713 422.995C289.456 422.596 286.12 421.542 286.487 417.172C286.777 413.727 289.004 411.596 291.155 409.534C291.775 408.94 292.415 408.326 292.99 407.696C294.154 406.422 294.517 401.925 294.757 398.95C294.899 397.175 295.012 395.773 295.241 395.122C295.764 393.635 297.091 392.571 298.888 392.205C300.977 391.779 303.239 392.409 304.646 393.815C306.462 395.63 306.515 399.49 306.382 401.628C306.108 406.118 303.209 415.641 299.287 420.344C297.191 422.858 293.937 423.234 292.185 423.234H292.183V423.236ZM300.21 393.095C299.847 393.095 299.482 393.13 299.125 393.204C297.721 393.491 296.688 394.304 296.291 395.44C296.104 395.972 295.984 397.458 295.859 399.029C295.579 402.504 295.229 406.83 293.834 408.359C293.235 409.015 292.582 409.64 291.95 410.247C289.841 412.268 287.847 414.177 287.589 417.254C287.289 420.833 289.751 421.612 291.073 422.031L291.185 422.066C291.498 422.165 291.835 422.216 292.185 422.216H292.188C293.739 422.216 296.611 421.892 298.42 419.723C302.214 415.173 305.02 405.935 305.288 401.575C305.493 398.211 304.965 395.637 303.841 394.513C302.936 393.607 301.587 393.097 300.215 393.097L300.21 393.095Z" fill="black"/>
<path d="M292.185 423.236C291.038 423.236 289.995 422.825 289.323 422.112C288.726 421.477 288.471 420.645 288.601 419.767C289.263 415.335 291.857 413.027 294.606 410.583C296.696 408.725 297.253 402.093 297.52 398.905C297.62 397.712 297.673 397.126 297.755 396.846C298.148 395.513 299.994 394.274 301.871 394.082C303.621 393.903 305.103 394.638 305.935 396.095C306.077 396.345 305.975 396.653 305.705 396.785C305.435 396.917 305.103 396.822 304.96 396.572C304.168 395.182 302.906 395.001 301.991 395.096C300.424 395.256 299.062 396.287 298.817 397.114C298.757 397.316 298.69 398.127 298.617 398.984C298.318 402.552 297.76 409.19 295.366 411.32C292.647 413.738 290.298 415.826 289.688 419.906C289.601 420.495 289.761 421.023 290.15 421.44C290.61 421.931 291.35 422.211 292.18 422.211C292.635 422.211 293.089 422.184 293.527 422.133C293.827 422.093 294.104 422.295 294.144 422.573C294.182 422.853 293.969 423.108 293.667 423.145C293.182 423.203 292.682 423.233 292.18 423.233L292.185 423.236Z" fill="black"/>
<path d="M283.541 280.31C283.541 280.31 288.849 279.029 290.221 280.132C290.576 280.417 289.426 286.83 289.806 287.152C291.615 288.691 294.442 290.674 295.042 292.113C295.971 294.342 294.862 300.792 294.292 303.686C293.997 305.178 291.758 305.431 291.143 304.026C290.973 303.64 290.888 303.132 290.938 302.465C291.108 300.125 290.868 298.438 290.698 297.599C290.623 297.229 290.403 296.902 290.076 296.679C288.551 295.632 283.861 292.236 283.171 289.706C283.083 289.381 283.293 288.605 283.493 287.991C283.688 287.393 283.776 286.772 283.753 286.149L283.541 280.31Z" fill="white"/>
<path d="M292.625 305.463C291.738 305.463 290.973 304.99 290.631 304.217C290.418 303.73 290.333 303.128 290.386 302.428C290.553 300.125 290.313 298.471 290.156 297.692C290.106 297.449 289.961 297.233 289.748 297.087C287.849 295.781 283.356 292.458 282.638 289.828C282.576 289.599 282.543 289.145 282.966 287.843C283.143 287.296 283.223 286.731 283.203 286.165L282.991 280.327C282.981 280.088 283.153 279.875 283.403 279.815C284.338 279.59 289.069 278.529 290.583 279.745C290.93 280.025 290.928 280.456 290.563 283.589C290.431 284.72 290.236 286.395 290.283 286.865C290.668 287.189 291.095 287.532 291.533 287.885C293.26 289.27 295.044 290.702 295.554 291.93C296.506 294.212 295.511 300.331 294.832 303.776C294.654 304.682 293.864 305.357 292.865 305.452C292.782 305.459 292.702 305.463 292.622 305.463H292.625ZM284.108 280.707L284.305 286.133C284.33 286.809 284.235 287.486 284.023 288.139C283.651 289.289 283.706 289.571 283.708 289.583C284.223 291.469 287.507 294.275 290.406 296.27C290.843 296.571 291.14 297.009 291.24 297.507C291.408 298.334 291.663 300.083 291.488 302.502C291.448 303.044 291.505 303.494 291.655 303.837C291.875 304.339 292.367 304.476 292.757 304.439C293.147 304.402 293.642 304.159 293.752 303.596C294.854 297.996 295.146 293.774 294.529 292.301C294.117 291.311 292.362 289.903 290.813 288.661C290.326 288.269 289.853 287.889 289.433 287.535C289.084 287.236 289.086 286.745 289.466 283.485C289.593 282.389 289.766 280.92 289.738 280.443C288.841 279.958 286.09 280.276 284.105 280.711L284.108 280.707Z" fill="black"/>
<path d="M175.846 202.89L173.335 200.654C171.468 199.192 170.773 195.999 170.773 195.999C170.443 194.79 169.689 193.717 168.626 192.952L158.11 185.369C157.423 184.873 156.401 185.225 156.253 186.02C156.106 186.81 156.311 187.848 157.618 188.932L160.409 191.073C160.904 191.453 161.029 192.107 160.707 192.623C160.115 193.571 159.39 195.216 159.917 197.039C161.092 201.103 166.317 202.496 167.622 202.783C167.812 202.825 171.223 207.581 171.223 207.581L175.841 202.887L175.846 202.89Z" fill="white"/>
<path d="M171.228 208.096C171.213 208.096 171.201 208.096 171.186 208.096C171.016 208.085 170.864 208.001 170.769 207.869C169.364 205.914 167.757 203.726 167.342 203.249C165.588 202.841 160.59 201.326 159.388 197.176C158.823 195.228 159.535 193.488 160.232 192.371C160.42 192.07 160.347 191.69 160.06 191.47L157.268 189.329C155.699 188.027 155.557 186.766 155.711 185.935C155.811 185.388 156.209 184.941 156.769 184.739C157.341 184.533 157.968 184.619 158.448 184.966L168.964 192.547C170.116 193.379 170.948 194.558 171.306 195.872C171.318 195.925 171.993 198.935 173.69 200.263L176.227 202.519C176.442 202.712 176.454 203.027 176.252 203.231L171.633 207.925C171.528 208.031 171.381 208.091 171.226 208.091L171.228 208.096ZM157.398 185.654C157.323 185.654 157.246 185.668 157.171 185.694C157.076 185.728 156.851 185.837 156.799 186.111C156.644 186.949 157.043 187.772 157.988 188.557L160.765 190.684C161.467 191.224 161.647 192.149 161.189 192.883C160.597 193.833 159.99 195.302 160.455 196.912C161.564 200.744 166.73 202.065 167.755 202.292C168.002 202.348 168.145 202.378 171.296 206.759L175.077 202.915L172.953 201.025C170.988 199.489 170.261 196.24 170.231 196.104C169.939 195.033 169.247 194.051 168.287 193.358L157.771 185.777C157.661 185.698 157.528 185.657 157.393 185.657L157.398 185.654Z" fill="black"/>
<path d="M168.385 204.931L174.18 199.547C174.735 199.259 175.395 199.396 175.852 199.804C189.027 211.595 199.079 210.32 209.625 207.864C209.625 207.864 220.454 205.52 223.457 205.258C225.722 205.061 231.737 203.645 245.827 205.11C251.302 205.677 256.613 207.227 261.456 209.662L262.184 210.028C262.184 210.028 302.032 233.2 292.293 283.223C292.185 283.779 291.658 284.226 291.048 284.226H283.046C282.381 284.226 281.829 283.707 281.787 283.091C281.427 277.908 279.252 255.512 268.034 243.098C266.797 241.729 264.41 242.127 263.833 243.833C262.941 246.476 262.711 252.099 265.065 263.946C265.138 264.305 268.101 278.283 268.101 278.283C268.101 278.283 236.91 283.241 226.041 281.432C217.447 280 214.853 278.04 214.146 277.282C213.983 277.108 213.913 276.881 213.941 276.654L215.203 266.467C215.653 262.774 216.755 255.874 215.45 247.079C213.653 234.987 205.834 235.218 205.834 235.218C195.902 234.627 178.056 236.562 167.747 206.379C167.557 205.823 167.837 205.218 168.387 204.931H168.385Z" fill="black"/>
<path d="M291.048 284.738H283.046C282.109 284.738 281.297 284.016 281.234 283.126C280.924 278.673 278.815 255.83 267.609 243.427C267.149 242.918 266.455 242.691 265.757 242.82C265.085 242.946 264.56 243.381 264.355 243.986C263.581 246.282 263.166 251.592 265.602 263.854C265.672 264.206 268.609 278.045 268.639 278.184C268.666 278.318 268.636 278.46 268.551 278.573C268.466 278.687 268.336 278.763 268.191 278.786C266.914 278.99 236.783 283.74 225.939 281.935C217.2 280.48 214.486 278.429 213.723 277.616C213.463 277.338 213.341 276.967 213.388 276.594L214.651 266.407C214.688 266.096 214.731 265.763 214.775 265.406C215.265 261.564 216.085 255.135 214.898 247.146C213.199 235.707 206.149 235.724 205.844 235.728C205.001 235.68 204.162 235.649 203.28 235.617C192.743 235.228 176.819 234.642 167.217 206.535C166.96 205.779 167.305 204.948 168.042 204.526L173.788 199.188C173.823 199.155 173.865 199.125 173.908 199.104C174.645 198.72 175.58 198.856 176.232 199.44C189.087 210.944 198.899 209.839 209.487 207.371C209.94 207.274 220.393 205.013 223.402 204.751C223.74 204.721 224.162 204.665 224.684 204.593C227.666 204.192 233.866 203.356 245.884 204.602C251.455 205.182 256.783 206.732 261.716 209.216L262.443 209.582C262.573 209.656 272.635 215.587 281.344 227.584C289.379 238.652 297.896 257.306 292.83 283.316C292.67 284.127 291.903 284.738 291.043 284.738H291.048ZM266.135 241.764C267.019 241.764 267.871 242.125 268.456 242.772C279.882 255.418 282.024 278.552 282.336 283.061C282.361 283.418 282.686 283.719 283.049 283.719H291.051C291.381 283.719 291.69 283.462 291.753 283.135C296.746 257.484 288.372 239.099 280.465 228.194C271.888 216.361 261.994 210.522 261.894 210.464L261.196 210.114C256.388 207.696 251.197 206.183 245.767 205.62C233.894 204.387 227.783 205.21 224.847 205.606C224.302 205.68 223.86 205.738 223.51 205.768C220.576 206.023 209.86 208.34 209.752 208.363C198.846 210.902 188.732 212.04 175.472 200.172C175.185 199.915 174.815 199.839 174.512 199.964L168.779 205.291C168.744 205.323 168.702 205.353 168.659 205.374C168.327 205.545 168.167 205.902 168.275 206.222C177.644 233.645 193.101 234.215 203.33 234.593C204.222 234.625 205.071 234.658 205.871 234.704C206.141 234.7 214.153 234.591 215.998 247.005C217.205 255.126 216.372 261.634 215.878 265.524L214.491 276.708C214.481 276.796 214.506 276.882 214.566 276.944C215.1 277.514 217.515 279.491 226.144 280.927C236 282.57 263.216 278.515 267.457 277.864C266.912 275.299 264.593 264.361 264.528 264.037C262.538 254.025 262.131 247.176 263.313 243.678C263.641 242.709 264.475 242.014 265.55 241.815C265.747 241.778 265.945 241.762 266.14 241.762L266.135 241.764Z" fill="white"/>
<path d="M220.983 179.445C220.983 179.445 219.084 182.146 218.994 184.366C218.969 184.952 218.729 186.829 217.197 188.896C217.05 189.095 217.085 189.364 217.284 189.524L218.786 190.738C218.891 190.821 218.951 190.939 218.954 191.064C218.969 191.847 219.029 194.739 219.136 195.276C219.261 195.9 219.809 196.447 220.081 196.579C220.796 196.926 223.87 196.532 223.87 196.532C223.87 196.532 224.697 196.597 226.364 200.64C228.163 205.008 224.559 206.704 224.559 206.704C223.205 207.376 223.422 208.627 224.899 209.048C229.995 210.496 239.894 212.063 245.642 208.036C246.719 207.281 246.264 206.477 245.339 206.287C231.627 203.469 237.985 190.133 237.7 190.066C236.97 189.894 232.736 185.851 230.27 184.714C228.588 183.937 226.576 185.107 225.202 183.921L220.986 179.445H220.983Z" fill="white"/>
<path d="M235.638 211.108C230.677 211.108 226.089 209.919 224.737 209.535C223.794 209.268 223.187 208.684 223.112 207.978C223.042 207.301 223.485 206.657 224.297 206.252C224.434 206.184 227.441 204.685 225.846 200.821C224.679 197.992 223.974 197.239 223.757 197.06C222.83 197.171 220.576 197.396 219.823 197.03C219.424 196.836 218.756 196.173 218.594 195.371C218.484 194.817 218.424 192.229 218.401 191.106L216.919 189.908C216.512 189.579 216.435 189.018 216.74 188.606C218.276 186.534 218.426 184.692 218.439 184.345C218.534 182.012 220.436 179.28 220.518 179.164C220.613 179.03 220.768 178.944 220.941 178.933C221.115 178.923 221.28 178.986 221.393 179.106L225.589 183.562C226.164 184.041 226.936 183.997 227.826 183.946C228.663 183.898 229.615 183.842 230.51 184.255C232.027 184.954 234.088 186.629 235.748 187.978C236.615 188.682 237.597 189.479 237.852 189.577C237.977 189.604 238.104 189.695 238.179 189.818C238.317 190.04 238.269 190.191 238.067 190.825C237.525 192.528 235.878 197.709 238.329 201.56C239.671 203.668 242.068 205.091 245.457 205.788C246.154 205.932 246.664 206.349 246.789 206.877C246.864 207.197 246.859 207.825 245.974 208.443C243.07 210.478 239.256 211.108 235.64 211.108H235.638ZM223.867 196.022C223.882 196.022 223.897 196.022 223.912 196.022C224.879 196.096 226.056 198.476 226.873 200.457C228.828 205.2 224.844 207.139 224.804 207.157C224.407 207.354 224.179 207.626 224.207 207.878C224.237 208.156 224.562 208.418 225.057 208.557C227.303 209.196 238.847 212.151 245.307 207.626C245.642 207.392 245.734 207.197 245.709 207.09C245.684 206.986 245.519 206.845 245.214 206.782C241.518 206.022 238.882 204.44 237.377 202.076C234.683 197.841 236.432 192.341 237.007 190.533C237.03 190.464 237.052 190.394 237.072 190.33C236.667 190.075 236.06 189.59 235.018 188.742C233.494 187.503 231.404 185.807 230.017 185.167C229.387 184.878 228.663 184.92 227.893 184.964C226.886 185.021 225.741 185.089 224.819 184.292C224.804 184.28 224.792 184.266 224.779 184.255L221.063 180.309C220.526 181.196 219.598 182.925 219.539 184.382C219.516 184.94 219.311 186.935 217.647 189.18L219.146 190.35C219.366 190.529 219.496 190.786 219.501 191.055C219.541 193.237 219.608 194.857 219.676 195.181C219.771 195.652 220.213 196.064 220.336 196.124C220.641 196.27 222.223 196.224 223.789 196.022C223.814 196.02 223.839 196.018 223.864 196.018L223.867 196.022ZM237.56 190.559C237.56 190.559 237.562 190.559 237.565 190.559C237.565 190.559 237.565 190.559 237.56 190.559Z" fill="black"/>
<path d="M217.322 189.078C217.322 189.078 217.299 189.078 217.287 189.078C216.614 189.041 216.047 188.77 215.65 188.293C214.523 186.947 215.017 184.356 215.077 184.067C215.132 183.798 215.41 183.62 215.697 183.657L226.463 185.109C226.766 185.151 226.973 185.408 226.928 185.689C226.883 185.967 226.603 186.159 226.303 186.12L216.082 184.741C215.977 185.594 215.95 186.988 216.519 187.667C216.727 187.913 216.992 188.038 217.352 188.059C217.657 188.075 217.886 188.318 217.869 188.599C217.851 188.87 217.609 189.078 217.319 189.078H217.322Z" fill="black"/>
<path d="M226.444 190.167C226.106 190.167 225.804 190.123 225.564 190.061C225.272 189.984 225.102 189.699 225.187 189.428C225.272 189.157 225.577 189.002 225.867 189.076C226.079 189.129 227.928 189.53 228.783 187.521C229.105 186.761 229.038 186.147 228.596 185.839C228.121 185.508 227.334 185.584 226.721 186.02C226.571 186.126 226.259 186.541 226.091 186.798C225.934 187.039 225.597 187.118 225.334 186.972C225.074 186.826 224.989 186.513 225.149 186.27C225.234 186.14 225.677 185.478 226.052 185.211C227.064 184.491 228.383 184.412 229.258 185.024C230.113 185.621 230.317 186.694 229.808 187.897C229.045 189.692 227.561 190.167 226.446 190.167H226.444Z" fill="black"/>
<path d="M216.939 172.841C217.909 171.296 218.954 169.966 222.193 169.34C224.412 168.912 228.053 170.394 229.857 172.132C230.007 172.278 230.245 172.28 230.367 172.132C230.745 171.68 231.644 170.656 232.449 170.559C234.781 170.279 237.205 173.057 238.072 174.488C238.704 175.536 239.779 177.906 240.341 180.665C240.376 180.839 240.549 180.964 240.731 180.946C241.433 180.876 242.843 180.865 244.105 181.71C246.356 183.219 246.142 185.464 246.119 185.74C245.854 188.939 242.38 191.335 239.739 192.644C237.947 193.531 237.272 193.663 236.213 193.902C236.153 193.916 236.088 193.911 236.028 193.895C235.09 194.032 233.499 194.115 231.717 193.562C228.885 192.683 229.045 188.341 229.045 188.341L229.39 187.519C229.6 187.021 229.622 186.462 229.4 185.969C228.715 184.468 226.274 185.626 226.181 185.61C221.548 184.769 219.898 183.529 219.049 182.683C216.002 179.653 214.593 176.581 216.937 172.839L216.939 172.841Z" fill="black"/>
</svg>
