<svg width="170" height="161" viewBox="0 0 170 161" fill="none" xmlns="http://www.w3.org/2000/svg">
<path d="M150.874 14.1787H46.7961V143.426H150.874V14.1787Z" fill="white"/>
<path d="M150.874 143.63H46.7961C46.674 143.63 46.5747 143.538 46.5747 143.424V14.1775C46.5747 14.0632 46.674 13.9717 46.7961 13.9717H150.874C150.996 13.9717 151.096 14.0641 151.096 14.1775V143.424C151.096 143.539 150.996 143.63 150.874 143.63ZM47.0175 143.219H150.652V14.3843H47.0175V143.219Z" fill="black"/>
<path d="M36.1553 6.44824V92.6774L82.4168 135.695H140.233V6.44824H36.1553Z" fill="white"/>
<path d="M140.233 135.901H82.4158C82.3571 135.901 82.3004 135.879 82.2587 135.84L35.9981 92.8232C35.9565 92.7845 35.9329 92.7326 35.9329 92.6772V6.44806C35.9329 6.33369 36.0322 6.24219 36.1543 6.24219H140.232C140.354 6.24219 140.454 6.33456 140.454 6.44806V135.695C140.454 135.809 140.354 135.901 140.232 135.901H140.233ZM82.5085 135.488H140.012V6.65393H36.3775V92.5918L82.5085 135.488Z" fill="black"/>
<path d="M106.01 62.8913C105.232 62.8913 104.447 62.8605 103.676 62.8007C103.554 62.791 103.463 62.6916 103.473 62.5781C103.484 62.4646 103.591 62.3784 103.713 62.3898C104.583 62.4575 105.47 62.4866 106.348 62.4769C106.468 62.4734 106.57 62.5666 106.572 62.681C106.573 62.7954 106.475 62.8878 106.352 62.8895C106.238 62.8904 106.123 62.8913 106.009 62.8913H106.01ZM109.004 62.74C108.893 62.74 108.796 62.6616 108.784 62.5561C108.771 62.4426 108.859 62.3414 108.981 62.3291C109.852 62.2411 110.728 62.1118 111.584 61.9446C111.704 61.9209 111.822 61.9921 111.847 62.1039C111.871 62.2156 111.794 62.3247 111.675 62.3476C110.804 62.5174 109.914 62.6485 109.029 62.7382C109.02 62.7382 109.013 62.7391 109.004 62.7391V62.74ZM101.06 62.4751C101.047 62.4751 101.033 62.4743 101.02 62.4716C100.144 62.3221 99.2659 62.1311 98.4106 61.9033C98.2933 61.8725 98.2252 61.7581 98.2583 61.6481C98.2924 61.5382 98.4154 61.4757 98.5327 61.5065C99.3738 61.7308 100.238 61.9191 101.1 62.066C101.22 62.0863 101.3 62.1936 101.277 62.3062C101.258 62.4056 101.165 62.4751 101.06 62.4751ZM114.201 61.7282C114.107 61.7282 114.02 61.6719 113.99 61.5839C113.954 61.4748 114.019 61.3596 114.135 61.3253C114.972 61.0807 115.803 60.7956 116.609 60.4763C116.722 60.4314 116.852 60.4807 116.9 60.5854C116.948 60.6901 116.895 60.8115 116.782 60.8555C115.964 61.1792 115.118 61.4695 114.268 61.7185C114.246 61.7247 114.223 61.7282 114.201 61.7282ZM95.9545 61.1141C95.9271 61.1141 95.8996 61.1097 95.8731 61.1C95.0462 60.7956 94.225 60.449 93.4331 60.0698C93.3243 60.0179 93.2817 59.8939 93.3375 59.7918C93.3934 59.6906 93.5277 59.651 93.6365 59.7029C94.4161 60.076 95.2241 60.4173 96.0378 60.7165C96.1513 60.7587 96.2071 60.8783 96.1617 60.9839C96.1276 61.0648 96.0434 61.1141 95.9554 61.1141H95.9545ZM119.088 59.7944C119.01 59.7944 118.934 59.7557 118.893 59.6871C118.835 59.5877 118.874 59.4619 118.981 59.4073C119.749 59.0167 120.506 58.5865 121.23 58.1281C121.331 58.0639 121.469 58.0885 121.539 58.1827C121.608 58.2768 121.581 58.4053 121.48 58.4686C120.744 58.9349 119.975 59.373 119.193 59.7698C119.159 59.7865 119.123 59.7953 119.087 59.7953L119.088 59.7944ZM91.2324 58.8548C91.1917 58.8548 91.1492 58.8443 91.1123 58.8223C90.3639 58.3736 89.6306 57.8853 88.9324 57.3715C88.8368 57.3003 88.8198 57.1709 88.8964 57.0821C88.9721 56.9932 89.1112 56.9774 89.2077 57.0486C89.8946 57.5545 90.6165 58.0349 91.3516 58.4765C91.4548 58.5381 91.4841 58.6657 91.4178 58.7616C91.3753 58.8232 91.3043 58.8557 91.2315 58.8557L91.2324 58.8548ZM123.479 57.0152C123.416 57.0152 123.352 56.9897 123.309 56.9413C123.23 56.8542 123.243 56.724 123.337 56.651C124.01 56.1302 124.663 55.5715 125.28 54.9917C125.366 54.9108 125.506 54.9099 125.593 54.99C125.68 55.07 125.681 55.2002 125.595 55.282C124.968 55.8715 124.304 56.439 123.621 56.9686C123.579 57.0003 123.529 57.0161 123.479 57.0161V57.0152ZM87.0685 55.7879C87.0127 55.7879 86.9578 55.7686 86.9143 55.7299C86.2728 55.1554 85.6541 54.5448 85.076 53.9157C84.9965 53.8295 85.0079 53.6993 85.1006 53.6254C85.1933 53.5515 85.3333 53.5612 85.4128 53.6483C85.9814 54.2668 86.5898 54.8677 87.2218 55.4334C87.3098 55.5126 87.3126 55.6428 87.2275 55.7246C87.184 55.7668 87.1262 55.7879 87.0676 55.7879H87.0685ZM127.212 53.5014C127.162 53.5014 127.113 53.4864 127.071 53.4556C126.977 53.3835 126.962 53.2542 127.039 53.1653C127.592 52.5327 128.118 51.8676 128.601 51.1893C128.669 51.0943 128.807 51.0688 128.909 51.1312C129.011 51.1946 129.038 51.3222 128.971 51.4172C128.48 52.106 127.946 52.7817 127.384 53.4257C127.34 53.4759 127.276 53.5014 127.212 53.5014ZM83.618 52.0339C83.548 52.0339 83.4789 52.0031 83.4364 51.9459C82.9264 51.2667 82.4458 50.5576 82.0096 49.8362C81.9491 49.7368 81.9869 49.611 82.0938 49.5556C82.2007 49.4992 82.336 49.5344 82.3956 49.6338C82.8252 50.343 83.2982 51.0415 83.7997 51.7093C83.8697 51.8025 83.8451 51.931 83.7448 51.9961C83.706 52.0216 83.6615 52.033 83.618 52.033V52.0339ZM130.144 49.384C130.109 49.384 130.074 49.3761 130.04 49.3602C129.933 49.3066 129.891 49.1816 129.949 49.0813C130.359 48.3617 130.737 47.6148 131.069 46.8617C131.115 46.7561 131.245 46.7068 131.358 46.749C131.472 46.7922 131.526 46.9127 131.479 47.0183C131.141 47.7837 130.758 48.5429 130.34 49.274C130.301 49.3435 130.224 49.3831 130.144 49.3831V49.384ZM81.0124 47.73C80.9273 47.73 80.8459 47.6843 80.809 47.6068C80.4495 46.8493 80.1268 46.0663 79.8496 45.2798C79.8118 45.1716 79.8752 45.0555 79.9915 45.0194C80.1079 44.9833 80.2328 45.0432 80.2716 45.1514C80.545 45.9247 80.862 46.6954 81.2149 47.4406C81.2641 47.5452 81.2139 47.6667 81.1013 47.7124C81.072 47.7247 81.0417 47.73 81.0124 47.73ZM132.164 44.8162C132.143 44.8162 132.121 44.8135 132.099 44.8074C131.982 44.7748 131.916 44.6596 131.951 44.5505C132.202 43.771 132.416 42.9704 132.585 42.1707C132.608 42.0589 132.726 41.9868 132.845 42.0079C132.965 42.0299 133.043 42.1381 133.02 42.2498C132.848 43.0628 132.632 43.8766 132.375 44.6692C132.347 44.7581 132.258 44.8162 132.164 44.8162ZM79.3567 43.0381C79.2555 43.0381 79.1637 42.973 79.141 42.8763C78.948 42.0686 78.7956 41.2425 78.6878 40.4208C78.6726 40.3073 78.7597 40.2052 78.8808 40.1912C79.0019 40.178 79.1126 40.258 79.1277 40.3706C79.2337 41.18 79.3841 41.993 79.5734 42.7874C79.5998 42.8982 79.5251 43.0082 79.4049 43.0337C79.3889 43.0373 79.3728 43.0381 79.3567 43.0381ZM133.186 39.9703C133.18 39.9703 133.172 39.9703 133.165 39.9695C133.042 39.9589 132.954 39.8577 132.965 39.7442C133.049 38.9366 133.092 38.1122 133.092 37.2949C133.092 36.877 133.08 36.4538 133.059 36.0368C133.053 35.9233 133.147 35.8266 133.27 35.8204C133.388 35.8098 133.496 35.9022 133.502 36.0166C133.525 36.4398 133.536 36.87 133.536 37.2949C133.536 38.1254 133.493 38.9621 133.408 39.7829C133.396 39.8894 133.3 39.9695 133.187 39.9695L133.186 39.9703ZM78.7143 38.1369C78.5941 38.1369 78.4957 38.048 78.4929 37.9354C78.4872 37.7225 78.4844 37.5096 78.4844 37.2958C78.4844 36.6791 78.508 36.0562 78.5553 35.4447C78.5638 35.3312 78.6689 35.2468 78.7919 35.2538C78.9139 35.2617 79.0057 35.3603 78.9972 35.4738C78.9508 36.0755 78.9272 36.6888 78.9272 37.2958C78.9272 37.5061 78.93 37.7163 78.9357 37.9257C78.9385 38.0392 78.842 38.1342 78.72 38.1369H78.7143ZM133.021 33.774C132.913 33.774 132.818 33.7001 132.802 33.5981C132.674 32.7922 132.503 31.9828 132.291 31.1928C132.262 31.0828 132.334 30.9702 132.453 30.9429C132.571 30.9165 132.692 30.9825 132.722 31.0933C132.936 31.8957 133.112 32.7183 133.241 33.5383C133.259 33.6509 133.175 33.7556 133.054 33.7723C133.042 33.774 133.032 33.7749 133.022 33.7749L133.021 33.774ZM79.0946 33.211C79.0823 33.211 79.07 33.2101 79.0568 33.2083C78.9357 33.189 78.8552 33.0825 78.8751 32.9708C79.0246 32.1535 79.2195 31.3344 79.4532 30.5373C79.4854 30.4273 79.6074 30.364 79.7257 30.393C79.844 30.4229 79.913 30.5364 79.8808 30.6464C79.65 31.4303 79.4589 32.2362 79.3113 33.0403C79.2933 33.1406 79.1987 33.2119 79.0927 33.2119L79.0946 33.211ZM131.738 28.9819C131.647 28.9819 131.561 28.9291 131.529 28.8446C131.234 28.0774 130.897 27.3147 130.523 26.5774C130.471 26.4745 130.518 26.3513 130.629 26.3029C130.74 26.2537 130.872 26.2985 130.924 26.4015C131.303 27.1502 131.647 27.9252 131.946 28.7056C131.987 28.8129 131.927 28.9308 131.812 28.9695C131.787 28.9775 131.761 28.9819 131.737 28.9819H131.738ZM80.4939 28.4478C80.4674 28.4478 80.441 28.4434 80.4145 28.4346C80.3 28.3942 80.2432 28.2745 80.2867 28.1681C80.6046 27.3947 80.967 26.6267 81.3644 25.8859C81.4192 25.7839 81.5526 25.7425 81.6614 25.7935C81.7712 25.8446 81.8157 25.9677 81.7608 26.0698C81.37 26.7991 81.0134 27.554 80.7002 28.315C80.6661 28.3968 80.5819 28.4478 80.493 28.4478H80.4939ZM129.476 24.5143C129.4 24.5143 129.326 24.4783 129.285 24.414C128.837 23.7146 128.346 23.0275 127.826 22.3721C127.753 22.2806 127.774 22.1512 127.873 22.0835C127.971 22.0158 128.11 22.0351 128.183 22.1266C128.711 22.7935 129.211 23.4911 129.667 24.202C129.729 24.2997 129.695 24.4264 129.59 24.4844C129.554 24.5038 129.515 24.5135 129.477 24.5135L129.476 24.5143ZM82.864 24.0287C82.8233 24.0287 82.7826 24.019 82.7467 23.997C82.6426 23.9363 82.6114 23.8096 82.6766 23.7129C83.1497 23.0117 83.6653 22.3237 84.2094 21.6682C84.285 21.5785 84.4232 21.5618 84.5206 21.6313C84.6171 21.7008 84.6351 21.8301 84.5604 21.9207C84.0249 22.5647 83.5177 23.2422 83.0522 23.9319C83.0106 23.9944 82.9378 24.0287 82.864 24.0287ZM126.325 20.5386C126.264 20.5386 126.204 20.5157 126.16 20.47C125.574 19.8638 124.95 19.277 124.305 18.7271C124.215 18.6506 124.209 18.5195 124.292 18.4359C124.374 18.3523 124.515 18.3462 124.605 18.4236C125.261 18.9823 125.895 19.5788 126.491 20.1946C126.573 20.2791 126.565 20.4093 126.474 20.4858C126.431 20.521 126.378 20.5386 126.325 20.5386ZM86.1101 20.1189C86.0552 20.1189 86.0013 20.1005 85.9578 20.0626C85.8689 19.9843 85.8641 19.8541 85.9483 19.7714C86.5586 19.1679 87.2067 18.5855 87.8765 18.04C87.9683 17.9652 88.1083 17.9732 88.1897 18.0594C88.271 18.1456 88.2616 18.2749 88.1689 18.3506C87.5104 18.8873 86.8727 19.46 86.2719 20.0547C86.2284 20.0978 86.1697 20.1198 86.1101 20.1198V20.1189ZM122.409 17.2007C122.363 17.2007 122.316 17.1875 122.276 17.1594C121.575 16.6693 120.84 16.2057 120.094 15.7816C119.99 15.7227 119.957 15.596 120.02 15.4983C120.083 15.4007 120.22 15.3699 120.325 15.4297C121.084 15.8608 121.83 16.3315 122.542 16.8294C122.64 16.8981 122.66 17.0274 122.586 17.118C122.542 17.1717 122.476 17.1998 122.408 17.1998L122.409 17.2007ZM90.1046 16.8638C90.0356 16.8638 89.9674 16.8338 89.9239 16.7775C89.853 16.6852 89.8757 16.5567 89.975 16.4898C90.6988 16.006 91.4566 15.5511 92.2258 15.1367C92.3318 15.0796 92.4671 15.113 92.5286 15.2115C92.5901 15.3101 92.5541 15.4359 92.4482 15.4931C91.6913 15.9013 90.9467 16.3491 90.2333 16.825C90.1945 16.8514 90.1491 16.8638 90.1046 16.8638ZM117.875 14.6291C117.843 14.6291 117.81 14.6221 117.779 14.6089C116.99 14.2543 116.173 13.9323 115.351 13.6517C115.236 13.6121 115.177 13.4942 115.219 13.3869C115.262 13.2795 115.389 13.225 115.504 13.2646C116.34 13.5496 117.169 13.8778 117.972 14.2376C118.081 14.2869 118.128 14.41 118.075 14.513C118.037 14.5869 117.957 14.6291 117.875 14.6291ZM94.699 14.3872C94.6148 14.3872 94.5344 14.3423 94.4975 14.2666C94.4464 14.1628 94.4956 14.0405 94.6072 13.993C95.419 13.649 96.2563 13.3394 97.0974 13.0719C97.2138 13.0358 97.3396 13.0921 97.3794 13.2003C97.4191 13.3077 97.3576 13.4256 97.2412 13.4616C96.4134 13.7247 95.5893 14.03 94.7908 14.3678C94.7614 14.3801 94.7293 14.3863 94.699 14.3863V14.3872ZM112.89 12.9259C112.872 12.9259 112.853 12.9241 112.834 12.9188C111.988 12.7147 111.12 12.5467 110.253 12.42C110.132 12.4024 110.05 12.2968 110.069 12.1842C110.088 12.0716 110.2 11.995 110.322 12.0126C111.204 12.142 112.087 12.3126 112.946 12.5203C113.064 12.5484 113.135 12.661 113.105 12.7719C113.079 12.8643 112.989 12.9259 112.89 12.9259ZM99.7239 12.7886C99.6236 12.7886 99.5327 12.7244 99.5081 12.6294C99.4797 12.5185 99.5535 12.4077 99.6728 12.3813C100.538 12.1912 101.425 12.0399 102.308 11.9291C102.43 11.9141 102.54 11.9933 102.557 12.1059C102.573 12.2185 102.487 12.3223 102.366 12.3373C101.498 12.4455 100.626 12.5959 99.774 12.7825C99.757 12.786 99.7399 12.7877 99.7229 12.7877L99.7239 12.7886ZM107.645 12.1578C107.645 12.1578 107.636 12.1578 107.632 12.1578C106.754 12.1094 105.856 12.1015 104.995 12.1314C104.869 12.1367 104.77 12.047 104.765 11.9335C104.76 11.82 104.856 11.7241 104.978 11.7197C105.853 11.6898 106.766 11.6977 107.657 11.7469C107.779 11.754 107.873 11.8516 107.865 11.9651C107.859 12.0742 107.76 12.1596 107.644 12.1596L107.645 12.1578Z" fill="black"/>
<path d="M119.153 46.51C119.108 46.51 119.062 46.4968 119.023 46.4704L105.527 37.3383C105.482 37.3075 105.45 37.2618 105.44 37.2107L102.059 21.0632C102.035 20.9515 102.114 20.8433 102.234 20.8213C102.354 20.7993 102.47 20.8723 102.494 20.9841L105.858 37.0524L119.284 46.137C119.383 46.2039 119.405 46.3332 119.333 46.4247C119.289 46.4801 119.222 46.5092 119.153 46.5092V46.51Z" fill="black"/>
<path d="M105.658 37.3779C105.642 37.3779 105.625 37.3761 105.609 37.3735L89.2093 33.9951C89.0901 33.9705 89.0144 33.8605 89.0409 33.7497C89.0674 33.6379 89.1866 33.5693 89.3058 33.5931L105.706 36.9714C105.825 36.9961 105.901 37.106 105.874 37.2169C105.852 37.3128 105.76 37.3788 105.658 37.3788V37.3779Z" fill="black"/>
<path d="M111.276 38.4495C111.963 35.7426 110.16 33.0304 107.249 32.3915C104.338 31.7526 101.422 33.429 100.734 36.1359C100.047 38.8428 101.85 41.555 104.761 42.1939C107.672 42.8328 110.589 41.1563 111.276 38.4495Z" fill="black"/>
<path d="M92.9898 34.4605C93.3867 32.5439 92.0376 30.6909 89.9765 30.3219C87.9153 29.9528 85.9227 31.2073 85.5258 33.1239C85.1289 35.0405 86.478 36.8934 88.5391 37.2625C90.6003 37.6316 92.5929 36.3771 92.9898 34.4605Z" fill="white"/>
<path d="M89.2583 37.5339C87.0405 37.5339 85.2354 35.8562 85.2354 33.7931C85.2354 31.73 87.0396 30.0522 89.2583 30.0522C91.4769 30.0522 93.2812 31.73 93.2812 33.7931C93.2812 35.8562 91.4769 37.5339 89.2583 37.5339ZM89.2583 30.4657C87.2846 30.4657 85.6791 31.9587 85.6791 33.794C85.6791 35.6292 87.2846 37.1222 89.2583 37.1222C91.2319 37.1222 92.8374 35.6292 92.8374 33.794C92.8374 31.9587 91.2319 30.4657 89.2583 30.4657Z" fill="black"/>
<path d="M104.964 23.5234C106.448 22.1432 106.448 19.9056 104.964 18.5254C103.479 17.1453 101.073 17.1453 99.5888 18.5254C98.1046 19.9056 98.1046 22.1432 99.5888 23.5234C101.073 24.9035 103.479 24.9035 104.964 23.5234Z" fill="white"/>
<path d="M102.276 24.7654C100.058 24.7654 98.2532 23.0876 98.2532 21.0245C98.2532 18.9614 100.057 17.2837 102.276 17.2837C104.495 17.2837 106.299 18.9614 106.299 21.0245C106.299 23.0876 104.495 24.7654 102.276 24.7654ZM102.276 17.6963C100.302 17.6963 98.6969 19.1893 98.6969 21.0245C98.6969 22.8597 100.302 24.3527 102.276 24.3527C104.25 24.3527 105.855 22.8597 105.855 21.0245C105.855 19.1893 104.25 17.6963 102.276 17.6963Z" fill="black"/>
<path d="M122.879 47.016C123.301 45.104 121.976 43.2359 119.92 42.8435C117.864 42.451 115.855 43.6828 115.433 45.5947C115.011 47.5067 116.335 49.3748 118.391 49.7673C120.448 50.1597 122.456 48.9279 122.879 47.016Z" fill="white"/>
<path d="M119.153 50.0442C116.936 50.0442 115.13 48.3664 115.13 46.3033C115.13 44.2402 116.935 42.5625 119.153 42.5625C121.372 42.5625 123.176 44.2402 123.176 46.3033C123.176 48.3664 121.372 50.0442 119.153 50.0442ZM119.153 42.976C117.18 42.976 115.574 44.469 115.574 46.3042C115.574 48.1394 117.18 49.6324 119.153 49.6324C121.127 49.6324 122.732 48.1394 122.732 46.3042C122.732 44.469 121.127 42.976 119.153 42.976Z" fill="black"/>
<path d="M55.487 79.7164C55.365 79.7164 55.2656 79.624 55.2656 79.5105V70.1312C55.2656 70.0168 55.365 69.9253 55.487 69.9253C55.6091 69.9253 55.7084 70.0177 55.7084 70.1312V79.5105C55.7084 79.6249 55.6091 79.7164 55.487 79.7164Z" fill="black"/>
<path d="M77.4567 79.7164C77.3347 79.7164 77.2354 79.624 77.2354 79.5105V70.1312C77.2354 70.0168 77.3347 69.9253 77.4567 69.9253C77.5788 69.9253 77.6781 70.0177 77.6781 70.1312V79.5105C77.6781 79.6249 77.5788 79.7164 77.4567 79.7164Z" fill="black"/>
<path d="M99.4257 79.7164C99.3037 79.7164 99.2043 79.624 99.2043 79.5105V70.1312C99.2043 70.0168 99.3037 69.9253 99.4257 69.9253C99.5478 69.9253 99.6471 70.0177 99.6471 70.1312V79.5105C99.6471 79.6249 99.5478 79.7164 99.4257 79.7164Z" fill="black"/>
<path d="M121.396 79.7164C121.274 79.7164 121.174 79.624 121.174 79.5105V70.1312C121.174 70.0168 121.274 69.9253 121.396 69.9253C121.518 69.9253 121.617 70.0177 121.617 70.1312V79.5105C121.617 79.6249 121.518 79.7164 121.396 79.7164Z" fill="black"/>
<path d="M130.59 81.2623H46.2924C46.1704 81.2623 46.071 81.1699 46.071 81.0565C46.071 80.943 46.1704 80.8506 46.2924 80.8506H130.589C130.711 80.8506 130.81 80.943 130.81 81.0565C130.81 81.1699 130.711 81.2623 130.589 81.2623H130.59Z" fill="black"/>
<path d="M130.59 93.7343H46.2924C46.1704 93.7343 46.071 93.6419 46.071 93.5284C46.071 93.4149 46.1704 93.3225 46.2924 93.3225H130.589C130.711 93.3225 130.81 93.4149 130.81 93.5284C130.81 93.6419 130.711 93.7343 130.589 93.7343H130.59Z" fill="black"/>
<path d="M130.59 68.7906H46.2924C46.1704 68.7906 46.071 68.6983 46.071 68.5848C46.071 68.4713 46.1704 68.3789 46.2924 68.3789H130.589C130.711 68.3789 130.81 68.4713 130.81 68.5848C130.81 68.6983 130.711 68.7906 130.589 68.7906H130.59Z" fill="black"/>
<path d="M66.4712 92.1881C66.3491 92.1881 66.2498 92.0957 66.2498 91.9822V82.6028C66.2498 82.4885 66.3491 82.397 66.4712 82.397C66.5932 82.397 66.6925 82.4894 66.6925 82.6028V91.9822C66.6925 92.0966 66.5932 92.1881 66.4712 92.1881Z" fill="black"/>
<path d="M88.4411 92.1881C88.3191 92.1881 88.2197 92.0957 88.2197 91.9822V82.6028C88.2197 82.4885 88.3191 82.397 88.4411 82.397C88.5632 82.397 88.6625 82.4894 88.6625 82.6028V91.9822C88.6625 92.0966 88.5632 92.1881 88.4411 92.1881Z" fill="black"/>
<path d="M44.5024 92.1881C44.3803 92.1881 44.281 92.0957 44.281 91.9822V82.6028C44.281 82.4885 44.3803 82.397 44.5024 82.397C44.6244 82.397 44.7238 82.4894 44.7238 82.6028V91.9822C44.7238 92.0966 44.6244 92.1881 44.5024 92.1881Z" fill="black"/>
<path d="M110.411 92.1881C110.289 92.1881 110.189 92.0957 110.189 91.9822V82.6028C110.189 82.4885 110.289 82.397 110.411 82.397C110.533 82.397 110.632 82.4894 110.632 82.6028V91.9822C110.632 92.0966 110.533 92.1881 110.411 92.1881Z" fill="black"/>
<path d="M132.38 92.1881C132.258 92.1881 132.159 92.0957 132.159 91.9822V82.6028C132.159 82.4885 132.258 82.397 132.38 82.397C132.502 82.397 132.601 82.4894 132.601 82.6028V91.9822C132.601 92.0966 132.502 92.1881 132.38 92.1881Z" fill="black"/>
<path d="M55.487 104.66C55.365 104.66 55.2656 104.568 55.2656 104.454V95.0748C55.2656 94.9604 55.365 94.8689 55.487 94.8689C55.6091 94.8689 55.7084 94.9613 55.7084 95.0748V104.454C55.7084 104.568 55.6091 104.66 55.487 104.66Z" fill="black"/>
<path d="M77.4567 104.66C77.3347 104.66 77.2354 104.568 77.2354 104.454V95.0748C77.2354 94.9604 77.3347 94.8689 77.4567 94.8689C77.5788 94.8689 77.6781 94.9613 77.6781 95.0748V104.454C77.6781 104.568 77.5788 104.66 77.4567 104.66Z" fill="black"/>
<path d="M99.4257 104.66C99.3037 104.66 99.2043 104.568 99.2043 104.454V95.0748C99.2043 94.9604 99.3037 94.8689 99.4257 94.8689C99.5478 94.8689 99.6471 94.9613 99.6471 95.0748V104.454C99.6471 104.568 99.5478 104.66 99.4257 104.66Z" fill="black"/>
<path d="M121.396 104.66C121.274 104.66 121.174 104.568 121.174 104.454V95.0748C121.174 94.9604 121.274 94.8689 121.396 94.8689C121.518 94.8689 121.617 94.9613 121.617 95.0748V104.454C121.617 104.568 121.518 104.66 121.396 104.66Z" fill="black"/>
<path d="M41.7203 45.9386C42.2653 45.899 44.9409 50.9938 53.3141 50.7809C61.6873 50.5671 68.4047 41.8555 68.4047 41.8555C68.4047 41.8555 71.2961 37.3212 73.4911 35.6821C75.6851 34.0431 76.0295 33.8267 76.0295 33.8267C76.0295 33.8267 76.7173 34.6792 76.0295 35.6821C75.3417 36.6851 73.4419 38.5616 73.4419 38.5616C73.4419 38.5616 75.5347 39.6297 74.5905 41.8555C73.5053 44.4148 70.4465 44.209 70.4465 44.209C70.4465 44.209 64.238 69.7666 38.582 57.6221L41.7203 45.9395V45.9386Z" fill="white"/>
<path d="M51.3053 61.1018C47.4101 61.1018 43.1223 60.0021 38.4815 57.8053C38.3898 57.7613 38.3425 57.6645 38.3671 57.5713L41.5053 45.8886C41.528 45.8024 41.6085 45.74 41.7031 45.7329C41.9216 45.7197 42.1014 45.9001 42.529 46.3435C43.7978 47.6596 46.7696 50.7406 53.3082 50.5744C61.4732 50.3667 68.1576 41.8214 68.2248 41.7343C68.3336 41.5628 71.1521 37.1638 73.3518 35.5204C75.5279 33.8946 75.8912 33.6641 75.9054 33.6544C76.0038 33.5928 76.1362 33.6139 76.2072 33.7019C76.2393 33.7415 76.9783 34.6811 76.2166 35.7923C75.6423 36.6289 74.2733 38.0304 73.7813 38.5249C74.3301 38.9049 75.6017 40.0337 74.7975 41.9305C73.8258 44.2223 71.3271 44.4115 70.6203 44.4168C70.2343 45.8218 67.1992 55.8627 58.544 59.6405C56.3131 60.6144 53.8967 61.1009 51.3062 61.1009L51.3053 61.1018ZM38.8401 57.5114C46.3703 61.0411 52.9335 61.6323 58.352 59.2692C67.4243 55.3102 70.2031 44.2742 70.2305 44.1625C70.2551 44.0631 70.3535 43.9936 70.4623 44.0024C70.5815 44.0103 73.3735 44.1625 74.3849 41.7783C75.2431 39.7539 73.4133 38.7809 73.3347 38.7404C73.2751 38.7096 73.2335 38.6551 73.2231 38.5917C73.2127 38.5293 73.2335 38.465 73.2808 38.4184C73.2997 38.3999 75.174 36.5445 75.8429 35.5688C76.2687 34.9477 76.1003 34.3987 75.9621 34.1268C75.6859 34.3213 75.0453 34.7832 73.6299 35.8407C71.4917 37.4375 68.624 41.9138 68.5956 41.9587C68.5171 42.0616 61.7069 50.7714 53.3205 50.9852C53.1445 50.9896 52.9695 50.9922 52.7982 50.9922C46.4166 50.9922 43.4752 47.9403 42.1988 46.6171C42.0787 46.4922 41.9557 46.3655 41.8582 46.2731L38.8392 57.5106L38.8401 57.5114Z" fill="black"/>
<path d="M0.222412 57.6218C0.222412 57.6218 2.73531 42.5415 11.6118 38.8306C20.4893 35.1205 32.4984 35.6361 35.8098 37.4889C39.1212 39.3417 47.7537 47.7199 47.7537 47.7199L40.3115 60.8955C40.3115 60.8955 34.0084 74.1371 37.1647 77.3448C37.1647 77.3448 32.0064 92.2342 28.4074 90.9163C24.8083 89.5983 14.4048 84.0355 10.3289 75.477L8.34676 56.4218L0.222412 57.6227V57.6218Z" fill="white"/>
<path d="M28.8727 91.2038C28.6854 91.2038 28.5028 91.1712 28.3259 91.107C24.934 89.8648 14.3091 84.3424 10.1254 75.5595C10.1159 75.5393 10.1102 75.5182 10.1074 75.4962L8.14796 56.6592L0.25636 57.8258C0.185401 57.8372 0.115388 57.8143 0.0652431 57.7686C0.0150987 57.7219 -0.00855438 57.656 0.00279908 57.5909C0.105926 56.9706 2.63585 42.3574 11.5209 38.643C20.2678 34.9875 32.3545 35.3157 35.9242 37.3128C39.2233 39.1586 47.5605 47.235 47.9134 47.5772C47.9797 47.6414 47.9939 47.7373 47.9494 47.8156L40.5072 60.9912C40.4514 61.11 34.3044 74.1334 37.3273 77.2056C37.3812 77.2601 37.3992 77.3375 37.3746 77.4079C37.2043 77.9006 33.1549 89.4873 29.6571 91.027C29.3884 91.1457 29.1254 91.2047 28.8718 91.2047L28.8727 91.2038ZM10.5464 75.4223C14.679 84.0617 25.1441 89.4979 28.4886 90.7225C28.7904 90.8334 29.1102 90.8105 29.4679 90.653C32.6213 89.2656 36.4862 78.5965 36.9148 77.3903C33.8948 73.9785 39.8515 61.3519 40.1089 60.8117L47.483 47.7558C46.4659 46.7748 38.7427 39.3706 35.6962 37.6656C32.5787 35.9218 20.5866 35.306 11.7035 39.0187C3.69835 42.3645 0.894992 55.2973 0.493836 57.3727L8.31258 56.2175C8.37313 56.2078 8.43463 56.2228 8.48288 56.258C8.53114 56.2932 8.56236 56.3442 8.56804 56.4014L10.5464 75.4231V75.4223Z" fill="black"/>
<path d="M17.1579 75.2979L18.7266 49.4544C18.7361 48.7646 19.3406 48.2095 20.0824 48.2095H36.0737C36.8174 48.2095 37.422 48.7655 37.4295 49.457L37.7389 75.8197L17.157 75.2979H17.1579Z" fill="black"/>
<path d="M21.1439 50.8997C21.1231 50.8997 21.1032 50.8997 21.0824 50.8979C20.4296 50.8662 19.9282 50.3498 19.9613 49.7428C20.2972 43.6723 18.843 40.9687 17.5629 39.7695C16.4171 38.6953 14.1767 37.9018 14.172 37.8991C13.5163 37.9255 15.3953 37.2323 16.0481 37.2059C16.2695 37.1971 17.3651 36.4589 19.2432 38.2194C21.5924 40.4223 22.6293 44.3374 22.3247 49.8554C22.2925 50.4431 21.7693 50.8988 21.1439 50.8988V50.8997Z" fill="black"/>
<path d="M35.575 50.9C35.5532 50.9 35.5305 50.9001 35.5088 50.8983C34.8559 50.8649 34.3583 50.3449 34.3923 49.7387C35.1048 37.164 30.8643 36.7928 31.0062 36.1989C31.1481 35.6051 32.9136 36.3608 33.5522 36.4927C34.4103 36.6696 36.8759 37.3892 36.7558 49.8601C36.7501 50.447 36.1985 50.8992 35.575 50.8992V50.9Z" fill="black"/>
<path d="M39.4835 68.1624H22.2102L27.6201 50.2192H44.8944L39.4835 68.1624Z" fill="white"/>
<path d="M39.4834 68.3676H22.2091C22.1401 68.3676 22.0748 68.3377 22.0322 68.2858C21.9906 68.2338 21.9764 68.1679 21.9953 68.1054L27.4062 50.1631C27.4327 50.0743 27.5207 50.0127 27.62 50.0127H44.8943C44.9634 50.0127 45.0286 50.0426 45.0712 50.0945C45.1128 50.1464 45.127 50.2124 45.1081 50.2749L39.6972 68.2171C39.6707 68.306 39.5828 68.3676 39.4834 68.3676ZM22.5024 67.9558H39.316L44.6019 50.4253H27.7884L22.5024 67.9558Z" fill="black"/>
<path d="M1.74548 57.6788L10.4876 54.0444C10.4876 54.0444 9.25579 67.8183 26.9445 61.4584C26.9445 61.4584 26.2926 59.6882 26.3844 57.6207C26.4761 55.5533 27.8064 57.5539 27.9928 59.2343C28.1792 60.9146 32.3317 60.2328 34.8276 59.5703C37.3234 58.9079 40.5989 59.3416 34.8276 62.3021C29.0562 65.2625 27.7922 63.942 27.7922 63.942C27.7922 63.942 20.4219 73.5316 11.2521 71.4949C-0.0275564 68.9884 1.74548 57.6788 1.74548 57.6788Z" fill="white"/>
<path d="M13.8104 71.9813C12.9599 71.9813 12.0885 71.8924 11.2001 71.6954C5.26978 70.3775 2.95368 66.6226 2.05581 63.7043C1.08698 60.5573 1.508 57.7676 1.52598 57.6497C1.53733 57.5802 1.58559 57.5203 1.65465 57.4913L10.3968 53.8578C10.4687 53.8279 10.552 53.8358 10.6154 53.878C10.6797 53.9203 10.7147 53.9907 10.7081 54.0628C10.7034 54.1129 10.3041 59.1171 13.8312 61.5682C16.5598 63.465 20.8789 63.3867 26.6701 61.3359C26.5045 60.8204 26.0863 59.3265 26.163 57.6127C26.1743 57.3497 26.2103 56.5491 26.7316 56.5341C26.7354 56.5341 26.7401 56.5341 26.7439 56.5341C27.4251 56.5341 28.0931 58.1274 28.2132 59.2139C28.2388 59.4435 28.3561 59.6213 28.5737 59.7576C29.6116 60.4104 32.5578 59.9582 34.7661 59.3723C35.9222 59.0652 37.8807 58.8611 38.2166 59.6177C38.5032 60.2653 37.4294 61.2022 34.9335 62.4823C30.1944 64.9131 28.4015 64.5243 27.8367 64.2278C26.8953 65.3706 21.1334 71.9804 13.8095 71.9804L13.8104 71.9813ZM1.94984 57.8203C1.88267 58.3711 1.64519 60.8855 2.48535 63.604C3.74653 67.688 6.71356 70.2754 11.3023 71.2942C12.1557 71.4842 12.9958 71.5696 13.8142 71.5696C21.5582 71.5704 27.5443 63.9075 27.6105 63.8222C27.6493 63.7712 27.7118 63.7395 27.779 63.736C27.849 63.7325 27.9114 63.758 27.9568 63.8046C27.9653 63.8117 29.2615 64.9211 34.7197 62.1216C37.9876 60.4456 37.8353 59.8386 37.8069 59.7752C37.6669 59.4585 36.3328 59.3855 34.8881 59.7691C33.7187 60.0796 29.7885 61.021 28.3249 60.099C27.9975 59.8931 27.8111 59.6089 27.7723 59.2553C27.6351 58.0227 26.9662 56.9758 26.7448 56.9458C26.7486 56.952 26.6313 57.0584 26.6058 57.6294C26.5168 59.6353 27.1479 61.3747 27.1545 61.3914C27.1933 61.4961 27.1356 61.6104 27.0249 61.6509C20.982 63.824 16.4539 63.9067 13.5644 61.8964C10.3514 59.6608 10.2142 55.5831 10.2492 54.3698L1.95079 57.8195L1.94984 57.8203Z" fill="black"/>
<path d="M25.0808 31.9575C24.3258 32.6006 22.8498 33.3854 21.6937 32.8443C20.8337 32.4414 20.353 31.3979 20.3824 30.2023C19.984 30.2322 19.4618 30.2067 19.089 29.9005C18.5157 29.429 18.6226 28.5615 18.6453 27.9914C18.7484 25.36 17.105 24.9562 17.5071 23.1702C17.8231 21.767 19.0086 20.9303 19.23 20.7746C20.3492 19.9854 21.1071 20.2397 22.9889 19.7813C26.1556 19.0097 29.0819 24.4415 27.852 25.4708C25.6929 27.277 27.3231 30.0483 25.0799 31.9575H25.0808Z" fill="black"/>
<path d="M31.4 27.2612L31.2752 27.1609C30.6488 26.6586 29.996 26.0762 29.8295 25.3222C29.1227 22.1189 25.9674 20.9567 25.8217 23.8978C25.7848 24.6403 22.8698 24.6016 23.2161 25.3811C24.1177 27.4125 24.1376 26.8653 22.8651 27.614C22.7203 27.6193 22.5775 27.6492 22.4431 27.7073C21.7903 27.9906 21.5594 28.814 21.9275 29.5478C22.1508 29.9929 22.5434 30.2991 22.9635 30.4108V33.6194C22.9635 34.8221 22.181 35.9059 20.9832 36.3608L19.8176 36.8033C19.8176 36.8033 25.2512 40.1007 30.7661 36.4804L30.0301 36.1734C28.7339 35.6332 27.8833 34.4517 27.8379 33.1311L27.8322 32.5038C28.2031 32.5346 28.5626 32.5109 28.8938 32.4211C30.4359 32.0041 30.9487 30.351 30.6867 28.2967L31.3149 27.9826C31.6082 27.8366 31.6517 27.4618 31.4 27.2603V27.2612Z" fill="white"/>
<path d="M25.1904 38.3736C22.054 38.3736 19.7322 36.9985 19.6972 36.9765C19.6281 36.9343 19.5893 36.8604 19.5978 36.7838C19.6054 36.7073 19.6584 36.6413 19.735 36.6123L20.9007 36.1697C22.0199 35.7448 22.7427 34.7427 22.7427 33.6192V30.5567C22.3132 30.3957 21.9414 30.0596 21.7276 29.6338C21.3094 28.798 21.5885 27.8496 22.3511 27.5197C22.4892 27.4599 22.6396 27.4229 22.7967 27.4106C23.0077 27.2883 23.1799 27.203 23.3208 27.1326C23.4902 27.049 23.6359 26.976 23.6397 26.9355C23.6501 26.8388 23.5242 26.5687 23.3492 26.1939C23.2565 25.9951 23.1439 25.754 23.0124 25.4575C22.9499 25.3176 22.9518 25.1769 23.0181 25.0511C23.1922 24.7185 23.7542 24.5716 24.4051 24.4027C24.8772 24.2795 25.5906 24.0938 25.601 23.8871C25.6814 22.2709 26.5887 22.0308 26.9757 22.0026C28.0864 21.9181 29.5775 23.1516 30.0478 25.2798C30.202 25.9792 30.8378 26.5361 31.4206 27.0033L31.5455 27.1036C31.7195 27.2426 31.8075 27.4529 31.7829 27.6649C31.7574 27.8769 31.6221 28.0634 31.4206 28.1637L30.9248 28.4118C31.1784 30.6808 30.4659 32.2107 28.9569 32.6189C28.6797 32.6937 28.376 32.7289 28.0571 32.721L28.0609 33.1283C28.1025 34.3565 28.9115 35.4791 30.1215 35.9841L30.8576 36.2911C30.9305 36.321 30.9797 36.3853 30.9873 36.4592C30.9948 36.5331 30.9598 36.6043 30.8945 36.6474C28.9096 37.9504 26.9256 38.3709 25.1904 38.3709V38.3736ZM20.3245 36.8348C21.6112 37.463 25.9264 39.1803 30.3136 36.519L29.9399 36.3633C28.5756 35.7949 27.6645 34.5289 27.6172 33.1398L27.6105 32.5081C27.6105 32.45 27.6361 32.3946 27.6815 32.355C27.7279 32.3154 27.7884 32.2952 27.8518 32.3013C28.2085 32.3312 28.5387 32.3057 28.832 32.2265C30.1414 31.872 30.7375 30.4494 30.4659 28.3238C30.4555 28.2394 30.5009 28.1576 30.5814 28.118L31.2096 27.8039C31.2843 27.7669 31.3316 27.701 31.3411 27.6227C31.3506 27.5444 31.3193 27.4704 31.255 27.4185L31.1301 27.3182C30.4915 26.8062 29.7951 26.1912 29.6125 25.3651C29.2048 23.5176 27.9332 22.3519 27.0098 22.4161C26.4402 22.4575 26.0882 23.0012 26.0438 23.9082C26.0192 24.4123 25.2925 24.6015 24.5243 24.8021C24.0929 24.9147 23.5034 25.0686 23.4164 25.234C23.4117 25.2437 23.4022 25.2604 23.4221 25.3027C23.5526 25.5956 23.6643 25.8349 23.756 26.032C24.1903 26.9628 24.2688 27.1309 23.5299 27.4986C23.3852 27.5707 23.2045 27.6605 22.985 27.7889C22.9518 27.8083 22.914 27.8197 22.8752 27.8206C22.7541 27.825 22.6406 27.8505 22.5374 27.8945C21.9963 28.1285 21.8127 28.8315 22.1287 29.4605C22.3151 29.8318 22.65 30.1133 23.0247 30.2127C23.1203 30.2382 23.1855 30.3192 23.1855 30.4107V33.6192C23.1855 34.9116 22.3539 36.0624 21.0681 36.5516L20.3254 36.834L20.3245 36.8348Z" fill="black"/>
<path d="M27.833 32.7112C27.8217 32.7112 27.8103 32.7112 27.799 32.7085C25.5775 32.3918 24.5803 30.8161 24.5386 30.7493C24.4781 30.6507 24.514 30.5249 24.62 30.4686C24.726 30.4114 24.8613 30.4457 24.9228 30.5443C24.9322 30.5592 25.8623 32.0162 27.8662 32.3021C27.9873 32.3197 28.0705 32.4244 28.0516 32.537C28.0346 32.639 27.9409 32.7121 27.833 32.7121V32.7112Z" fill="black"/>
<path d="M30.8302 21.0795C30.7233 20.8164 30.6003 20.5551 30.4565 20.3C28.5595 16.9419 24.0948 15.6486 20.4825 17.4125C16.8711 19.1765 15.4803 23.3282 17.3773 26.6872C17.5221 26.9432 17.6829 27.1851 17.8551 27.4165L30.8302 21.0803V21.0795Z" fill="white"/>
<path d="M17.855 27.6215C17.7841 27.6215 17.7159 27.5898 17.6724 27.5327C17.4841 27.2802 17.3233 27.0347 17.1804 26.7813C16.2353 25.108 16.0479 23.1936 16.6516 21.3891C17.2561 19.5847 18.5798 18.1076 20.3783 17.2287C22.1769 16.3498 24.2366 16.1756 26.1771 16.7377C28.1176 17.299 29.7061 18.5299 30.6513 20.2032C30.7923 20.4531 30.9219 20.724 31.0364 21.0064C31.0761 21.1041 31.0307 21.2132 30.9323 21.2616L17.9572 27.5978C17.9241 27.6136 17.8891 27.6215 17.8541 27.6215H17.855ZM23.9083 16.8275C22.7635 16.8275 21.6282 17.0853 20.5855 17.5946C18.891 18.4216 17.645 19.8135 17.0754 21.5123C16.5068 23.2112 16.6828 25.0147 17.5731 26.5904C17.679 26.7778 17.7954 26.9608 17.9269 27.1473L30.551 20.9827C30.4611 20.7777 30.3637 20.5806 30.2596 20.3959C29.3703 18.8202 27.8735 17.6615 26.0465 17.1328C25.3436 16.9295 24.6236 16.8284 23.9083 16.8284V16.8275Z" fill="black"/>
<path d="M17.7349 28.8516L17.855 27.4158L30.8301 21.0796L33.8511 20.9819L17.7349 28.8516Z" fill="white"/>
<path d="M17.7349 29.0583C17.6923 29.0583 17.6497 29.0468 17.6128 29.024C17.5457 28.9826 17.5078 28.9105 17.5135 28.8357L17.6337 27.3999C17.6393 27.3295 17.6838 27.2662 17.7519 27.2336L30.727 20.8974C30.7564 20.8834 30.7895 20.8754 30.8226 20.8737L33.8436 20.776C33.9457 20.7681 34.0394 20.8358 34.0659 20.9291C34.0924 21.0215 34.046 21.1191 33.9542 21.164L17.838 29.0345C17.8058 29.0504 17.7699 29.0583 17.7349 29.0583ZM18.067 27.5451L17.9875 28.4961L32.8889 21.2194L30.8888 21.2837L18.067 27.5451Z" fill="black"/>
<path d="M20.4529 30.8022C20.3555 30.8022 20.258 30.7688 20.1823 30.7019C20.0243 30.5629 20.0177 30.3307 20.1672 30.1837C21.7964 28.5843 21.3972 27.0165 21.3934 27.0007C21.3404 26.8045 21.4691 26.6048 21.6801 26.5555C21.892 26.5062 22.1058 26.6259 22.1588 26.8221C22.1806 26.9021 22.664 28.799 20.7406 30.6878C20.663 30.7644 20.5589 30.8022 20.4539 30.8022H20.4529Z" fill="white"/>
<path d="M29.5186 21.9257C29.4457 21.9257 29.3738 21.8922 29.3322 21.8306C26.0463 17.064 20.2069 19.3963 20.1482 19.42C20.0526 19.4596 19.9419 19.4315 19.8795 19.3541L19.0498 18.3062C18.9769 18.2147 18.9987 18.0854 19.0971 18.0177C19.1955 17.9499 19.3345 17.9702 19.4074 18.0617L20.1359 18.9819C21.1501 18.6265 26.5392 17.0156 29.705 21.6089C29.7712 21.7048 29.7409 21.8324 29.6378 21.894C29.6009 21.916 29.5593 21.9265 29.5186 21.9265V21.9257Z" fill="black"/>
<path d="M10.3225 142.083L10.9488 147.628L14.9803 148.067V141.493L10.3225 142.083Z" fill="white"/>
<path d="M14.98 148.272C14.9715 148.272 14.963 148.272 14.9545 148.27L10.923 147.831C10.8199 147.819 10.7395 147.743 10.7281 147.648L10.1028 142.103C10.0905 141.992 10.1747 141.892 10.2929 141.877L14.9497 141.287C15.0131 141.279 15.0775 141.296 15.1257 141.336C15.174 141.375 15.2014 141.432 15.2014 141.491V148.065C15.2014 148.124 15.174 148.18 15.1267 148.219C15.086 148.252 15.033 148.27 14.9791 148.27L14.98 148.272ZM11.1501 147.442L14.7577 147.835V141.729L10.5654 142.261L11.1501 147.442Z" fill="black"/>
<path d="M15.6148 157.718C13.9344 157.938 11.1793 158.131 7.9455 157.715C6.88584 157.579 6.18288 156.623 6.43833 155.657C7.15076 152.964 8.37788 147.86 10.483 145.493L11.0062 146.777L11.729 145.569C11.8284 145.404 12.0053 145.292 12.2078 145.268L13.7906 145.082C14.1208 145.043 14.4283 145.246 14.4974 145.55L14.7491 146.663L15.3006 145.201L17.1418 155.843C17.2705 156.752 16.5912 157.591 15.6148 157.72V157.718Z" fill="white"/>
<path d="M11.8029 158.166C10.6249 158.166 9.31455 158.1 7.91524 157.919C7.34567 157.846 6.83477 157.551 6.51309 157.11C6.19235 156.671 6.08733 156.123 6.22357 155.607L6.3759 155.027C7.10252 152.251 8.31734 147.604 10.3127 145.362C10.3629 145.306 10.4423 145.278 10.5199 145.29C10.5975 145.302 10.6628 145.351 10.6912 145.42L11.045 146.288L11.536 145.468C11.6685 145.246 11.9098 145.094 12.1804 145.062L13.7632 144.876C14.2041 144.825 14.6232 145.1 14.715 145.505L14.8039 145.897L15.0925 145.132C15.1256 145.043 15.2221 144.986 15.3215 144.994C15.4227 145.003 15.5041 145.073 15.5211 145.167L17.3623 155.808C17.508 156.833 16.7378 157.778 15.6469 157.921C14.6592 158.05 13.345 158.166 11.8047 158.166L11.8029 158.166ZM10.4158 145.909C8.62388 148.174 7.49327 152.497 6.80638 155.125L6.65406 155.706C6.54809 156.108 6.63041 156.535 6.88018 156.878C7.13185 157.222 7.53111 157.453 7.97579 157.51C11.1548 157.919 13.8673 157.737 15.5836 157.513C16.4341 157.401 17.0349 156.663 16.9214 155.868L15.2202 146.034L14.9572 146.729C14.9241 146.816 14.8314 146.869 14.7339 146.866C14.6346 146.86 14.5523 146.793 14.5315 146.703L14.2798 145.589C14.2353 145.392 14.0319 145.257 13.8181 145.284L12.2352 145.47C12.1037 145.486 11.9864 145.559 11.9221 145.667L11.1992 146.875C11.1576 146.946 11.0724 146.986 10.9892 146.981C10.9031 146.975 10.8283 146.924 10.7981 146.848L10.4149 145.908L10.4158 145.909Z" fill="black"/>
<path d="M10.9089 156.377C9.83879 156.377 8.68736 156.29 7.55012 156.049C7.43091 156.023 7.35617 155.913 7.3836 155.803C7.41104 155.692 7.53025 155.621 7.64946 155.648C11.6005 156.484 15.7388 155.408 15.7804 155.397C15.8978 155.366 16.0207 155.429 16.0548 155.539C16.0889 155.648 16.0207 155.762 15.9025 155.794C15.8722 155.802 13.6621 156.377 10.9098 156.377H10.9089Z" fill="black"/>
<path d="M9.98249 152.26C9.86328 152.26 9.76488 152.172 9.76109 152.061C9.75731 151.947 9.85287 151.851 9.97492 151.848L13.7537 151.732C13.8767 151.725 13.9789 151.817 13.9827 151.93C13.9865 152.044 13.8909 152.14 13.7689 152.143L9.99006 152.259C9.99006 152.259 9.98533 152.259 9.98249 152.259V152.26Z" fill="black"/>
<path d="M29.2051 139.131L29.8087 147.222H34.6595L34.8856 139.131H29.2051Z" fill="white"/>
<path d="M34.6593 147.428H29.8086C29.6922 147.428 29.5957 147.344 29.5872 147.236L28.9826 139.145C28.9788 139.088 28.9996 139.032 29.0413 138.991C29.0829 138.949 29.1416 138.926 29.2031 138.926H34.8836C34.9432 138.926 35.0009 138.948 35.0425 138.988C35.0842 139.028 35.1069 139.081 35.105 139.138L34.8798 147.228C34.877 147.34 34.7786 147.429 34.6584 147.429L34.6593 147.428ZM30.0158 147.015H34.4436L34.6574 139.336H29.4424L30.0158 147.015Z" fill="black"/>
<path d="M28.5415 151.789C28.5292 152.555 29.0912 153.227 29.8935 153.4C32.6826 154.004 38.9639 155.347 40.7559 155.595C43.0815 155.917 45.9397 155.255 47.1687 153.989C48.3977 152.724 44.4174 149.704 42.528 148.605C39.7218 146.972 37.0253 143.746 35.8947 143.601C34.7641 143.456 32.6542 146.505 32.6542 146.505L29.2047 145.158C29.2047 145.158 28.6039 147.907 28.5415 151.788V151.789Z" fill="white"/>
<path d="M41.9728 155.883C41.5508 155.883 41.1307 155.855 40.7229 155.799C38.9159 155.549 32.5125 154.178 29.8425 153.6C28.9466 153.407 28.306 152.643 28.3193 151.785C28.3808 147.929 28.9806 145.145 28.9873 145.117C29.0005 145.056 29.0421 145.004 29.1008 144.976C29.1595 144.947 29.2285 144.944 29.29 144.968L32.5693 146.249C33.0452 145.583 34.804 143.248 35.9242 143.397C36.5619 143.479 37.4768 144.286 38.7437 145.403C39.9254 146.446 41.2641 147.627 42.6445 148.43C44.1612 149.311 47.3685 151.645 47.606 153.227C47.659 153.582 47.5672 153.885 47.3325 154.126C46.2965 155.194 44.1025 155.882 41.9728 155.882V155.883ZM29.3723 145.447C29.2276 146.206 28.8132 148.634 28.763 151.792C28.7526 152.457 29.2484 153.049 29.9438 153.198C32.6081 153.775 38.9982 155.143 40.7892 155.391C43.1233 155.714 45.8519 155.037 47.0052 153.851C47.1499 153.702 47.2039 153.517 47.1689 153.285C46.9673 151.94 43.971 149.687 42.4108 148.78C40.9926 147.955 39.6359 146.758 38.44 145.703C37.3708 144.759 36.3613 143.868 35.8656 143.805C35.1465 143.713 33.628 145.48 32.8418 146.617C32.784 146.701 32.6696 146.734 32.5693 146.695L29.3733 145.447L29.3723 145.447Z" fill="black"/>
<path d="M41.9237 154.4C36.8837 154.4 30.1066 151.854 29.7244 151.709C29.6109 151.666 29.5569 151.545 29.6033 151.441C29.6496 151.335 29.7793 151.285 29.8928 151.328C30.0167 151.375 42.304 155.993 45.9229 152.954C46.0138 152.877 46.1547 152.884 46.2361 152.969C46.3184 153.053 46.3108 153.183 46.22 153.26C45.2304 154.09 43.6825 154.401 41.9237 154.401V154.4Z" fill="black"/>
<path d="M36.5477 149.497C36.4872 149.497 36.4266 149.474 36.3831 149.429C36.3008 149.345 36.3084 149.215 36.3992 149.138L38.8667 147.069C38.9575 146.992 39.0975 146.999 39.1799 147.084C39.2622 147.168 39.2546 147.298 39.1638 147.375L36.6963 149.444C36.6537 149.48 36.6007 149.497 36.5477 149.497Z" fill="black"/>
<path d="M10.3288 75.4758C10.3288 75.4758 7.4441 111.681 6.65693 120.411C5.8707 129.142 8.49619 143.177 8.49619 143.177L15.9838 142.811C15.9838 142.811 16.4966 125.746 17.0529 121.008C17.0529 121.008 20.2158 114.584 21.1534 108.855C22.091 103.126 25.2842 94.0752 25.2842 94.0752C25.2842 94.0752 27.8775 139.244 28.1273 142.792C28.1273 142.792 33.9989 143.035 36.104 141.803C36.104 141.803 39.8336 125.333 39.2981 116.372C38.7626 107.412 38.0407 74.9849 38.0407 74.9849L19.228 75.2426L10.3288 75.474V75.4758Z" fill="black"/>
<path d="M15.6753 121.213H13.3867C13.2646 121.213 13.1653 121.12 13.1653 121.007C13.1653 120.893 13.2646 120.801 13.3867 120.801H15.6753C15.7974 120.801 15.8967 120.893 15.8967 121.007C15.8967 121.12 15.7974 121.213 15.6753 121.213Z" fill="white"/>
<path d="M31.978 134.349H31.9742C31.8522 134.346 31.7547 134.253 31.7566 134.139C31.8389 129.966 36.7663 122.482 36.9754 122.165C37.0398 122.068 37.176 122.037 37.2801 122.097C37.3841 122.157 37.4173 122.284 37.3529 122.381C37.3018 122.457 32.2798 130.086 32.1994 134.146C32.1975 134.258 32.0982 134.348 31.978 134.348V134.349Z" fill="white"/>
<path d="M152.714 156.588H83.7594C83.3885 156.588 83.0876 156.295 83.0876 155.934V112.651C83.0876 111.147 84.345 109.931 85.8863 109.945L154.301 110.538L154.297 154.918C154.297 155.841 153.587 156.589 152.713 156.589L152.714 156.588Z" fill="white"/>
<path d="M152.714 156.795H83.7596C83.2676 156.795 82.8665 156.409 82.8665 155.934V112.651C82.8665 111.844 83.1985 111.092 83.8022 110.536C84.368 110.015 85.0993 109.736 85.8893 109.738L154.304 110.331C154.426 110.332 154.524 110.425 154.524 110.537L154.519 154.917C154.519 155.952 153.709 156.795 152.714 156.795ZM85.8628 110.151C85.21 110.151 84.5903 110.391 84.1144 110.83C83.5959 111.308 83.3102 111.954 83.3102 112.652V155.935C83.3102 156.182 83.5117 156.383 83.7596 156.383H152.714C153.465 156.383 154.075 155.726 154.076 154.918L154.081 110.742L85.8855 110.151C85.878 110.151 85.8704 110.151 85.8628 110.151Z" fill="black"/>
<path d="M120.015 116.225L80.352 116.035C79.7976 116.032 79.4324 115.48 79.667 114.999L91.3232 99.7816C91.5796 99.4464 91.9902 99.2511 92.4235 99.259C97.0936 99.347 126.277 99.4183 126.277 99.4183L120.015 116.225Z" fill="black"/>
<path d="M98.1667 137.212H93.9328C93.4209 137.212 93.0046 136.825 93.0046 136.349V130.027C93.0046 129.551 93.4209 129.164 93.9328 129.164H98.1667C98.6785 129.164 99.0948 129.551 99.0948 130.027V136.349C99.0948 136.825 98.6785 137.212 98.1667 137.212ZM93.9328 129.576C93.665 129.576 93.4484 129.778 93.4484 130.026V136.348C93.4484 136.597 93.666 136.799 93.9328 136.799H98.1667C98.4344 136.799 98.6511 136.596 98.6511 136.348V130.026C98.6511 129.777 98.4335 129.576 98.1667 129.576H93.9328Z" fill="black"/>
<path d="M91.4707 137.212H87.3797C86.8291 137.212 86.3806 136.795 86.3806 136.283V130.094C86.3806 129.581 86.8291 129.165 87.3797 129.165H91.4707C92.0223 129.165 92.4699 129.582 92.4699 130.094V136.283C92.4699 136.795 92.0214 137.212 91.4707 137.212ZM87.3797 129.576C87.0732 129.576 86.8234 129.808 86.8234 130.093V136.282C86.8234 136.568 87.0732 136.8 87.3797 136.8H91.4707C91.7773 136.8 92.0271 136.568 92.0271 136.282V130.093C92.0271 129.808 91.7773 129.576 91.4707 129.576H87.3797Z" fill="black"/>
<path d="M98.3679 145.697H93.73C93.3298 145.697 93.0034 145.394 93.0034 145.021V138.324C93.0034 137.951 93.3289 137.649 93.73 137.649H98.3679C98.7681 137.649 99.0945 137.951 99.0945 138.324V145.021C99.0945 145.394 98.7691 145.697 98.3679 145.697ZM93.731 138.06C93.5749 138.06 93.4481 138.178 93.4481 138.323V145.02C93.4481 145.166 93.5749 145.283 93.731 145.283H98.3689C98.525 145.283 98.6518 145.166 98.6518 145.02V138.323C98.6518 138.178 98.525 138.06 98.3689 138.06H93.731Z" fill="black"/>
<path d="M91.4509 145.697H87.3996C86.8376 145.697 86.3796 145.272 86.3796 144.748V138.596C86.3796 138.074 86.8366 137.648 87.3996 137.648H91.4509C92.0128 137.648 92.4708 138.073 92.4708 138.596V144.748C92.4708 145.271 92.0138 145.697 91.4509 145.697ZM87.3996 138.06C87.0817 138.06 86.8234 138.3 86.8234 138.596V144.748C86.8234 145.044 87.0817 145.284 87.3996 145.284H91.4509C91.7687 145.284 92.027 145.044 92.027 144.748V138.596C92.027 138.3 91.7687 138.06 91.4509 138.06H87.3996Z" fill="black"/>
<path d="M103.601 155.305L103.317 111.122L130.788 99.1592L157.032 111.298L156.511 155.997C156.495 156.601 155.959 157.082 155.308 157.077L105.057 156.67C104.251 156.663 103.6 156.054 103.6 155.305H103.601Z" fill="white"/>
<path d="M155.32 157.283H155.308L105.056 156.875C104.132 156.867 103.38 156.163 103.38 155.304L103.096 111.123C103.096 111.043 103.145 110.969 103.224 110.936L130.694 98.9725C130.756 98.9461 130.827 98.9461 130.887 98.9742L157.132 111.113C157.207 111.149 157.256 111.222 157.255 111.3L156.733 155.998C156.715 156.71 156.082 157.282 155.32 157.282V157.283ZM103.54 111.253L103.823 155.304C103.823 155.938 104.377 156.458 105.059 156.464L155.31 156.871H155.319C155.842 156.871 156.276 156.478 156.289 155.992L156.809 111.426L130.785 99.3886L103.54 111.253Z" fill="black"/>
<path d="M152.096 137.061H147.862C147.35 137.061 146.934 136.674 146.934 136.198V129.887C146.934 129.411 147.35 129.024 147.862 129.024H152.096C152.607 129.024 153.024 129.411 153.024 129.887V136.198C153.024 136.674 152.607 137.061 152.096 137.061ZM147.862 129.437C147.594 129.437 147.377 129.639 147.377 129.888V136.199C147.377 136.448 147.595 136.649 147.862 136.649H152.096C152.363 136.649 152.58 136.447 152.58 136.199V129.888C152.58 129.639 152.362 129.437 152.096 129.437H147.862Z" fill="black"/>
<path d="M145.4 137.061H141.309C140.757 137.061 140.31 136.644 140.31 136.132V129.954C140.31 129.441 140.758 129.025 141.309 129.025H145.4C145.952 129.025 146.399 129.442 146.399 129.954V136.132C146.399 136.644 145.951 137.061 145.4 137.061ZM141.308 129.437C141.001 129.437 140.752 129.669 140.752 129.954V136.132C140.752 136.417 141.001 136.649 141.308 136.649H145.399C145.706 136.649 145.955 136.417 145.955 136.132V129.954C145.955 129.669 145.706 129.437 145.399 129.437H141.308Z" fill="black"/>
<path d="M152.297 145.533H147.659C147.259 145.533 146.933 145.23 146.933 144.857V138.172C146.933 137.8 147.258 137.496 147.659 137.496H152.297C152.697 137.496 153.024 137.799 153.024 138.172V144.857C153.024 145.23 152.698 145.533 152.297 145.533ZM147.659 137.908C147.503 137.908 147.376 138.026 147.376 138.171V144.856C147.376 145.002 147.503 145.119 147.659 145.119H152.297C152.453 145.119 152.58 145.002 152.58 144.856V138.171C152.58 138.026 152.453 137.908 152.297 137.908H147.659Z" fill="black"/>
<path d="M145.379 145.533H141.328C140.766 145.533 140.308 145.108 140.308 144.585V138.444C140.308 137.921 140.765 137.495 141.328 137.495H145.379C145.941 137.495 146.399 137.92 146.399 138.444V144.585C146.399 145.107 145.942 145.533 145.379 145.533ZM141.328 137.908C141.01 137.908 140.752 138.148 140.752 138.444V144.585C140.752 144.88 141.01 145.12 141.328 145.12H145.379C145.697 145.12 145.955 144.88 145.955 144.585V138.444C145.955 138.148 145.697 137.908 145.379 137.908H141.328Z" fill="black"/>
<path d="M135.452 112.85H131.218C130.706 112.85 130.29 112.463 130.29 111.987V107.132C130.29 106.656 130.706 106.269 131.218 106.269H135.452C135.964 106.269 136.38 106.656 136.38 107.132V111.987C136.38 112.463 135.964 112.85 135.452 112.85ZM131.218 106.681C130.95 106.681 130.734 106.883 130.734 107.131V111.986C130.734 112.235 130.951 112.437 131.218 112.437H135.452C135.72 112.437 135.936 112.235 135.936 111.986V107.131C135.936 106.882 135.719 106.681 135.452 106.681H131.218Z" fill="black"/>
<path d="M128.757 112.851H124.666C124.115 112.851 123.667 112.434 123.667 111.921V107.199C123.667 106.686 124.115 106.27 124.666 106.27H128.757C129.308 106.27 129.756 106.687 129.756 107.199V111.921C129.756 112.434 129.307 112.851 128.757 112.851ZM124.666 106.681C124.359 106.681 124.109 106.913 124.109 107.198V111.921C124.109 112.206 124.359 112.438 124.666 112.438H128.757C129.063 112.438 129.313 112.206 129.313 111.921V107.198C129.313 106.913 129.063 106.681 128.757 106.681H124.666Z" fill="black"/>
<path d="M135.655 119.705H131.017C130.616 119.705 130.29 119.403 130.29 119.03V113.798C130.29 113.426 130.616 113.123 131.017 113.123H135.655C136.055 113.123 136.381 113.425 136.381 113.798V119.03C136.381 119.402 136.056 119.705 135.655 119.705ZM131.017 113.535C130.861 113.535 130.734 113.653 130.734 113.798V119.03C130.734 119.175 130.861 119.293 131.017 119.293H135.655C135.811 119.293 135.937 119.175 135.937 119.03V113.798C135.937 113.653 135.811 113.535 135.655 113.535H131.017Z" fill="black"/>
<path d="M128.737 119.705H124.685C124.123 119.705 123.665 119.28 123.665 118.757V114.071C123.665 113.549 124.122 113.123 124.685 113.123H128.737C129.298 113.123 129.755 113.548 129.755 114.071V118.757C129.755 119.28 129.298 119.705 128.737 119.705ZM124.685 113.535C124.367 113.535 124.109 113.776 124.109 114.071V118.757C124.109 119.053 124.367 119.293 124.685 119.293H128.737C129.054 119.293 129.313 119.053 129.313 118.757V114.071C129.313 113.776 129.054 113.535 128.737 113.535H124.685Z" fill="black"/>
<path d="M118.393 137.048H114.16C113.648 137.048 113.231 136.661 113.231 136.185V129.863C113.231 129.387 113.648 129 114.16 129H118.393C118.905 129 119.322 129.387 119.322 129.863V136.185C119.322 136.661 118.905 137.048 118.393 137.048ZM114.16 129.411C113.892 129.411 113.675 129.614 113.675 129.863V136.185C113.675 136.434 113.893 136.635 114.16 136.635H118.393C118.661 136.635 118.878 136.433 118.878 136.185V129.863C118.878 129.614 118.66 129.411 118.393 129.411H114.16Z" fill="black"/>
<path d="M111.697 137.048H107.606C107.054 137.048 106.607 136.631 106.607 136.119V129.93C106.607 129.417 107.055 129.001 107.606 129.001H111.697C112.249 129.001 112.696 129.418 112.696 129.93V136.119C112.696 136.632 112.248 137.048 111.697 137.048ZM107.606 129.412C107.299 129.412 107.05 129.644 107.05 129.929V136.118C107.05 136.403 107.299 136.635 107.606 136.635H111.697C112.004 136.635 112.253 136.403 112.253 136.118V129.929C112.253 129.644 112.004 129.412 111.697 129.412H107.606Z" fill="black"/>
<path d="M118.595 145.533H113.957C113.557 145.533 113.231 145.23 113.231 144.857V138.16C113.231 137.787 113.556 137.484 113.957 137.484H118.595C118.995 137.484 119.322 137.787 119.322 138.16V144.857C119.322 145.229 118.996 145.533 118.595 145.533ZM113.957 137.897C113.801 137.897 113.674 138.014 113.674 138.16V144.857C113.674 145.003 113.801 145.12 113.957 145.12H118.595C118.751 145.12 118.878 145.003 118.878 144.857V138.16C118.878 138.014 118.751 137.897 118.595 137.897H113.957Z" fill="black"/>
<path d="M111.677 145.533H107.626C107.064 145.533 106.606 145.108 106.606 144.585V138.432C106.606 137.91 107.063 137.484 107.626 137.484H111.677C112.239 137.484 112.697 137.909 112.697 138.432V144.585C112.697 145.107 112.24 145.533 111.677 145.533ZM107.626 137.897C107.308 137.897 107.05 138.137 107.05 138.432V144.585C107.05 144.88 107.308 145.12 107.626 145.12H111.677C111.995 145.12 112.253 144.88 112.253 144.585V138.432C112.253 138.137 111.995 137.897 111.677 137.897H107.626Z" fill="black"/>
<path d="M130.553 95.192L159.098 110C159.703 110.314 159.818 110.952 159.345 111.376L158.254 112.705C157.769 113.295 156.923 113.473 156.232 113.129L130.344 100.255C130.171 100.169 129.966 100.168 129.792 100.253L103.268 113.263C102.918 113.434 102.493 113.349 102.241 113.058L101.118 111.757C100.48 111.018 100.743 110.03 101.71 109.532L129.584 95.192C129.887 95.0363 130.25 95.0363 130.553 95.1938V95.192Z" fill="black"/>
<path d="M102.885 113.557C102.578 113.557 102.277 113.428 102.068 113.186L100.945 111.886C100.612 111.5 100.481 111.035 100.579 110.576C100.685 110.078 101.058 109.631 101.603 109.35L129.477 95.0096C129.848 94.8187 130.291 94.8195 130.661 95.0113L159.205 109.819C159.568 110.006 159.802 110.308 159.85 110.647C159.893 110.959 159.77 111.273 159.511 111.512L158.429 112.829C157.881 113.498 156.912 113.7 156.127 113.309L130.239 100.435C130.131 100.382 130.003 100.381 129.895 100.433L103.37 113.443C103.215 113.518 103.048 113.555 102.885 113.555L102.885 113.557ZM130.067 95.2797C129.938 95.2797 129.808 95.3096 129.691 95.3703L101.816 109.711C101.38 109.935 101.095 110.271 101.013 110.656C100.942 110.993 101.041 111.337 101.29 111.627L102.413 112.927C102.599 113.142 102.907 113.205 103.164 113.079L129.688 100.069C129.926 99.9522 130.21 99.9531 130.448 100.072L156.335 112.946C156.927 113.24 157.659 113.086 158.077 112.579L159.167 111.25C159.174 111.242 159.182 111.235 159.19 111.227C159.358 111.076 159.435 110.889 159.41 110.7C159.38 110.493 159.227 110.303 158.99 110.18L130.445 95.3721C130.327 95.3105 130.197 95.2797 130.068 95.2797H130.067Z" fill="white"/>
<path d="M136.11 128.505H123.725C122.99 128.505 122.395 129.058 122.395 129.742V156.115C122.395 156.798 122.99 157.352 123.725 157.352H136.11C136.844 157.352 137.44 156.798 137.44 156.115V129.742C137.44 129.058 136.844 128.505 136.11 128.505Z" fill="black"/>
<path d="M139.061 154.99H120.836C120.489 154.99 120.208 155.251 120.208 155.574V156.921C120.208 157.243 120.489 157.505 120.836 157.505H139.061C139.408 157.505 139.69 157.243 139.69 156.921V155.574C139.69 155.251 139.408 154.99 139.061 154.99Z" fill="white"/>
<path d="M139.061 154.99H120.836C120.489 154.99 120.208 155.251 120.208 155.574V156.921C120.208 157.243 120.489 157.505 120.836 157.505H139.061C139.408 157.505 139.689 157.243 139.689 156.921V155.574C139.689 155.251 139.408 154.99 139.061 154.99Z" fill="white"/>
<path d="M139.062 157.711H120.836C120.368 157.711 119.987 157.356 119.987 156.921V155.573C119.987 155.138 120.368 154.783 120.836 154.783H139.062C139.531 154.783 139.912 155.138 139.912 155.573V156.921C139.912 157.356 139.531 157.711 139.062 157.711ZM120.836 155.196C120.612 155.196 120.43 155.365 120.43 155.574V156.922C120.43 157.13 120.613 157.299 120.836 157.299H139.062C139.287 157.299 139.468 157.129 139.468 156.922V155.574C139.468 155.365 139.286 155.196 139.062 155.196H120.836Z" fill="black"/>
<path d="M125.487 137.5C125.415 137.5 125.343 137.467 125.301 137.405C125.235 137.309 125.265 137.182 125.367 137.12L134.61 131.595C134.713 131.534 134.85 131.562 134.916 131.657C134.983 131.753 134.952 131.88 134.85 131.942L125.608 137.467C125.571 137.489 125.529 137.499 125.488 137.499L125.487 137.5Z" fill="white"/>
<path d="M125.111 141.187C125.038 141.187 124.966 141.153 124.925 141.092C124.858 140.996 124.889 140.868 124.991 140.807L133.588 135.667C133.691 135.604 133.829 135.633 133.895 135.728C133.961 135.824 133.931 135.952 133.829 136.013L125.231 141.153C125.194 141.175 125.153 141.186 125.112 141.186L125.111 141.187Z" fill="white"/>
<path d="M153.07 124.537H153.068L106.163 124.164C106.041 124.163 105.943 124.07 105.944 123.956C105.945 123.843 106.044 123.752 106.165 123.752H106.167L153.072 124.125C153.194 124.126 153.292 124.219 153.291 124.333C153.29 124.446 153.191 124.537 153.07 124.537Z" fill="black"/>
<path d="M155.923 13.2961C155.866 13.2961 155.809 13.2759 155.766 13.2354C155.679 13.1545 155.679 13.0243 155.766 12.9442L169.622 0.0607049C169.709 -0.020235 169.849 -0.020235 169.935 0.0607049C170.022 0.141645 170.022 0.271852 169.935 0.351913L156.079 13.2363C156.035 13.2768 155.979 13.297 155.922 13.297L155.923 13.2961Z" fill="black"/>
<path d="M145.132 34.416C145.075 34.416 145.018 34.3958 144.975 34.3553C144.888 34.2744 144.888 34.1442 144.975 34.0641L166.517 14.0324C166.604 13.9514 166.744 13.9514 166.83 14.0324C166.917 14.1133 166.917 14.2435 166.83 14.3236L145.288 34.3553C145.245 34.3958 145.188 34.416 145.131 34.416H145.132Z" fill="black"/>
<path d="M49.6232 161C49.5664 161 49.5097 160.98 49.4662 160.939C49.3791 160.858 49.3791 160.728 49.4662 160.648L74.738 137.148C74.8251 137.067 74.9651 137.067 75.0512 137.148C75.1373 137.229 75.1382 137.359 75.0512 137.439L49.7793 160.939C49.7358 160.98 49.679 161 49.6223 161H49.6232Z" fill="black"/>
<path d="M157.597 6.65364C156.541 6.65364 155.682 5.8548 155.682 4.87296C155.682 3.89113 156.541 3.09229 157.597 3.09229C157.719 3.09229 157.819 3.18466 157.819 3.29815C157.819 3.41165 157.719 3.50402 157.597 3.50402C156.786 3.50402 156.125 4.11811 156.125 4.87296C156.125 5.62781 156.786 6.2419 157.597 6.2419C158.409 6.2419 159.069 5.62781 159.069 4.87296C159.069 4.75859 159.169 4.66709 159.291 4.66709C159.413 4.66709 159.512 4.75947 159.512 4.87296C159.512 5.8548 158.653 6.65364 157.597 6.65364Z" fill="black"/>
</svg>
