<svg width="170" height="161" viewBox="0 0 170 161" fill="none" xmlns="http://www.w3.org/2000/svg">
<g clip-path="url(#clip0_8171_203)">
<path d="M123.537 20.0399L85.8101 13.8374L70.6402 96.2229L108.368 102.425L123.537 20.0399Z" fill="white"/>
<path d="M108.377 102.616C108.365 102.616 108.353 102.616 108.342 102.614L70.6136 96.4139C70.5 96.3955 70.4237 96.2925 70.4432 96.1852L85.6067 13.7981C85.616 13.7462 85.6467 13.7004 85.6924 13.6705C85.738 13.6406 85.7938 13.6283 85.8488 13.6371L123.576 19.8369C123.689 19.8554 123.766 19.9583 123.746 20.0656L108.583 102.452C108.573 102.504 108.543 102.55 108.497 102.579C108.462 102.603 108.42 102.616 108.377 102.616V102.616ZM70.8911 96.0585L108.207 102.191L123.298 20.1932L85.9829 14.0611L70.8911 96.0585Z" fill="black"/>
<path d="M117.428 24.555L90.3606 20.105L86.5511 40.7937L113.619 45.2437L117.428 24.555Z" fill="white"/>
<path d="M113.624 45.4342C113.611 45.4342 113.599 45.4334 113.587 45.4316L86.52 40.9834C86.4651 40.9746 86.4167 40.9456 86.385 40.9025C86.3533 40.8594 86.3403 40.8066 86.3496 40.7547L90.1577 20.0657C90.1773 19.9584 90.2862 19.8863 90.3998 19.9047L117.467 24.3529C117.522 24.3617 117.57 24.3907 117.602 24.4339C117.634 24.477 117.647 24.5298 117.637 24.5817L113.829 45.2706C113.812 45.3665 113.723 45.4342 113.624 45.4342ZM86.7975 40.6271L113.453 45.0075L117.19 24.7083L90.5339 20.3279L86.7975 40.6271Z" fill="black"/>
<path d="M112.803 49.6761L85.7351 45.2261L81.9257 65.9148L108.993 70.3648L112.803 49.6761Z" fill="black"/>
<path d="M108.443 74.6507L81.3757 70.2007L77.5663 90.8894L104.634 95.3394L108.443 74.6507Z" fill="black"/>
<path d="M68.5149 16.4366L34.3794 32.8359L82.16 121.636L116.295 105.237L68.5149 16.4366Z" fill="white"/>
<path d="M82.1542 121.841C82.0778 121.841 82.0042 121.802 81.967 121.733L34.1936 32.9297C34.1685 32.883 34.1638 32.8285 34.1815 32.7792C34.1983 32.7291 34.2365 32.6877 34.2858 32.664L68.4227 16.2675C68.526 16.2182 68.6517 16.2569 68.7039 16.3546L116.478 105.158C116.503 105.205 116.508 105.259 116.49 105.308C116.473 105.359 116.435 105.4 116.386 105.424L82.2491 121.82C82.2184 121.835 82.1867 121.841 82.1542 121.841ZM34.662 32.927L82.2463 121.378L116.01 105.161L68.4255 16.7091L34.662 32.927Z" fill="black"/>
<path d="M66.9876 24.4379L42.4971 36.2036L54.4959 58.5034L78.9864 46.7378L66.9876 24.4379Z" fill="white"/>
<path d="M54.4939 58.7061C54.4175 58.7061 54.344 58.6665 54.3067 58.5979L42.3098 36.2972C42.2847 36.2506 42.28 36.196 42.2977 36.1468C42.3145 36.0966 42.3527 36.0553 42.402 36.0315L66.893 24.268C66.9963 24.2187 67.122 24.2574 67.1741 24.3551L79.171 46.6558C79.1962 46.7024 79.2008 46.7569 79.1831 46.8062C79.1664 46.8564 79.1282 46.8977 79.0788 46.9215L54.5879 58.685C54.5572 58.7 54.5255 58.7061 54.4929 58.7061H54.4939ZM42.7782 36.2946L54.586 58.2425L78.7046 46.6575L66.8967 24.7096L42.7782 36.2946Z" fill="black"/>
<path d="M81.5564 51.5156L57.0659 63.2812L69.0648 85.5811L93.5552 73.8154L81.5564 51.5156Z" fill="white"/>
<path d="M69.0615 85.7842C68.9851 85.7842 68.9116 85.7447 68.8743 85.676L56.8775 63.3753C56.8523 63.3287 56.8477 63.2742 56.8654 63.2249C56.8821 63.1747 56.9203 63.1334 56.9696 63.1096L81.4606 51.3461C81.5639 51.2968 81.6896 51.3355 81.7418 51.4332L93.7387 73.7339C93.7638 73.7805 93.7684 73.8351 93.7508 73.8843C93.7331 73.9345 93.6958 73.9758 93.6465 73.9996L69.1555 85.7631C69.1248 85.7781 69.0931 85.7842 69.0606 85.7842H69.0615ZM57.3449 63.3727L69.1527 85.3206L93.2713 73.7356L81.4634 51.7877L57.3449 63.3727Z" fill="black"/>
<path d="M96.2297 78.2924L71.7393 90.0581L83.7381 112.358L108.229 100.592L96.2297 78.2924Z" fill="white"/>
<path d="M83.7324 112.563C83.656 112.563 83.5825 112.523 83.5452 112.455L71.5484 90.1541C71.5232 90.1075 71.5186 90.053 71.5363 90.0037C71.553 89.9536 71.5912 89.9122 71.6405 89.8885L96.1315 78.1249C96.2348 78.0756 96.3605 78.1143 96.4127 78.212L108.41 100.513C108.435 100.559 108.439 100.614 108.422 100.663C108.404 100.713 108.367 100.755 108.317 100.778L83.8264 112.542C83.7957 112.557 83.764 112.563 83.7315 112.563H83.7324ZM72.0167 90.1515L83.8246 112.099L107.943 100.514L96.1352 78.5665L72.0167 90.1515Z" fill="black"/>
<path d="M27.0241 60.2093L0.207275 86.04L70.9009 151.569L97.7178 125.738L27.0241 60.2093Z" fill="white"/>
<path d="M70.9084 151.756C70.8535 151.756 70.8013 151.736 70.7622 151.7L0.0621229 86.1766C-0.0207426 86.1001 -0.0216736 85.9752 0.0593297 85.8969L26.8742 60.0638C26.9133 60.026 26.9664 60.0049 27.0213 60.0049C27.0772 60.0075 27.1303 60.0242 27.1703 60.0612L97.8695 125.585C97.9523 125.661 97.9533 125.786 97.8723 125.864L71.0574 151.697C71.0183 151.735 70.9652 151.756 70.9103 151.756H70.9084ZM0.504383 86.0323L70.9056 151.279L97.4272 125.728L27.026 60.4826L0.504383 86.0323Z" fill="black"/>
<path d="M27.9771 67.9775L8.7373 86.5098L26.4903 102.966L45.7301 84.4335L27.9771 67.9775Z" fill="white"/>
<path d="M26.4955 103.157C26.4405 103.157 26.3884 103.136 26.3493 103.1L8.59557 86.6457C8.5127 86.5691 8.51177 86.4442 8.59278 86.3659L27.8306 67.8324C27.8697 67.7946 27.9228 67.7735 27.9777 67.7735C28.0373 67.7726 28.0867 67.7928 28.1267 67.8298L45.8804 84.2843C45.9633 84.3609 45.9642 84.4858 45.8832 84.5641L26.6454 103.098C26.6063 103.135 26.5532 103.157 26.4982 103.157H26.4964H26.4955ZM9.0369 86.5022L26.4927 102.68L45.4372 84.4286L27.9814 68.2512L9.0369 86.5022Z" fill="black"/>
<path d="M49.5354 87.9599L30.2957 106.492L48.0487 122.948L67.2884 104.416L49.5354 87.9599Z" fill="white"/>
<path d="M48.0536 123.136C48.0005 123.136 47.9474 123.118 47.9074 123.08L30.1537 106.626C30.0708 106.549 30.0699 106.424 30.1509 106.346L49.3887 87.8124C49.4278 87.7745 49.4809 87.7534 49.5358 87.7534C49.5898 87.7561 49.6448 87.7728 49.6848 87.8097L67.4385 104.264C67.4785 104.301 67.5009 104.351 67.5009 104.403C67.5009 104.456 67.4795 104.506 67.4413 104.544L48.2035 123.078C48.1625 123.117 48.1085 123.136 48.0545 123.136H48.0536ZM30.595 106.482L48.0508 122.66L66.9963 104.409L49.5405 88.2311L30.5959 106.482H30.595Z" fill="black"/>
<path d="M71.1008 107.636L51.8611 126.168L69.6141 142.624L88.8538 124.092L71.1008 107.636Z" fill="white"/>
<path d="M69.619 142.81C69.5659 142.81 69.5129 142.792 69.4728 142.754L51.7191 126.299C51.6791 126.262 51.6567 126.212 51.6567 126.16C51.6567 126.107 51.6782 126.057 51.7163 126.019L70.9542 107.486C71.0352 107.408 71.1674 107.407 71.2502 107.483L89.004 123.938C89.044 123.975 89.0663 124.025 89.0663 124.077C89.0663 124.13 89.0449 124.18 89.0068 124.218L69.7689 142.751C69.7279 142.791 69.6739 142.81 69.6199 142.81H69.619ZM52.1604 126.156L69.6162 142.333L88.5617 124.082L71.1059 107.905L52.1604 126.156Z" fill="black"/>
<path d="M68.6816 38.2946H163.663C165.6 38.2946 166.078 35.7494 164.26 35.1195L116.172 18.4556L68.0839 35.1195C66.2655 35.7494 66.744 38.2946 68.6807 38.2946H68.6816Z" fill="black"/>
<path d="M69.137 152.054H163.207V38.3153L116.172 21.9795L69.137 38.3153V152.054Z" fill="white"/>
<path d="M163.207 152.251H69.138C69.0225 152.251 68.9285 152.162 68.9285 152.053V38.315C68.9285 38.2323 68.9834 38.1584 69.0653 38.1294L116.1 21.7936C116.147 21.7778 116.198 21.7778 116.245 21.7936L163.28 38.1294C163.362 38.1575 163.417 38.2323 163.417 38.315V152.054C163.417 152.163 163.323 152.252 163.207 152.252V152.251ZM69.3465 151.856H162.998V38.4532L116.172 22.1904L69.3465 38.4532V151.856Z" fill="black"/>
<path d="M130.181 26.8442L163.207 38.3148V83.8919L121.185 98.242L94.5989 38.789L130.181 26.8442Z" fill="black"/>
<path d="M163.207 38.5126C163.183 38.5126 163.159 38.5091 163.135 38.5003L116.173 22.19L69.2106 38.5003C69.1026 38.5381 68.9815 38.4853 68.9424 38.3833C68.9024 38.2803 68.9582 38.1668 69.0662 38.1299L116.101 21.7941C116.148 21.7783 116.199 21.7783 116.246 21.7941L163.281 38.1299C163.39 38.1677 163.445 38.2812 163.404 38.3833C163.374 38.4633 163.294 38.5126 163.208 38.5126H163.207Z" fill="white"/>
<path d="M163.207 152.251H69.138C69.0225 152.251 68.9285 152.162 68.9285 152.053V38.3147C68.9285 38.2056 69.0225 38.1167 69.138 38.1167C69.2534 38.1167 69.3474 38.2056 69.3474 38.3147V151.856H162.999V38.3147C162.999 38.2056 163.092 38.1167 163.208 38.1167C163.324 38.1167 163.417 38.2056 163.417 38.3147V152.054C163.417 152.163 163.324 152.252 163.208 152.252L163.207 152.251Z" fill="black"/>
<path d="M142.983 104.084H134.006C133.638 104.084 133.339 104.366 133.339 104.714V124.196C133.339 124.543 133.638 124.825 134.006 124.825H142.983C143.351 124.825 143.65 124.543 143.65 124.196V104.714C143.65 104.366 143.351 104.084 142.983 104.084Z" fill="white"/>
<path d="M142.983 125.023H134.006C133.523 125.023 133.13 124.652 133.13 124.195V104.714C133.13 104.257 133.523 103.886 134.006 103.886H142.983C143.466 103.886 143.859 104.257 143.859 104.714V124.195C143.859 124.652 143.466 125.023 142.983 125.023ZM134.006 104.282C133.753 104.282 133.549 104.475 133.549 104.714V124.195C133.549 124.434 133.753 124.627 134.006 124.627H142.983C143.236 124.627 143.44 124.434 143.44 124.195V104.714C143.44 104.475 143.236 104.282 142.983 104.282H134.006Z" fill="black"/>
<path d="M146.168 104.084H155.011C155.416 104.084 155.744 104.394 155.744 104.777V124.131C155.744 124.514 155.416 124.825 155.011 124.825H146.168C145.763 124.825 145.435 124.514 145.435 124.131V104.777C145.435 104.394 145.763 104.084 146.168 104.084Z" fill="white"/>
<path d="M155.012 125.023H146.169C145.649 125.023 145.226 124.624 145.226 124.132V104.778C145.226 104.286 145.649 103.887 146.169 103.887H155.012C155.531 103.887 155.955 104.286 155.955 104.778V124.132C155.955 124.624 155.532 125.023 155.012 125.023ZM146.168 104.282C145.879 104.282 145.643 104.504 145.643 104.778V124.132C145.643 124.406 145.879 124.628 146.168 124.628H155.011C155.3 124.628 155.535 124.406 155.535 124.132V104.778C155.535 104.504 155.299 104.282 155.011 104.282H146.168Z" fill="black"/>
<path d="M143.173 127.13H133.816C133.553 127.13 133.339 127.332 133.339 127.581V147.422C133.339 147.67 133.553 147.872 133.816 147.872H143.173C143.436 147.872 143.65 147.67 143.65 147.422V127.581C143.65 127.332 143.436 127.13 143.173 127.13Z" fill="white"/>
<path d="M143.173 148.069H133.815C133.437 148.069 133.13 147.779 133.13 147.422V127.58C133.13 127.223 133.437 126.932 133.815 126.932H143.173C143.551 126.932 143.858 127.223 143.858 127.58V147.422C143.858 147.779 143.551 148.069 143.173 148.069ZM133.816 127.327C133.669 127.327 133.549 127.441 133.549 127.58V147.422C133.549 147.561 133.669 147.674 133.816 147.674H143.174C143.321 147.674 143.441 147.561 143.441 147.422V127.58C143.441 127.441 143.321 127.327 143.174 127.327H133.816Z" fill="black"/>
<path d="M154.992 127.131H146.188C145.772 127.131 145.435 127.449 145.435 127.842V147.161C145.435 147.554 145.772 147.872 146.188 147.872H154.992C155.408 147.872 155.745 147.554 155.745 147.161V127.842C155.745 127.449 155.408 127.131 154.992 127.131Z" fill="white"/>
<path d="M154.993 148.069H146.188C145.657 148.069 145.226 147.661 145.226 147.161V127.841C145.226 127.34 145.657 126.933 146.188 126.933H154.993C155.524 126.933 155.955 127.341 155.955 127.841V147.161C155.955 147.662 155.524 148.069 154.993 148.069ZM146.188 127.328C145.888 127.328 145.644 127.558 145.644 127.841V147.161C145.644 147.444 145.888 147.674 146.188 147.674H154.993C155.293 147.674 155.537 147.444 155.537 147.161V127.841C155.537 127.558 155.293 127.328 154.993 127.328H146.188Z" fill="black"/>
<path d="M77.2653 104.476H86.2427C86.6105 104.476 86.9093 104.758 86.9093 105.106V124.588C86.9093 124.935 86.6105 125.218 86.2427 125.218H77.2653C76.8975 125.218 76.5986 124.935 76.5986 124.588V105.106C76.5986 104.758 76.8975 104.476 77.2653 104.476Z" fill="white"/>
<path d="M86.2427 125.416H77.2653C76.7821 125.416 76.3892 125.044 76.3892 124.588V105.106C76.3892 104.649 76.7821 104.278 77.2653 104.278H86.2427C86.7259 104.278 87.1188 104.649 87.1188 105.106V124.588C87.1188 125.044 86.7259 125.416 86.2427 125.416ZM77.2653 104.674C77.013 104.674 76.8081 104.868 76.8081 105.106V124.588C76.8081 124.826 77.013 125.02 77.2653 125.02H86.2427C86.495 125.02 86.6999 124.826 86.6999 124.588V105.106C86.6999 104.868 86.495 104.674 86.2427 104.674H77.2653Z" fill="black"/>
<path d="M89.4288 104.476H98.2712C98.6762 104.476 99.0048 104.787 99.0048 105.169V124.524C99.0048 124.906 98.6762 125.217 98.2712 125.217H89.4288C89.0237 125.217 88.6951 124.906 88.6951 124.524V105.169C88.6951 104.787 89.0237 104.476 89.4288 104.476Z" fill="white"/>
<path d="M98.2712 125.416H89.4288C88.9083 125.416 88.4856 125.016 88.4856 124.525V105.17C88.4856 104.678 88.9083 104.279 89.4288 104.279H98.2712C98.7916 104.279 99.2144 104.678 99.2144 105.17V124.525C99.2144 125.016 98.7916 125.416 98.2712 125.416ZM89.4288 104.674C89.1392 104.674 88.9036 104.897 88.9036 105.17V124.525C88.9036 124.798 89.1392 125.021 89.4288 125.021H98.2712C98.5607 125.021 98.7963 124.798 98.7963 124.525V105.17C98.7963 104.897 98.5607 104.674 98.2712 104.674H89.4288Z" fill="black"/>
<path d="M86.4326 127.523H77.0753C76.8121 127.523 76.5986 127.724 76.5986 127.973V147.814C76.5986 148.063 76.8121 148.264 77.0753 148.264H86.4326C86.6959 148.264 86.9093 148.063 86.9093 147.814V127.973C86.9093 127.724 86.6959 127.523 86.4326 127.523Z" fill="white"/>
<path d="M86.4336 148.462H77.0754C76.6974 148.462 76.3901 148.172 76.3901 147.815V127.973C76.3901 127.616 76.6974 127.326 77.0754 127.326H86.4336C86.8116 127.326 87.1189 127.616 87.1189 127.973V147.815C87.1189 148.172 86.8116 148.462 86.4336 148.462ZM77.0754 127.721C76.9283 127.721 76.8082 127.834 76.8082 127.973V147.815C76.8082 147.954 76.9283 148.067 77.0754 148.067H86.4336C86.5807 148.067 86.7008 147.954 86.7008 147.815V127.973C86.7008 127.834 86.5807 127.721 86.4336 127.721H77.0754Z" fill="black"/>
<path d="M98.2525 127.523H89.4483C89.0323 127.523 88.6951 127.841 88.6951 128.234V147.553C88.6951 147.946 89.0323 148.264 89.4483 148.264H98.2525C98.6685 148.264 99.0058 147.946 99.0058 147.553V128.234C99.0058 127.841 98.6685 127.523 98.2525 127.523Z" fill="white"/>
<path d="M98.2526 148.462H89.4474C88.9167 148.462 88.4856 148.054 88.4856 147.554V128.234C88.4856 127.733 88.9167 127.326 89.4474 127.326H98.2526C98.7833 127.326 99.2144 127.734 99.2144 128.234V147.554C99.2144 148.055 98.7833 148.462 98.2526 148.462ZM89.4474 127.721C89.1476 127.721 88.9036 127.951 88.9036 128.234V147.554C88.9036 147.837 89.1476 148.067 89.4474 148.067H98.2526C98.5524 148.067 98.7963 147.837 98.7963 147.554V128.234C98.7963 127.951 98.5524 127.721 98.2526 127.721H89.4474Z" fill="black"/>
<path d="M128.873 44.1548H135.429C135.797 44.1548 136.096 44.4372 136.096 44.7847V54.5951C136.096 54.9427 135.797 55.2251 135.429 55.2251H128.873C128.505 55.2251 128.206 54.9427 128.206 54.5951V44.7847C128.206 44.4372 128.505 44.1548 128.873 44.1548Z" fill="white"/>
<path d="M144.618 44.1548H138.196C137.79 44.1548 137.462 44.4652 137.462 44.8481V54.5318C137.462 54.9147 137.79 55.2251 138.196 55.2251H144.618C145.023 55.2251 145.352 54.9147 145.352 54.5318V44.8481C145.352 44.4652 145.023 44.1548 144.618 44.1548Z" fill="white"/>
<path d="M135.62 56.9893H128.683C128.419 56.9893 128.206 57.1909 128.206 57.4397V67.6091C128.206 67.8579 128.419 68.0595 128.683 68.0595H135.62C135.883 68.0595 136.097 67.8579 136.097 67.6091V57.4397C136.097 57.1909 135.883 56.9893 135.62 56.9893Z" fill="white"/>
<path d="M144.6 56.9893H138.216C137.8 56.9893 137.463 57.3079 137.463 57.701V67.3478C137.463 67.7409 137.8 68.0595 138.216 68.0595H144.6C145.016 68.0595 145.353 67.7409 145.353 67.3478V57.701C145.353 57.3079 145.016 56.9893 144.6 56.9893Z" fill="white"/>
<path d="M127.261 104.308H104.977C104.284 104.308 103.722 104.839 103.722 105.494V151.431C103.722 152.086 104.284 152.617 104.977 152.617H127.261C127.954 152.617 128.516 152.086 128.516 151.431V105.494C128.516 104.839 127.954 104.308 127.261 104.308Z" fill="black"/>
<path d="M126.416 105.655H105.921C105.458 105.655 105.084 106.009 105.084 106.446V150.12C105.084 150.557 105.458 150.911 105.921 150.911H126.416C126.878 150.911 127.253 150.557 127.253 150.12V106.446C127.253 106.009 126.878 105.655 126.416 105.655Z" fill="white"/>
<path d="M126.416 151.108H105.92C105.344 151.108 104.874 150.665 104.874 150.12V106.445C104.874 105.9 105.344 105.457 105.92 105.457H126.416C126.992 105.457 127.461 105.9 127.461 106.445V150.12C127.461 150.665 126.992 151.108 126.416 151.108ZM105.92 105.852C105.574 105.852 105.292 106.118 105.292 106.445V150.12C105.292 150.447 105.574 150.713 105.92 150.713H126.416C126.762 150.713 127.043 150.447 127.043 150.12V106.445C127.043 106.118 126.762 105.852 126.416 105.852H105.92Z" fill="black"/>
<path d="M131.633 149.329H100.712C100.385 149.329 100.119 149.58 100.119 149.889V152.982C100.119 153.291 100.385 153.541 100.712 153.541H131.633C131.96 153.541 132.226 153.291 132.226 152.982V149.889C132.226 149.58 131.96 149.329 131.633 149.329Z" fill="white"/>
<path d="M131.633 153.739H100.712C100.269 153.739 99.9099 153.399 99.9099 152.981V149.889C99.9099 149.471 100.269 149.131 100.712 149.131H131.633C132.075 149.131 132.434 149.471 132.434 149.889V152.981C132.434 153.399 132.075 153.739 131.633 153.739ZM100.712 149.526C100.5 149.526 100.329 149.689 100.329 149.889V152.981C100.329 153.181 100.501 153.343 100.712 153.343H131.633C131.844 153.343 132.016 153.181 132.016 152.981V149.889C132.016 149.689 131.844 149.526 131.633 149.526H100.712Z" fill="black"/>
<path d="M122.815 120.161C122.776 120.161 122.737 120.15 122.703 120.129L108.327 111.397C108.23 111.338 108.201 111.216 108.264 111.125C108.327 111.033 108.456 111.007 108.553 111.065L122.929 119.797C123.026 119.855 123.054 119.978 122.991 120.069C122.951 120.128 122.884 120.16 122.815 120.16V120.161Z" fill="black"/>
<path d="M123.399 125.988C123.36 125.988 123.321 125.977 123.286 125.956L109.913 117.833C109.816 117.774 109.789 117.652 109.851 117.56C109.913 117.468 110.043 117.441 110.14 117.5L123.513 125.623C123.609 125.682 123.638 125.805 123.575 125.896C123.535 125.955 123.468 125.987 123.399 125.987V125.988Z" fill="black"/>
<path d="M154.776 114.348C157.8 114.348 160.253 116.665 160.253 119.523V144.242C160.253 145.436 159.229 146.403 157.966 146.403H151.587C150.324 146.403 149.301 145.435 149.301 144.242V119.523C149.301 116.665 151.752 114.348 154.777 114.348H154.776Z" fill="white"/>
<path d="M157.966 146.6H151.587C150.211 146.6 149.091 145.542 149.091 144.241V119.522C149.091 116.56 151.641 114.15 154.776 114.15C157.911 114.15 160.461 116.56 160.461 119.522V144.241C160.461 145.542 159.341 146.6 157.965 146.6H157.966ZM154.776 114.546C151.872 114.546 149.509 116.779 149.509 119.523V144.242C149.509 145.325 150.441 146.206 151.587 146.206H157.966C159.112 146.206 160.044 145.325 160.044 144.242V119.523C160.044 116.779 157.681 114.546 154.777 114.546H154.776Z" fill="black"/>
<path d="M154.776 153.24C154.661 153.24 154.567 153.151 154.567 153.042V125.322C154.567 125.213 154.66 125.125 154.776 125.125C154.893 125.125 154.986 125.213 154.986 125.322V153.042C154.986 153.151 154.893 153.24 154.776 153.24Z" fill="black"/>
<path d="M145.79 122.972C148.814 122.972 151.267 125.288 151.267 128.147V144.241C151.267 145.435 150.243 146.402 148.98 146.402H142.601C141.338 146.402 140.315 145.434 140.315 144.241V128.147C140.315 125.289 142.766 122.972 145.791 122.972H145.79Z" fill="white"/>
<path d="M148.98 146.6H142.601C141.225 146.6 140.105 145.542 140.105 144.241V128.147C140.105 125.184 142.655 122.775 145.79 122.775C148.925 122.775 151.475 125.184 151.475 128.147V144.241C151.475 145.542 150.355 146.6 148.979 146.6H148.98ZM145.79 123.17C142.886 123.17 140.523 125.403 140.523 128.147V144.241C140.523 145.324 141.455 146.205 142.6 146.205H148.979C150.125 146.205 151.057 145.324 151.057 144.241V128.147C151.057 125.403 148.694 123.17 145.79 123.17Z" fill="black"/>
<path d="M145.79 153.24C145.675 153.24 145.581 153.151 145.581 153.042V133.947C145.581 133.838 145.674 133.749 145.79 133.749C145.907 133.749 146 133.838 146 133.947V153.042C146 153.151 145.906 153.24 145.79 153.24Z" fill="black"/>
<path d="M150.284 18.6033C150.268 18.6033 150.252 18.6016 150.235 18.598C150.123 18.5734 150.053 18.467 150.08 18.3605L153.837 3.26785C153.863 3.1614 153.977 3.09629 154.088 3.12093C154.201 3.14556 154.271 3.25201 154.244 3.35847L150.487 18.4511C150.464 18.5417 150.378 18.6033 150.283 18.6033H150.284Z" fill="black"/>
<path d="M154.041 18.7006C154.002 18.7006 153.962 18.69 153.926 18.668C153.829 18.6082 153.803 18.4859 153.867 18.3944L165.172 2.14751C165.235 2.05601 165.364 2.03138 165.461 2.0912C165.558 2.15103 165.584 2.27332 165.521 2.36482L154.216 18.6117C154.176 18.6698 154.109 18.7006 154.041 18.7006Z" fill="black"/>
<path d="M157.164 22.1012C157.099 22.1012 157.035 22.0731 156.994 22.0194C156.927 21.9306 156.947 21.8074 157.041 21.7432L169.668 13.1503C169.762 13.0861 169.892 13.1064 169.96 13.1952C170.027 13.2841 170.007 13.4072 169.913 13.4715L157.286 22.0643C157.249 22.0898 157.206 22.1012 157.164 22.1012Z" fill="black"/>
<path d="M56.6446 12.5205C56.572 12.5205 56.5022 12.4854 56.4631 12.422C56.4053 12.3279 56.4398 12.2065 56.5394 12.1519C56.6027 12.1167 63.0188 8.63895 72.4366 5.44359C81.1318 2.4928 94.2414 -0.815179 107.317 0.181613C107.433 0.190411 107.518 0.285428 107.509 0.39452C107.5 0.503613 107.398 0.585433 107.284 0.575755C94.2833 -0.415758 81.2343 2.87814 72.5771 5.81485C63.1947 8.99878 56.8113 12.459 56.748 12.4933C56.7154 12.5109 56.6791 12.5197 56.6437 12.5197L56.6446 12.5205Z" fill="black"/>
<path d="M123.126 6.58369C123.108 6.58369 123.09 6.58105 123.071 6.57665C106.475 2.34138 92.0758 5.05639 91.9324 5.08454C91.8179 5.10741 91.709 5.03791 91.6848 4.93058C91.6615 4.82324 91.7341 4.71943 91.8477 4.69744C91.992 4.66928 106.483 1.93492 123.18 6.19482C123.292 6.22298 123.358 6.33207 123.327 6.43676C123.302 6.52474 123.217 6.58281 123.125 6.58281L123.126 6.58369Z" fill="black"/>
<path d="M127.13 8.498C126.456 8.498 125.908 7.97981 125.908 7.34373C125.908 6.70764 126.457 6.18945 127.13 6.18945C127.803 6.18945 128.352 6.70764 128.352 7.34373C128.352 7.97981 127.804 8.498 127.13 8.498ZM127.13 6.5836C126.687 6.5836 126.326 6.92407 126.326 7.34285C126.326 7.76162 126.687 8.1021 127.13 8.1021C127.573 8.1021 127.933 7.76162 127.933 7.34285C127.933 6.92407 127.573 6.5836 127.13 6.5836Z" fill="black"/>
<path d="M25.7258 36.3519C25.6495 36.3519 25.5768 36.3132 25.5396 36.2446L25.021 35.2944C24.9679 35.1976 25.008 35.078 25.1113 35.0278C25.2147 34.9777 25.3403 35.0164 25.3934 35.1132L25.912 36.0633C25.9651 36.1601 25.9251 36.2798 25.8217 36.3299C25.791 36.3449 25.7584 36.3519 25.7258 36.3519Z" fill="black"/>
<path d="M27.5403 39.6786C27.4639 39.6786 27.3913 39.6399 27.354 39.5712L26.8354 38.6211C26.7824 38.5243 26.8224 38.4046 26.9258 38.3545C27.0282 38.3043 27.1548 38.3431 27.2079 38.4398L27.7265 39.39C27.7796 39.4868 27.7395 39.6064 27.6362 39.6566C27.6054 39.6715 27.5729 39.6786 27.5403 39.6786Z" fill="black"/>
<path d="M24.1094 38.6404C24.033 38.6404 23.9604 38.6017 23.9232 38.5331C23.8701 38.4363 23.9111 38.3167 24.0135 38.2665L25.02 37.7773C25.1224 37.7272 25.249 37.7659 25.3021 37.8627C25.3551 37.9595 25.3142 38.0791 25.2118 38.1293L24.2053 38.6184C24.1745 38.6334 24.142 38.6404 24.1094 38.6404Z" fill="black"/>
<path d="M27.6316 36.929C27.5552 36.929 27.4826 36.8903 27.4454 36.8217C27.3923 36.7249 27.4333 36.6052 27.5357 36.5551L28.5422 36.0659C28.6446 36.0158 28.7712 36.0545 28.8243 36.1513C28.8774 36.248 28.8364 36.3677 28.734 36.4178L27.7275 36.907C27.6968 36.9219 27.6642 36.929 27.6316 36.929Z" fill="black"/>
<path d="M18.52 50.206C18.3282 50.206 18.1336 50.1787 17.9408 50.1197C16.9427 49.818 16.3906 48.8054 16.71 47.8622C17.0293 46.92 18.1019 46.3992 19.1 46.7009C19.5833 46.847 19.978 47.1628 20.2099 47.5886C20.4426 48.0153 20.4855 48.5009 20.33 48.9576C20.0721 49.7186 19.3235 50.2042 18.519 50.2042L18.52 50.206ZM18.5209 47.0106C17.8934 47.0106 17.3096 47.3898 17.1085 47.9828C16.8599 48.7174 17.29 49.5074 18.0684 49.7432C18.8468 49.979 19.6829 49.5725 19.9315 48.8379C20.0525 48.4816 20.019 48.1033 19.8374 47.7707C19.6559 47.4382 19.3486 47.1927 18.9715 47.0783C18.8216 47.0326 18.6699 47.0115 18.52 47.0115L18.5209 47.0106Z" fill="black"/>
<path d="M12.3992 61.4774C12.2325 61.4774 12.064 61.4536 11.8964 61.4026C11.0305 61.1404 10.551 60.2615 10.8285 59.4442C11.1059 58.626 12.0361 58.1747 12.902 58.4369C13.3219 58.5636 13.6636 58.8372 13.8656 59.2076C14.0677 59.5779 14.1049 59.9994 13.9699 60.3953C13.7465 61.056 13.0966 61.4774 12.3992 61.4774ZM12.4001 58.758C11.8797 58.758 11.3946 59.0729 11.2279 59.5656C11.0212 60.1762 11.3787 60.8316 12.0249 61.0269C12.6711 61.2223 13.3657 60.8853 13.5724 60.2747C13.6729 59.9791 13.645 59.6642 13.4941 59.3888C13.3433 59.1125 13.0882 58.9084 12.7754 58.8134C12.6506 58.7756 12.5249 58.758 12.4001 58.758Z" fill="black"/>
<path d="M31.9173 148.963L30.6733 154.656L33.9302 155.536L35.7319 149.992L31.9173 148.963Z" fill="white"/>
<path d="M33.9303 155.733C33.9117 155.733 33.8921 155.731 33.8725 155.725L30.6157 154.846C30.5104 154.818 30.4462 154.718 30.4685 154.617L31.7125 148.923C31.7246 148.869 31.759 148.822 31.8093 148.793C31.8596 148.765 31.9192 148.757 31.975 148.772L35.7887 149.802C35.8427 149.817 35.8883 149.851 35.9153 149.898C35.9423 149.944 35.9479 149.999 35.9311 150.05L34.1295 155.593C34.1016 155.679 34.0197 155.733 33.9293 155.733H33.9303ZM30.9173 154.516L33.7906 155.292L35.4693 150.127L32.0774 149.211L30.9182 154.516H30.9173Z" fill="black"/>
<path d="M29.5962 159.455C29.6335 160.003 30.3355 160.442 30.9035 160.524C32.8792 160.809 37.5215 160.688 38.7831 160.771C40.42 160.879 43.4934 160.763 43.6126 159.767C43.7579 158.552 42.3855 156.782 39.1016 155.811C37.4033 155.31 35.6072 152.824 34.8121 152.779C34.017 152.735 32.6101 154.698 32.6101 154.698L30.3467 153.964C30.3467 153.964 29.4091 156.675 29.5962 159.454V159.455Z" fill="white"/>
<path d="M39.8678 161C39.2672 161 38.8268 160.973 38.7682 160.969C38.339 160.94 37.4926 160.936 36.5122 160.931C34.5821 160.92 32.1799 160.908 30.8718 160.72C30.1911 160.621 29.4304 160.115 29.3867 159.468C29.1995 156.683 30.1083 154.016 30.1474 153.904C30.1651 153.854 30.2032 153.812 30.2526 153.789C30.3029 153.765 30.3606 153.761 30.4137 153.779L32.5272 154.464C32.9099 153.95 34.0355 152.541 34.8232 152.583C35.2552 152.607 35.786 153.092 36.5206 153.763C37.2999 154.475 38.2691 155.36 39.162 155.624C42.5828 156.635 43.9738 158.492 43.8183 159.791C43.6926 160.839 41.3165 161.001 39.8659 161.001L39.8678 161ZM30.4844 154.219C30.2805 154.881 29.6511 157.154 29.8047 159.443C29.8327 159.861 30.4248 160.256 30.9351 160.329C32.2125 160.513 34.5979 160.526 36.5141 160.536C37.5019 160.541 38.3548 160.545 38.797 160.575C40.9571 160.717 43.3239 160.418 43.404 159.746C43.5446 158.568 42.0903 156.902 39.0382 156.001C38.0503 155.709 37.041 154.788 36.2301 154.047C35.6621 153.529 35.0755 152.993 34.7981 152.978C34.3307 152.958 33.3382 154.034 32.7814 154.81C32.7283 154.884 32.6296 154.915 32.5402 154.887L30.4826 154.219H30.4844Z" fill="black"/>
<path d="M40.6657 159.516C40.2318 159.516 39.757 159.492 39.2542 159.468C38.5103 159.431 37.7421 159.393 36.9861 159.426C35.2627 159.5 33.7888 159.435 32.8558 159.367C31.1045 159.241 31.0375 159.139 30.9965 159.078C30.9565 159.018 30.9537 158.941 30.989 158.877C31.043 158.782 31.1678 158.745 31.2693 158.796C31.5644 158.865 33.9908 159.16 36.9665 159.03C37.7421 158.996 38.5224 159.035 39.2756 159.072C40.4096 159.128 41.4813 159.182 42.0921 158.933C42.1982 158.89 42.3211 158.936 42.3668 159.037C42.4124 159.137 42.363 159.253 42.2569 159.296C41.8407 159.465 41.297 159.515 40.6648 159.515L40.6657 159.516Z" fill="black"/>
<path d="M36.4506 157.563C36.3985 157.563 36.3454 157.545 36.3054 157.508C36.2225 157.432 36.2207 157.306 36.3007 157.228L37.4925 156.065C37.5726 155.987 37.7048 155.985 37.7886 156.06C37.8715 156.136 37.8733 156.262 37.7933 156.34L36.6015 157.503C36.5605 157.544 36.5056 157.563 36.4516 157.563H36.4506Z" fill="black"/>
<path d="M14.2519 148.692L14.0862 152.664L16.9939 153.333L17.5116 148.721L14.2519 148.692Z" fill="white"/>
<path d="M16.994 153.53C16.9772 153.53 16.9605 153.528 16.9446 153.525L14.0369 152.855C13.9401 152.833 13.873 152.75 13.8777 152.656L14.0434 148.684C14.0481 148.578 14.1402 148.494 14.252 148.494H14.2538L17.5135 148.523C17.5722 148.523 17.629 148.547 17.6681 148.589C17.7072 148.63 17.7258 148.685 17.7202 148.741L17.2025 153.353C17.196 153.41 17.1644 153.462 17.115 153.494C17.0796 153.518 17.0377 153.53 16.9949 153.53H16.994ZM14.3022 152.51L16.8115 153.088L17.2798 148.916L14.454 148.891L14.3032 152.509L14.3022 152.51Z" fill="black"/>
<path d="M17.4372 160.553C16.2725 160.71 14.3703 160.777 12.118 160.552C11.1087 160.451 10.7149 159.112 10.8918 158.423C11.3853 156.505 12.2446 153.411 13.7046 151.723L14.2409 152.753L14.7474 151.749C14.8163 151.631 14.9392 151.551 15.0798 151.534L16.1719 151.544C16.4009 151.515 16.6142 151.661 16.6616 151.877L16.8367 152.671L17.7687 151.646L18.4959 159.215C18.5852 159.864 18.1141 160.462 17.4363 160.553L17.4372 160.553Z" fill="white"/>
<path d="M14.9513 160.896C14.1497 160.896 13.1916 160.858 12.0966 160.748C11.6963 160.708 11.3453 160.5 11.0818 160.146C10.6684 159.591 10.5715 158.835 10.6889 158.376C11.2829 156.069 12.1432 153.214 13.5435 151.597C13.5882 151.545 13.658 151.518 13.7288 151.526C13.7996 151.534 13.861 151.575 13.8927 151.635L14.2381 152.299L14.5584 151.662C14.6645 151.479 14.847 151.362 15.0528 151.337C15.0621 151.336 15.0723 151.334 15.0817 151.335L16.1608 151.345C16.4904 151.314 16.7986 151.526 16.8665 151.836L16.955 152.236L17.6105 151.516C17.6654 151.456 17.7529 151.432 17.833 151.456C17.9131 151.48 17.9698 151.547 17.9773 151.626L18.7045 159.196C18.8078 159.942 18.2529 160.642 17.4661 160.747C17.049 160.803 16.1868 160.893 14.9504 160.893L14.9513 160.896ZM13.6655 152.094C12.2698 153.905 11.4533 157.078 11.0948 158.469C10.9998 158.838 11.0967 159.48 11.4225 159.918C11.6171 160.18 11.8583 160.327 12.1395 160.355C14.0389 160.545 16.0081 160.546 17.4065 160.357C17.9671 160.282 18.3628 159.781 18.2873 159.241L17.6039 152.129L16.9941 152.799C16.9419 152.856 16.86 152.881 16.7827 152.862C16.7055 152.843 16.6468 152.784 16.63 152.71L16.455 151.917C16.4299 151.802 16.3153 151.724 16.1962 151.739C16.1868 151.74 16.1766 151.741 16.1673 151.741L15.0919 151.731C15.023 151.743 14.9625 151.784 14.928 151.843L14.4271 152.837C14.3927 152.906 14.32 152.949 14.24 152.95H14.239C14.159 152.95 14.0863 152.906 14.051 152.839L13.6627 152.094L13.6655 152.094Z" fill="black"/>
<path d="M14.198 159.653C13.4494 159.653 12.6384 159.589 11.8312 159.413C11.7185 159.389 11.6487 159.282 11.6738 159.177C11.6999 159.07 11.8126 159.004 11.9243 159.028C14.6523 159.622 17.5061 158.858 17.5349 158.85C17.6457 158.82 17.7621 158.88 17.7938 158.985C17.8264 159.09 17.7621 159.2 17.6513 159.229C17.5647 159.253 16.075 159.652 14.197 159.652L14.198 159.653Z" fill="black"/>
<path d="M13.5314 156.713C13.4188 156.713 13.3266 156.629 13.3229 156.522C13.3191 156.413 13.4095 156.322 13.5249 156.318L16.1459 156.236C16.2604 156.233 16.3582 156.317 16.3619 156.427C16.3656 156.536 16.2753 156.627 16.1598 156.631L13.5389 156.713C13.5389 156.713 13.5342 156.713 13.5314 156.713Z" fill="black"/>
<path d="M43.7327 133.718C40.0075 143.454 37.3483 148.303 36.326 150.064C36.0467 150.545 35.489 150.813 34.9182 150.744L32.2628 150.418C31.476 150.321 30.9276 149.622 31.0533 148.874C32.0226 143.081 35.8698 114.885 34.8447 112.279L18.3535 149.238C18.1757 149.63 17.7688 149.882 17.3219 149.877L14.5361 149.847C13.916 149.84 13.4207 149.349 13.4374 148.756C14.2605 118.841 23.4465 114.028 26.1373 99.7254C26.1438 99.692 40.6788 101.748 45.2056 99.4773C45.2717 99.4439 48.0603 122.407 43.7317 133.719L43.7327 133.718Z" fill="black"/>
<path d="M26.4445 106.582C26.3039 106.582 26.221 106.576 26.2154 106.575C26.1009 106.564 26.0162 106.467 26.0274 106.359C26.0385 106.251 26.14 106.171 26.2555 106.181C26.4063 106.195 29.9621 106.466 30.976 102.716C31.0049 102.61 31.1185 102.546 31.2302 102.573C31.3419 102.601 31.4099 102.708 31.381 102.814C30.4304 106.329 27.3169 106.582 26.4435 106.582H26.4445Z" fill="white"/>
<path d="M44.4869 106.581C43.8677 106.581 41.7021 106.322 41.0531 102.798C41.0336 102.69 41.1099 102.587 41.2235 102.569C41.338 102.551 41.446 102.623 41.4656 102.73C42.1527 106.464 44.5716 106.185 44.5958 106.181C44.7104 106.166 44.8165 106.241 44.8323 106.349C44.8482 106.457 44.769 106.558 44.6545 106.573C44.6508 106.573 44.5902 106.581 44.4878 106.581H44.4869Z" fill="white"/>
<path d="M64.7694 83.0312C64.7694 83.0312 60.7108 85.4541 54.6989 83.3673C51.118 82.1242 49.5882 75.3569 48.5603 73.4812C46.5594 71.9328 44.283 70.7231 41.7411 70.2709C39.5047 69.8732 36.732 69.7043 33.8633 70.3263C30.275 71.104 27.7378 72.7791 27.7378 72.7791C27.7378 72.7791 22.2491 76.0862 22.3795 82.396C22.481 87.292 26.3347 93.1214 26.3049 93.5385C25.966 98.2118 25.587 98.0526 26.0982 99.7172C27.3402 103.759 44.9263 102.092 45.2383 100.24C45.5222 98.5594 44.7047 95.7493 45.1153 91.9698C45.3463 89.8399 45.9515 87.3993 46.3602 85.9081C49.2624 90.0184 51.4653 92.6683 57.142 91.7059C61.8514 90.9079 66.2563 87.6008 66.2563 87.6008L64.7694 83.0312Z" fill="white"/>
<path d="M34.7339 102.407C30.5087 102.407 26.4967 101.724 25.8971 99.7718C25.5573 98.6659 25.6001 98.3105 25.7593 96.9873C25.8506 96.2316 25.9744 95.197 26.0954 93.5245C26.0796 93.44 25.831 92.9685 25.5684 92.4696C24.4903 90.4215 22.2482 86.1598 22.17 82.3997C22.0387 76.052 27.5684 72.6455 27.6243 72.6121C27.6429 72.5998 30.2294 70.9106 33.8159 70.1337C36.2925 69.5971 38.9722 69.5777 41.7794 70.0766C44.1145 70.4918 46.4403 71.5854 48.6926 73.3282C48.7149 73.3449 48.7326 73.3661 48.7456 73.3907C49.0036 73.8605 49.2903 74.6268 49.6227 75.5127C50.632 78.2049 52.1562 82.2738 54.7716 83.1818C60.6085 85.2079 64.6186 82.8879 64.6586 82.8642C64.7136 82.8316 64.7815 82.8246 64.843 82.8457C64.9044 82.8668 64.951 82.9143 64.9705 82.9724L66.4575 87.542C66.4826 87.6194 66.4547 87.7039 66.3876 87.7549C66.3429 87.7883 61.8868 91.1016 57.1802 91.8995C51.6469 92.8365 49.3592 90.4646 46.4478 86.3842C46.0269 87.9669 45.5297 90.0977 45.324 91.9884C45.0931 94.1148 45.256 95.9483 45.3863 97.421C45.4906 98.5929 45.5726 99.5193 45.4459 100.269C45.2485 101.438 40.4274 102.142 37.2339 102.33C36.4089 102.379 35.5672 102.405 34.7349 102.405L34.7339 102.407ZM37.8204 70.1117C36.4695 70.1117 35.1632 70.2472 33.9099 70.5191C30.4026 71.2792 27.8822 72.9244 27.857 72.9411C27.7956 72.9781 22.4624 76.2711 22.5881 82.3926C22.6635 86.0639 24.8785 90.2719 25.9427 92.2946C26.3934 93.1515 26.5237 93.4057 26.5126 93.5526C26.3906 95.2339 26.2658 96.2738 26.1746 97.0331C26.0154 98.358 25.9818 98.6334 26.2984 99.6627C26.9483 101.778 32.5804 102.211 37.2069 101.938C41.6909 101.674 44.9292 100.815 45.0316 100.209C45.1498 99.5061 45.066 98.556 44.9683 97.4562C44.8361 95.9668 44.6722 94.114 44.9068 91.9506C45.134 89.8593 45.7122 87.4839 46.1573 85.8598C46.1777 85.7842 46.2439 85.727 46.3249 85.7147C46.4059 85.7015 46.4878 85.7349 46.5334 85.8C49.4784 89.9702 51.6599 92.4362 57.1048 91.5133C61.2947 90.8033 65.2983 88.0426 66.0133 87.5305L64.6447 83.3243C63.681 83.7968 59.8524 85.3698 54.6263 83.5548C51.8275 82.5827 50.2633 78.409 49.2279 75.6465C48.9095 74.7966 48.633 74.0593 48.3937 73.6098C46.2075 71.925 43.9562 70.8684 41.7021 70.4672C40.3753 70.2314 39.0783 70.1135 37.8204 70.1135V70.1117Z" fill="black"/>
<path d="M61.1857 84.36C61.4278 84.9988 62.2713 85.2988 63.0693 85.0287L80.3481 79.1869C85.6301 77.401 88.6254 72.5076 87.0239 68.2785L78.0679 44.6274C77.2104 42.3619 78.8146 39.741 81.6442 38.7838L91.7044 35.3826C94.5339 34.4263 97.5339 35.4908 98.3914 37.7563L109.814 67.9196C110.056 68.5583 110.899 68.8583 111.697 68.5882C112.495 68.3181 112.947 67.5817 112.705 66.9421L101.282 36.7788C99.9416 33.2377 95.2509 31.5732 90.8273 33.0688L80.7671 36.47C76.3436 37.9656 73.8353 42.0637 75.1769 45.6057L84.1329 69.2568C85.2511 72.2094 83.16 75.6264 79.472 76.8731L62.1931 82.7149C61.3952 82.9849 60.9436 83.7213 61.1857 84.3609V84.36Z" fill="black"/>
<path d="M114.59 37.9047L133.622 88.1631C134.712 91.0391 132.682 94.3559 129.09 95.57L116.369 99.8712C112.777 101.086 108.981 99.7393 107.893 96.8632L88.8609 46.6048C87.7715 43.7288 89.8013 40.4121 93.3933 39.198L106.114 34.8967C109.706 33.6817 113.502 35.0287 114.59 37.9047Z" fill="white"/>
<path d="M113.682 100.516C112.796 100.516 111.927 100.373 111.117 100.085C109.458 99.4966 108.242 98.3749 107.695 96.9286L88.6625 46.6702C88.1151 45.2238 88.3022 43.6279 89.1895 42.178C90.0703 40.7387 91.5377 39.6134 93.3216 39.0108L106.042 34.7095C107.826 34.106 109.716 34.0963 111.363 34.6805C113.022 35.2691 114.238 36.3908 114.786 37.8372L133.818 88.0956C134.944 91.0701 132.854 94.5056 129.159 95.7549L116.438 100.056C115.531 100.362 114.598 100.516 113.682 100.516ZM108.799 34.6453C107.931 34.6453 107.045 34.7914 106.183 35.0826L93.4632 39.3838C91.7723 39.9557 90.3832 41.0185 89.5517 42.3768C88.7268 43.7247 88.5517 45.2027 89.0573 46.5382L108.089 96.7966C108.595 98.1321 109.723 99.1694 111.265 99.7166C112.82 100.268 114.608 100.258 116.299 99.6858L129.019 95.3846C132.497 94.2083 134.474 90.9988 133.425 88.2302L114.393 37.9718C113.887 36.6363 112.759 35.5999 111.217 35.0518C110.454 34.7808 109.635 34.6453 108.799 34.6453Z" fill="black"/>
<path d="M108.389 43.2216L125.258 87.7694C125.731 89.0178 124.851 90.4571 123.291 90.9841L117.771 92.851C116.211 93.378 114.564 92.7938 114.092 91.5454L97.2228 46.9977C96.7498 45.7493 97.6306 44.3099 99.1901 43.7829L104.71 41.9161C106.27 41.3891 107.917 41.9732 108.389 43.2216Z" fill="black"/>
<path d="M73.3286 83.3352L43.6711 93.363C41.4664 94.1081 39.2085 93.4694 38.6275 91.9351C38.0465 90.4007 39.3631 88.5532 41.5678 87.808L71.2253 77.7803L73.3286 83.3352Z" fill="white"/>
<path d="M41.823 93.8723C41.3566 93.8723 40.9031 93.8125 40.4804 93.6928C39.4627 93.4051 38.7346 92.8042 38.4311 92.0019C38.1276 91.1995 38.2868 90.2986 38.8799 89.4655C39.46 88.6508 40.3892 87.9962 41.4971 87.6215L71.1546 77.5937C71.2636 77.5568 71.3837 77.6104 71.4219 77.7134L73.5251 83.2683C73.5438 83.3176 73.541 83.3721 73.5177 83.4196C73.4944 83.4671 73.4516 83.5032 73.3995 83.5208L43.742 93.5485C43.106 93.7641 42.4524 93.8723 41.824 93.8723H41.823ZM71.0988 78.0327L41.6387 87.9936C40.6145 88.3402 39.7579 88.9411 39.2272 89.6854C38.7104 90.4112 38.5671 91.1863 38.825 91.8673C39.0829 92.5482 39.7132 93.062 40.6005 93.3128C41.5111 93.5705 42.5763 93.5213 43.6004 93.1755L73.0605 83.2146L71.0978 78.0318L71.0988 78.0327Z" fill="black"/>
<path d="M71.2597 83.6455L69.4151 78.7749C69.1014 77.9466 69.5585 77.0332 70.4351 76.7368L71.1303 76.5018C72.0069 76.2053 72.9735 76.6372 73.2872 77.4656L75.1318 82.3362C75.4455 83.1646 74.9884 84.0779 74.1118 84.3743L73.4166 84.6094C72.54 84.9058 71.5734 84.4739 71.2597 83.6455Z" fill="white"/>
<path d="M72.8501 84.9029C72.5736 84.9029 72.298 84.8448 72.041 84.7296C71.5829 84.5255 71.2375 84.1639 71.0662 83.7134L69.2217 78.843C68.8698 77.913 69.3837 76.8855 70.3679 76.5529L71.0634 76.318C72.0475 75.9846 73.135 76.4711 73.4869 77.401L75.3314 82.2715C75.5018 82.7219 75.4767 83.2084 75.2606 83.6413C75.0437 84.0741 74.662 84.4005 74.1853 84.5624L73.4897 84.7973C73.2812 84.8677 73.0652 84.9029 72.8501 84.9029ZM69.6155 78.7101L71.46 83.5806C71.5931 83.9316 71.8622 84.2132 72.2198 84.3724C72.5764 84.5316 72.9776 84.551 73.3491 84.4252L74.0447 84.1903C74.8119 83.9307 75.2122 83.1301 74.9385 82.4052L73.094 77.5347C72.8194 76.8098 71.9721 76.4315 71.2049 76.6901L70.5094 76.925C70.1379 77.0509 69.8399 77.3051 69.6714 77.6429C69.5029 77.9799 69.4833 78.3591 69.6155 78.7101Z" fill="black"/>
<path d="M129.349 89.1337C129.263 89.1337 129.182 89.0836 129.151 89.0026L110.57 39.9346C110.531 39.8317 110.587 39.719 110.696 39.6821C110.804 39.6451 110.924 39.6988 110.964 39.8017L129.545 88.8698C129.584 88.9727 129.527 89.0853 129.418 89.1223C129.395 89.1302 129.372 89.1337 129.348 89.1337H129.349Z" fill="black"/>
<path d="M29.7944 102.209C32.0365 92.633 32.1379 79.723 32.1379 79.723C32.1445 79.233 32.5672 78.8389 33.0858 78.8389H44.2596C44.7791 78.8389 45.2018 79.2339 45.2074 79.7248L45.1748 102.413L29.7954 102.209H29.7944Z" fill="black"/>
<path d="M34.4294 80.7496C34.4126 80.7496 34.3959 80.7496 34.3782 80.7487C33.84 80.7258 33.4266 80.3405 33.4545 79.8891C33.7311 75.3741 32.5328 73.3638 31.4788 72.4717C30.8336 71.9253 30.2293 71.899 29.6176 71.6693C29.4556 71.6086 29.4593 71.3922 29.6222 71.335C29.9649 71.2154 30.3355 70.9699 30.6157 70.8951C30.8354 70.8362 31.4863 70.1271 32.8642 71.3192C34.7804 72.9784 35.6547 75.8694 35.4033 79.9736C35.3763 80.4108 34.9461 80.7496 34.4303 80.7496H34.4294Z" fill="black"/>
<path d="M43.2114 81.069C43.1965 81.0646 43.1825 81.0593 43.1685 81.054C42.7496 80.8992 42.2012 80.3396 42.366 79.934C44.8324 73.8723 44.0717 71.6157 43.4683 70.6611C43.3799 70.5204 43.5317 70.355 43.6918 70.4166C43.9814 70.5283 44.6406 70.7579 44.8249 70.8389C45.4506 71.1125 47.2355 72.1489 44.229 80.6C44.0875 80.9977 43.6201 81.1939 43.2123 81.0681L43.2114 81.069Z" fill="black"/>
<path d="M49.8796 90.3917L53.4838 87.4515L55.9875 84.7936C56.3273 84.4329 56.9102 84.3968 57.2975 84.7127C57.6932 85.0347 57.7342 85.5995 57.3887 85.969L55.9167 87.5403C55.7128 87.7585 55.8217 88.1034 56.1188 88.1808C56.5796 88.3004 57.0582 88.3409 57.5331 88.2969C58.3971 88.2177 59.8868 88.0453 61.3365 87.7022C62.0171 87.5412 62.5758 88.1438 62.1456 88.6664L58.2193 90.8483C57.4427 91.2803 56.548 91.4633 55.6616 91.3911C55.2771 91.3594 54.8255 91.311 54.3432 91.2521C54.1021 91.2231 53.7352 91.9137 52.9159 92.6483C51.8247 93.6266 50.186 94.3437 50.186 94.3437L49.8796 90.3926V90.3917Z" fill="white"/>
<path d="M50.0408 94.8893C49.9616 94.8893 49.8853 94.8462 49.8508 94.7741C49.8024 94.6747 49.849 94.5577 49.9542 94.5119C51.9625 93.6453 54.2548 91.0764 54.2772 91.05C54.3265 90.9946 54.4038 90.969 54.4792 90.9831L55.3833 91.1564C56.3181 91.3034 57.291 91.1336 58.1141 90.6761L62.0032 88.5145C62.1084 88.371 62.1168 88.2206 62.0265 88.0886C61.9241 87.94 61.6866 87.8203 61.3887 87.8916C59.9697 88.2276 58.5201 88.4036 57.5545 88.4916C57.0536 88.5364 56.5527 88.496 56.0639 88.3693C55.8544 88.3147 55.6915 88.1643 55.63 87.9672C55.5676 87.7702 55.617 87.5608 55.7613 87.4068L57.2333 85.8355C57.3627 85.6974 57.427 85.5188 57.4139 85.3349C57.4009 85.1502 57.3115 84.9812 57.1626 84.8607C56.8637 84.617 56.4075 84.6452 56.1458 84.9241L53.1291 88.1273C53.0537 88.1986 51.4877 89.6564 49.9942 90.5573C49.8965 90.6163 49.768 90.589 49.7056 90.4975C49.6432 90.4051 49.6721 90.2828 49.7689 90.2247C51.2242 89.3467 52.8098 87.8704 52.8256 87.8555L55.833 84.661C56.2454 84.2229 56.9642 84.178 57.4354 84.5616C57.67 84.7525 57.8097 85.0173 57.8311 85.3085C57.8516 85.5997 57.751 85.8795 57.5462 86.0977L56.0741 87.669C56.0052 87.742 56.0211 87.8229 56.0304 87.8546C56.0406 87.8863 56.0741 87.9619 56.1747 87.9883C56.6142 88.1027 57.0648 88.1388 57.5136 88.0983C58.2929 88.027 59.8189 87.8555 61.2863 87.508C61.7174 87.4059 62.1559 87.552 62.3766 87.8731C62.5693 88.1529 62.5442 88.503 62.3114 88.7854C62.2956 88.8048 62.2751 88.8215 62.2527 88.8347L58.3264 91.0166C57.4186 91.5207 56.3469 91.7089 55.3079 91.5444L54.5174 91.3922C54.0816 91.8699 52.0286 94.05 50.1283 94.87C50.1004 94.8823 50.0706 94.8876 50.0417 94.8876L50.0408 94.8893Z" fill="black"/>
<path d="M30.3662 73.2368C30.3662 73.2368 26.4585 74.8046 24.3952 81.1856C23.2565 84.7074 23.6383 89.6034 29.0813 96.4059C34.4517 103.118 50.3833 94.9419 50.3833 94.9419L50.0323 89.9139C50.0323 89.9139 41.2588 94.4835 35.3297 91.8574C33.6231 91.1017 31.0152 82.9997 30.7498 78.9642L30.3662 73.2377V73.2368Z" fill="white"/>
<path d="M35.8372 99.2413C32.707 99.2413 30.3579 98.3299 28.9138 96.5254C25.8208 92.6605 24.0769 89.0341 23.7305 85.7463C23.7193 85.6381 23.8031 85.5405 23.9176 85.5299C24.0331 85.5185 24.1355 85.5985 24.1467 85.7067C24.4856 88.9206 26.2016 92.4802 29.248 96.287C34.2088 102.487 48.7047 95.5489 50.1655 94.8274L49.8443 90.2315C48.2522 91.0092 40.6621 94.4377 35.2404 92.0359C33.7861 91.3919 32.085 86.4581 31.2964 83.2997C31.2694 83.1932 31.3392 83.0868 31.4519 83.0621C31.5636 83.0366 31.6772 83.1026 31.7033 83.209C32.7768 87.5112 34.408 91.2309 35.4173 91.6778C41.1797 94.2301 49.8434 89.7854 49.93 89.7405C49.9923 89.708 50.0687 89.708 50.1311 89.7405C50.1935 89.7731 50.2344 89.8338 50.2391 89.9007L50.5901 94.9286C50.5957 95.006 50.5529 95.0782 50.4812 95.1151C50.4411 95.1354 46.4235 97.1835 41.7998 98.3809C39.5829 98.9545 37.5867 99.2404 35.8363 99.2404L35.8372 99.2413Z" fill="black"/>
<path d="M64.3699 86.7736C65.8504 87.6965 68.8996 89.0232 70.0067 85.205C70.1128 84.839 69.8782 84.4607 69.4899 84.3613C68.2963 84.0551 65.7638 84.3032 64.3048 85.3836C63.8197 85.7434 63.8551 86.4534 64.3699 86.7745V86.7736Z" fill="white"/>
<path d="M67.2377 87.9673C66.1651 87.9673 65.0674 87.4447 64.2545 86.9379C63.951 86.7488 63.7676 86.4417 63.7527 86.0968C63.7378 85.7537 63.8924 85.437 64.1754 85.2267C65.7471 84.0628 68.3475 83.8622 69.544 84.1692C69.7879 84.2317 69.9918 84.3804 70.1175 84.588C70.2413 84.793 70.273 85.0297 70.2078 85.2558C69.814 86.6142 69.1371 87.4728 68.1967 87.8071C67.8848 87.918 67.5627 87.9655 67.2377 87.9655V87.9673ZM68.3252 84.4358C67.0943 84.4358 65.478 84.7649 64.4333 85.5382C64.2573 85.6684 64.1614 85.8663 64.1708 86.081C64.1801 86.2974 64.2946 86.4901 64.4845 86.6089C65.2843 87.1077 66.8122 87.8793 68.0487 87.4394C68.8568 87.1517 69.4471 86.3828 69.8037 85.1537C69.8401 85.0297 69.8214 84.8995 69.7535 84.7868C69.6836 84.6707 69.57 84.588 69.4341 84.5528C69.139 84.4772 68.7554 84.4367 68.3252 84.4367V84.4358Z" fill="black"/>
<path d="M40.0272 72.4714L40.7897 68.7446C40.8437 68.4939 41.0607 68.3047 41.327 68.2757L42.8595 68.1094C43.1863 68.0742 43.448 67.8349 43.5001 67.5243L43.8465 65.4463C43.8465 65.4463 43.8493 65.4401 43.852 65.4384L44.5801 65.0627C44.7254 64.9879 44.7803 64.8164 44.7058 64.6765L43.9386 63.2451C43.7897 62.9662 43.5839 61.394 43.2571 61.409C43.2571 61.409 37.7414 59.5773 36.1195 61.7609C35.6893 62.3389 35.6418 63.1026 35.9333 63.7545L36.3048 64.5868C36.6902 65.4525 36.7768 66.4246 36.4817 67.322C36.3765 67.6422 36.2293 67.951 36.0403 68.2405L33.9678 71.3215C35.4733 72.042 37.1297 72.4291 38.814 72.4529L40.0272 72.4705V72.4714Z" fill="white"/>
<path d="M40.0271 72.6694H40.0243L38.8112 72.6518C37.1064 72.628 35.3988 72.2286 33.8737 71.4993C33.8215 71.4737 33.7824 71.4289 33.7666 71.3752C33.7508 71.3215 33.7601 71.2644 33.7917 71.2168L35.8643 68.1359C36.0403 67.8649 36.1818 67.571 36.2824 67.2649C36.5533 66.4414 36.4928 65.5176 36.1129 64.6651L35.7414 63.8328C35.4137 63.0982 35.4937 62.2615 35.949 61.6483C37.597 59.4313 42.7999 61.0527 43.2961 61.2137C43.635 61.2436 43.7756 61.7662 43.9721 62.5967C44.0261 62.8255 44.0875 63.085 44.1257 63.1563L44.8929 64.5877C45.0195 64.8244 44.9274 65.1103 44.6806 65.237L44.0382 65.5687L43.7067 67.5561C43.6406 67.9529 43.3017 68.2617 42.8837 68.3074L41.3511 68.4737C41.1742 68.493 41.0308 68.618 40.9945 68.786L40.2329 72.5101C40.2133 72.6034 40.1277 72.6702 40.0271 72.6702V72.6694ZM34.2694 71.2432C35.6846 71.8846 37.2516 72.2348 38.8167 72.2567L39.8549 72.2717L40.5839 68.7077C40.6575 68.3708 40.9461 68.1191 41.3027 68.0804L42.8352 67.9141C43.068 67.8886 43.2561 67.7162 43.2933 67.4945L43.6397 65.4164C43.6499 65.3549 43.6956 65.2942 43.7533 65.2651L44.4795 64.8903C44.5251 64.8666 44.5428 64.8112 44.5186 64.7663L43.7514 63.3349C43.6928 63.2249 43.6434 63.0252 43.5624 62.683C43.4889 62.3715 43.339 61.7354 43.2179 61.6044C43.2077 61.6026 43.1965 61.6 43.1863 61.5964C43.1332 61.5788 37.8019 59.8404 36.2898 61.8753C35.9164 62.3777 35.8531 63.0692 36.125 63.6789L36.4965 64.5112C36.9146 65.4499 36.9807 66.4695 36.6799 67.3819C36.5691 67.7197 36.4136 68.0444 36.2172 68.3452L34.2675 71.2432H34.2694Z" fill="black"/>
<path d="M38.9564 63.7271C38.6733 63.0567 38.231 62.8042 38.3139 62.4233C38.3642 62.1937 38.5727 62.0494 38.6919 61.9667C39.2822 61.5585 40.0578 61.8074 41.6155 62.0881C43.5503 62.4356 43.7709 62.4902 44.1359 62.3529C45.0642 62.0036 45.5912 60.9145 45.6321 60.0189C45.6433 59.7672 45.6666 58.4335 44.4795 57.7464C43.622 57.2493 42.4749 57.2871 41.5475 57.8379C41.4665 57.5792 41.298 57.2141 40.9293 57.0346C40.055 56.6088 38.7524 57.5643 38.2962 57.8986C37.8744 58.2074 37.1231 58.8523 36.584 59.9872C36.4117 59.8957 35.7665 59.5763 35.0626 59.791C34.0161 60.1103 33.7591 61.3297 33.7368 61.445C33.4751 62.7919 34.6362 63.9682 35.5132 64.8559C35.9965 65.345 36.2507 65.5316 36.5346 65.7128C36.7022 65.8193 36.9192 65.8272 37.0961 65.7348C37.0989 65.733 37.1026 65.7313 37.1054 65.7295C37.3372 65.6072 37.4154 65.3239 37.2748 65.1093L37.2301 65.0406C37.0625 64.7829 36.949 64.4952 36.9136 64.1934C36.8856 63.9532 36.9052 63.7007 37.0681 63.5705C37.3298 63.3611 37.7748 63.4993 37.8391 63.5195C38.1649 63.6207 38.3698 63.8512 38.4955 64.0702C38.6305 64.3051 39.082 64.0254 38.9573 63.728L38.9564 63.7271Z" fill="black"/>
<path d="M43.067 57.5875L47.7698 56.6294C48.6302 56.4544 49.4048 57.4863 49.0966 58.433C48.8871 59.077 48.227 59.7729 46.6451 60.3421C42.4758 61.8421 39.8259 62.4562 39.8259 62.4562L43.067 57.5875Z" fill="white"/>
<path d="M39.825 62.654C39.7589 62.654 39.6955 62.6241 39.6555 62.5722C39.6052 62.5071 39.6024 62.4191 39.6481 62.3514L42.8891 57.4827C42.9189 57.4378 42.9673 57.4061 43.0223 57.3947L47.7251 56.4366C48.146 56.3513 48.5752 56.4956 48.9029 56.8343C49.3275 57.2706 49.4811 57.9217 49.2949 58.4927C49.024 59.3258 48.1562 60.0103 46.7177 60.5285C42.5837 62.0162 39.9004 62.6435 39.8743 62.6496C39.8576 62.6532 39.8408 62.6549 39.824 62.6549L39.825 62.654ZM43.1964 57.7624L40.2849 62.1358C41.2458 61.886 43.5046 61.2596 46.5697 60.1572C47.8815 59.6848 48.6646 59.0856 48.8964 58.3748C49.0389 57.9358 48.9216 57.4352 48.5957 57.1C48.3704 56.8677 48.0845 56.7665 47.8136 56.822L43.1964 57.7624Z" fill="black"/>
<path d="M35.4721 64.1303C35.4721 64.1303 31.3466 60.2592 34.8837 57.4114C39.4599 53.7269 42.2383 56.0407 43.4403 57.6366C43.916 58.2683 43.9579 59.068 43.5371 59.7358L43.5241 59.756C42.7969 60.9103 41.6321 61.8261 40.2169 62.3549L35.4712 64.1303H35.4721Z" fill="white"/>
<path d="M35.4722 64.3281C35.4182 64.3281 35.3651 64.3079 35.3251 64.2709C35.2366 64.1873 33.1547 62.2078 33.245 59.9793C33.2869 58.9447 33.7925 58.0306 34.7487 57.2608C36.622 55.752 38.3929 55.0834 40.0121 55.2725C41.7383 55.4749 42.9226 56.6071 43.6116 57.5221C44.1367 58.2198 44.1777 59.1066 43.7178 59.8368L43.7047 59.8571C42.9571 61.0439 41.7467 61.9958 40.2951 62.5386L35.5494 64.314C35.5243 64.3237 35.4982 64.3281 35.4722 64.3281ZM39.4693 55.6367C38.1025 55.6367 36.6081 56.2825 35.0187 57.5617C34.1556 58.2559 33.6994 59.0741 33.6622 59.9934C33.5886 61.7908 35.1267 63.4888 35.5262 63.8979L40.1406 62.1718C41.5065 61.6606 42.6442 60.7668 43.3444 59.6556L43.3574 59.6354C43.7317 59.0415 43.6973 58.3201 43.2699 57.7526C42.6293 56.9028 41.5362 55.8505 39.9599 55.6667C39.7989 55.6482 39.635 55.6385 39.4693 55.6385V55.6367Z" fill="black"/>
<path d="M35.1881 64.2479L36.4097 63.7799C36.3706 63.6629 36.2477 63.2766 36.1881 63.1447C35.3045 61.2153 34.3473 61.5461 33.8213 61.9139C34.3343 63.1438 35.189 64.2479 35.189 64.2479H35.1881Z" fill="black"/>
</g>
<defs>
<clipPath id="clip0_8171_203">
<rect width="170" height="161" fill="white"/>
</clipPath>
</defs>
</svg>
