<svg width="170" height="161" viewBox="0 0 170 161" fill="none" xmlns="http://www.w3.org/2000/svg">
<path d="M169.795 0.193848H98.2139V136.469H169.795V0.193848Z" fill="white"/>
<path d="M169.795 136.663H98.2137C98.101 136.663 98.0088 136.576 98.0088 136.469V0.193552C98.0088 0.0870984 98.1 0 98.2137 0H169.795C169.908 0 170 0.0862186 170 0.193552V136.469C170 136.576 169.909 136.663 169.795 136.663ZM98.4185 136.275H169.591V0.386224H98.4185V136.275Z" fill="black"/>
<path d="M129.718 57.9097H105.422C105.309 57.9097 105.217 57.8235 105.217 57.7162V8.28828C105.217 8.18182 105.308 8.09473 105.422 8.09473H129.718C129.831 8.09473 129.923 8.18094 129.923 8.28828V57.7162C129.923 57.8226 129.832 57.9097 129.718 57.9097ZM105.626 57.5235H129.513V8.48183H105.626V57.5235Z" fill="black"/>
<path d="M107.467 56.1715C107.354 56.1715 107.262 56.0853 107.262 55.9779V10.2214C107.262 10.1149 107.353 10.0278 107.467 10.0278H127.263C127.376 10.0278 127.468 10.1141 127.468 10.2214C127.468 10.3287 127.377 10.4149 127.263 10.4149H107.671V55.9788C107.671 56.0853 107.579 56.1724 107.466 56.1724L107.467 56.1715Z" fill="black"/>
<path d="M161.302 57.9097H137.006C136.893 57.9097 136.801 57.8235 136.801 57.7162V8.28828C136.801 8.18182 136.893 8.09473 137.006 8.09473H161.302C161.415 8.09473 161.507 8.18094 161.507 8.28828V57.7162C161.507 57.8226 161.416 57.9097 161.302 57.9097ZM137.21 57.5235H161.098V8.48183H137.21V57.5235Z" fill="black"/>
<path d="M139.051 56.219C138.938 56.219 138.846 56.1328 138.846 56.0254V10.2214C138.846 10.1149 138.937 10.0278 139.051 10.0278H159.609C159.722 10.0278 159.814 10.1141 159.814 10.2214C159.814 10.3287 159.723 10.4149 159.609 10.4149H139.255V56.0263C139.255 56.1328 139.164 56.2199 139.05 56.2199L139.051 56.219Z" fill="black"/>
<path d="M129.718 128.341H105.422C105.309 128.341 105.217 128.255 105.217 128.147V78.7194C105.217 78.613 105.308 78.5259 105.422 78.5259H129.718C129.831 78.5259 129.923 78.6121 129.923 78.7194V128.147C129.923 128.254 129.832 128.341 129.718 128.341ZM105.626 127.955H129.513V78.913H105.626V127.955Z" fill="black"/>
<path d="M107.467 97.8068C107.354 97.8068 107.262 97.7206 107.262 97.6133V80.6511C107.262 80.5446 107.353 80.4575 107.467 80.4575H123.539C123.652 80.4575 123.744 80.5437 123.744 80.6511C123.744 80.7584 123.653 80.8446 123.539 80.8446H107.671V97.6133C107.671 97.7197 107.58 97.8068 107.467 97.8068Z" fill="black"/>
<path d="M107.467 126.674C107.354 126.674 107.262 126.587 107.262 126.48V97.6135C107.262 97.507 107.353 97.4199 107.467 97.4199C107.58 97.4199 107.671 97.5061 107.671 97.6135V126.48C107.671 126.586 107.58 126.674 107.467 126.674Z" fill="black"/>
<path d="M161.302 128.341H137.006C136.893 128.341 136.801 128.255 136.801 128.147V78.7194C136.801 78.613 136.893 78.5259 137.006 78.5259H161.302C161.415 78.5259 161.507 78.6121 161.507 78.7194V128.147C161.507 128.254 161.416 128.341 161.302 128.341ZM137.21 127.955H161.098V78.913H137.21V127.955Z" fill="black"/>
<path d="M139.051 126.673C138.938 126.673 138.846 126.587 138.846 126.48V80.6511C138.846 80.5446 138.937 80.4575 139.051 80.4575H159.278C159.391 80.4575 159.483 80.5437 159.483 80.6511C159.483 80.7584 159.392 80.8446 159.278 80.8446H139.255V126.48C139.255 126.586 139.164 126.673 139.05 126.673H139.051Z" fill="black"/>
<path d="M161.303 72.7271H105.422C105.309 72.7271 105.217 72.6409 105.217 72.5336V63.8308C105.217 63.7243 105.308 63.6372 105.422 63.6372H161.303C161.416 63.6372 161.508 63.7234 161.508 63.8308V72.5336C161.508 72.64 161.416 72.7271 161.303 72.7271ZM105.626 72.3409H161.098V64.0243H105.626V72.3409Z" fill="black"/>
<path d="M152.726 65.9574H138.521C138.409 65.9574 138.316 65.8712 138.316 65.7639C138.316 65.6565 138.408 65.5703 138.521 65.5703H152.726C152.839 65.5703 152.931 65.6565 152.931 65.7639C152.931 65.8712 152.84 65.9574 152.726 65.9574Z" fill="black"/>
<path d="M121.441 72.7271H105.422C105.309 72.7271 105.217 72.6409 105.217 72.5336V63.8308C105.217 63.7243 105.308 63.6372 105.422 63.6372H121.441C121.554 63.6372 121.646 63.7234 121.646 63.8308V72.5336C121.646 72.64 121.555 72.7271 121.441 72.7271ZM105.626 72.3409H121.236V64.0243H105.626V72.3409Z" fill="black"/>
<path d="M107.262 70.8876C107.149 70.8876 107.057 70.8014 107.057 70.6941V65.7629C107.057 65.6564 107.148 65.5693 107.262 65.5693H136.086C136.199 65.5693 136.291 65.6556 136.291 65.7629C136.291 65.8702 136.2 65.9564 136.086 65.9564H107.465V70.6941C107.465 70.8005 107.374 70.8876 107.261 70.8876H107.262Z" fill="black"/>
<path d="M165.446 73.9104C166.178 73.9104 166.771 73.35 166.771 72.6585V63.7085C166.771 63.017 166.178 62.4565 165.446 62.4565C164.714 62.4565 164.121 63.017 164.121 63.7085V72.6585C164.121 73.35 164.714 73.9104 165.446 73.9104Z" fill="black"/>
<path d="M166.674 68.1841C166.674 67.4925 166.081 66.9321 165.349 66.9321H155.875C155.143 66.9321 154.55 67.4925 154.55 68.1841C154.55 68.8756 155.143 69.436 155.875 69.436H165.349C166.081 69.436 166.674 68.8756 166.674 68.1841Z" fill="white"/>
<path d="M165.349 69.6288H155.876C155.032 69.6288 154.346 68.9804 154.346 68.1833C154.346 67.3862 155.032 66.7378 155.876 66.7378H165.349C166.193 66.7378 166.879 67.3862 166.879 68.1833C166.879 68.9804 166.193 69.6288 165.349 69.6288ZM155.876 67.1249C155.257 67.1249 154.755 67.6 154.755 68.1842C154.755 68.7683 155.257 69.2434 155.876 69.2434H165.349C165.967 69.2434 166.47 68.7683 166.47 68.1842C166.47 67.6 165.967 67.1249 165.349 67.1249H155.876Z" fill="black"/>
<path d="M142.902 146.448L142.321 151.327L139.054 151.69L139.143 145.902L142.902 146.448Z" fill="white"/>
<path d="M139.054 151.884C139.004 151.884 138.954 151.866 138.917 151.834C138.873 151.797 138.849 151.743 138.85 151.687L138.939 145.899C138.939 145.843 138.966 145.79 139.011 145.754C139.056 145.718 139.116 145.702 139.174 145.711L142.934 146.257C143.042 146.273 143.118 146.367 143.106 146.47L142.525 151.349C142.514 151.438 142.44 151.509 142.345 151.519L139.078 151.883C139.07 151.884 139.062 151.884 139.054 151.884ZM139.345 146.127L139.263 151.473L142.136 151.153L142.677 146.611L139.345 146.126V146.127Z" fill="black"/>
<path d="M138.41 160.185C139.766 160.389 141.993 160.575 144.614 160.227C145.474 160.112 146.055 159.275 145.861 158.422C145.321 156.048 144.398 151.546 142.727 149.45L142.286 150.577L141.718 149.509C141.64 149.363 141.498 149.264 141.334 149.241L140.468 149.091C140.2 149.055 139.949 149.233 139.889 149.5L139.67 150.479L138.833 149.164L137.2 158.524C137.084 159.324 137.622 160.067 138.41 160.185H138.41Z" fill="white"/>
<path d="M141.652 160.615C140.333 160.615 139.212 160.501 138.378 160.376C137.485 160.242 136.866 159.4 136.997 158.498L138.631 149.133C138.645 149.053 138.71 148.99 138.794 148.975C138.879 148.96 138.964 148.996 139.008 149.065L139.577 149.959L139.689 149.46C139.77 149.096 140.126 148.85 140.496 148.9L141.37 149.051C141.591 149.081 141.792 149.22 141.899 149.422L142.256 150.092L142.533 149.382C142.559 149.316 142.622 149.269 142.695 149.258C142.771 149.248 142.843 149.277 142.888 149.333C144.473 151.321 145.394 155.419 145.944 157.869L146.06 158.381C146.168 158.857 146.062 159.356 145.771 159.75C145.497 160.12 145.096 160.357 144.641 160.418C143.57 160.56 142.563 160.614 141.651 160.614L141.652 160.615ZM138.945 149.714L137.402 158.556C137.302 159.246 137.768 159.893 138.442 159.994C139.825 160.201 142.013 160.377 144.586 160.036C144.927 159.991 145.229 159.81 145.438 159.53C145.664 159.224 145.746 158.835 145.661 158.464L145.546 157.951C145.029 155.651 144.181 151.877 142.783 149.864L142.477 150.645C142.449 150.717 142.378 150.766 142.297 150.771C142.216 150.774 142.139 150.733 142.103 150.664L141.535 149.596C141.487 149.507 141.402 149.446 141.306 149.433L140.431 149.282C140.28 149.262 140.127 149.374 140.091 149.54L139.872 150.519C139.854 150.597 139.789 150.656 139.706 150.67C139.623 150.683 139.54 150.647 139.496 150.579L138.945 149.715V149.714Z" fill="black"/>
<path d="M138.41 160.185C139.766 160.389 141.993 160.575 144.614 160.227C145.474 160.112 146.055 159.275 145.861 158.422C145.84 158.326 145.816 158.226 145.793 158.123C142.138 159.222 138.679 158.354 137.307 157.908L137.2 158.524C137.084 159.324 137.622 160.067 138.41 160.185H138.41Z" fill="white"/>
<path d="M141.652 160.615C140.333 160.615 139.211 160.501 138.378 160.376C137.485 160.242 136.866 159.4 136.997 158.498L137.105 157.878C137.115 157.821 137.15 157.772 137.202 157.743C137.254 157.714 137.316 157.708 137.373 157.726C138.683 158.152 142.117 159.027 145.731 157.94C145.787 157.923 145.846 157.93 145.896 157.957C145.946 157.984 145.981 158.03 145.993 158.083L146.06 158.383C146.168 158.859 146.062 159.357 145.771 159.752C145.497 160.122 145.096 160.359 144.641 160.419C143.57 160.562 142.563 160.616 141.651 160.616L141.652 160.615ZM137.47 158.164L137.402 158.556C137.302 159.246 137.768 159.893 138.442 159.994C139.825 160.201 142.013 160.377 144.586 160.036C144.927 159.99 145.229 159.811 145.438 159.53C145.664 159.224 145.746 158.835 145.661 158.464L145.64 158.37C142.184 159.34 138.928 158.61 137.47 158.164Z" fill="black"/>
<path d="M143.043 155.424C143.043 155.424 143.037 155.424 143.034 155.424L139.978 155.3C139.866 155.296 139.778 155.205 139.783 155.099C139.788 154.992 139.885 154.909 139.996 154.914L143.051 155.038C143.164 155.042 143.252 155.133 143.247 155.239C143.242 155.343 143.152 155.424 143.043 155.424Z" fill="black"/>
<path d="M127.253 144.132L126.655 151.253L122.731 151.225L122.658 144.099L127.253 144.132Z" fill="white"/>
<path d="M126.656 151.446H126.654L122.73 151.417C122.618 151.417 122.528 151.331 122.527 151.227L122.454 144.101C122.454 144.049 122.476 143.999 122.514 143.963C122.553 143.926 122.601 143.907 122.66 143.907L127.255 143.939C127.312 143.939 127.366 143.962 127.404 144.002C127.443 144.041 127.462 144.094 127.458 144.148L126.86 151.268C126.851 151.368 126.763 151.446 126.656 151.446ZM122.934 151.033L126.467 151.058L127.032 144.325L122.865 144.295L122.934 151.034V151.033Z" fill="black"/>
<path d="M127.469 155.415C127.469 156.089 127.004 156.678 126.353 156.825C124.089 157.341 118.989 158.488 117.535 158.696C115.65 158.966 113.346 158.366 112.369 157.245C111.392 156.124 113.152 154.051 116.196 152.531C118.606 151.328 120.714 148.285 121.63 148.163C122.546 148.042 124.212 150.739 124.212 150.739L127.021 149.573C127.021 149.573 127.47 151.996 127.468 155.414L127.469 155.415Z" fill="white"/>
<path d="M116.602 158.955C114.852 158.955 113.049 158.33 112.212 157.369C111.933 157.049 111.836 156.643 111.931 156.195C112.187 154.987 113.785 153.518 116.102 152.362C117.4 151.713 118.624 150.504 119.607 149.532C120.485 148.664 121.12 148.037 121.603 147.973C122.522 147.852 123.862 149.812 124.297 150.495L126.939 149.397C126.997 149.373 127.063 149.376 127.118 149.403C127.174 149.431 127.212 149.481 127.223 149.54C127.228 149.565 127.676 152.02 127.673 155.415C127.673 156.174 127.138 156.846 126.401 157.014C124.234 157.507 119.035 158.677 117.567 158.888C117.251 158.933 116.927 158.955 116.602 158.955ZM121.697 148.352C121.684 148.352 121.671 148.352 121.658 148.355C121.317 148.4 120.629 149.08 119.902 149.799C118.898 150.791 117.649 152.025 116.293 152.703C114.116 153.79 112.561 155.19 112.332 156.27C112.262 156.606 112.327 156.892 112.528 157.124C113.439 158.168 115.624 158.776 117.505 158.506C118.958 158.297 124.143 157.131 126.305 156.638C126.86 156.511 127.263 155.998 127.264 155.415C127.266 152.669 126.972 150.547 126.861 149.851L124.295 150.916C124.2 150.956 124.088 150.921 124.036 150.837C123.388 149.788 122.251 148.352 121.697 148.352H121.697Z" fill="black"/>
<path d="M117.536 158.697C118.989 158.488 124.089 157.342 126.353 156.826C127.003 156.678 127.467 156.09 127.468 155.416C127.468 155.111 127.464 154.814 127.459 154.526C124.895 155.422 115.305 158.499 112.474 155.454C112.033 156.144 111.962 156.779 112.37 157.247C113.347 158.368 115.651 158.968 117.537 158.698L117.536 158.697Z" fill="white"/>
<path d="M116.601 158.954C114.852 158.954 113.049 158.33 112.212 157.369C111.765 156.856 111.795 156.141 112.298 155.353C112.332 155.301 112.391 155.266 112.456 155.261C112.52 155.255 112.584 155.28 112.627 155.326C115.418 158.327 125.413 155.035 127.388 154.344C127.449 154.322 127.519 154.33 127.574 154.365C127.629 154.401 127.662 154.459 127.663 154.521C127.67 154.811 127.674 155.109 127.673 155.416C127.673 156.174 127.137 156.846 126.401 157.014C124.234 157.508 119.035 158.678 117.566 158.888C117.251 158.933 116.926 158.955 116.601 158.955V158.954ZM112.519 155.776C112.298 156.198 112.173 156.715 112.527 157.123C113.438 158.167 115.625 158.775 117.505 158.505C118.957 158.296 124.142 157.13 126.305 156.637C126.86 156.51 127.263 155.997 127.263 155.414C127.263 155.205 127.262 155 127.258 154.798C124.204 155.844 115.527 158.476 112.518 155.775L112.519 155.776Z" fill="black"/>
<path d="M121.175 153.229C121.128 153.229 121.081 153.214 121.042 153.182L119.299 151.769C119.213 151.7 119.203 151.577 119.277 151.497C119.35 151.416 119.479 151.406 119.565 151.475L121.309 152.888C121.394 152.958 121.405 153.08 121.331 153.161C121.291 153.206 121.233 153.229 121.175 153.229Z" fill="black"/>
<path d="M143.467 93.1479C143.467 93.1479 144.399 95.2822 144.71 100.024C145.273 108.606 145.413 122.824 145.747 127.779C146.266 135.472 143.994 147.321 143.994 147.321L137.942 146.956C137.942 146.956 137.753 135.508 137.448 129.956C137.391 128.907 137.162 127.874 136.78 126.887C136.011 124.903 134.655 121.057 134.177 117.519C133.496 112.469 131.035 104.481 131.035 104.481C131.035 104.481 128.326 144.239 128.077 147.363C128.077 147.363 123.324 147.543 121.637 146.447C121.637 146.447 118.843 131.922 119.397 124.035C119.951 116.148 119.777 96.5403 119.777 96.5403L143.468 93.147L143.467 93.1479Z" fill="black"/>
<path d="M142.044 100.605C138.876 100.605 138.066 97.6427 138.058 97.6128C138.031 97.509 138.098 97.4051 138.207 97.3787C138.315 97.3532 138.427 97.4157 138.454 97.5195C138.484 97.633 139.225 100.299 142.177 100.216C142.296 100.214 142.385 100.297 142.388 100.403C142.391 100.51 142.302 100.599 142.19 100.602C142.14 100.604 142.092 100.604 142.043 100.604L142.044 100.605Z" fill="white"/>
<path d="M91.3963 70.4345C90.71 70.2603 90.9549 70.8515 91.4764 71.3169C91.8628 71.6618 92.3936 71.9548 92.6972 72.1087C92.7717 72.1466 92.7521 72.2539 92.6683 72.2636C90.0172 72.5838 88.1659 73.988 87.258 74.8475C86.7514 75.327 86.8054 76.1293 87.393 76.5173C89.6922 78.0358 95.773 76.4294 96.4993 76.4654C97.154 76.498 102.021 79.4708 102.021 79.4708C104.078 81.2294 105.982 83.1914 108.02 83.6937C111.764 84.6166 120.047 76.3299 121.437 72.546C121.437 72.546 118.334 68.9222 114.394 67.9667C114.122 67.9007 107.884 75.5645 107.606 75.4968C103.15 74.4059 99.496 73.9097 97.2583 73.029C96.68 72.8011 96.1417 72.495 95.6435 72.136C95.0699 71.7225 93.8463 71.0548 91.3954 70.4345H91.3963Z" fill="white"/>
<path d="M108.65 83.9593C108.412 83.9593 108.184 83.9338 107.968 83.881C106.238 83.4543 104.644 82.044 102.955 80.551C102.606 80.2422 102.253 79.9299 101.896 79.6246C99.5614 78.1994 96.8767 76.6782 96.4884 76.6589C96.3515 76.6518 95.8794 76.7328 95.3355 76.8269C93.1658 77.2017 89.1271 77.8994 87.2759 76.6765C86.9527 76.4627 86.7479 76.1257 86.7125 75.7518C86.6762 75.3656 86.8224 74.9864 87.1129 74.7119C87.9678 73.9034 89.751 72.5248 92.3016 72.1201C92.0046 71.9538 91.6302 71.7206 91.336 71.4576C90.9886 71.1479 90.6441 70.6807 90.8173 70.3878C90.8871 70.269 91.0538 70.1485 91.4486 70.2479C93.8856 70.8655 95.1428 71.5315 95.7676 71.9828C96.2761 72.3497 96.804 72.6418 97.3367 72.8512C98.6925 73.3843 100.631 73.7873 102.876 74.2535C104.285 74.5465 105.881 74.8773 107.577 75.2908C107.94 74.9978 109.559 73.1107 110.87 71.5799C114.182 67.7168 114.233 67.7282 114.446 67.7801C118.405 68.7408 121.468 72.2749 121.597 72.4254C121.641 72.4773 121.654 72.5468 121.631 72.6101C120.313 76.1961 112.822 83.9593 108.651 83.9602L108.65 83.9593ZM96.4744 76.2718C96.4874 76.2718 96.4995 76.2718 96.5107 76.2718C97.1849 76.3052 101.312 78.8064 102.132 79.3079C102.142 79.3132 102.15 79.3202 102.159 79.3272C102.522 79.6378 102.88 79.9545 103.235 80.2686C104.885 81.7273 106.443 83.105 108.073 83.5071C109.641 83.8933 112.408 82.4883 115.471 79.7451C118.146 77.3495 120.483 74.4286 121.206 72.5855C120.72 72.0479 117.888 69.0496 114.424 68.1743C114.066 68.4672 112.476 70.3209 111.188 71.8236C107.821 75.7509 107.77 75.7369 107.555 75.6841C105.836 75.2635 104.217 74.9275 102.789 74.631C100.524 74.1603 98.5687 73.7547 97.1793 73.2075C96.6141 72.9849 96.0563 72.6761 95.5199 72.2899C94.9239 71.8605 93.7161 71.2227 91.3434 70.6209C91.2624 70.6007 91.213 70.5954 91.1823 70.5963C91.2037 70.6957 91.3425 70.9306 91.6172 71.1761C91.9906 71.5095 92.5149 71.7963 92.7942 71.938C92.9069 71.9951 92.9665 72.1139 92.9432 72.2327C92.92 72.3506 92.8203 72.4403 92.6946 72.4553C90.0825 72.7702 88.2583 74.1752 87.4034 74.9846C87.1986 75.1782 87.0952 75.4456 87.1213 75.7175C87.1455 75.9779 87.288 76.2119 87.5115 76.3597C89.223 77.4903 93.3027 76.7855 95.2629 76.4468C95.9157 76.3342 96.2835 76.2726 96.4744 76.2726V76.2718Z" fill="black"/>
<path d="M119.124 63.1787C119.742 62.9789 120.395 62.8215 121.083 62.7168C126.394 61.9109 130.652 62.1783 133.144 62.1827C134.652 62.1854 136.101 62.7335 137.188 63.7197C138.858 65.2356 141.173 67.7711 142.1 70.8257C143.012 73.8381 142.076 78.742 142.169 81.5942C142.417 89.1999 143.467 93.1466 143.467 93.1466C143.467 93.1466 139.327 95.1772 128.322 95.1068C122.705 95.0707 120.051 93.5645 120.051 93.5645L118.411 77.1135L119.124 63.1778V63.1787Z" fill="white"/>
<path d="M128.887 95.3033C128.7 95.3033 128.512 95.3033 128.321 95.3016C122.712 95.2655 120.057 93.7945 119.946 93.732C119.89 93.7004 119.854 93.6458 119.847 93.5842L118.206 77.1332C118.205 77.1244 118.205 77.1147 118.206 77.1059L118.92 63.1702C118.923 63.091 118.978 63.0224 119.057 62.9969C119.706 62.7875 120.377 62.6291 121.05 62.5271C125.448 61.8602 129.197 61.9271 131.679 61.9711C132.219 61.9807 132.709 61.9895 133.145 61.9904C134.716 61.9931 136.202 62.5579 137.329 63.5811C139.082 65.1726 141.367 67.7125 142.296 70.7733C142.909 72.7941 142.703 75.6367 142.521 78.145C142.429 79.4224 142.341 80.6295 142.372 81.5893C142.617 89.0815 143.654 93.0608 143.665 93.1004C143.688 93.1875 143.645 93.2781 143.56 93.3185C143.393 93.4012 139.392 95.3025 128.886 95.3025L128.887 95.3033ZM120.246 93.4461C120.748 93.696 123.394 94.8837 128.325 94.9154C138.048 94.9778 142.415 93.3784 143.231 93.0388C143.038 92.2311 142.184 88.3126 141.964 81.6016C141.933 80.6233 142.02 79.4066 142.114 78.1186C142.294 75.6429 142.497 72.8364 141.904 70.8797C141.001 67.9017 138.765 65.4189 137.047 63.8599C135.995 62.9063 134.61 62.3793 133.145 62.3766C132.707 62.3766 132.215 62.367 131.672 62.3573C129.059 62.3107 125.478 62.2464 121.115 62.908C120.51 62.9995 119.907 63.1385 119.321 63.3198L118.615 77.1103L120.244 93.4452L120.246 93.4461Z" fill="black"/>
<path d="M143.467 93.1479C141.27 92.4168 139.286 90.4127 139.043 88.2246L137.027 70.0615C137.058 69.5099 136.614 69.0375 136.031 69.0005L123.462 68.2123C122.878 68.1753 122.371 68.5897 122.326 69.1413L121.437 99.17L143.466 96.1735V93.1488L143.467 93.1479Z" fill="black"/>
<path d="M125.548 72.7782C125.564 72.7738 125.756 72.6533 125.772 72.648C126.254 72.4994 127.334 71.2043 127.027 70.8093C123.878 66.7579 124.957 62.747 125.05 62.4003C125.152 62.0238 124.889 61.6499 124.484 61.5865C124.088 61.5241 123.653 61.481 123.464 61.5461C122.864 61.7546 121.062 64.8206 124.381 72.5354C124.569 72.9736 125.08 72.8953 125.549 72.7782H125.548Z" fill="black"/>
<path d="M118.411 77.1153C118.411 77.1153 110.691 75.0848 110.634 70.4932C110.634 70.4932 113.387 65.0315 119.124 63.1787L118.411 77.1145V77.1153Z" fill="white"/>
<path d="M118.411 77.3083C118.392 77.3083 118.375 77.3057 118.356 77.3013C118.035 77.2168 110.488 75.1775 110.43 70.4953C110.43 70.4654 110.436 70.4364 110.449 70.41C110.477 70.3545 113.305 64.8533 119.058 62.996C119.123 62.9749 119.193 62.9855 119.247 63.0242C119.301 63.0629 119.332 63.1236 119.328 63.1878L118.615 77.1236C118.612 77.1825 118.581 77.2362 118.53 77.2705C118.495 77.2943 118.453 77.3075 118.41 77.3075L118.411 77.3083ZM110.839 70.5367C110.934 74.4464 116.92 76.4655 118.219 76.8579L118.906 63.4579C113.756 65.2615 111.098 70.051 110.839 70.5367Z" fill="black"/>
<path d="M134.481 71.6706C134.481 71.6706 136.308 77.1155 132.911 81.7009L145.5 87.2805L147.457 81.3631C149.933 73.6518 145.637 65.2314 137.515 62.7707C134.227 61.7748 131.714 61.9551 131.714 61.9551L134.481 71.6706Z" fill="white"/>
<path d="M145.499 87.4731C145.469 87.4731 145.439 87.467 145.412 87.4546L141.979 85.9326C141.877 85.8877 141.833 85.7725 141.88 85.6757C141.928 85.5789 142.049 85.5376 142.152 85.5825L145.373 87.0103L147.261 81.3041C149.741 73.5761 145.341 65.344 137.452 62.9536C136.203 62.5753 134.924 62.3237 133.651 62.2049C133.539 62.1944 133.457 62.1002 133.468 61.9938C133.479 61.8873 133.577 61.809 133.691 61.8204C134.992 61.941 136.3 62.1988 137.576 62.5859C145.677 65.0404 150.197 73.4881 147.652 81.4185L145.694 87.3367C145.676 87.3904 145.635 87.4335 145.581 87.4555C145.555 87.4661 145.527 87.4722 145.499 87.4722V87.4731Z" fill="black"/>
<path d="M132.845 73.1935C132.863 73.1971 132.882 73.2006 132.902 73.2041C133.5 73.2982 134.053 72.9657 134.135 72.4625C134.954 67.4248 136.776 65.4743 138.16 64.7248C139.008 64.2664 140.298 64.0086 141.029 63.8907C141.223 63.8599 141.273 63.6206 141.107 63.5212C140.759 63.3127 140.3 63.0444 140.011 62.9001C139.782 62.7866 138.737 62.1373 136.92 63.1456C134.393 64.5479 132.711 67.541 131.966 72.1211C131.887 72.6085 132.277 73.0783 132.845 73.1935Z" fill="black"/>
<path d="M71.537 94.3576H35.6378V25.0915H71.537V94.3576ZM114.905 94.3576H79.0062V25.0915H114.905V94.3576ZM28.8018 18.7104V100.739H123.812V18.7104H28.8018Z" fill="black"/>
<path d="M123.813 100.932H28.802C28.6894 100.932 28.5972 100.846 28.5972 100.739V18.7106C28.5972 18.6042 28.6884 18.5171 28.802 18.5171H123.813C123.925 18.5171 124.018 18.6033 124.018 18.7106V100.739C124.018 100.845 123.926 100.932 123.813 100.932ZM29.0069 100.545H123.608V18.9042H29.0069V100.546V100.545ZM114.905 94.5513H79.0056C78.8929 94.5513 78.8007 94.4651 78.8007 94.3578V25.0917C78.8007 24.9852 78.892 24.8981 79.0056 24.8981H114.905C115.017 24.8981 115.11 24.9844 115.11 25.0917V94.3578C115.11 94.4642 115.018 94.5513 114.905 94.5513ZM79.2105 94.1642H114.7V25.2852H79.2105V94.1651V94.1642ZM71.5373 94.5513H35.639C35.5263 94.5513 35.4341 94.4651 35.4341 94.3578V25.0917C35.4341 24.9852 35.5254 24.8981 35.639 24.8981H71.5373C71.6499 24.8981 71.7421 24.9844 71.7421 25.0917V94.3578C71.7421 94.4642 71.6509 94.5513 71.5373 94.5513ZM35.8429 94.1642H71.3324V25.2852H35.8429V94.1651V94.1642Z" fill="white"/>
<path d="M28.5952 18.7104V98.782H119.463V18.7104H28.5952ZM71.3304 94.3576H33.3602V23.1349H71.3304V94.3576ZM114.697 94.3576H76.7268V23.1349H114.697V94.3576Z" fill="white"/>
<path d="M119.462 98.9749H28.5955C28.4828 98.9749 28.3906 98.8886 28.3906 98.7813V18.7106C28.3906 18.6042 28.4819 18.5171 28.5955 18.5171H119.463C119.576 18.5171 119.668 18.6033 119.668 18.7106V98.7822C119.668 98.8886 119.577 98.9757 119.463 98.9757L119.462 98.9749ZM28.8004 98.5886H119.258V18.9042H28.8004V98.5886ZM114.698 94.5513H76.728C76.6154 94.5513 76.5232 94.4651 76.5232 94.3578V23.1351C76.5232 23.0286 76.6144 22.9415 76.728 22.9415H114.698C114.811 22.9415 114.903 23.0277 114.903 23.1351V94.3578C114.903 94.4642 114.812 94.5513 114.698 94.5513ZM76.932 94.1642H114.493V23.3277H76.932V94.1642ZM71.3307 94.5513H33.3605C33.2478 94.5513 33.1556 94.4651 33.1556 94.3578V23.1351C33.1556 23.0286 33.2469 22.9415 33.3605 22.9415H71.3307C71.4434 22.9415 71.5356 23.0277 71.5356 23.1351V94.3578C71.5356 94.4642 71.4443 94.5513 71.3307 94.5513ZM33.5644 94.1642H71.1259V23.3277H33.5644V94.1642Z" fill="black"/>
<path d="M67.3709 32.4824L40.0649 82.3528H49.4199L67.3709 49.639V32.4824Z" fill="white"/>
<path d="M49.42 82.5461H40.065C39.9933 82.5461 39.9272 82.5109 39.8899 82.4537C39.8527 82.3965 39.8499 82.3244 39.8825 82.2645L67.1894 32.3941C67.2322 32.3149 67.3272 32.2745 67.4194 32.2956C67.5106 32.3167 67.5758 32.3941 67.5758 32.483V49.6396C67.5758 49.6704 67.5684 49.7012 67.5525 49.7285L49.6015 82.4431C49.5662 82.5074 49.4963 82.5478 49.42 82.5478V82.5461ZM40.4012 82.1598H49.2961L67.167 49.5912V33.2765L40.4012 82.1598Z" fill="black"/>
<path d="M53.67 35.2812L40.0649 60.2855L40.0677 68.8775L53.67 43.8591V35.2812Z" fill="white"/>
<path d="M40.068 69.0706C40.0522 69.0706 40.0364 69.0689 40.0196 69.0653C39.9283 69.0442 39.8631 68.9668 39.8631 68.878L39.8604 60.286C39.8604 60.2552 39.8678 60.2253 39.8827 60.198L53.4877 35.1938C53.5315 35.1146 53.6255 35.0732 53.7177 35.0943C53.809 35.1155 53.8742 35.1929 53.8742 35.2817V43.8596C53.8742 43.8904 53.8667 43.9203 53.8518 43.9476L40.2496 68.9659C40.2142 69.031 40.1425 69.0706 40.068 69.0706ZM40.2692 60.3318L40.2719 68.0782L53.4654 43.8121V36.0788L40.2692 60.3318Z" fill="black"/>
<path d="M109.563 29.126H104.135L81.3794 70.3842H86.7991L109.563 29.126Z" fill="white"/>
<path d="M86.7991 70.5779H81.3794C81.3077 70.5779 81.2416 70.5428 81.2043 70.4847C81.1671 70.4266 81.1652 70.3554 81.1978 70.2955L103.953 29.0364C103.988 28.9722 104.058 28.9326 104.135 28.9326H109.564C109.635 28.9326 109.701 28.9678 109.739 29.0259C109.776 29.0839 109.778 29.1552 109.745 29.215L86.9797 70.4741C86.9443 70.5384 86.8745 70.5779 86.7981 70.5779H86.7991ZM81.7165 70.1917H86.6752L109.227 29.3197H104.259L81.7165 70.1917Z" fill="black"/>
<path d="M73.9335 65.6064C73.0805 65.6064 72.3867 64.951 72.3867 64.1451C72.3867 64.0386 72.478 63.9516 72.5916 63.9516C72.7052 63.9516 72.7964 64.0378 72.7964 64.1451C72.7964 64.7381 73.3068 65.2202 73.9344 65.2202C74.562 65.2202 75.0723 64.7381 75.0723 64.1451V52.0798C75.0723 51.9733 75.1636 51.8862 75.2772 51.8862C75.3908 51.8862 75.4821 51.9725 75.4821 52.0798V64.1451C75.4821 64.951 74.7883 65.6064 73.9353 65.6064H73.9335Z" fill="black"/>
<path d="M85.0776 58.7625V58.73C85.0776 58.0385 84.4844 57.478 83.7525 57.478H74.1238C73.3919 57.478 72.7987 58.0385 72.7987 58.73V58.7625C72.7987 59.4539 73.3919 60.0144 74.1238 60.0144H83.7525C84.4844 60.0144 85.0776 59.4539 85.0776 58.7625Z" fill="white"/>
<path d="M83.752 60.2072H74.1232C73.2796 60.2072 72.5933 59.5588 72.5933 58.7617V58.7292C72.5933 57.9321 73.2796 57.2837 74.1232 57.2837H83.752C84.5957 57.2837 85.282 57.9321 85.282 58.7292V58.7617C85.282 59.5588 84.5957 60.2072 83.752 60.2072ZM74.1232 57.6708C73.5049 57.6708 73.003 58.1459 73.003 58.7301V58.7626C73.003 59.3468 73.5058 59.8219 74.1232 59.8219H83.752C84.3703 59.8219 84.8722 59.3468 84.8722 58.7626V58.7301C84.8722 58.1459 84.3694 57.6708 83.752 57.6708H74.1232Z" fill="black"/>
<path d="M133.664 82.0342C133.664 82.0342 130.022 88.7214 127.187 90.6191C124.029 92.7332 117.628 95.1218 114.933 95.545C112.842 95.8731 111.293 95.4517 110.189 95.1271C109.573 94.945 108.641 94.7224 107.975 94.8068C107.779 94.8315 107.604 94.9019 107.463 94.9872C106.28 95.7051 110.634 97.2526 110.634 97.2526C110.969 98.1157 106.65 98.5248 104.145 98.6893C103.492 98.7324 103.25 99.5172 103.774 99.8867C105.033 100.774 107.018 101.826 109.065 101.527C111.657 101.147 112.495 99.8031 113.441 99.4767C114.131 99.2392 128.295 98.5565 132.573 96.079C139.036 92.3364 141.541 85.526 141.541 85.526L133.664 82.0351V82.0342Z" fill="white"/>
<path d="M108.338 101.772C106.518 101.772 104.817 100.863 103.652 100.042C103.343 99.8246 103.213 99.4587 103.322 99.1103C103.43 98.7628 103.748 98.5226 104.131 98.4971C109.515 98.1443 110.314 97.5636 110.43 97.3938C110.432 97.3921 110.433 97.3903 110.434 97.3876C109.657 97.1044 107.148 96.1287 107.058 95.3281C107.042 95.19 107.082 94.9902 107.353 94.8248C107.536 94.714 107.742 94.6418 107.948 94.6155C108.636 94.5284 109.58 94.7457 110.25 94.9427C111.196 95.2216 112.778 95.6879 114.899 95.3545C117.672 94.919 124.072 92.4688 127.069 90.462C129.832 88.6127 133.446 82.0126 133.482 81.9457C133.533 81.8534 133.651 81.8146 133.751 81.8595L141.629 85.3505C141.724 85.3927 141.769 85.4956 141.735 85.5889C141.71 85.6575 139.131 92.5084 132.681 96.2431C129.323 98.1874 120.122 99.024 115.7 99.4261C114.597 99.5264 113.645 99.6126 113.512 99.6584C113.23 99.7551 112.939 99.9672 112.602 100.212C111.878 100.737 110.888 101.456 109.097 101.718C108.842 101.755 108.589 101.772 108.339 101.772H108.338ZM108.293 94.9814C108.191 94.9814 108.093 94.9867 108.002 94.9982C107.815 95.0219 107.666 95.0932 107.574 95.1495C107.458 95.2199 107.463 95.2683 107.465 95.2867C107.511 95.6932 109.183 96.5299 110.707 97.0718C110.763 97.092 110.806 97.1334 110.827 97.1862C110.882 97.3278 110.863 97.4721 110.774 97.6032C110.371 98.1909 108.145 98.6211 104.159 98.8824C103.904 98.8991 103.763 99.0672 103.715 99.2194C103.668 99.3724 103.69 99.5871 103.897 99.7323C105.16 100.622 107.076 101.623 109.034 101.336C110.723 101.089 111.626 100.433 112.352 99.9056C112.716 99.6416 113.03 99.4129 113.371 99.2959C113.543 99.2361 114.197 99.1754 115.661 99.0425C120.052 98.6431 129.189 97.8126 132.466 95.9149C138.239 92.5726 140.853 86.679 141.284 85.6259L133.755 82.2888C133.162 83.356 129.933 89.0192 127.306 90.7778C124.185 92.8665 117.806 95.2911 114.966 95.7363C112.75 96.0838 111.109 95.6008 110.128 95.3122C109.592 95.1539 108.875 94.9823 108.294 94.9823L108.293 94.9814Z" fill="black"/>
<path d="M132.614 61.312L132.39 54.6099L126.512 55.8899L126.631 61.0648C126.637 61.5566 125.653 62.3115 124.972 62.7734C124.622 63.0118 124.616 63.5106 124.97 63.7438C127.107 65.1567 131.622 64.4229 135.687 63.1798C135.687 63.1798 132.641 61.8531 132.614 61.312Z" fill="white"/>
<path d="M128.339 64.7061C126.974 64.7061 125.736 64.4861 124.852 63.902C124.631 63.7559 124.504 63.5254 124.502 63.2685C124.5 63.0099 124.631 62.7662 124.852 62.6157C126.318 61.6198 126.427 61.1781 126.425 61.0664L126.306 55.8933C126.304 55.8018 126.37 55.7217 126.464 55.7006L132.343 54.4205C132.401 54.4074 132.465 54.4205 132.513 54.4557C132.562 54.4909 132.59 54.5446 132.592 54.6027L132.816 61.3004C132.877 61.5758 134.391 62.4028 135.771 63.0028C135.847 63.0362 135.894 63.1101 135.889 63.1893C135.884 63.2685 135.828 63.3371 135.747 63.3618C133.808 63.9547 130.858 64.7043 128.338 64.7043L128.339 64.7061ZM126.719 56.042L126.835 61.0594C126.84 61.5107 126.255 62.1389 125.091 62.9289C124.976 63.0072 124.91 63.1304 124.912 63.265C124.912 63.3952 124.976 63.5113 125.087 63.5843C127.327 65.0659 132.144 64.0163 135.128 63.1427C134.065 62.6562 132.434 61.8292 132.409 61.3198V61.3172L132.194 54.8499L126.72 56.042H126.719Z" fill="black"/>
<path d="M122.239 46.5211C123.752 46.1903 122.093 47.9851 127.47 45.5129C129.611 44.5284 128.909 47.1906 129.465 46.9372C131.519 45.9994 132.083 45.7636 133.183 45.8542C133.911 45.9141 135.616 46.976 135.541 47.9015C135.298 50.9209 133.799 50.3754 133.318 53.0526C132.98 54.9327 132.547 55.5582 131.838 55.9392C131.122 56.3245 130.389 55.4509 129.573 55.816C128.517 56.2884 129.055 58.0612 128.108 58.9859C127.512 59.5691 125.969 60.0442 123.23 59.292C122.786 59.1697 122.497 58.7641 122.545 58.3269C122.607 57.7674 122.689 57.06 122.827 56.3914C123.483 53.2013 124.495 52.3409 123.949 51.63C123.111 50.5417 120.845 51.6106 120.278 50.6974C119.688 49.749 120.167 46.9733 122.24 46.5211H122.239Z" fill="black"/>
<path d="M125.78 59.8756C125.089 59.8756 124.231 59.7683 123.173 59.478C122.633 59.3293 122.284 58.8375 122.342 58.3079C122.408 57.7122 122.49 57.0207 122.626 56.3556C122.927 54.8917 123.299 53.9239 123.57 53.2174C123.888 52.3869 124.009 52.0377 123.783 51.7447C123.409 51.2582 122.651 51.2766 121.918 51.2951C121.189 51.3127 120.433 51.3312 120.101 50.7963C119.719 50.1822 119.76 48.9963 120.197 48.0391C120.611 47.1302 121.32 46.5241 122.193 46.3332C122.729 46.2161 122.947 46.3314 123.177 46.4942C123.457 46.6939 123.842 46.9666 127.381 45.3399C127.948 45.0795 128.388 45.032 128.724 45.1956C129.198 45.4261 129.301 45.9997 129.377 46.4185C129.395 46.5223 129.42 46.6552 129.445 46.7335C131.474 45.8079 132.065 45.5695 133.201 45.6628C134.048 45.7323 135.831 46.8681 135.746 47.9168C135.612 49.5839 135.092 50.2209 134.589 50.8376C134.15 51.3752 133.737 51.8828 133.521 53.0855C133.201 54.8618 132.788 55.6527 131.941 56.1084C131.504 56.3433 131.068 56.199 130.682 56.0706C130.329 55.9536 129.996 55.8418 129.662 55.9914C129.2 56.1981 129.099 56.741 128.983 57.3691C128.872 57.9656 128.746 58.6413 128.257 59.1208C128.03 59.3425 127.322 59.8756 125.781 59.8756H125.78ZM122.331 50.901C123.01 50.901 123.7 50.9793 124.115 51.5168C124.477 51.9875 124.28 52.4995 123.954 53.3485C123.688 54.0436 123.323 54.9946 123.028 56.4286C122.895 57.0788 122.815 57.7598 122.749 58.3475C122.711 58.6914 122.937 59.0108 123.288 59.1067C125.828 59.8044 127.368 59.4331 127.962 58.8524C128.366 58.4583 128.474 57.8706 128.58 57.3023C128.704 56.6292 128.833 55.9342 129.487 55.6421C129.972 55.4248 130.422 55.5735 130.817 55.7055C131.164 55.8207 131.463 55.9201 131.738 55.7723C132.359 55.4389 132.782 54.882 133.117 53.0213C133.351 51.7236 133.816 51.1535 134.266 50.6027C134.754 50.0045 135.214 49.4405 135.339 47.8886C135.401 47.1188 133.835 46.1035 133.167 46.049C132.123 45.9628 131.601 46.1801 129.557 47.1135C129.419 47.1769 129.311 47.1434 129.259 47.1179C129.072 47.0273 129.032 46.7994 128.975 46.4845C128.911 46.1273 128.831 45.683 128.539 45.5405C128.328 45.4384 128 45.4877 127.562 45.6892C123.799 47.4188 123.358 47.1074 122.933 46.8047C122.781 46.6974 122.68 46.6252 122.287 46.7115C121.335 46.92 120.83 47.6326 120.574 48.193C120.147 49.1317 120.178 50.1549 120.456 50.6019C120.666 50.9397 121.27 50.9247 121.909 50.9098C122.048 50.9063 122.191 50.9027 122.333 50.9027L122.331 50.901Z" fill="white"/>
<path d="M128.482 50.8198L128.18 51.6608C128.038 52.0567 127.925 52.4614 127.842 52.8714C127.686 53.6412 127.364 54.9539 127.192 55.6938C126.638 58.0727 123.306 56.0976 123.306 56.0976L122.996 55.5178L122.58 55.4307C122.5 55.414 122.422 55.3814 122.361 55.3286C122.21 55.1967 122.173 54.9952 122.253 54.8298C122.693 53.9236 123.588 51.9028 123.737 50.1951C123.737 50.1951 126.12 49.1851 128.482 50.8206V50.8198Z" fill="white"/>
<path d="M125.715 57.0582C124.56 57.0582 123.262 56.299 123.196 56.2603C123.165 56.2418 123.139 56.2154 123.123 56.1837L122.856 55.6858L122.534 55.6189C122.412 55.5934 122.303 55.5424 122.221 55.4702C122.009 55.2864 121.947 54.996 122.066 54.7488C122.457 53.9421 123.382 51.8825 123.531 50.1784C123.538 50.108 123.584 50.0464 123.652 50.0182C123.753 49.9751 126.171 48.9819 128.602 50.664C128.674 50.7141 128.703 50.8021 128.675 50.8822L128.373 51.7233C128.234 52.1086 128.123 52.508 128.041 52.9083C127.928 53.4696 127.723 54.3283 127.559 55.0189C127.496 55.2855 127.437 55.5318 127.389 55.7359C127.25 56.3368 126.931 56.7398 126.443 56.9333C126.217 57.0231 125.969 57.06 125.714 57.06L125.715 57.0582ZM123.461 55.9594C123.753 56.123 125.326 56.9562 126.286 56.5752C126.649 56.431 126.879 56.1292 126.991 55.6515C127.038 55.4474 127.097 55.2002 127.161 54.9327C127.325 54.2447 127.528 53.3896 127.641 52.8344C127.726 52.4165 127.842 52.0004 127.986 51.5974L128.24 50.8927C126.318 49.6382 124.398 50.1687 123.928 50.3297C123.752 52.003 122.924 53.9078 122.438 54.9089C122.393 55.0031 122.417 55.1148 122.498 55.1852C122.528 55.2107 122.57 55.2301 122.623 55.2406L123.039 55.3277C123.098 55.34 123.15 55.3779 123.178 55.4298L123.461 55.9603V55.9594Z" fill="black"/>
<path d="M128.337 53.6071C128.337 53.6071 129.06 51.5845 129.959 52.0878C130.857 52.591 130.003 54.7992 128.337 53.6071Z" fill="white"/>
<path d="M5.04419 144.786L3.90625 151.367L7.52401 151.727L8.9199 145.544L5.04419 144.786Z" fill="white"/>
<path d="M7.52476 151.92C7.51731 151.92 7.51079 151.92 7.50334 151.919L3.88464 151.56C3.82877 151.554 3.77755 151.527 3.7431 151.485C3.70864 151.443 3.69468 151.389 3.70399 151.336L4.84286 144.755C4.85217 144.703 4.8829 144.656 4.92853 144.626C4.97416 144.596 5.03097 144.586 5.08591 144.596L8.96069 145.354C9.01377 145.364 9.06033 145.394 9.09012 145.437C9.11992 145.48 9.13017 145.533 9.11899 145.583L7.72403 151.766C7.70355 151.856 7.61974 151.92 7.52476 151.92ZM4.14259 151.196L7.36272 151.516L8.67667 145.692L5.21162 145.015L4.14259 151.196V151.196Z" fill="black"/>
<path d="M7.89904 150.3C6.72384 150.763 5.36893 150.49 4.49452 149.616L4.0345 149.156C3.87526 148.997 3.60056 149.019 3.47205 149.202L0.97081 152.778C0.521966 153.364 0.598325 154.244 1.15705 154.744C1.88433 155.395 2.99154 156.272 4.3269 156.97C6.84583 158.285 9.04257 161.126 11.5941 160.404C14.1456 159.681 14.0106 159.568 14.29 158.801C14.5693 158.034 13.3243 156.478 11.2635 154.746C10.0036 153.687 8.7632 151.381 8.36837 150.482C8.29201 150.309 8.08155 150.228 7.8981 150.3H7.89904Z" fill="white"/>
<path d="M10.773 160.712C9.26719 160.712 7.86944 159.673 6.5108 158.663C5.77235 158.114 5.00875 157.546 4.2284 157.139C2.85579 156.422 1.72436 155.516 1.01664 154.884C0.390867 154.323 0.295883 153.328 0.805257 152.663L3.30184 149.094C3.39775 148.958 3.5514 148.871 3.72368 148.857C3.89688 148.842 4.06357 148.902 4.18277 149.022L4.64279 149.482C5.45294 150.293 6.72963 150.55 7.81915 150.121C7.9579 150.066 8.11155 150.065 8.2503 150.119C8.38999 150.173 8.49894 150.276 8.55667 150.407C8.96734 151.34 10.2031 153.594 11.3987 154.6C12.7248 155.714 14.888 157.75 14.4829 158.861C14.4634 158.914 14.4466 158.964 14.4298 159.012C14.1793 159.734 14.0424 159.91 11.652 160.587C11.354 160.671 11.0607 160.709 10.7711 160.709L10.773 160.712ZM3.77396 149.242C3.76838 149.242 3.76372 149.242 3.76 149.242C3.73206 149.244 3.67991 149.256 3.64359 149.307L1.14236 152.882C0.743797 153.402 0.816431 154.17 1.2988 154.602C1.98883 155.22 3.09232 156.102 4.42674 156.8C5.23597 157.223 6.0126 157.8 6.76409 158.358C8.37323 159.554 9.8939 160.683 11.5366 160.218C13.8059 159.576 13.8469 159.458 14.0424 158.893C14.0592 158.844 14.0778 158.793 14.0974 158.737C14.2799 158.238 13.5955 156.965 11.1278 154.89C9.77843 153.756 8.5157 151.32 8.17953 150.556C8.1637 150.52 8.1339 150.493 8.09572 150.478C8.05754 150.463 8.01471 150.463 7.97653 150.478C6.73057 150.968 5.27135 150.675 4.3448 149.748L3.88478 149.288C3.8466 149.249 3.8019 149.242 3.7721 149.242H3.77396Z" fill="black"/>
<path d="M7.32622 154.24C7.2452 154.24 7.16884 154.194 7.13625 154.119C7.09341 154.021 7.14463 153.908 7.24893 153.868L9.62073 152.958C9.72502 152.918 9.84422 152.965 9.88705 153.064C9.92989 153.163 9.87867 153.276 9.77438 153.316L7.40258 154.226C7.37743 154.235 7.35136 154.24 7.32529 154.24H7.32622Z" fill="black"/>
<path d="M8.25023 155.608C8.17014 155.608 8.09285 155.562 8.06119 155.487C8.01836 155.389 8.06864 155.275 8.17294 155.236L10.6863 154.267C10.7906 154.227 10.9098 154.274 10.9526 154.373C10.9954 154.471 10.9452 154.585 10.8409 154.624L8.32752 155.593C8.30238 155.603 8.2763 155.607 8.25023 155.607V155.608Z" fill="black"/>
<path d="M14.2154 158.98C14.2154 158.98 12.9135 160.709 10.064 159.25C8.16528 158.278 0.981905 152.726 0.981905 152.726L0.386859 153.509C0.0860776 153.906 0.158712 154.459 0.553547 154.777C2.33682 156.217 7.12232 159.929 9.8694 160.625C13.2925 161.493 14.2144 158.98 14.2144 158.98H14.2154Z" fill="white"/>
<path d="M11.2189 161C10.8026 161 10.337 160.944 9.81739 160.812C7.05169 160.111 2.32485 156.461 0.42145 154.924C-0.0506754 154.542 -0.139141 153.872 0.22217 153.397L0.816284 152.613C0.848876 152.57 0.899162 152.541 0.955966 152.534C1.01091 152.527 1.06864 152.542 1.11241 152.576C1.18411 152.632 8.30231 158.128 10.1619 159.08C12.8215 160.441 14.0367 158.884 14.0488 158.868C14.1075 158.79 14.2183 158.765 14.3086 158.809C14.399 158.853 14.4418 158.953 14.4083 159.043C14.3999 159.066 13.6577 161 11.2189 161ZM1.02115 153.006L0.553682 153.623C0.316223 153.936 0.374889 154.379 0.686845 154.631C2.56976 156.151 7.23793 159.76 9.92355 160.44C11.7999 160.915 12.8736 160.344 13.4473 159.769C12.7218 160.088 11.569 160.241 9.96731 159.421C8.21384 158.523 2.14326 153.869 1.02208 153.006H1.02115Z" fill="black"/>
<path d="M24.6298 145.902L22.9741 154.993L26.9774 156.822L29.1071 146.929L24.6298 145.902Z" fill="white"/>
<path d="M26.9777 157.015C26.947 157.015 26.9172 157.009 26.8883 156.996L22.885 155.167C22.8031 155.129 22.7574 155.046 22.7723 154.96L24.4271 145.87C24.4364 145.817 24.469 145.77 24.5165 145.741C24.564 145.712 24.6226 145.702 24.6767 145.715L29.1539 146.741C29.261 146.765 29.3281 146.865 29.3057 146.967L27.176 156.86C27.163 156.918 27.123 156.968 27.0662 156.994C27.0373 157.008 27.0066 157.015 26.9758 157.015L26.9777 157.015ZM23.2025 154.882L26.8296 156.54L28.8681 147.072L24.794 146.139L23.2025 154.882Z" fill="black"/>
<path d="M22.369 154.373C22.2396 155.243 22.031 156.855 22.0133 158.302C22.0021 159.21 22.7201 159.976 23.6681 160.091C26.3481 160.418 32.4271 160.776 37.6055 160.329C37.9603 160.298 38.587 160.052 38.7612 159.211C39.3469 156.387 34.1768 155.695 28.5076 153.647C28.285 153.567 28.0345 153.614 27.8632 153.771L27.2523 154.333C26.6405 154.896 25.7335 155.055 24.9504 154.738L23.0907 153.985C22.7741 153.856 22.4165 154.049 22.3681 154.372L22.369 154.373Z" fill="white"/>
<path d="M32.2099 160.733C28.7281 160.733 25.481 160.507 23.6418 160.283C22.5849 160.155 21.7971 159.301 21.8092 158.3C21.8269 156.832 22.0411 155.193 22.1668 154.347C22.1985 154.132 22.3316 153.948 22.5309 153.841C22.7293 153.736 22.963 153.723 23.1725 153.809L25.0321 154.562C25.7408 154.849 26.5575 154.705 27.1106 154.196L27.7224 153.634C27.9487 153.426 28.2858 153.36 28.5819 153.467C29.9052 153.946 31.1772 154.342 32.4074 154.725C36.3408 155.952 39.4473 156.92 38.964 159.25C38.7834 160.119 38.1306 160.479 37.6259 160.522C35.8668 160.674 34.0081 160.734 32.2118 160.734L32.2099 160.733ZM22.8857 154.139C22.8326 154.139 22.7795 154.153 22.7311 154.178C22.6436 154.225 22.5849 154.306 22.571 154.401C22.4462 155.237 22.2348 156.858 22.2171 158.304C22.2078 159.11 22.8419 159.796 23.6931 159.9C26.4634 160.238 32.4493 160.58 37.5858 160.137C37.7171 160.126 38.3829 160.026 38.5599 159.175C38.9743 157.18 36.1648 156.305 32.277 155.092C31.0431 154.708 29.7664 154.309 28.4339 153.828C28.2858 153.774 28.1182 153.807 28.0055 153.911L27.3946 154.473C26.7223 155.092 25.7306 155.266 24.8692 154.917L23.0096 154.164C22.9695 154.148 22.9267 154.139 22.8848 154.139H22.8857Z" fill="black"/>
<path d="M22.017 158.084C22.017 158.084 22.0142 158.231 22.0133 158.302C22.0021 159.209 22.7201 159.976 23.6681 160.091C26.3481 160.418 32.4271 160.775 37.6055 160.329C37.9603 160.298 38.587 160.052 38.7612 159.211C38.8143 158.953 38.7817 158.489 38.7817 158.489L38.4148 158.507C33.1823 158.752 27.9377 158.632 22.7238 158.149L22.018 158.084H22.017Z" fill="white"/>
<path d="M32.2099 160.733C28.7291 160.733 25.481 160.507 23.6418 160.283C22.5849 160.154 21.7971 159.301 21.8092 158.3C21.8092 158.229 21.8129 158.081 21.8129 158.081C21.8139 158.027 21.839 157.976 21.8819 157.94C21.9247 157.904 21.9796 157.886 22.0374 157.893L22.7432 157.958C27.931 158.438 33.1998 158.558 38.4044 158.314L38.7722 158.296C38.8905 158.292 38.9789 158.371 38.9864 158.477C38.9882 158.497 39.0199 158.97 38.9622 159.249C38.7815 160.118 38.1287 160.478 37.624 160.521C35.8649 160.673 34.0062 160.733 32.2099 160.733ZM22.218 158.297V158.304C22.2087 159.11 22.8429 159.796 23.694 159.9C26.4644 160.238 32.4502 160.58 37.5868 160.137C37.7181 160.125 38.3839 160.026 38.5608 159.175C38.5869 159.049 38.5897 158.849 38.586 158.692L38.4249 158.7C33.1998 158.945 27.9105 158.825 22.7032 158.343L22.2171 158.298L22.218 158.297Z" fill="black"/>
<path d="M29.8089 156.89C29.7567 156.89 29.7046 156.872 29.6646 156.834C29.5845 156.759 29.5845 156.636 29.6646 156.56L31.6536 154.67C31.7337 154.594 31.8631 154.594 31.9432 154.67C32.0233 154.745 32.0233 154.868 31.9432 154.943L29.9542 156.834C29.9141 156.872 29.862 156.891 29.8089 156.891V156.89Z" fill="black"/>
<path d="M31.762 157.087C31.7108 157.087 31.6605 157.069 31.6205 157.033C31.5386 156.959 31.5358 156.837 31.614 156.759L33.2036 155.191C33.2818 155.113 33.4112 155.111 33.4932 155.185C33.5751 155.258 33.5779 155.381 33.4997 155.458L31.9101 157.027C31.8701 157.066 31.8161 157.087 31.762 157.087Z" fill="black"/>
<path d="M18.6368 93.714C18.7579 94.2129 17.7857 98.0654 18.0856 101.118C18.5642 106.002 17.7391 108.569 15.2938 114.078C12.922 119.422 7.26766 124.533 3.78213 145.794C3.60706 146.86 4.4824 147.821 5.62313 147.821H8.50989C9.21948 147.821 9.86667 147.441 10.1805 146.84C12.0336 143.294 17.7596 132.806 20.002 128.872C22.6355 124.25 30.1606 112.677 30.5368 107.167C30.8916 101.973 30.4102 94.5569 30.3543 93.7246C30.3515 93.6806 30.3133 93.6463 30.2668 93.6445L18.6368 93.7131V93.714Z" fill="black"/>
<path d="M34.8325 92.293C34.8325 92.293 41.8371 105.647 37.9521 121.871C35.1417 133.605 31.1086 146.693 29.8068 150.426C29.5516 151.157 28.8318 151.653 28.0179 151.658L24.8648 151.681C23.7269 151.689 22.8357 150.757 22.9623 149.688C23.6943 143.502 25.9357 123.476 25.6917 118.643C25.2894 110.678 23.1123 107.417 22.6094 101.815C22.0609 95.7109 23.4736 92.5367 23.4736 92.5367L34.8334 92.293H34.8325Z" fill="black"/>
<path d="M36.9847 101.696C33.2617 101.696 32.1889 98.5773 32.1787 98.5447C32.1452 98.4426 32.2057 98.3344 32.3128 98.3028C32.4208 98.2711 32.5353 98.3274 32.5689 98.4295C32.6108 98.5544 33.6286 101.478 37.2929 101.302C37.4074 101.298 37.5015 101.378 37.508 101.485C37.5136 101.591 37.427 101.682 37.3143 101.687C37.2026 101.693 37.0927 101.695 36.9856 101.695L36.9847 101.696Z" fill="white"/>
<path d="M25.4958 120.487C25.4903 120.487 25.4847 120.487 25.4791 120.487C25.3664 120.478 25.2826 120.386 25.291 120.279C25.6784 115.669 24.5665 112.007 23.4919 108.467C22.5998 105.53 21.758 102.755 21.7607 99.5638C21.7607 99.4573 21.852 99.3711 21.9656 99.3711C22.0783 99.3711 22.1705 99.4582 22.1705 99.5646C22.1677 102.701 23.0021 105.45 23.8858 108.361C24.9706 111.934 26.0918 115.629 25.6998 120.31C25.6914 120.411 25.602 120.488 25.4958 120.488V120.487Z" fill="white"/>
<path d="M31.2324 34.3299C31.4056 34.0228 31.6021 33.6524 31.7091 33.0111L32.6674 28.0649C32.7372 27.7042 32.4932 27.355 32.1142 27.2749C31.7212 27.1913 31.3311 27.428 31.2482 27.801L30.8226 29.7057C30.7751 30.0964 30.2676 30.267 29.9743 29.9873C29.0431 29.0978 28.8196 26.4532 28.8196 26.4532C28.8196 26.4532 28.8494 25.4344 28.5365 25.1247L28.4536 25.0447C28.1249 24.7271 27.5327 24.8766 27.3781 25.3165L25.9086 29.5878C25.7159 30.1342 25.727 30.7148 25.9412 31.2322L26.9339 33.5469C27.1304 34.1126 26.2737 36.2302 25.1264 38.6558C22.0459 45.1705 20.4647 52.2299 20.5672 59.3649C20.6445 64.7395 20.8028 69.9883 21.1259 70.276C21.8262 70.8989 28.0821 65.0078 28.8075 64.4114C28.8876 64.3454 27.9806 55.8766 28.3475 48.2955C28.638 42.3016 30.2211 36.8258 30.2658 36.7563L31.2314 34.3299H31.2324Z" fill="white"/>
<path d="M21.2515 70.5071C21.1398 70.5071 21.0522 70.4764 20.9861 70.4174C20.8334 70.2819 20.5159 69.9986 20.3622 59.3682C20.2598 52.2121 21.7991 45.2178 24.9391 38.5781C26.7075 34.8382 26.8258 33.859 26.7392 33.6082L25.7511 31.3058C25.5202 30.7463 25.5072 30.1155 25.7139 29.5278L27.1834 25.2573C27.2821 24.9767 27.5232 24.7699 27.8278 24.704C28.1136 24.6424 28.4014 24.7189 28.5997 24.9107L28.6817 24.9908C29.0309 25.3356 29.029 26.2409 29.0234 26.4486C29.0393 26.6228 29.2777 29.0492 30.1185 29.8524C30.1986 29.9281 30.3104 29.9527 30.4193 29.9175C30.5301 29.8815 30.6046 29.7944 30.6186 29.6844L31.047 27.7621C31.0991 27.5307 31.2425 27.3336 31.453 27.2052C31.6634 27.0776 31.913 27.0354 32.1579 27.0873C32.6458 27.1911 32.9578 27.6363 32.8675 28.1008L31.9093 33.0469C31.8031 33.6848 31.6094 34.0719 31.4185 34.4106L30.4575 36.8256C30.4575 36.8256 30.4556 36.8309 30.4547 36.8335C30.4119 36.9646 28.8456 42.2538 28.5522 48.3059C28.271 54.1133 28.7366 60.416 28.9359 63.1082C29.0036 64.0232 29.0054 64.5067 28.9415 64.5589C28.8186 64.6601 28.5252 64.9232 28.1211 65.2874C23.9772 69.0133 22.0291 70.508 21.2506 70.508L21.2515 70.5071ZM21.2729 70.1368C21.3549 70.1464 21.8438 70.0919 24.0545 68.2936C25.4168 67.1851 26.9338 65.8214 27.8399 65.0067C28.19 64.6918 28.4573 64.4516 28.609 64.3214C28.6044 64.1534 28.5709 63.6941 28.529 63.1337C28.3297 60.4354 27.8622 54.1168 28.1444 48.2874C28.4275 42.4491 29.9044 37.1661 30.0785 36.6901H30.0757L31.0414 34.2619C31.0442 34.254 31.0479 34.2461 31.0525 34.239C31.236 33.9135 31.4092 33.5722 31.507 32.9809L32.4661 28.0295C32.5164 27.77 32.3423 27.521 32.0694 27.463C31.9335 27.4339 31.7929 27.4577 31.6755 27.5289C31.5582 27.6002 31.4772 27.7111 31.4483 27.8404L31.0227 29.7451C30.9939 29.9844 30.8132 30.1964 30.5534 30.2818C30.2964 30.3654 30.0189 30.3046 29.8289 30.1234C28.8567 29.1944 28.6249 26.5797 28.6156 26.4688C28.6156 26.4618 28.6156 26.4547 28.6156 26.4486C28.6267 26.0588 28.5634 25.4315 28.3893 25.2591L28.3083 25.1808C28.2095 25.0849 28.068 25.0488 27.9209 25.0805C27.756 25.1166 27.6257 25.2274 27.5735 25.3779L26.1041 29.6483C25.9271 30.1516 25.9365 30.6891 26.132 31.1624L27.1238 33.4754C27.2495 33.837 27.1936 34.7607 25.3135 38.7356C22.1976 45.3234 20.6704 52.264 20.772 59.3629C20.9014 68.3578 21.1593 69.9071 21.2729 70.1368Z" fill="black"/>
<path d="M34.4346 81.2345L27.795 66.3997C27.6619 58.0866 28.7477 52.6197 28.7477 52.6197L20.5623 51.8032L19.4979 54.0159C16.6177 60.0019 15.6976 65.9008 17.0721 72.9426C17.358 74.8403 18.0219 76.7397 18.279 79.292C18.9699 86.1631 17.7677 95.6726 17.7677 95.6726L37.4322 96.7724C37.868 90.4555 34.9849 85.3748 34.4355 81.2363L34.4346 81.2345Z" fill="white"/>
<path d="M37.4325 96.9645C37.4325 96.9645 37.4241 96.9645 37.4204 96.9645L17.756 95.8647C17.7001 95.8612 17.647 95.8366 17.6117 95.7961C17.5753 95.7556 17.5586 95.702 17.5651 95.6492C17.5772 95.5542 18.7561 86.0816 18.0754 79.3099C17.9236 77.7993 17.6331 76.5412 17.3518 75.3245C17.1637 74.5107 16.9868 73.7426 16.8695 72.9693C15.5304 66.1035 16.2828 60.2309 19.3121 53.9352L20.3764 51.7226C20.4127 51.6469 20.4928 51.6012 20.5841 51.61L28.7695 52.4264C28.8263 52.4317 28.8775 52.4598 28.9119 52.5029C28.9464 52.5461 28.9594 52.6006 28.9492 52.6543C28.938 52.7088 27.8718 58.1837 27.9993 66.3586L34.6231 81.1592C34.6305 81.1759 34.6352 81.1926 34.638 81.2102C34.8316 82.6663 35.3261 84.2692 35.8495 85.9663C36.8198 89.1124 37.9196 92.679 37.6365 96.7832C37.629 96.8853 37.5396 96.9636 37.4325 96.9636V96.9645ZM17.9953 95.4908L37.2398 96.5668C37.4716 92.6104 36.4017 89.1414 35.4565 86.0754C34.9313 84.3739 34.4359 82.7657 34.2357 81.2859L27.6073 66.4756C27.5971 66.4528 27.5915 66.4281 27.5915 66.4035C27.4741 59.0564 28.3178 53.8657 28.5096 52.7906L20.6884 52.0103L19.6845 54.0953C16.6925 60.3145 15.9485 66.1167 17.2736 72.9068C17.3891 73.6731 17.5651 74.435 17.7513 75.2418C18.0214 76.4119 18.3287 77.7386 18.4823 79.2729C19.1118 85.5317 18.1629 94.0691 17.9953 95.4908Z" fill="black"/>
<path d="M18.2134 74.4883L24.4376 75.4622L26.7181 79.1573C28.7463 82.4441 30.5147 85.8727 31.9106 89.441C33.0131 92.2607 34.694 94.9819 36.575 97.2605L27.3942 98.1166L18.2134 97.1963C19.3029 90.7414 19.5413 84.1844 18.9239 77.6757C18.8634 77.0414 18.7423 76.4132 18.5728 75.7974L18.2134 74.4892V74.4883Z" fill="black"/>
<path d="M35.3334 92.5512C40.3191 95.2847 52.6866 97.6293 53.0041 98.122C54.3162 100.16 58.8698 101.269 61.6188 101.152C62.1868 101.128 62.36 100.416 61.8628 100.155C61.0237 99.7135 59.9007 98.9683 58.6519 97.726C58.5951 97.6689 58.651 97.5765 58.732 97.5914C59.0645 97.6521 59.6614 97.7401 60.1819 97.7049C60.885 97.6565 61.4605 97.3504 60.8235 97.0803C58.5383 96.1099 57.1657 95.9023 56.4599 95.882C55.8481 95.8644 55.2418 95.78 54.6552 95.6155C52.3746 94.9732 48.6479 93.4081 45.5367 92.0242C42.0512 90.474 39.6757 87.5874 37.8151 84.4C35.6398 80.6732 35.0001 76.9395 35.0001 76.9395L26.9199 79.643C26.9199 79.643 28.8028 88.9722 35.3344 92.5529L35.3334 92.5512Z" fill="white"/>
<path d="M61.225 101.353C58.4425 101.353 54.1478 100.238 52.8404 98.2389C52.6085 98.0796 50.9034 97.6485 49.0987 97.1928C44.8841 96.1283 38.5155 94.5192 35.2311 92.7191C28.6949 89.1358 26.7375 79.7731 26.7189 79.679C26.7003 79.5849 26.7561 79.4925 26.8511 79.4608L34.9313 76.7573C34.9881 76.7379 35.0514 76.7441 35.1035 76.7731C35.1557 76.8021 35.1911 76.8523 35.2013 76.9086C35.2078 76.9455 35.8615 80.6547 37.994 84.3067C40.2261 88.1302 42.6501 90.5267 45.6235 91.849C48.4813 93.1203 52.3775 94.7725 54.714 95.4297C55.2624 95.5837 55.8519 95.6708 56.4665 95.6884C57.2394 95.7104 58.6372 95.9391 60.9075 96.9034C61.2753 97.06 61.3228 97.2509 61.2986 97.3837C61.2371 97.711 60.6672 97.865 60.1969 97.8966C59.8096 97.923 59.3831 97.8843 59.0515 97.8386C60.0051 98.75 60.9829 99.4714 61.9616 99.9861C62.2717 100.149 62.4188 100.465 62.3378 100.789C62.2577 101.111 61.9783 101.33 61.6273 101.345C61.4969 101.35 61.3619 101.352 61.2241 101.352L61.225 101.353ZM35.436 92.3839C38.6729 94.1584 45.0107 95.7597 49.204 96.8189C52.3012 97.6019 53.0396 97.806 53.1784 98.0216C54.4588 100.009 58.9528 101.072 61.6096 100.959C61.8079 100.95 61.9104 100.82 61.9402 100.701C61.97 100.58 61.9402 100.417 61.7632 100.325C60.6616 99.7459 59.5656 98.9163 58.5031 97.8597C58.4165 97.7735 58.3988 97.645 58.4602 97.5403C58.5217 97.4347 58.6474 97.3793 58.7713 97.4022C59.0767 97.4585 59.6643 97.5474 60.1681 97.5122C60.5331 97.4867 60.7911 97.3916 60.8749 97.3292C60.8525 97.3116 60.8115 97.2869 60.7398 97.2562C58.531 96.3183 57.1901 96.0957 56.4535 96.0755C55.8025 96.057 55.1777 95.9646 54.5966 95.801C52.236 95.1368 48.3193 93.4757 45.4493 92.1992C42.394 90.8408 39.9114 88.3915 37.6355 84.4932C35.7722 81.3022 35.0197 78.0672 34.8419 77.1971L27.1566 79.7687C27.4462 81.0198 29.5321 89.1481 35.4369 92.3857L35.436 92.3839Z" fill="black"/>
<path d="M25.4887 64.5919C26.7347 64.3025 28.0263 64.3069 29.0338 64.4758C30.6495 64.7468 32.1711 65.4902 33.2997 66.9022C35.4415 69.5812 37.9688 79.5517 37.9688 79.5517L26.1853 83.3436C26.1853 83.3436 23.7604 79.0441 22.2891 74.7481L25.4896 64.5919H25.4887Z" fill="white"/>
<path d="M26.1852 83.537C26.1116 83.537 26.0408 83.4992 26.0045 83.435C25.9803 83.3919 23.5545 79.0713 22.0943 74.8087C22.0599 74.7076 22.1185 74.5985 22.2256 74.565C22.3327 74.5316 22.4482 74.5879 22.4827 74.6891C23.7817 78.4809 25.8518 82.3212 26.2848 83.1077L37.7257 79.4258C37.3802 78.0973 35.0754 69.4447 33.1367 67.0191C32.1198 65.7479 30.7276 64.9561 28.9984 64.6666C28.8875 64.6481 28.813 64.5478 28.8326 64.4423C28.8522 64.3376 28.9564 64.2672 29.0701 64.2857C30.8785 64.5883 32.3973 65.4531 33.4635 66.786C35.6062 69.4667 38.0646 79.0977 38.1689 79.5068C38.1932 79.6035 38.1363 79.7029 38.0358 79.7346L26.2522 83.5265C26.2308 83.5335 26.2084 83.537 26.1861 83.537H26.1852Z" fill="black"/>
<path d="M26.8886 64.072C26.8886 64.072 15.2103 63.889 21.7977 76.3722L18.95 76.9379C18.95 76.9379 15.6153 67.9589 18.4267 64.4961C21.1887 61.0948 25.8699 62.3819 25.8699 62.3819L26.8886 64.072Z" fill="black"/>
<path d="M35.0246 68.8511C35.0246 68.8511 23.0837 64.9035 23.9283 78.8295L21.2222 77.414C21.2222 77.414 21.3535 68.844 26.0179 66.9736C30.9608 64.9915 33.9323 66.4519 33.9323 66.4519L35.0246 68.8519V68.8511Z" fill="black"/>
<path d="M29.0395 64.4087L28.4742 61.6339C28.4603 61.3788 28.6195 61.1439 28.8691 61.0515L30.7501 60.3732C30.9894 60.2843 31.1375 60.0547 31.1124 59.811L30.8796 57.5983L31.6022 56.9526C31.659 56.9016 31.6627 56.818 31.6106 56.7626L30.3804 55.4543C29.9753 54.9581 29.5423 53.7519 29.2304 53.8461C29.2304 53.8461 22.4856 53.3446 22.2789 56.5347C22.2491 56.9966 22.4139 57.4514 22.7128 57.8174L23.3377 58.5846C23.9653 59.3553 24.3164 60.3133 24.2465 61.2855C24.2326 61.4879 24.0025 62.7926 23.848 63.6556C23.7604 64.1457 23.4894 64.5882 23.0834 64.904C22.5731 65.3008 21.9529 65.8058 22.0582 65.834C22.0582 65.834 22.7929 66.4349 23.9839 66.8492C26.0996 67.5856 28.7648 67.3639 30.6495 66.1947C30.6495 66.1947 29.0441 64.9533 29.0395 64.4096V64.4087Z" fill="white"/>
<path d="M26.5827 67.4625C25.6654 67.4625 24.75 67.3208 23.9129 67.0296C22.7004 66.6073 21.9555 66.0047 21.9238 65.9791C21.8856 65.9484 21.8558 65.9061 21.8465 65.8621C21.8167 65.731 21.8 65.6519 22.9537 64.7536C23.3216 64.4677 23.5674 64.0656 23.6465 63.6222C23.8887 62.2735 24.033 61.4166 24.0432 61.2714C24.1066 60.3793 23.7983 59.4661 23.1763 58.7016L22.5514 57.9344C22.2125 57.5183 22.0439 57.0168 22.0756 56.5215C22.1175 55.8749 22.4108 55.3241 22.9481 54.8825C24.7593 53.3948 28.7794 53.62 29.2152 53.649C29.5467 53.5918 29.7935 54.0405 30.0999 54.6036C30.2488 54.8772 30.4016 55.1605 30.544 55.3347L31.7649 56.6323C31.8906 56.767 31.8813 56.9675 31.7434 57.0907L31.0935 57.6714L31.316 59.7899C31.3505 60.1189 31.1484 60.4321 30.8253 60.5518L28.9433 61.2301C28.7803 61.2899 28.6751 61.4421 28.6788 61.6101L29.2413 64.3709C29.2431 64.3823 29.245 64.3938 29.245 64.4061C29.2478 64.6859 30.044 65.4741 30.7796 66.0434C30.8299 66.0821 30.8579 66.1419 30.8541 66.2035C30.8504 66.2651 30.816 66.3214 30.7619 66.3548C29.5896 67.0824 28.0838 67.4625 26.5827 67.4625ZM22.3261 65.7865C22.584 65.9703 23.2014 66.3698 24.0544 66.6663C26.0565 67.363 28.528 67.1589 30.3029 66.1692C29.8242 65.7794 28.866 64.9366 28.8362 64.429L28.2737 61.6682C28.2719 61.6594 28.271 61.6506 28.27 61.6418C28.2514 61.3022 28.4619 60.9917 28.7943 60.8685L30.6763 60.1902C30.8281 60.1339 30.924 59.9843 30.9072 59.8277L30.6744 57.6151C30.6679 57.5552 30.6912 57.4963 30.7377 57.4558L31.4185 56.8479L30.2274 55.581C30.0533 55.3681 29.8913 55.0699 29.7339 54.7804C29.597 54.5279 29.3716 54.1118 29.2552 54.0361C29.2413 54.0379 29.2282 54.0379 29.2143 54.0361C29.1724 54.0335 24.9614 53.7396 23.2154 55.1737C22.7582 55.5493 22.5188 55.998 22.4835 56.5444C22.4574 56.9464 22.5961 57.3555 22.8755 57.6978L23.5003 58.4649C24.1839 59.3042 24.5219 60.3098 24.452 61.2961C24.4371 61.5011 24.2258 62.7081 24.0507 63.6856C23.9548 64.2205 23.6577 64.7052 23.2145 65.051C22.6827 65.4654 22.4388 65.6783 22.327 65.7856L22.3261 65.7865Z" fill="black"/>
<path d="M29.2714 49.0002C27.7377 48.9782 29.7295 50.3929 24.0016 49.0556C21.7202 48.5224 22.9745 50.97 22.3822 50.8336C20.1958 50.3286 20.2703 50.3436 19.2282 50.6489C18.5382 50.8512 18.1396 52.09 18.3128 52.9961C18.5419 54.1926 20.6176 56.5742 22.2249 58.3936C23.0527 59.3306 24.8434 59.3631 25.0865 57.8648C25.1535 57.4513 23.915 56.612 24.3946 55.9469C25.2765 54.7249 25.9367 56.4537 26.7683 55.9153C27.5663 55.3988 27.8913 55.0707 28.7257 54.3017C29.736 53.3709 31.5417 54.7047 32.0697 52.6697C32.3453 51.6087 31.3703 49.031 29.2714 49.0002Z" fill="black"/>
<path d="M49.964 14.7586C48.704 14.7586 47.6797 13.79 47.6797 12.6005C47.6797 11.411 48.704 10.4424 49.964 10.4424C51.2239 10.4424 52.2482 11.411 52.2482 12.6005C52.2482 13.79 51.223 14.7586 49.964 14.7586ZM49.964 10.8277C48.9294 10.8277 48.0885 11.6222 48.0885 12.5996C48.0885 13.577 48.9294 14.3715 49.964 14.3715C50.9985 14.3715 51.8394 13.577 51.8394 12.5996C51.8394 11.6222 50.9976 10.8277 49.964 10.8277Z" fill="black"/>
<path d="M69.8778 3.88438C69.8256 3.88438 69.7735 3.8659 69.7334 3.82807L68.8413 2.98612C68.7612 2.91046 68.7612 2.78817 68.8413 2.71251C68.9214 2.63685 69.0508 2.63685 69.1309 2.71251L70.023 3.55446C70.1031 3.63012 70.1031 3.75241 70.023 3.82807C69.983 3.8659 69.9308 3.88438 69.8787 3.88438H69.8778Z" fill="black"/>
<path d="M73.0003 6.83213C72.9482 6.83213 72.896 6.81366 72.856 6.77582L71.9639 5.93387C71.8838 5.85821 71.8838 5.73592 71.9639 5.66026C72.044 5.5846 72.1734 5.5846 72.2535 5.66026L73.1456 6.50221C73.2257 6.57787 73.2257 6.70016 73.1456 6.77582C73.1055 6.81366 73.0534 6.83213 73.0012 6.83213H73.0003Z" fill="black"/>
<path d="M68.9857 6.83213C68.9335 6.83213 68.8814 6.81366 68.8413 6.77582C68.7612 6.70016 68.7612 6.57787 68.8413 6.50221L69.7334 5.66026C69.8135 5.5846 69.9429 5.5846 70.023 5.66026C70.1031 5.73592 70.1031 5.85821 70.023 5.93387L69.1309 6.77582C69.0909 6.81366 69.0387 6.83213 68.9866 6.83213H68.9857Z" fill="black"/>
<path d="M72.1082 3.88438C72.0561 3.88438 72.0039 3.8659 71.9639 3.82807C71.8838 3.75241 71.8838 3.63012 71.9639 3.55446L72.856 2.71251C72.9361 2.63685 73.0655 2.63685 73.1456 2.71251C73.2257 2.78817 73.2257 2.91046 73.1456 2.98612L72.2535 3.82807C72.2134 3.8659 72.1613 3.88438 72.1091 3.88438H72.1082Z" fill="black"/>
<path d="M11.0755 16.0603C10.9628 16.0603 10.8706 15.974 10.8706 15.8667V14.6755C10.8706 14.569 10.9619 14.4819 11.0745 14.4819C11.1872 14.4819 11.2794 14.5682 11.2794 14.6755V15.8667C11.2794 15.9732 11.1881 16.0603 11.0755 16.0603Z" fill="black"/>
<path d="M11.0774 20.2307C10.9647 20.2307 10.8726 20.1445 10.8726 20.0371V18.8459C10.8726 18.7394 10.9638 18.6523 11.0765 18.6523C11.1892 18.6523 11.2814 18.7386 11.2814 18.8459V20.0371C11.2814 20.1436 11.1901 20.2307 11.0774 20.2307Z" fill="black"/>
<path d="M9.49889 17.5492H8.23709C8.12442 17.5492 8.03223 17.4621 8.03223 17.3557C8.03223 17.2492 8.12349 17.1621 8.23709 17.1621H9.49889C9.61156 17.1621 9.70375 17.2492 9.70375 17.3557C9.70375 17.4621 9.6125 17.5492 9.49889 17.5492Z" fill="black"/>
<path d="M13.9139 17.5507H12.6521C12.5395 17.5507 12.4473 17.4636 12.4473 17.3571C12.4473 17.2507 12.5385 17.1636 12.6521 17.1636H13.9139C14.0266 17.1636 14.1188 17.2507 14.1188 17.3571C14.1188 17.4636 14.0275 17.5507 13.9139 17.5507Z" fill="black"/>
<path d="M89.3159 113.859C87.4693 113.859 85.9673 112.44 85.9673 110.695C85.9673 108.95 87.4693 107.531 89.3159 107.531C91.1625 107.531 92.6646 108.95 92.6646 110.695C92.6646 112.44 91.1625 113.859 89.3159 113.859ZM89.3159 107.917C87.6947 107.917 86.3761 109.163 86.3761 110.695C86.3761 112.227 87.6947 113.472 89.3159 113.472C90.9372 113.472 92.2558 112.227 92.2558 110.695C92.2558 109.163 90.9372 107.917 89.3159 107.917Z" fill="black"/>
</svg>
